<svg id="レイヤー_1" data-name="レイヤー 1" xmlns="http://www.w3.org/2000/svg" viewBox="0 0 1920 1080"><defs><style>.cls-1,.cls-2{fill:#fff;}.cls-2,.cls-3,.cls-4,.cls-5,.cls-6,.cls-7{stroke:#000;stroke-miterlimit:10;}.cls-3,.cls-6{fill:none;}.cls-3{stroke-width:2px;}.cls-4{fill:#aae5ff;}.cls-5{fill:#fff1aa;}.cls-7{fill:#ffa49f;}</style></defs><rect class="cls-1" width="1920" height="1080"/><rect class="cls-2" x="995.5" y="210.5" width="115" height="98"/><rect class="cls-2" x="625.5" y="210.5" width="38" height="98"/><path class="cls-2" d="M1476.5,851.5c-7.65-1-15.38,5.2-16,14h-83v-20l-105,1v19h-96v-93h-29v-464h29v-98h272c.78,10.77,10.1,18.18,19,17,7.82-1,14.8-8.63,14-17-.53-5.55-4.4-10.51-10-13v-19h-327v-97h-34v97h-699v214h-14v53h14v454h697v93h39v-93h254v20h77v-41a14.22,14.22,0,0,0,10-13A14,14,0,0,0,1476.5,851.5Zm-366-483h-80v54h80l-.08,18.8-12.92,19.2h-18l-14,34v96l14,34h18l13,19-2,222h-450l-215-1v-654h667Z"/><rect class="cls-2" x="1386.5" y="210.5" width="44" height="98"/><rect class="cls-2" x="1176.5" y="210.5" width="94" height="98"/><rect class="cls-2" x="1002.5" y="772.5" width="106" height="93"/><rect class="cls-2" x="1377.5" y="772.5" width="43" height="93"/><rect class="cls-2" x="1176.5" y="772.5" width="96" height="93"/><rect class="cls-2" x="623.5" y="772.5" width="35" height="93"/><rect x="1036.5" y="243.5" width="29.5" height="29.5" rx="2"/><rect class="cls-3" x="1036.5" y="243.5" width="29.5" height="29.5" rx="2"/><rect class="cls-1" x="1050.49" y="247.65" width="1.38" height="21.76"/><path class="cls-1" d="M1044.05,251.28a1.82,1.82,0,1,0-1.82-1.82A1.82,1.82,0,0,0,1044.05,251.28Z"/><path class="cls-1" d="M1047.59,253.87c-.36-1.24-1.19-2.06-2.12-2.06h-2.84c-.93,0-1.75.82-2.12,2.06l-1.34,4.75a.75.75,0,0,0,.54.91.74.74,0,0,0,.9-.54l1.34-4.73h.39l-2.32,8.23h2.19v6.11a.85.85,0,1,0,1.69,0v-6.11h.46v6.11a.85.85,0,0,0,1.7,0v-6.11h2l-2.32-8.23h.39l1.34,4.73a.74.74,0,0,0,.9.54.75.75,0,0,0,.54-.91Z"/><path class="cls-1" d="M1058.57,251.28a1.82,1.82,0,1,0-1.82-1.82A1.81,1.81,0,0,0,1058.57,251.28Z"/><path class="cls-1" d="M1060.81,251.79H1056a2,2,0,0,0-1.84,1.84v6.11a.8.8,0,0,0,1.6,0v-5h.37v13.64a1,1,0,0,0,2.09,0v-7.92h.34v7.92a1.05,1.05,0,0,0,2.1,0V254.72h.36v5a.8.8,0,0,0,1.6,0v-6.11A2,2,0,0,0,1060.81,251.79Z"/><rect x="630.03" y="242.62" width="29.5" height="29.5" rx="2"/><rect class="cls-3" x="630.03" y="242.62" width="29.5" height="29.5" rx="2"/><polygon class="cls-1" points="649.32 248.29 649.32 253.18 643.89 253.18 643.89 258.07 638.46 258.07 638.46 262.95 634.29 262.95 634.29 265.47 640.97 265.47 640.97 260.58 646.4 260.58 646.4 255.69 651.83 255.69 651.83 250.8 656 250.8 656 248.29 649.32 248.29"/><rect x="1393.36" y="244.25" width="29.5" height="29.5" rx="2"/><rect class="cls-3" x="1393.36" y="244.25" width="29.5" height="29.5" rx="2"/><polygon class="cls-1" points="1412.65 249.92 1412.65 254.81 1407.22 254.81 1407.22 259.69 1401.8 259.69 1401.8 264.58 1397.62 264.58 1397.62 267.1 1404.31 267.1 1404.31 262.21 1409.73 262.21 1409.73 257.32 1415.16 257.32 1415.16 252.43 1419.33 252.43 1419.33 249.92 1412.65 249.92"/><rect x="1384.25" y="802.58" width="29.5" height="29.5" rx="2"/><rect class="cls-3" x="1384.25" y="802.58" width="29.5" height="29.5" rx="2"/><polygon class="cls-1" points="1403.54 808.25 1403.54 813.14 1398.11 813.14 1398.11 818.03 1392.68 818.03 1392.68 822.92 1388.51 822.92 1388.51 825.43 1395.2 825.43 1395.2 820.54 1400.62 820.54 1400.62 815.65 1406.05 815.65 1406.05 810.76 1410.22 810.76 1410.22 808.25 1403.54 808.25"/><rect x="626.58" y="803.92" width="29.5" height="29.5" rx="2"/><rect class="cls-3" x="626.58" y="803.92" width="29.5" height="29.5" rx="2"/><polygon class="cls-1" points="645.87 809.58 645.87 814.47 640.44 814.47 640.44 819.36 635.02 819.36 635.02 824.25 630.85 824.25 630.85 826.76 637.53 826.76 637.53 821.87 642.96 821.87 642.96 816.99 648.38 816.99 648.38 812.1 652.56 812.1 652.56 809.58 645.87 809.58"/><rect x="1040.69" y="804.58" width="29.5" height="29.5" rx="2"/><rect class="cls-3" x="1040.69" y="804.58" width="29.5" height="29.5" rx="2"/><rect class="cls-1" x="1054.68" y="808.73" width="1.38" height="21.76"/><path class="cls-1" d="M1048.25,812.36a1.82,1.82,0,1,0-1.82-1.81A1.81,1.81,0,0,0,1048.25,812.36Z"/><path class="cls-1" d="M1051.79,815c-.37-1.25-1.19-2.07-2.12-2.07h-2.85c-.92,0-1.75.82-2.12,2.07l-1.34,4.75a.75.75,0,0,0,.55.9.73.73,0,0,0,.9-.53l1.33-4.74h.4l-2.33,8.24h2.19v6.1a.85.85,0,1,0,1.69,0v-6.1h.47v6.1a.85.85,0,1,0,1.69,0v-6.1h2l-2.33-8.24h.4l1.33,4.74a.73.73,0,0,0,.9.53.75.75,0,0,0,.55-.9Z"/><path class="cls-1" d="M1062.77,812.36a1.82,1.82,0,1,0-1.82-1.81A1.81,1.81,0,0,0,1062.77,812.36Z"/><path class="cls-1" d="M1065,812.88h-4.77a2,2,0,0,0-1.84,1.84v6.11a.79.79,0,0,0,.8.79.79.79,0,0,0,.79-.79v-5h.37v13.64a1,1,0,0,0,2.1,0v-7.91h.33v7.91a1,1,0,1,0,2.1,0V815.8h.37v5a.8.8,0,0,0,1.59,0v-6.11A2,2,0,0,0,1065,812.88Z"/><rect x="1207.58" y="802.92" width="29.5" height="29.5" rx="2"/><rect class="cls-3" x="1207.58" y="802.92" width="29.5" height="29.5" rx="2"/><path class="cls-1" d="M1218.69,815.37a1.07,1.07,0,1,0,1.07,1.06A1.06,1.06,0,0,0,1218.69,815.37Z"/><path class="cls-1" d="M1225.22,815.37a1.07,1.07,0,1,0,1.07,1.06A1.06,1.06,0,0,0,1225.22,815.37Z"/><path class="cls-1" d="M1229,811.1h-14a2,2,0,0,0-2,1.95v15a2,2,0,0,0,2,2h14a2,2,0,0,0,2-2v-15A2,2,0,0,0,1229,811.1Zm-10.5,17.67a.25.25,0,0,0,0-.07l.21-4.9.22,4.9s0,0,0,.07Zm6.53,0s0,0,0-.07l.22-4.9.21,4.9a.25.25,0,0,0,0,.07Zm4.69-.72a.72.72,0,0,1-.72.72h-2.46a.25.25,0,0,0,0-.07l.21-8,.2,2.14a.41.41,0,0,0,.43.4.42.42,0,0,0,.4-.44v-3.52c0-1.47-1.78-1.54-2.54-1.54s-2.55.07-2.55,1.54v3.52a.42.42,0,0,0,.4.44.43.43,0,0,0,.44-.4l.19-2.14.22,8s0,0,0,.07h-4s0,0,0-.07l.22-8,.19,2.14a.43.43,0,0,0,.44.4.42.42,0,0,0,.4-.44v-3.52c0-1.47-1.79-1.54-2.55-1.54s-2.54.07-2.54,1.54v3.52a.42.42,0,0,0,.4.44.41.41,0,0,0,.43-.4l.2-2.14.21,8a.25.25,0,0,0,0,.07H1215a.72.72,0,0,1-.72-.72v-15a.73.73,0,0,1,.72-.72h14a.73.73,0,0,1,.72.72v15Z"/><path class="cls-1" d="M1223.48,807.89l1.46-1.46v3.29a.55.55,0,0,0,.55.54.54.54,0,0,0,.54-.54v-3.29l1.46,1.46a.54.54,0,0,0,.39.16.51.51,0,0,0,.38-.16.53.53,0,0,0,0-.77l-2.39-2.39-.38-.38-.39.38-2.39,2.39a.54.54,0,0,0,.77.77Z"/><path class="cls-1" d="M1218.29,810.1l.39.39.38-.39,2.39-2.39a.54.54,0,0,0-.77-.77l-1.46,1.47v-3.29a.55.55,0,0,0-.54-.55.55.55,0,0,0-.55.55v3.29l-1.46-1.47a.54.54,0,0,0-.77.77Z"/><rect x="1209.25" y="244.36" width="29.5" height="29.5" rx="2"/><rect class="cls-3" x="1209.25" y="244.36" width="29.5" height="29.5" rx="2"/><path class="cls-1" d="M1220.36,256.81a1.07,1.07,0,1,0,1.07,1.07A1.07,1.07,0,0,0,1220.36,256.81Z"/><path class="cls-1" d="M1226.88,256.81a1.07,1.07,0,1,0,1.07,1.07A1.07,1.07,0,0,0,1226.88,256.81Z"/><path class="cls-1" d="M1230.62,252.55h-14a2,2,0,0,0-1.95,1.95v15a2,2,0,0,0,1.95,1.95h14a2,2,0,0,0,2-1.95v-15A2,2,0,0,0,1230.62,252.55Zm-10.49,17.66s0,0,0-.07l.21-4.89.22,4.89s0,.05,0,.07Zm6.52,0a.14.14,0,0,0,0-.07l.21-4.89.22,4.89s0,.05,0,.07Zm4.69-.72a.72.72,0,0,1-.72.72h-2.45s0,0,0-.07l.22-8,.19,2.14a.42.42,0,0,0,.84,0v-3.52c0-1.48-1.79-1.55-2.55-1.55s-2.54.07-2.54,1.55v3.52a.41.41,0,0,0,.4.43.41.41,0,0,0,.43-.39l.2-2.14.21,8a.14.14,0,0,0,0,.07h-3.95s0,0,0-.07l.22-8,.19,2.14a.42.42,0,0,0,.44.39.41.41,0,0,0,.39-.43v-3.52c0-1.48-1.78-1.55-2.54-1.55s-2.54.07-2.54,1.55v3.52a.41.41,0,0,0,.39.43.42.42,0,0,0,.44-.39l.2-2.14.21,8s0,.05,0,.07h-2.45a.72.72,0,0,1-.72-.72v-15a.72.72,0,0,1,.72-.72h14a.72.72,0,0,1,.72.72v15Z"/><path class="cls-1" d="M1225.15,249.34l1.46-1.47v3.29a.55.55,0,0,0,.54.55.55.55,0,0,0,.55-.55v-3.29l1.46,1.47a.54.54,0,0,0,.77,0,.55.55,0,0,0,0-.77l-2.39-2.39-.39-.39-.38.39-2.39,2.39a.54.54,0,0,0,.77.77Z"/><path class="cls-1" d="M1220,251.55l.38.38.39-.38,2.39-2.39a.54.54,0,1,0-.77-.77l-1.46,1.46v-3.29a.55.55,0,0,0-.55-.54.54.54,0,0,0-.54.54v3.29l-1.46-1.46a.55.55,0,0,0-.77,0,.53.53,0,0,0,0,.77Z"/><rect class="cls-4" x="1582.5" y="153.5" width="23" height="23"/><path d="M1621.79,159v1.61h4.47v1h-4.47v1.46h5.3v1h-5.3v1.57h7v1h-6.68a7.79,7.79,0,0,0,2.61,2.17,13.74,13.74,0,0,0,3.89,1.35l-.7,1.13a12.27,12.27,0,0,1-4.42-1.86,7.55,7.55,0,0,1-2.25-2.3c-.94,2.18-3.17,3.59-6.67,4.24l-.66-1.07q5-.78,6.34-3.66h-6.66v-1h6.93v-1.57h-5.19v-1h5.19v-1.46h-4.38v-1h4.38V159h-5v2h-1.25v-3h6.21v-1.74h1.24V158h6.26v3h-1.23v-2Z"/><path d="M1629.43,169.67a19.68,19.68,0,0,0,.61-3.76l.92.16a20.51,20.51,0,0,1-.57,4.21Zm7.14-5.7a37.6,37.6,0,0,1-.43,6.16,1.75,1.75,0,0,1-.52,1,1.67,1.67,0,0,1-1.09.29c-.43,0-1,0-1.55-.1l-.17-1.15a8.66,8.66,0,0,0,1.55.16.68.68,0,0,0,.61-.23c.27-.45.43-2.1.49-5V165h-5.26v-8.12h6.5v1h-2.49v1.38h2v1h-2v1.39h2v1h-2V164Zm-5.07,5.62a34.51,34.51,0,0,0-.19-3.45l.78-.17a33,33,0,0,1,.34,3.39Zm-.17-11.73v1.38h1.78v-1.38Zm0,2.34v1.39h1.78V160.2Zm0,2.35V164h1.78v-1.42Zm1.74,6.64a28.15,28.15,0,0,0-.5-3.23l.72-.23a19.81,19.81,0,0,1,.6,3.19Zm1.36-.53a23,23,0,0,0-.68-3l.72-.25a16.08,16.08,0,0,1,.72,2.91Zm6.21-1.3a6.84,6.84,0,0,1-3.46,4.15l-.79-1a5.84,5.84,0,0,0,3.46-4h-2.72v-4.12h2.8v-1.53h-1.41v-.52a10.71,10.71,0,0,1-1.68,1.56l-.7-1a9.51,9.51,0,0,0,3.6-4.66h1.34a11.71,11.71,0,0,0,4,4.46l-.66,1a13.92,13.92,0,0,1-1.82-1.54v.64h-1.51v1.53h2.9v4.12h-2.7a9,9,0,0,0,3.63,3.85l-.7,1A9,9,0,0,1,1640.64,167.36Zm-.68-4h-1.76v2.15H1640Zm2.27-3.55a12.21,12.21,0,0,1-1.8-2.59,10.91,10.91,0,0,1-1.49,2.59Zm-1.18,3.55v2.15h1.86v-2.15Z"/><path d="M1653.24,162.4a1.4,1.4,0,0,1,1,.47,1.37,1.37,0,0,1,.39,1,1.41,1.41,0,0,1-.23.76,1.41,1.41,0,0,1-1.88.51,1.35,1.35,0,0,1-.77-1.29,1.37,1.37,0,0,1,.6-1.16A1.43,1.43,0,0,1,1653.24,162.4Z"/><path d="M1663.85,163.8a19.17,19.17,0,0,0-2.32-2.45l.86-.83a17,17,0,0,1,2.37,2.35Zm-2,6.6a24.53,24.53,0,0,0,2.65-5.29l1,.72a23.37,23.37,0,0,1-2.61,5.5Zm2.46-10.65a17.33,17.33,0,0,0-2.29-2.46l.88-.82a15.39,15.39,0,0,1,2.32,2.37Zm.47,10.75a14.49,14.49,0,0,0,4-2l.9.8a16.67,16.67,0,0,1-4.13,2.16Zm6.65-12.46h5.12v3.07h-1.22v-2.05h-8.72v2.05h-1.21V158h4.81v-1.79h1.22Zm0,4.48h4v5.77h-9v-5.77h3.84v-1.27h-3v-1h7.55v1h-3.34Zm-1.17,2.34V163.5h-2.65v1.36Zm0,2.44v-1.5h-2.65v1.5Zm1.17-3.8v1.36h2.79V163.5Zm0,2.3v1.5h2.79v-1.5Zm4.54,5.59a33.77,33.77,0,0,0-4-2.14l.88-.76a28.57,28.57,0,0,1,4.08,2Z"/><path d="M1678,162.39a30.42,30.42,0,0,0,4.91-1.79l.14,1a36.82,36.82,0,0,1-4.56,1.85Zm6.65-5.55v6.28l1.09.23a9.17,9.17,0,0,1-.52,1h5.8v7.12h-1.26v-.75h-8.86v.75h-1.25v-7.12h4.29a9.83,9.83,0,0,0,.43-1h-.92v-5.44h-5.27v-1Zm-3.21,3.63a19.11,19.11,0,0,0-2.83-1.41l.75-.85a20,20,0,0,1,2.83,1.35Zm-.54,4.85v1.58h8.86v-1.58Zm0,2.56v1.79h8.86v-1.79Zm11.07-11v6.56h-1.19v-5.54h-5.52v-1Zm-6.66,5.09a34.39,34.39,0,0,0,4.69-1.62l.21.94a44.66,44.66,0,0,1-4.37,1.7Zm3.27-1.54a22.28,22.28,0,0,0-2.89-1.39l.63-.83a18,18,0,0,1,2.93,1.37Z"/><path d="M1700,161.48a.37.37,0,0,0-.06.1,16.72,16.72,0,0,1-1.73,2.2h.8c1.2,0,2.59-.07,4.18-.14l1.77-.08c-.53-.5-1.06-1-1.59-1.43l1-.58a37.46,37.46,0,0,1,3,2.69l.41.41-1,.75c-.31-.34-.59-.65-.84-.91l-.1-.11-4,.27v2.07h5.49v1h-5.49v2.07h6.81v1h-14.78v-1h6.72v-2.07h-5.38v-1h5.38v-2l-.86,0c-1.28.06-2.7.1-4.26.14l-.38-1.07,1.77,0a18.29,18.29,0,0,0,1.76-2.32H1696v-1h10.44v1Zm1.8-3.54h6.36v3h-1.25v-2h-11.4v2h-1.25v-3h6.29v-1.69h1.25Z"/><rect class="cls-5" x="1582.5" y="186.5" width="23" height="23"/><path d="M1616.11,196.5h3.28v7.09h-3.24V205h-1.1v-6.37a18.43,18.43,0,0,1-1,1.54l-.63-1.16a13.37,13.37,0,0,0,2.12-4.07,20,20,0,0,0,.69-2.62H1614v-1.11h5.74v1.11h-2.34A19.19,19.19,0,0,1,1616.11,196.5Zm0,1.07v5h2.17v-5Zm10.53-5.46v4.61h2.13v1.1h-2.13v7.59h-1.18v-7.59H1623a15.18,15.18,0,0,1-.57,4.43,9.35,9.35,0,0,1-1.75,3.21l-1.06-.8q2.11-2.06,2.19-6.84h-1.91v-1.1h1.92v-4.61h-1.33V191h7.84v1.1Zm-1.18,0H1623v4.61h2.46Z"/><path d="M1639.35,193v2.58c0,.26.1.41.3.46a4.67,4.67,0,0,0,.94.06c.88,0,1.39-.07,1.51-.22a2.5,2.5,0,0,0,.18-1.2l1.18.45a2.78,2.78,0,0,1-.41,1.57,4.51,4.51,0,0,1-2.58.43,4.91,4.91,0,0,1-2-.23c-.25-.15-.37-.46-.37-.94v-3h-6.65v2.24h-1.23V192h6.31v-1.71h1.25V192h6.39v2.65h-1.25V193Zm-2.47,5.6h4.2l-.29,4.69v.15c0,.26.09.42.28.47a3.4,3.4,0,0,0,.9.07,4.45,4.45,0,0,0,1.16-.09c.2-.07.33-.31.39-.7s.1-.86.15-1.58l1.19.43c0,.08,0,.31,0,.68a6.62,6.62,0,0,1-.2,1.37,1.3,1.3,0,0,1-1,.93,9.9,9.9,0,0,1-1.76.11,3.82,3.82,0,0,1-2-.32,1,1,0,0,1-.38-.85.57.57,0,0,1,0-.12l.27-4.18h-3a6.46,6.46,0,0,1-1.81,3.58,10.53,10.53,0,0,1-3.75,2.16l-.77-1a8.68,8.68,0,0,0,3.51-1.84,5.78,5.78,0,0,0,1.55-2.88H1631v-1.06h4.58l.21-2.06,1.25.08Zm-6.27-2a6.57,6.57,0,0,0,3-1.22,4,4,0,0,0,1.2-2.09l1.13.39a4.68,4.68,0,0,1-2.09,3,7.82,7.82,0,0,1-2.49.91Z"/><path d="M1652,195.48a.37.37,0,0,0-.06.1,16.72,16.72,0,0,1-1.73,2.2h.8c1.2,0,2.59-.07,4.18-.14l1.77-.08c-.53-.5-1.06-1-1.59-1.43l1-.58a37.46,37.46,0,0,1,3,2.69l.41.41-1,.75c-.31-.34-.59-.65-.84-.91l-.1-.11-4,.27v2.07h5.49v1h-5.49v2.07h6.81v1h-14.78v-1h6.72v-2.07h-5.38v-1h5.38v-2l-.86,0c-1.28.06-2.7.1-4.26.14l-.38-1.07,1.77,0a18.29,18.29,0,0,0,1.76-2.32H1648v-1h10.44v1Zm1.8-3.54h6.36v3h-1.25v-2h-11.4v2h-1.25v-3h6.29v-1.69h1.25Z"/><rect x="1582.78" y="252" width="22" height="22" rx="2"/><rect class="cls-3" x="1582.78" y="252" width="22" height="22" rx="2"/><polygon class="cls-1" points="1597.16 256.23 1597.16 259.87 1593.12 259.87 1593.12 263.52 1589.07 263.52 1589.07 267.17 1585.96 267.17 1585.96 269.04 1590.94 269.04 1590.94 265.39 1594.99 265.39 1594.99 261.75 1599.04 261.75 1599.04 258.1 1602.15 258.1 1602.15 256.23 1597.16 256.23"/><path d="M1614,256.44h3.59l.63.56a36.8,36.8,0,0,1-1.42,4.44,6.79,6.79,0,0,1,1.15,2.24,6.59,6.59,0,0,1,.31,2,3.65,3.65,0,0,1-.18,1.29,1.32,1.32,0,0,1-1.38.77,5.07,5.07,0,0,1-.94-.09l-.28-1.15a6,6,0,0,0,1,.1c.29,0,.46-.1.52-.28a2.63,2.63,0,0,0,.08-.81,6.31,6.31,0,0,0-1.42-3.92,26.27,26.27,0,0,0,1.24-4.05h-1.77v13.53H1614Zm5,4.95V256h1.17v1.82h2.87v1.05h-2.87v2.28c.89-.18,1.82-.41,2.8-.68l.08,1a35.87,35.87,0,0,1-4.86,1.21l-.39-1.07Zm3,2.26a8.87,8.87,0,0,0,.49-1.51l1.18.21a8.69,8.69,0,0,1-.53,1.3h4.53v7.4h-1.23v-.86h-6.08v.86h-1.23v-7.4Zm-1.64,1v1.73h6.08v-1.73Zm0,2.7v1.85h6.08v-1.85Zm4.37-9.41a15.79,15.79,0,0,0,2.9-1.14l.75,1a20,20,0,0,1-3.65,1.19v1.8c0,.28.08.45.26.49a4.69,4.69,0,0,0,1,.07,5.5,5.5,0,0,0,1.11-.07c.22-.06.36-.26.43-.61a9.46,9.46,0,0,0,.11-1.16l1.09.37c0,.11,0,.28,0,.49a4.25,4.25,0,0,1-.22,1.28,1.11,1.11,0,0,1-1,.67,14,14,0,0,1-1.75.08,4,4,0,0,1-1.81-.25,1.09,1.09,0,0,1-.42-1v-5.2h1.15Z"/><path d="M1630.91,257.05a20.4,20.4,0,0,0,4.51-1.1l.8.93a25.22,25.22,0,0,1-4.11,1V260h3.37v1.05h-3.37v2.21h3.37v1h-3.37v2.64c1.33-.19,2.55-.4,3.66-.62l.07,1c-.85.19-1.88.4-3.11.62l-.62.12v3h-1.2v-2.8l-1.06.16-.37-1.17,1.43-.17Zm9.25,11.53a15.36,15.36,0,0,1-4.07,2.54l-.83-1a13.78,13.78,0,0,0,4.07-2.35l-.08-.09a12.41,12.41,0,0,1-2.33-3.54h-.7v-1H1643l.7.59a13.58,13.58,0,0,1-2.69,4.05,16.08,16.08,0,0,0,3.75,2.14l-.72,1.12A16.09,16.09,0,0,1,1640.16,268.58Zm-2.84-12.1H1642v4a.38.38,0,0,0,.09.3.79.79,0,0,0,.41.07c.49,0,.76-.06.82-.18a7.23,7.23,0,0,0,.16-1.75l1.09.44a7.8,7.8,0,0,1-.22,1.95.94.94,0,0,1-.64.57,5.36,5.36,0,0,1-1.23.11,2.71,2.71,0,0,1-1.32-.21.88.88,0,0,1-.34-.79v-3.46h-2.35v.13a9.11,9.11,0,0,1-.39,3,3.86,3.86,0,0,1-1.41,1.8l-.85-.88a3,3,0,0,0,1.33-1.86,8.86,8.86,0,0,0,.19-2.08Zm.79,7.67a11.62,11.62,0,0,0,2.05,2.83,10.29,10.29,0,0,0,1.95-2.83Z"/><rect x="1582.58" y="284.92" width="22.42" height="22.42" rx="2"/><rect class="cls-3" x="1582.58" y="284.92" width="22.42" height="22.42" rx="2"/><path class="cls-1" d="M1591,294.38a.81.81,0,1,0,0,1.62.81.81,0,0,0,0-1.62Z"/><path class="cls-1" d="M1596,294.38a.81.81,0,1,0,.81.81A.81.81,0,0,0,1596,294.38Z"/><path class="cls-1" d="M1598.83,291.14h-10.65a1.48,1.48,0,0,0-1.48,1.48V304a1.49,1.49,0,0,0,1.48,1.49h10.65a1.49,1.49,0,0,0,1.48-1.49V292.62A1.48,1.48,0,0,0,1598.83,291.14Zm-8,13.42s0,0,0-.05l.17-3.72.16,3.72s0,0,0,.05Zm5,0s0,0,0-.05l.16-3.72.17,3.72a.09.09,0,0,0,0,.05Zm3.56-.55a.54.54,0,0,1-.54.55H1597s0,0,0-.05l.16-6.05.15,1.62a.31.31,0,0,0,.33.3.31.31,0,0,0,.3-.33v-2.67c0-1.12-1.35-1.18-1.93-1.18s-1.93.06-1.93,1.18v2.67a.31.31,0,0,0,.3.33.31.31,0,0,0,.33-.3l.15-1.62.16,6.05s0,0,0,.05h-3a.09.09,0,0,0,0-.05l.17-6.05.15,1.62a.3.3,0,0,0,.33.3.31.31,0,0,0,.3-.33v-2.67c0-1.12-1.36-1.18-1.93-1.18s-1.94.06-1.94,1.18v2.67a.32.32,0,0,0,.31.33.31.31,0,0,0,.33-.3l.15-1.62.16,6.05s0,0,0,.05h-1.87a.54.54,0,0,1-.54-.55V292.62a.55.55,0,0,1,.54-.55h10.65a.55.55,0,0,1,.54.55V304Z"/><path class="cls-1" d="M1594.66,288.7l1.12-1.11v2.5a.41.41,0,0,0,.82,0v-2.5l1.11,1.11a.42.42,0,0,0,.3.12.42.42,0,0,0,.29-.12.42.42,0,0,0,0-.59l-1.82-1.81-.29-.3-.29.3-1.82,1.81a.42.42,0,0,0,0,.59A.41.41,0,0,0,1594.66,288.7Z"/><path class="cls-1" d="M1590.72,290.38l.29.29.29-.29,1.82-1.82a.41.41,0,1,0-.58-.58l-1.11,1.11v-2.5a.41.41,0,0,0-.42-.41.41.41,0,0,0-.41.41v2.5l-1.11-1.11a.42.42,0,0,0-.59,0,.41.41,0,0,0,0,.58Z"/><path d="M1615.16,290.7h11.41v1.18h-5.14v8.71h6v1.15h-13.21v-1.15h5.9v-8.71h-5Z"/><path d="M1629.64,289.28H1631v11.93a16.67,16.67,0,0,0,6.41-3.6,13.66,13.66,0,0,0,3-3.71l.83,1.23a17,17,0,0,1-4.16,4.39,21,21,0,0,1-6.54,3.23l-.88-.88Z"/><path d="M1642.44,299.07a28.78,28.78,0,0,0,4.73-7.84h1.41a43.57,43.57,0,0,0,7.63,9.26l-.81,1.13a50.39,50.39,0,0,1-4.42-4.8,42.94,42.94,0,0,1-3-4.2h-.07a28.55,28.55,0,0,1-4.45,7.36Zm10.24-5.55a11.69,11.69,0,0,0-1.41-2.61l1-.37a11.92,11.92,0,0,1,1.43,2.58Zm2-.71a13.44,13.44,0,0,0-1.39-2.62l.92-.34a10.26,10.26,0,0,1,1.41,2.53Z"/><path d="M1658.07,295.09h13.49v1.23h-13.49Z"/><path d="M1684.58,290.73l.87.75A16,16,0,0,1,1682,299a12.49,12.49,0,0,1-3.33,2.54,15,15,0,0,1-3.23,1.3l-.66-1.11a12.91,12.91,0,0,0,6.32-3.62,25.29,25.29,0,0,0-4.19-3.14l.74-.91a23.91,23.91,0,0,1,4.22,3,14.12,14.12,0,0,0,2.16-5.23h-5.76a13.76,13.76,0,0,1-4.3,4.41l-.85-.89a12.1,12.1,0,0,0,5.18-6.44l1.23.32,0,.05c-.23.56-.43,1-.62,1.41Z"/><path d="M1687.51,295.09H1701v1.23h-13.49Z"/><rect x="1582.5" y="317.67" width="22.33" height="22.33" rx="2"/><rect class="cls-3" x="1582.5" y="317.67" width="22.33" height="22.33" rx="2"/><rect class="cls-1" x="1593.09" y="320.81" width="1.04" height="16.47"/><path class="cls-1" d="M1588.22,323.56a1.38,1.38,0,1,0-1.38-1.38A1.37,1.37,0,0,0,1588.22,323.56Z"/><path class="cls-1" d="M1590.9,325.52c-.28-.94-.9-1.57-1.61-1.57h-2.15c-.7,0-1.33.63-1.61,1.57l-1,3.59a.57.57,0,0,0,.41.69.55.55,0,0,0,.68-.4l1-3.59h.3l-1.76,6.24h1.66v4.62a.64.64,0,0,0,1.28,0v-4.62h.35v4.62a.64.64,0,0,0,.64.64.64.64,0,0,0,.64-.64v-4.62h1.54l-1.76-6.24h.3l1,3.59a.55.55,0,0,0,.68.4.56.56,0,0,0,.41-.69Z"/><path class="cls-1" d="M1599.21,323.56a1.38,1.38,0,1,0-1.38-1.38A1.37,1.37,0,0,0,1599.21,323.56Z"/><path class="cls-1" d="M1600.9,324h-3.61a1.54,1.54,0,0,0-1.39,1.39V330a.6.6,0,1,0,1.2,0v-3.8h.28v10.32a.8.8,0,1,0,1.59,0v-6h.25v6a.8.8,0,1,0,1.59,0V326.16h.28V330a.61.61,0,1,0,1.21,0v-4.62A1.55,1.55,0,0,0,1600.9,324Z"/><path d="M1615.36,321.32h1.31v4.45a48.83,48.83,0,0,1,7.66,2.93l-.65,1.19a48.39,48.39,0,0,0-7-2.87v8h-1.31Z"/><path d="M1631.77,334.93v-8.26a27.24,27.24,0,0,1-5.68,2.88l-.7-1.12a23.07,23.07,0,0,0,6-3,24.53,24.53,0,0,0,4.51-4.1l1.1.69a32.28,32.28,0,0,1-3.93,3.69v9.21Z"/><path d="M1639.5,321.5h1.31v11.93a16.78,16.78,0,0,0,6.42-3.6,13.47,13.47,0,0,0,3-3.71l.83,1.23a17,17,0,0,1-4.16,4.39,20.82,20.82,0,0,1-6.54,3.23l-.88-.88Z"/><path d="M1590.65,97.55h3a15.56,15.56,0,0,0,7.2-1.43,8,8,0,0,0,1.15-.77,6.24,6.24,0,0,0,2.36-4.95,5.63,5.63,0,0,0-2.48-4.85,10,10,0,0,0-5.84-1.57,14.07,14.07,0,0,0-9.82,4.22l-2.74-2.93a16.28,16.28,0,0,1,4.27-3,18.89,18.89,0,0,1,8.5-2,16.14,16.14,0,0,1,8,1.85q4.92,2.72,4.92,7.9a8.57,8.57,0,0,1-2.88,6.58,11.29,11.29,0,0,1-6.42,2.63v.18a13.54,13.54,0,0,1,7.71,2.93,9,9,0,0,1,3,7.08,9.82,9.82,0,0,1-4.4,8.6q-3.8,2.61-10,2.61-8.58,0-13.92-5.49l2.79-3a13.67,13.67,0,0,0,3.4,2.6,15.81,15.81,0,0,0,7.73,2,11.28,11.28,0,0,0,7.25-2.11,6.46,6.46,0,0,0,2.34-5.32q0-8.16-12.14-8.15h-2.93Z"/><path d="M1630,79.41h10.78l1.88,1.69a102.82,102.82,0,0,1-4.27,13.31,21.16,21.16,0,0,1,4.39,12.65,11.14,11.14,0,0,1-.54,3.9q-.91,2.3-4.15,2.29a15.31,15.31,0,0,1-2.81-.26l-.82-3.44a19.54,19.54,0,0,0,3,.28c.86,0,1.39-.28,1.57-.84a8.44,8.44,0,0,0,.24-2.42,19,19,0,0,0-4.27-11.76,78.55,78.55,0,0,0,3.73-12.14h-5.32v40.57H1630Zm15.12,14.86V78.12h3.52v5.46h8.6v3.16h-8.6v6.85q4-.82,8.39-2l.25,2.93a108.32,108.32,0,0,1-14.6,3.63l-1.17-3.21C1643.14,94.64,1644.34,94.42,1645.14,94.27ZM1654,101a26.13,26.13,0,0,0,1.45-4.52l3.57.63a28.11,28.11,0,0,1-1.6,3.89H1671v22.2h-3.71v-2.56h-18.23v2.56h-3.7V101Zm-4.92,3v5.18h18.23V104Zm0,8.11v5.53h18.23v-5.53Zm13.1-28.24a47.34,47.34,0,0,0,8.7-3.43l2.24,2.89a58.74,58.74,0,0,1-10.94,3.56v5.41c0,.85.26,1.34.77,1.48a15.17,15.17,0,0,0,3.17.21,16.2,16.2,0,0,0,3.33-.23c.65-.18,1.08-.79,1.28-1.83a26.31,26.31,0,0,0,.33-3.47l3.26,1.1c0,.34,0,.84-.09,1.48a13.06,13.06,0,0,1-.68,3.84,3.42,3.42,0,0,1-2.89,2,42.14,42.14,0,0,1-5.25.23q-4.26,0-5.41-.75a3.29,3.29,0,0,1-1.27-3V77.81h3.45Z"/><line class="cls-6" x1="1110.5" y1="368.5" x2="1110.5" y2="422.5"/><rect x="1055.14" y="381.1" width="29.5" height="29.5" rx="2"/><rect class="cls-3" x="1055.14" y="381.1" width="29.5" height="29.5" rx="2"/><polygon class="cls-1" points="1074.43 386.77 1074.43 391.66 1069 391.66 1069 396.55 1063.57 396.55 1063.57 401.44 1059.4 401.44 1059.4 403.95 1066.08 403.95 1066.08 399.06 1071.51 399.06 1071.51 394.17 1076.94 394.17 1076.94 389.28 1081.11 389.28 1081.11 386.77 1074.43 386.77"/><rect class="cls-7" x="1582.5" y="218.5" width="23" height="23"/><path d="M1618.68,226.66a14.89,14.89,0,0,0,2.32-3.5l.93.66a20,20,0,0,1-1.89,2.84h1.46v1.05h-2.38a17.49,17.49,0,0,1-2,1.8h3.52l.5.64a16.34,16.34,0,0,1-2.29,1.78v.75l.29,0c.68-.08,1.55-.22,2.59-.39l0,1c-.84.18-1.73.34-2.67.49l-.26,0v2.51a1.28,1.28,0,0,1-.3,1,1.47,1.47,0,0,1-.94.22c-.5,0-1.12,0-1.85-.07l-.26-1.1a13.77,13.77,0,0,0,1.8.15c.25,0,.38-.13.38-.4v-2.12l-1,.14c-.87.11-1.73.21-2.57.29l-.31-1.1c1.3-.11,2.6-.24,3.89-.39v-1.27a9.64,9.64,0,0,0,1.54-1.07h-3.43c-.61.4-1.17.75-1.68,1l-.66-.9a20.45,20.45,0,0,0,4.15-2.9h-4v-1.05h3.09V224.9h-2.45v-1h2.45v-1.63h1.17v1.63h2v1h-2v1.76Zm5.73,6.11a19.75,19.75,0,0,1-1.74-4.21,15.39,15.39,0,0,1-.81,1.46l-.82-1a19.43,19.43,0,0,0,2.28-6.71l1.18.23c-.16.87-.36,1.72-.59,2.58h4.84v1.1h-1.26l0,.15a18.68,18.68,0,0,1-1.72,6.43,15.32,15.32,0,0,0,3.23,3.37l-.73,1.18a16.53,16.53,0,0,1-3.13-3.42,11,11,0,0,1-3.59,3.56l-.82-1A9.45,9.45,0,0,0,1624.41,232.77Zm.61-1.19a18.51,18.51,0,0,0,1.28-5.35h-2.73q-.16.53-.24.72A19.07,19.07,0,0,0,1625,231.58Z"/><path d="M1636,227.48a.37.37,0,0,0-.06.1,16.72,16.72,0,0,1-1.73,2.2h.8c1.2,0,2.59-.07,4.18-.14l1.77-.08c-.53-.5-1.06-1-1.59-1.43l1-.58a37.46,37.46,0,0,1,3,2.69l.41.41-1,.75c-.31-.34-.59-.65-.84-.91l-.1-.11-4,.27v2.07h5.49v1h-5.49v2.07h6.81v1h-14.78v-1h6.72v-2.07h-5.38v-1h5.38v-2l-.86,0c-1.28.06-2.7.1-4.26.14l-.38-1.07,1.77,0a18.29,18.29,0,0,0,1.76-2.32H1632v-1h10.44v1Zm1.8-3.54h6.36v3h-1.25v-2h-11.4v2h-1.25v-3h6.29v-1.69h1.25Z"/><rect class="cls-7" x="1144.5" y="82" width="109.17" height="96.5"/><rect class="cls-7" x="1253.67" y="82" width="109.17" height="96.5"/><rect class="cls-7" x="1362.83" y="82" width="109.17" height="96.5"/><path d="M1180.78,136.55v-12.3a19.53,19.53,0,0,1-3.33,1l-.34-1.22a15,15,0,0,0,4.09-1.51h1.11v14Z"/><path d="M1191.49,136.55v-12.3a19.82,19.82,0,0,1-3.33,1l-.34-1.22a15,15,0,0,0,4.09-1.51H1193v14Z"/><path d="M1203.47,122.51a4.32,4.32,0,0,1,3.77,2,9.06,9.06,0,0,1,1.28,5.13,9.49,9.49,0,0,1-1.09,4.85,4.54,4.54,0,0,1-7.81.24,9.28,9.28,0,0,1-1.23-5.09,8.85,8.85,0,0,1,1.37-5.26A4.32,4.32,0,0,1,1203.47,122.51Zm0,1.33a2.78,2.78,0,0,0-2.54,1.72,8.84,8.84,0,0,0-.81,4.12,9.11,9.11,0,0,0,.7,3.87,2.87,2.87,0,0,0,2.67,1.94,2.76,2.76,0,0,0,2.5-1.65,10.52,10.52,0,0,0-.06-8.47A2.75,2.75,0,0,0,1203.44,123.84Z"/><path d="M1216.38,122.51a4.31,4.31,0,0,1,3.77,2,9,9,0,0,1,1.29,5.13,9.49,9.49,0,0,1-1.09,4.85,4.54,4.54,0,0,1-7.81.24,9.2,9.2,0,0,1-1.24-5.09,8.93,8.93,0,0,1,1.37-5.26A4.34,4.34,0,0,1,1216.38,122.51Zm0,1.33a2.78,2.78,0,0,0-2.54,1.72,8.83,8.83,0,0,0-.82,4.12,9.27,9.27,0,0,0,.7,3.87,2.88,2.88,0,0,0,2.67,1.94,2.77,2.77,0,0,0,2.51-1.65,8.59,8.59,0,0,0,.86-4.16,8.44,8.44,0,0,0-.93-4.31A2.72,2.72,0,0,0,1216.36,123.84Z"/><path d="M1289.2,136.84V124.55a21.11,21.11,0,0,1-3.33,1l-.34-1.23a14.8,14.8,0,0,0,4.09-1.51h1.1v14Z"/><path d="M1296.35,136.84v-1.37c.52-1.84,1.94-3.53,4.25-5.1l.47-.32a15.13,15.13,0,0,0,2-1.56,2.75,2.75,0,0,0,.93-2,2.06,2.06,0,0,0-.76-1.65,3.17,3.17,0,0,0-2.13-.69,4.71,4.71,0,0,0-3.61,1.79l-1.07-.93a5.71,5.71,0,0,1,4.69-2.2,5.48,5.48,0,0,1,2.78.68,3.37,3.37,0,0,1,1.8,3.07,3.45,3.45,0,0,1-1.13,2.54,20.94,20.94,0,0,1-2.23,1.69l-.28.2-.59.41q-3.13,2.15-3.55,4h8v1.44Z"/><path d="M1314.09,122.81a4.33,4.33,0,0,1,3.77,2,9,9,0,0,1,1.28,5.13,9.57,9.57,0,0,1-1.08,4.85,4.36,4.36,0,0,1-4,2.35,4.3,4.3,0,0,1-3.82-2.11A9.15,9.15,0,0,1,1309,130a8.91,8.91,0,0,1,1.37-5.25A4.33,4.33,0,0,1,1314.09,122.81Zm0,1.33a2.8,2.8,0,0,0-2.54,1.71,8.9,8.9,0,0,0-.81,4.12,9.16,9.16,0,0,0,.7,3.88,2.89,2.89,0,0,0,2.67,1.94,2.78,2.78,0,0,0,2.51-1.65,8.62,8.62,0,0,0,.85-4.16,8.46,8.46,0,0,0-.92-4.32A2.76,2.76,0,0,0,1314.06,124.14Z"/><path d="M1327,122.81a4.32,4.32,0,0,1,3.77,2,9,9,0,0,1,1.29,5.13,9.47,9.47,0,0,1-1.09,4.85,4.54,4.54,0,0,1-7.81.24,9.24,9.24,0,0,1-1.24-5.09,8.91,8.91,0,0,1,1.37-5.25A4.34,4.34,0,0,1,1327,122.81Zm0,1.33a2.78,2.78,0,0,0-2.54,1.71,8.9,8.9,0,0,0-.81,4.12,9.33,9.33,0,0,0,.69,3.88,2.89,2.89,0,0,0,2.68,1.94,2.77,2.77,0,0,0,2.5-1.65,10.55,10.55,0,0,0-.06-8.48A2.76,2.76,0,0,0,1327,124.14Z"/><path d="M1398.2,136.84V124.55a21.11,21.11,0,0,1-3.33,1l-.34-1.23a14.8,14.8,0,0,0,4.09-1.51h1.1v14Z"/><path d="M1407.82,128.94h1.07a5.58,5.58,0,0,0,2.55-.5,2.29,2.29,0,0,0,.41-.28,2.19,2.19,0,0,0,.84-1.75,2,2,0,0,0-.88-1.72,3.58,3.58,0,0,0-2.07-.55,5,5,0,0,0-3.48,1.49l-1-1a6.14,6.14,0,0,1,1.51-1.06,6.74,6.74,0,0,1,3-.71,5.7,5.7,0,0,1,2.81.66,3.14,3.14,0,0,1,.72,5.13,4,4,0,0,1-2.27.93v.07a4.78,4.78,0,0,1,2.73,1,3.2,3.2,0,0,1,1,2.51,3.49,3.49,0,0,1-1.56,3,6.14,6.14,0,0,1-3.53.92,6.58,6.58,0,0,1-4.93-1.94l1-1.05a4.67,4.67,0,0,0,1.21.92,5.6,5.6,0,0,0,2.74.71,4,4,0,0,0,2.56-.75,2.3,2.3,0,0,0,.83-1.88q0-2.9-4.3-2.89h-1Z"/><path d="M1423.09,122.81a4.33,4.33,0,0,1,3.77,2,9,9,0,0,1,1.28,5.13,9.57,9.57,0,0,1-1.08,4.85,4.36,4.36,0,0,1-4,2.35,4.3,4.3,0,0,1-3.82-2.11A9.15,9.15,0,0,1,1418,130a8.91,8.91,0,0,1,1.37-5.25A4.33,4.33,0,0,1,1423.09,122.81Zm0,1.33a2.8,2.8,0,0,0-2.54,1.71,8.9,8.9,0,0,0-.81,4.12,9.16,9.16,0,0,0,.7,3.88,2.89,2.89,0,0,0,2.67,1.94,2.78,2.78,0,0,0,2.51-1.65,8.62,8.62,0,0,0,.85-4.16,8.46,8.46,0,0,0-.92-4.32A2.76,2.76,0,0,0,1423.06,124.14Z"/><path d="M1436,122.81a4.32,4.32,0,0,1,3.77,2,9,9,0,0,1,1.29,5.13,9.47,9.47,0,0,1-1.09,4.85,4.54,4.54,0,0,1-7.81.24,9.24,9.24,0,0,1-1.24-5.09,8.91,8.91,0,0,1,1.37-5.25A4.34,4.34,0,0,1,1436,122.81Zm0,1.33a2.78,2.78,0,0,0-2.54,1.71,8.9,8.9,0,0,0-.81,4.12,9.33,9.33,0,0,0,.69,3.88,2.89,2.89,0,0,0,2.68,1.94,2.77,2.77,0,0,0,2.5-1.65,10.55,10.55,0,0,0-.06-8.48A2.76,2.76,0,0,0,1436,124.14Z"/><rect class="cls-7" x="1270.5" y="210.97" width="116" height="97.53"/><path d="M1308.72,266.82v-12.3a20.48,20.48,0,0,1-3.33,1l-.34-1.22a15.57,15.57,0,0,0,4.1-1.51h1.1v14Z"/><path d="M1321.51,253h1.86v9.2H1326v1.31h-2.63v3.35h-1.49v-3.35h-7v-1.29Zm.37,9.2v-4.9c0-.94,0-1.92.08-2.94h-.06a16.84,16.84,0,0,1-1.25,2.16l-4,5.68Z"/><path d="M1333.62,252.78a4.32,4.32,0,0,1,3.77,2,9.06,9.06,0,0,1,1.28,5.13,9.45,9.45,0,0,1-1.09,4.84,4.54,4.54,0,0,1-7.81.25,9.28,9.28,0,0,1-1.23-5.09,8.85,8.85,0,0,1,1.37-5.26A4.32,4.32,0,0,1,1333.62,252.78Zm0,1.33a2.79,2.79,0,0,0-2.54,1.72,8.83,8.83,0,0,0-.81,4.11,9.16,9.16,0,0,0,.7,3.88,2.88,2.88,0,0,0,2.67,1.94,2.78,2.78,0,0,0,2.51-1.65A8.62,8.62,0,0,0,1337,260a8.52,8.52,0,0,0-.92-4.31A2.75,2.75,0,0,0,1333.59,254.11Z"/><path d="M1346.53,252.78a4.31,4.31,0,0,1,3.77,2,9,9,0,0,1,1.29,5.13,9.45,9.45,0,0,1-1.09,4.84,4.54,4.54,0,0,1-7.81.25,9.28,9.28,0,0,1-1.24-5.09,8.93,8.93,0,0,1,1.37-5.26A4.34,4.34,0,0,1,1346.53,252.78Zm0,1.33a2.78,2.78,0,0,0-2.54,1.72,8.82,8.82,0,0,0-.82,4.11,9.32,9.32,0,0,0,.7,3.88,2.89,2.89,0,0,0,2.67,1.94,2.77,2.77,0,0,0,2.51-1.65,8.61,8.61,0,0,0,.86-4.16,8.41,8.41,0,0,0-.93-4.31A2.72,2.72,0,0,0,1346.51,254.11Z"/><rect class="cls-2" x="556" y="81.75" width="112.01" height="96.5"/><rect class="cls-2" x="668.01" y="81.75" width="112.01" height="96.5"/><rect class="cls-2" x="780.02" y="81.75" width="112.01" height="96.5"/><rect class="cls-2" x="891.5" y="81.75" width="112.01" height="96.5"/><rect class="cls-2" x="995.5" y="308.5" width="115.08" height="60"/><polyline class="cls-2" points="916.5 865.5 1002.5 865.5 1002.5 772.5"/><line class="cls-7" x1="793.5" y1="865.5" x2="916.5" y2="865.5"/><line class="cls-2" x1="793.78" y1="865.5" x2="766.66" y2="865.5"/><line class="cls-2" x1="895.5" y1="899.5" x2="824.5" y2="899.5"/><line class="cls-2" x1="824.5" y1="899.5" x2="766.5" y2="899.5"/><rect class="cls-2" x="1299" y="772.4" width="26.21" height="73.6"/><rect class="cls-5" x="1325.21" y="772.4" width="26.21" height="73.6"/><rect class="cls-2" x="1350.79" y="772.4" width="26.21" height="73.6"/><rect class="cls-5" x="1400.74" y="918.98" width="26.21" height="73.6"/><rect class="cls-5" x="1426.95" y="918.98" width="26.21" height="73.6"/><rect class="cls-5" x="1452.53" y="918.98" width="26.21" height="73.6"/><rect class="cls-2" x="1377.61" y="899.71" width="23.89" height="93.17"/><path d="M1345.42,790.79v14a1.15,1.15,0,0,1-.49,1.07,2.46,2.46,0,0,1-1.33.26c-.85,0-1.83,0-2.95-.11l-.31-1.28c1.21.11,2.25.17,3.13.17.32,0,.51-.07.57-.22a1.09,1.09,0,0,0,0-.39V791.94h-11.92v14.3h-1.32V790.79Zm-4.33,11.11v-3.75h1.2V803h-7.19v1.21h-1.22v-6.08h1.22v3.75h2.37v-5h-4.67v-1.13H1339a22.58,22.58,0,0,0,1.69-3.53l1.29.47a22.43,22.43,0,0,1-1.71,3.06h3.2v1.13h-4.76v5Zm-5.55-6.44a14.34,14.34,0,0,0-1.41-2.56l1.11-.55a12.84,12.84,0,0,1,1.48,2.57Z"/><path d="M1341.2,825.49h-9.15v1h-1.31v-3.92h1.31v1.9h3.24v-2.5h-3.24v-9.36h4.07a11.8,11.8,0,0,0,.93-1.56l1.47.34a13.63,13.63,0,0,1-.93,1.22h6v5.19h-10.2v1h12.81v1h-12.81v1.07h12.07a20.87,20.87,0,0,1-.57,5.22,1.56,1.56,0,0,1-.94,1,3.67,3.67,0,0,1-1.16.15,12.88,12.88,0,0,1-2-.15l-.27-1.22a14.59,14.59,0,0,0,2,.17c.49,0,.79-.11.92-.33a12.21,12.21,0,0,0,.57-3.77h-7.47v2.5h3.33v-1.9h1.28Zm-7.81-11.88v1.07h8.86v-1.07Zm0,2v1.13h8.86v-1.13Z"/><path d="M1410.21,939.13v1.33h9.14v1h-9.14v1.34h9.14v1h-9.14v1.42h11.73v1.08h-7.59a7.79,7.79,0,0,0,1.82,2.63,22.92,22.92,0,0,0,3.54-2.49l1,.93a30,30,0,0,1-3.75,2.3,14.81,14.81,0,0,0,5,2.35l-.87,1.17a17.76,17.76,0,0,1-4-1.88,10,10,0,0,1-4-5h-2.88v5.3l.12,0q2.45-.52,4.83-1.28l.1,1.14a60.38,60.38,0,0,1-7.82,2l-.45-1.26,1.86-.33v-5.58h-3.06v-1.08h3.06v-7.22h11.39v1.07Z"/><path d="M1409.43,969.42a13.32,13.32,0,0,1-3,3.79l-.73-1.08a12.49,12.49,0,0,0,3.5-4.06h-3.37V967h3.64v-1.77h1.28V967h2.7v1.12h-2.7v.6a23.53,23.53,0,0,1,2.73,2l-.78,1q-.87-.87-2-1.77v4.59h-1.28Zm5.93-8.28a22.56,22.56,0,0,0,6.26,3.13l-.8,1.13a18.74,18.74,0,0,1-6.36-3.77V966h-1.31v-4.23a14.84,14.84,0,0,1-6.24,3.86l-.76-1a15.5,15.5,0,0,0,6.26-3.48h-5.72V960h6.46v-1.67h1.31V960h6.61v1.12Zm3.2,6.93a11.16,11.16,0,0,0,3.56,3.68l-.77,1.22a12.84,12.84,0,0,1-3.11-3.66v5.18H1417v-5a11.46,11.46,0,0,1-3,3.62l-.82-.95a12.68,12.68,0,0,0,3.51-4.13h-2.61V967H1417v-1.77h1.28V967h3.7v1.12Z"/><path d="M1460.21,945.43a19.83,19.83,0,0,0-2.52-2.61l.92-.91a18,18,0,0,1,2.57,2.51Zm-2.16,7a25.23,25.23,0,0,0,2.75-5.44l1.09.8a26.64,26.64,0,0,1-2.77,5.61Zm2.75-11.36a16.84,16.84,0,0,0-2.45-2.61l.9-.87a15.13,15.13,0,0,1,2.5,2.5Zm3,.77h8.48c0,.3,0,1.6-.11,3.91h1.73v1.12h-1.77c0,.71-.08,1.73-.15,3h1.65V951h-1.74a5.68,5.68,0,0,1-.29,1.65c-.24.57-.83.85-1.78.85a15.38,15.38,0,0,1-1.89-.13l-.24-1.16a16.43,16.43,0,0,0,2,.17.73.73,0,0,0,.62-.21,2.8,2.8,0,0,0,.22-1V951H1464l0,.14,0,.11-.14.81-1.27-.15c.3-1.65.55-3.33.75-5.06h-1.66v-1.12h1.8C1463.59,944.29,1463.73,943,1463.84,941.82Zm1.17-2.89h8.32v1.13h-8.84a12.76,12.76,0,0,1-1.69,2.54l-.91-.89a11.18,11.18,0,0,0,2.38-4.38l1.27.13C1465.37,938,1465.19,938.5,1465,938.93Zm2,7.92h-2.42c-.09.76-.2,1.58-.33,2.48l-.09.57h2.52l0-.38Q1466.94,947.86,1467,946.85Zm.31-3.94H1465c0,.68-.14,1.62-.26,2.82h2.39c0-.42.06-.73.08-.94C1467.22,944.38,1467.26,943.75,1467.32,942.91Zm.94,3.94-.09.87c-.09,1-.17,1.73-.22,2.18h2.79c0-.72.1-1.42.12-2.09l.05-1Zm.27-3.94c0,.39-.06,1-.12,2l-.05.85h2.6c0-.23,0-.55,0-.93,0-.1,0-.41,0-.94,0-.21,0-.53,0-1Z"/><path d="M1466,963.52h6.32v1.25H1466v7.32H1474v1.25h-16.18v-1.25h6.83v-13.6H1466Z"/><rect class="cls-2" x="1272.6" y="772.4" width="26.21" height="73.6"/><path d="M1435.31,934.92a27.63,27.63,0,0,1,2.43,2L1437,938a21.41,21.41,0,0,0-1.66-1.67v7.36H1434v-7.26a23.19,23.19,0,0,1-2.09,2.11l-.68-1.18a18.7,18.7,0,0,0,3-3.14,13.74,13.74,0,0,0,1.61-2.67h-4.28v-1.2H1434v-2.8h1.28v2.8h1.59l.6.66a21.1,21.1,0,0,1-2.16,3.79Zm2.29-6.64h9.74v1.11h-9.74Zm9.44,7.6v7.8h-1.25v-.78h-6.64v.78h-1.24v-7.8Zm-.87-5.34v4.17h-7.47v-4.17Zm-7,6.4v1.88h2.68v-1.88Zm0,2.9v2h2.68v-2Zm.77-8.28v2.13h5v-2.13Zm5.87,7.26v-1.88H1443v1.88Zm0,3v-2H1443v2Z"/><path d="M1432,955h5.3l.68.66a15,15,0,0,1-2.66,5.15,14.37,14.37,0,0,1-3,2.69l-.94-1a12.48,12.48,0,0,0,3.15-2.74,12.26,12.26,0,0,0,1.91-3.55H1432Zm8.24-1.61a11.66,11.66,0,0,0,1.21,3,24.91,24.91,0,0,0,4-3.49l1.11,1a31.11,31.11,0,0,1-4.55,3.46l.12.16a13.83,13.83,0,0,0,5.48,4.46l-1,1.2a14.41,14.41,0,0,1-6.46-6.87v7.06a1.26,1.26,0,0,1-.4,1.06,2.15,2.15,0,0,1-1.24.27c-.64,0-1.37,0-2.17-.12l-.29-1.35a15.4,15.4,0,0,0,2.28.19c.24,0,.39,0,.44-.15a.67.67,0,0,0,.07-.36v-9.71H1434V952h6.21Zm1-2.08a43.18,43.18,0,0,0-5-2l.86-.93a37.18,37.18,0,0,1,4.93,1.9Z"/><path d="M1432.56,982.76a8.64,8.64,0,0,1-1.8-11,8.63,8.63,0,0,1,1.8-2.26h1a14.81,14.81,0,0,0-1.47,1.94,8.76,8.76,0,0,0-1.43,4.72,8.65,8.65,0,0,0,1.28,4.46,14,14,0,0,0,1.62,2.18Z"/><path d="M1438.87,978.88v-1.16h1.1v1.16h4.8v.91H1440v1.63h6.15v.92h-13.3v-.92h6v-1.63h-4.72v-.91Zm-1.65-8.06v1.3h2.12v2.8h-2.12v1.36h2.24v.82h-6V970h6v.84Zm-1,0h-1.78v1.3h1.78Zm2.09,2.07h-3.87v1.25h3.87Zm-2.09,2h-1.78v1.36h1.78Zm7.25-.27a9.63,9.63,0,0,0,2.6,1.78l-.66.91a11,11,0,0,1-2.56-1.93,9.06,9.06,0,0,1-2.67,2l-.63-.86a7.22,7.22,0,0,0,2.63-1.85,10,10,0,0,1-1.81-3.8h-.53V970h5l.54.52A12.73,12.73,0,0,1,1443.5,974.65Zm-.66-.76a9.47,9.47,0,0,0,1.33-3h-2.77A8.36,8.36,0,0,0,1442.84,973.89Z"/><path d="M1445.34,982.76a14.36,14.36,0,0,0,1.48-2,8.48,8.48,0,0,0,.15-9.16,15.38,15.38,0,0,0-1.63-2.19h1a9.16,9.16,0,0,1,2.05,2.75,8.78,8.78,0,0,1,1,3.9,8.9,8.9,0,0,1-1.24,4.38,8.33,8.33,0,0,1-1.79,2.27Z"/><rect class="cls-7" x="1315.5" y="899.49" width="61.89" height="93.17"/><rect class="cls-7" x="1147.5" y="899.49" width="119" height="93.17"/><rect class="cls-2" x="1266.5" y="899.49" width="49" height="93.17"/><rect class="cls-7" x="553.5" y="772.5" width="70" height="93"/><rect class="cls-2" x="555.5" y="210.5" width="70" height="98"/><rect class="cls-2" x="658.5" y="772.5" width="70" height="93"/><rect class="cls-7" x="728.5" y="772.5" width="70" height="93"/><rect class="cls-7" x="798.5" y="772.5" width="204" height="93"/><rect class="cls-2" x="945.5" y="899.5" width="163" height="93"/><rect class="cls-2" x="782.5" y="899.5" width="163" height="93"/><rect class="cls-2" x="722.5" y="899.5" width="60" height="93"/><rect class="cls-2" x="553.5" y="899.5" width="169" height="93"/><rect class="cls-7" x="1003.25" y="81.79" width="55.25" height="96.5"/><rect class="cls-7" x="1058.5" y="81.79" width="52.38" height="96.5"/><rect class="cls-2" x="740.5" y="210.68" width="255.28" height="97.82"/><rect class="cls-2" x="701.5" y="210.5" width="39" height="98"/><rect class="cls-2" x="663.5" y="210.5" width="39" height="98"/><path d="M1064.3,114h1.36v4.13l8.16-1.1.85.83a10.44,10.44,0,0,1-4.28,5.71l-1-.88a8.14,8.14,0,0,0,2.44-2.13,7.55,7.55,0,0,0,1.2-2.21l-7.37,1v5.89c0,.65.2,1.05.58,1.2a10.94,10.94,0,0,0,2.81.21c1.47,0,3-.08,4.67-.24v1.39c-1.31.11-2.66.16-4,.16a16.11,16.11,0,0,1-4.34-.33c-.68-.28-1-1-1-2.1v-6l-3.57.5-.13-1.3,3.7-.5Zm8.68,2.62a12.51,12.51,0,0,0-1.48-2.72l1-.39a14.45,14.45,0,0,1,1.49,2.68Zm2.19-.52a12.33,12.33,0,0,0-1.48-2.73l1-.36a11.41,11.41,0,0,1,1.49,2.65Z"/><path d="M1089.36,128.38q-6.4-2-11.83-3.16l.3-1.36A115,115,0,0,1,1089.6,127Zm-.4-10.8a89.7,89.7,0,0,0-9.93-2.24l.19-1.28a78.62,78.62,0,0,1,9.93,2.22Zm-.87,4.85a59.28,59.28,0,0,0-8.77-2.13l.21-1.32a58.44,58.44,0,0,1,8.76,2.15Z"/><path d="M1098.58,118.74l-.07.11a17,17,0,0,1-1.83,2.33h.84q1.92,0,4.44-.15l1.89-.09c-.56-.53-1.13-1-1.7-1.52l1.06-.61a38.35,38.35,0,0,1,3.14,2.86l.44.44-1,.79c-.33-.37-.62-.69-.9-1l-.1-.11-4.25.28v2.2h5.83v1.1h-5.83v2.2h7.23v1.11H1092V127.6h7.14v-2.2h-5.71v-1.1h5.71v-2.12l-.91,0c-1.36.06-2.86.1-4.53.14l-.41-1.13,1.89,0a19.7,19.7,0,0,0,1.87-2.47h-2.74v-1.1h11.09v1.1Zm1.91-3.76h6.76v3.2h-1.33v-2.11H1093.8v2.11h-1.32V115h6.68v-1.8h1.33Z"/><path d="M1085,135.29h1.87v9.19h2.63v1.32h-2.63v3.34h-1.49V145.8h-7v-1.3Zm.38,9.19v-4.89c0-.94,0-1.92.08-2.94h-.06a18.39,18.39,0,0,1-1.25,2.16l-4,5.67Z"/><path d="M1011.27,114.45h1.36v4.13l8.16-1.1.85.83a10.44,10.44,0,0,1-4.28,5.71l-1-.88a8.14,8.14,0,0,0,2.44-2.13,7.55,7.55,0,0,0,1.2-2.21l-7.37,1v5.89c0,.65.19,1.05.58,1.2a10.94,10.94,0,0,0,2.81.21c1.47,0,3-.08,4.67-.24v1.39c-1.31.11-2.66.16-4.05.16a16.11,16.11,0,0,1-4.34-.33c-.68-.28-1-1-1-2.1v-6l-3.57.5-.13-1.3,3.7-.5Zm8.68,2.62a12.51,12.51,0,0,0-1.48-2.72l1-.39a14.45,14.45,0,0,1,1.49,2.68Zm2.19-.52a12.33,12.33,0,0,0-1.48-2.73l1-.36a11.41,11.41,0,0,1,1.49,2.65Z"/><path d="M1036.33,128.88q-6.4-2-11.83-3.16l.29-1.36a114.53,114.53,0,0,1,11.78,3.16Zm-.4-10.8a89.7,89.7,0,0,0-9.93-2.24l.19-1.28a78.62,78.62,0,0,1,9.93,2.22Zm-.87,4.85a59.59,59.59,0,0,0-8.77-2.13l.21-1.32a58.74,58.74,0,0,1,8.76,2.15Z"/><path d="M1045.55,119.24l-.07.11a17,17,0,0,1-1.83,2.33h.84q1.92,0,4.44-.15l1.89-.09c-.56-.53-1.13-1-1.7-1.52l1.06-.61a38.35,38.35,0,0,1,3.14,2.86l.44.44-1,.79c-.33-.37-.63-.69-.9-1l-.1-.11-4.25.28v2.2h5.83v1.1h-5.83v2.2h7.23v1.11H1039V128.1h7.14v-2.2h-5.71v-1.1h5.71v-2.12l-.92,0c-1.35.06-2.85.1-4.52.14l-.41-1.13,1.89,0a19.7,19.7,0,0,0,1.87-2.47h-2.74v-1.1h11.09v1.1Zm1.91-3.76h6.76v3.2h-1.33v-2.11h-12.12v2.11h-1.32v-3.2h6.68v-1.8h1.33Z"/><path d="M1028.8,141.74h1.07a5.45,5.45,0,0,0,2.55-.51,3.62,3.62,0,0,0,.41-.27,2.23,2.23,0,0,0,.83-1.75,2,2,0,0,0-.88-1.72,3.53,3.53,0,0,0-2.06-.56,5,5,0,0,0-3.48,1.5l-1-1a5.56,5.56,0,0,1,1.51-1.06,6.7,6.7,0,0,1,3-.71,5.73,5.73,0,0,1,2.82.66,3.14,3.14,0,0,1,.72,5.13,4.05,4.05,0,0,1-2.28.93v.06a4.72,4.72,0,0,1,2.73,1,3.18,3.18,0,0,1,1.06,2.51,3.47,3.47,0,0,1-1.56,3,6.12,6.12,0,0,1-3.54.92,6.56,6.56,0,0,1-4.93-1.94l1-1a5,5,0,0,0,1.2.92,5.61,5.61,0,0,0,2.74.7,4.05,4.05,0,0,0,2.57-.74,2.31,2.31,0,0,0,.83-1.89c0-1.92-1.44-2.89-4.3-2.89h-1Z"/><path d="M1177.68,951a7.49,7.49,0,0,1-5.09,1.85,6.33,6.33,0,0,1-5-2.21,7.13,7.13,0,0,1-1.65-4.91,7.61,7.61,0,0,1,1.26-4.37,6,6,0,0,1,.94-1.12,6.19,6.19,0,0,1,4.35-1.7,7,7,0,0,1,2.83.55,8,8,0,0,1,2.05,1.37l-1,1.14a5.19,5.19,0,0,0-2-1.37,5.27,5.27,0,0,0-1.82-.29,4.34,4.34,0,0,0-3.53,1.6,6.38,6.38,0,0,0-1.39,4.21,6.16,6.16,0,0,0,1.08,3.68,4.84,4.84,0,0,0,1.64,1.44,4.54,4.54,0,0,0,2.2.57,5.81,5.81,0,0,0,4.24-1.73Z"/><path d="M1184.21,938.71h1.6l5.45,13.84h-1.73l-1.55-4.06h-6l-1.54,4.06h-1.74Zm3.32,8.47-1.45-3.81a25.84,25.84,0,0,1-1-3.06H1185c-.17.65-.51,1.67-1,3.06l-1.44,3.81Z"/><path d="M1193.26,938.78h1.61v12.36h6.63v1.41h-8.24Z"/><path d="M1203.46,938.78h1.61v12.36h6.63v1.41h-8.24Z"/><path d="M1221.92,942.28a15.7,15.7,0,0,0,2.46-3.72l1,.7a20.52,20.52,0,0,1-2,3h1.56v1.12h-2.53a20.8,20.8,0,0,1-2.11,1.91H1224l.53.68a17,17,0,0,1-2.43,1.89v.8l.31,0c.72-.1,1.64-.24,2.74-.43l.06,1c-.89.19-1.84.36-2.84.52l-.27,0v2.66a1.38,1.38,0,0,1-.32,1,1.57,1.57,0,0,1-1,.24c-.54,0-1.19,0-2-.09l-.27-1.16a13.91,13.91,0,0,0,1.91.16c.27,0,.4-.14.4-.42V950l-1.08.14c-.91.11-1.82.22-2.73.31l-.32-1.17c1.38-.11,2.76-.25,4.13-.41v-1.36a9.53,9.53,0,0,0,1.64-1.13h-3.65c-.64.43-1.24.79-1.78,1.08l-.7-.95a21.87,21.87,0,0,0,4.4-3.08h-4.21v-1.12h3.28v-1.87h-2.6v-1.08h2.6v-1.74h1.25v1.74h2.12v1.08h-2.12v1.87Zm6.08,6.49a21.16,21.16,0,0,1-1.85-4.47,16.16,16.16,0,0,1-.85,1.55l-.88-1.06a20.24,20.24,0,0,0,2.42-7.12l1.26.24c-.18.92-.39,1.84-.63,2.74h5.14v1.17h-1.34V942a19.85,19.85,0,0,1-1.83,6.83,16.12,16.12,0,0,0,3.43,3.59l-.78,1.25a17.77,17.77,0,0,1-3.32-3.63,11.62,11.62,0,0,1-3.82,3.77l-.87-1.07A10,10,0,0,0,1228,948.77Zm.65-1.26a19.24,19.24,0,0,0,1.36-5.69h-2.9c-.12.37-.2.63-.25.77A19.64,19.64,0,0,0,1228.65,947.51Z"/><path d="M1240.3,943.15s0,.08-.06.11a16.4,16.4,0,0,1-1.84,2.33h.85q1.92,0,4.44-.15l1.89-.08c-.56-.53-1.13-1-1.7-1.52l1.06-.61a38.09,38.09,0,0,1,3.14,2.85l.44.44-1,.8c-.33-.37-.63-.69-.9-1l-.11-.12-4.25.28v2.21h5.84v1.1h-5.84V952h7.24v1.1h-15.7V952h7.13v-2.2h-5.71v-1.1h5.71v-2.12l-.91,0c-1.35,0-2.86.1-4.52.14l-.41-1.14h1.89a20.71,20.71,0,0,0,1.87-2.47h-2.75v-1.1h11.09v1.1Zm1.91-3.76H1249v3.2h-1.33v-2.11h-12.12v2.11h-1.33v-3.2h6.68v-1.8h1.33Z"/><path d="M1345.15,914.27v15.25h-1.33v-.92H1332v.92h-1.33V914.27ZM1332,915.39v12.06h11.82V915.39Zm6.35,2.65v2.47h3.83v1h-3.83v3.23H1343v1.1h-10.15v-1.1h4.26v-3.23h-3.52v-1h3.52V918H1333v-1.1h9.73V918Zm2.81,6.46a10.6,10.6,0,0,0-1.72-2.09l1-.59a11.86,11.86,0,0,1,1.73,2Z"/><path d="M1347.29,914.08h3.92l.59.56a39.35,39.35,0,0,1-1.61,4.78,7,7,0,0,1,1.42,4.22,4.45,4.45,0,0,1-.22,1.56,1.42,1.42,0,0,1-1.5.85,5.69,5.69,0,0,1-1-.07l-.23-1.26a4.25,4.25,0,0,0,1,.1c.33,0,.54-.1.6-.3a3.65,3.65,0,0,0,.1-1,6.21,6.21,0,0,0-1.36-3.92,28.94,28.94,0,0,0,1.4-4.33h-1.94v14.27h-1.18Zm6.52,5a8.52,8.52,0,0,0-1.25-1,11.32,11.32,0,0,1-.86.84l-.73-.78a10.75,10.75,0,0,0,3-4.75l1.1.25c-.1.31-.19.58-.28.82h1.8l.64.71a12.18,12.18,0,0,1-2.73,4.75h5.64v1.1h-5.78v-.95a11.35,11.35,0,0,1-2.12,1.68l-.78-.84A9.79,9.79,0,0,0,1353.81,919.12Zm-2.52,8.68a9.62,9.62,0,0,0,2.49-3.33l1.18.48a11.63,11.63,0,0,1-2.61,3.7Zm6.6-4v4.44a1.21,1.21,0,0,1-.35,1,1.79,1.79,0,0,1-1.1.26,15.06,15.06,0,0,1-1.69-.1l-.28-1.23a11.85,11.85,0,0,0,1.58.17c.29,0,.47,0,.53-.11a.49.49,0,0,0,.07-.31v-4.1h-4.54v-1.12h10.65v1.12Zm-3.44-5.41c.17-.22.33-.46.5-.73a9.43,9.43,0,0,0-1.33-.85c-.17.24-.32.45-.46.62A11.38,11.38,0,0,1,1354.45,918.36Zm-.08-2.87c-.1.2-.19.38-.29.54a8.91,8.91,0,0,1,1.35.75c.21-.44.39-.87.55-1.29Zm5.91,2.49a10.69,10.69,0,0,0,2.85,2.51l-.78,1a13.93,13.93,0,0,1-3.9-4.21,17.3,17.3,0,0,1-1.39-3.53l1.09-.26a13.71,13.71,0,0,0,1.52,3.59l.08-.08a9.45,9.45,0,0,0,1.42-1.58h-2.06v-1h3l.74.7A17.28,17.28,0,0,1,1360.28,918Zm1.67,10.55a22.56,22.56,0,0,0-2.71-3.38l1-.63a19.84,19.84,0,0,1,2.77,3.22Z"/><path d="M1328.48,946.23a25.81,25.81,0,0,1-3.27-3.79l1-.69a23.53,23.53,0,0,0,3.22,3.68,15.37,15.37,0,0,0,3.12-4.07l1.17.68a22.18,22.18,0,0,1-3.31,4.19,21,21,0,0,0,6.83,2.93l-.82,1.25a19.19,19.19,0,0,1-6.94-3.35,18.11,18.11,0,0,1-7,3.46l-.8-1.18A16,16,0,0,0,1328.48,946.23Zm1.57-9.51h7v1.22h-15.19v-1.22h6.83v-2.35h1.38Zm-8.16,5.43a12.46,12.46,0,0,0,4.3-3.89l1.11.66a14,14,0,0,1-4.51,4.22Zm13.87.67a28.86,28.86,0,0,0-4.4-3.83l.92-.81a26.74,26.74,0,0,1,4.45,3.7Z"/><path d="M1340.88,942.25a18.43,18.43,0,0,0-2.62-2.51l.88-1a16.32,16.32,0,0,1,2.69,2.46Zm-2.34,7a24.88,24.88,0,0,0,2.93-5.47l1.08.88a28.22,28.22,0,0,1-2.89,5.63Zm3-11.27a18.94,18.94,0,0,0-2.54-2.53l.9-.89a17.6,17.6,0,0,1,2.58,2.43Zm3,5h1.22v1a10.13,10.13,0,0,1-.69,4.29,5.11,5.11,0,0,1-2.16,2.14l-1-1a4.76,4.76,0,0,0,1.87-1.56,7.69,7.69,0,0,0,.77-3.93Zm4.47-6.52h5.08v1.14h-6l-.09.17a21.82,21.82,0,0,1-1.77,3l.68,0c1.17,0,2.69-.13,4.55-.26-.46-.55-1-1.11-1.56-1.69l1-.63a26.38,26.38,0,0,1,3.23,3.61l-1.12.75c-.28-.41-.54-.77-.77-1.08q-3.45.45-8.59.65l-.36-1.22,1.56-.05a19.15,19.15,0,0,0,1.8-3.18h-3.52v-1.14h4.58v-2.09H1349Zm-1.55,6.76h1.22v6.5h-1.22Zm3.08-.44h1.21v5.8a.31.31,0,0,0,.13.3,1.3,1.3,0,0,0,.54.07c.41,0,.65-.1.71-.31a8.32,8.32,0,0,0,.19-1.73l0-.36,1.19.5a6.12,6.12,0,0,1-.43,2.59,1.26,1.26,0,0,1-.94.49,9,9,0,0,1-1,0,2.43,2.43,0,0,1-1.29-.24,1.07,1.07,0,0,1-.36-.94Z"/><path d="M1362.11,939.93l-.07.11a16.83,16.83,0,0,1-1.83,2.33h.85c1.27,0,2.76-.07,4.44-.15l1.88-.08c-.56-.53-1.12-1-1.69-1.52l1-.61a35,35,0,0,1,3.15,2.85l.44.44-1.06.8c-.32-.37-.62-.7-.89-1l-.11-.12-4.25.28v2.2h5.84v1.11H1364v2.2h7.24v1.1h-15.71v-1.1h7.14v-2.2H1357v-1.11h5.71v-2.11l-.91,0c-1.35.05-2.86.1-4.53.14l-.4-1.14c.72,0,1.35,0,1.88,0a19.84,19.84,0,0,0,1.88-2.46h-2.75v-1.1H1369v1.1Zm1.91-3.76h6.77v3.19h-1.33v-2.1h-12.12v2.1H1356v-3.19h6.68v-1.8H1364Z"/><path d="M1322.74,971.52a11.61,11.61,0,0,1-3.69-8.08,10.89,10.89,0,0,1,1.5-5.32,10.22,10.22,0,0,1,2.19-2.75H1324a18.84,18.84,0,0,0-1.79,2.35,10.67,10.67,0,0,0-1.73,5.73,10.45,10.45,0,0,0,1.55,5.41,17.86,17.86,0,0,0,2,2.66Z"/><path d="M1336.86,970.4l-.27-1.77a4.32,4.32,0,0,1-.76.82,4.83,4.83,0,0,1-3.22,1.13,6.15,6.15,0,0,1-4.69-2,7.21,7.21,0,0,1-1.8-5.12,7.41,7.41,0,0,1,1.89-5.22,6.08,6.08,0,0,1,4.71-2,7.61,7.61,0,0,1,3.07.57,8.41,8.41,0,0,1,1.77,1.12l-.89,1.17a6,6,0,0,0-1.56-1,5.87,5.87,0,0,0-2.33-.43,4.57,4.57,0,0,0-3.56,1.53,6.21,6.21,0,0,0-1.4,4.31,6.5,6.5,0,0,0,.92,3.58,4.37,4.37,0,0,0,1.77,1.59,4.7,4.7,0,0,0,2.18.51,4.28,4.28,0,0,0,2.47-.73,4.64,4.64,0,0,0,1.4-1.43v-2.12h-3.91v-1.32h5.4v6.81Z"/><path d="M1352.19,968.75a7.56,7.56,0,0,1-5.09,1.85,6.38,6.38,0,0,1-5-2.21,7.17,7.17,0,0,1-1.64-4.91,7.74,7.74,0,0,1,1.25-4.38,6.73,6.73,0,0,1,.94-1.11,6.19,6.19,0,0,1,4.35-1.7,7,7,0,0,1,2.83.55,7.55,7.55,0,0,1,2.05,1.37l-1,1.13a5.37,5.37,0,0,0-2-1.37,5.47,5.47,0,0,0-1.82-.29,4.35,4.35,0,0,0-3.53,1.61,6.36,6.36,0,0,0-1.39,4.21,6.1,6.1,0,0,0,1.09,3.68,4.81,4.81,0,0,0,1.63,1.44,4.54,4.54,0,0,0,2.2.57,5.76,5.76,0,0,0,4.24-1.74Z"/><path d="M1360.39,956.29a6.25,6.25,0,0,1,3.48,1,6.37,6.37,0,0,1,2.45,3.11,8.24,8.24,0,0,1,.53,3,8.08,8.08,0,0,1-.89,3.86,6,6,0,0,1-2.55,2.58,6.5,6.5,0,0,1-3.05.72,6.2,6.2,0,0,1-3.95-1.3,6.37,6.37,0,0,1-2.14-3.17,8.66,8.66,0,0,1-.41-2.69A7.19,7.19,0,0,1,1356,958,6.14,6.14,0,0,1,1360.39,956.29Zm-.05,1.34a4.27,4.27,0,0,0-2.75,1,5.82,5.82,0,0,0-2,4.85,7,7,0,0,0,.69,3.2,4.79,4.79,0,0,0,1.46,1.74,4.4,4.4,0,0,0,2.63.83,4.27,4.27,0,0,0,3.56-1.75,7.25,7.25,0,0,0-.06-8.14A4.32,4.32,0,0,0,1360.34,957.63Z"/><path d="M1368.86,971.52a20.17,20.17,0,0,0,1.79-2.36,10.63,10.63,0,0,0,1.73-5.71,10.52,10.52,0,0,0-1.55-5.43,19.52,19.52,0,0,0-2-2.65h1.24a11.18,11.18,0,0,1,2.49,3.34,10.66,10.66,0,0,1,1.2,4.73,10.91,10.91,0,0,1-1.51,5.32,10.24,10.24,0,0,1-2.18,2.76Z"/><path d="M1002.33,943.4a14.49,14.49,0,0,0,2.83,5.3,15,15,0,0,0,4.38,3.67l-.87,1.26a16.3,16.3,0,0,1-4.79-4.32,16.51,16.51,0,0,1-2.24-4.28,11.94,11.94,0,0,1-7.1,8.68l-.88-1.12a11.14,11.14,0,0,0,5.25-4.3,11,11,0,0,0,1.77-4.89h-6.87v-1.3h6.92v-4.23h1.38v4.23h7v1.3Z"/><path d="M1014.43,942.91h8.33v1.15h-8.34v-1.15a19.71,19.71,0,0,1-3.34,1.88l-.76-1.07a15,15,0,0,0,7.28-6h1.49a17.35,17.35,0,0,0,4.44,4,26.39,26.39,0,0,0,3.11,1.56l-.72,1.19a25.84,25.84,0,0,1-3.65-2,20.15,20.15,0,0,1-3.89-3.55A15,15,0,0,1,1014.43,942.91Zm3,4.72a32.74,32.74,0,0,1-2.63,4.26l1.66-.09q3.18-.15,6.16-.5c-.86-.93-1.62-1.7-2.27-2.31l1.07-.7a38.23,38.23,0,0,1,4.44,4.59l-1.17.87c-.51-.65-.92-1.15-1.23-1.51-3.83.54-7.7.89-11.59,1.08l-.44-1.32,1.17,0,.67,0a28.44,28.44,0,0,0,2.48-4.25l0-.07h-5.06v-1.17h15.59v1.17Z"/><path d="M1027.38,940.85h5.75V942h-5.75Zm5.34,7.43V953h-3.64v.9h-1.17v-5.57Zm-4.6-9.88h4.38v1.07h-4.38Zm0,5h4.39v1.07h-4.39Zm0,2.43h4.39v1.05h-4.39Zm1,3.58v2.5h2.46v-2.5Zm11.67.58a19.21,19.21,0,0,0,1.33-1.51l.91.68c-.65.75-1.24,1.4-1.79,1.92a5,5,0,0,0,.75,1.13c.15.16.25.23.33.23s.33-.58.42-1.75l1,.62c-.13,1.73-.5,2.59-1.1,2.59a1.72,1.72,0,0,1-1-.48,5.36,5.36,0,0,1-1.27-1.55,16,16,0,0,1-2.41,1.73l-.75-.89a14.43,14.43,0,0,0,2.65-1.84,11.67,11.67,0,0,1-.66-2.63h-2.4v1.16l.22,0,1.7-.35.06.93c-.41.12-1.07.27-2,.47v2.38a1.15,1.15,0,0,1-.26.86,1.43,1.43,0,0,1-1,.25,10.83,10.83,0,0,1-1.53-.1l-.21-1.11a8.46,8.46,0,0,0,1.46.14c.18,0,.29-.06.32-.19a.82.82,0,0,0,0-.24v-1.76c-.95.17-1.74.3-2.36.39l-.28-1.09c.81-.08,1.7-.2,2.64-.35v-1.35H1033v-1h2.64v-.92c-.51.09-1.09.17-1.76.24l-.43-.83a23.67,23.67,0,0,0,4.21-.85l.68.83c-.49.14-1,.27-1.53.39v1.14H1039c-.07-.74-.12-1.51-.14-2.31h1.17c0,.73.08,1.5.16,2.31h3.33v1h-3.19A12.92,12.92,0,0,0,1040.75,949.94Zm-4.91-10.81a8.64,8.64,0,0,0-.67-1.12l1.1-.34a8,8,0,0,1,.81,1.46h2.13l.11-.21a9.93,9.93,0,0,0,.59-1.29l1.3.31c-.2.36-.44.76-.73,1.19h2.59v1h-4.3v1.11h3.73v1h-3.73v1.17h4.73v1H1033v-1h4.59v-1.17h-3.51v-1h3.51v-1.11h-4.17v-1Zm6.08,7.92a7.68,7.68,0,0,0-1.2-1.71l.93-.5a8.53,8.53,0,0,1,1.24,1.67Z"/><path d="M1051.17,943.26l-.07.11a17,17,0,0,1-1.83,2.33h.84q1.92,0,4.44-.15l1.89-.08c-.56-.53-1.13-1-1.7-1.52l1.06-.61a38.09,38.09,0,0,1,3.14,2.85l.44.44-1.05.8c-.33-.37-.63-.69-.9-1l-.1-.12c-.32,0-1.74.13-4.25.29v2.2h5.83v1.1h-5.83v2.2h7.23v1.1h-15.7v-1.1h7.14v-2.2H1046v-1.1h5.71V946.7l-.92,0c-1.35.06-2.85.1-4.52.14l-.41-1.14h1.89a19.7,19.7,0,0,0,1.87-2.47h-2.74v-1.1H1058v1.1Zm1.91-3.76h6.76v3.2h-1.33v-2.11h-12.12v2.11h-1.32v-3.2h6.68v-1.8h1.33Z"/><path d="M826.58,817.86a24.09,24.09,0,0,0,.68-4.86l1.11.13a25.24,25.24,0,0,1-.72,5.36Zm2.32-8.38h1.29v16.15H828.9Zm2.32,5.24a14.31,14.31,0,0,0-1-2.59l.81-.64a13.55,13.55,0,0,1,1.09,2.42Zm6.53-4h4.5v1h-4.5v1h3.86v1h-3.86v1.08h5.17v1H831.51v-1h5V813.7h-3.75v-1h3.75v-1h-4.35v-1h4.35v-1.22h1.27Zm3.59,6.18v7.39a1.26,1.26,0,0,1-.33,1,1.54,1.54,0,0,1-1.07.3c-.5,0-1.15,0-2-.08l-.22-1.17a16,16,0,0,0,1.81.11c.2,0,.34,0,.39-.12a.67.67,0,0,0,.07-.37v-1.62h-5.77v3.33H833v-8.74Zm-7.07,1V819H840v-1.2Zm0,2.19v1.27H840V820Z"/><path d="M848.54,818.91v1.94h3V822h-3v3.65h-1.29V822h-3v-1.12h3v-1.94H844V817.8h1.7c-.25-1-.48-1.82-.69-2.4h-1.32v-1.11h3.52v-1.84h-2.85v-1.1h2.85v-1.87h1.3v1.87h2.75v1.1h-2.75v1.84h3.24v1.11H850.6a21.74,21.74,0,0,1-.8,2.4h1.86v1.11Zm.81-3.51h-3.11c.23.69.45,1.5.66,2.4h1.72A19.83,19.83,0,0,0,849.35,815.4Zm9.48-5.27v4a1.17,1.17,0,0,1-.37,1,2,2,0,0,1-1.12.23c-.63,0-1.26,0-1.86-.09l-.25-1.15c.87.09,1.53.13,2,.13a.33.33,0,0,0,.38-.37v-2.63h-4.06v5.37h5.08l.73.63a15.07,15.07,0,0,1-1.86,4.93,11.37,11.37,0,0,0,2.56,2.24l-.77,1.17a13.26,13.26,0,0,1-2.52-2.33,13.64,13.64,0,0,1-2.36,2.4l-.81-1.07a10,10,0,0,0,2.4-2.34,14.62,14.62,0,0,1-2-4.53h-.44v7.9h-1.28V810.13Zm-3.73,7.59a11.93,11.93,0,0,0,1.54,3.47,10.64,10.64,0,0,0,1.28-3.47Z"/><path d="M864.62,810.24H866v3.91l8.14-1.09.86.83a10.43,10.43,0,0,1-4.29,5.72l-1-.88a7.88,7.88,0,0,0,2.4-2.06,7.67,7.67,0,0,0,1.23-2.28L866,815.45v6.08c0,.66.19,1.06.57,1.21a11,11,0,0,0,2.81.21,45.7,45.7,0,0,0,4.68-.25v1.4c-1.32.1-2.67.15-4.06.15a16,16,0,0,1-4.33-.32c-.68-.28-1-1-1-2.11v-6.19l-3.6.51-.13-1.31,3.73-.49Z"/><path d="M882.77,814.35a28.87,28.87,0,0,0-5-1.73l.44-1.29a23.75,23.75,0,0,1,5.09,1.72Zm-4.92,8.56a20.86,20.86,0,0,0,5.28-1q5-1.87,6.29-8.6l1.15.83a14.27,14.27,0,0,1-2.41,5.79,10,10,0,0,1-4.89,3.41,24.18,24.18,0,0,1-5.07,1Z"/><path d="M904.39,812l.92.8a16.94,16.94,0,0,1-3.68,8,13.12,13.12,0,0,1-3.54,2.7,16.76,16.76,0,0,1-3.43,1.39l-.7-1.19a13.73,13.73,0,0,0,6.71-3.84,26.39,26.39,0,0,0-4.45-3.34l.78-1a24.7,24.7,0,0,1,4.49,3.23,15,15,0,0,0,2.3-5.57h-6.13a14.43,14.43,0,0,1-4.56,4.69l-.91-.94a11.77,11.77,0,0,0,2.57-2,12.49,12.49,0,0,0,2.94-4.8l1.31.34,0,.06q-.36.9-.66,1.5Z"/><path d="M907.51,816.58h14.32v1.32H907.51Z"/><path d="M923.28,812.62h5.87v1.13h-5.87Zm5.38,7.43v4.68H925v.9h-1.18v-5.58ZM924,810.18h4.46v1.07H924Zm0,4.94h4.46v1.07H924Zm0,2.44h4.46v1.05H924Zm1,3.58v2.5h2.51v-2.5Zm9.75-4.91v.89h3.57v4.25h1.17v1.08h-1.17v1.83a1.19,1.19,0,0,1-.4,1,1.75,1.75,0,0,1-1,.24,11.57,11.57,0,0,1-1.69-.11l-.23-1.15a12.69,12.69,0,0,0,1.76.12c.28,0,.41-.13.41-.39v-1.6h-5.78v3.21h-1.18v-3.17H929v-1.08h1.17v-4.25h3.41v-.89H929v-1h2.57V814h-1.7v-1h1.7v-1.11h-2.18v-1h2.18v-1.41h1.2v1.41h2.78v-1.41h1.21v1.41H939v1h-2.26V813h1.8v1h-1.8v1.22h2.68v1Zm-1.17,1.84h-2.23v1.15h2.23Zm0,2.08h-2.23v1.26h2.23Zm2-8.24h-2.78V813h2.78Zm0,2.08h-2.78v1.22h2.78Zm-.8,4.08v1.15h2.38v-1.15Zm0,2.08v1.26h2.38v-1.26Z"/><path d="M952.09,821.63c.75-.52,1.41-1,2-1.47l.9.75c-.83.65-1.61,1.22-2.35,1.71a4,4,0,0,0,1.31,1.29,1.4,1.4,0,0,0,.55.23c.29,0,.5-.72.65-2.16l1.15.69c-.2,2-.69,2.94-1.48,2.94a2.55,2.55,0,0,1-1-.33,5.78,5.78,0,0,1-2.17-2,23.3,23.3,0,0,1-3.71,1.89l-.77-1A21,21,0,0,0,951,822.3a11.07,11.07,0,0,1-.79-2.34H946v1.2c.91-.07,2-.19,3.38-.36v.92c-1,.16-2.06.31-3.2.44l-.18,0v2.31a1,1,0,0,1-.43,1,2,2,0,0,1-1,.18,19.19,19.19,0,0,1-2.07-.12l-.23-1.12c1,.1,1.65.15,2,.15s.34,0,.39-.14a.54.54,0,0,0,.05-.29v-1.78c-1.35.13-2.63.23-3.86.31l-.32-1.11c1.5-.06,2.89-.15,4.18-.26V820h-4.4v-1h4.4v-1c-1.06.1-2.11.18-3.16.22l-.42-.92a40.07,40.07,0,0,0,6.85-.8l.68.91c-.93.19-1.81.34-2.65.44V819h4.06a20.63,20.63,0,0,1-.25-2.32h1.27c.08.92.17,1.69.27,2.32h5.1v1H951.5A11,11,0,0,0,952.09,821.63ZM945,810.91a7.58,7.58,0,0,0-.79-1.16l1.38-.34a9.65,9.65,0,0,1,.87,1.5h3.8a8.79,8.79,0,0,0,.81-1.5l1.47.29c-.29.45-.55.85-.8,1.21h4.23v1h-7V813h6v1h-6v1.17h7.45v1H940.33v-1h7.33V814h-5.92v-1h5.92v-1.11H940.8v-1Zm9,8a9.65,9.65,0,0,0-1.86-1.8l.9-.67a11.28,11.28,0,0,1,1.9,1.71Z"/><path d="M964.06,815l-.07.11a17.64,17.64,0,0,1-1.83,2.33H963c1.28,0,2.76-.07,4.45-.15l1.88-.08c-.56-.53-1.12-1-1.69-1.52l1.05-.61a37.92,37.92,0,0,1,3.15,2.85l.44.44-1.06.8c-.32-.37-.62-.7-.89-1l-.11-.12-4.25.28v2.2h5.83v1.11H966v2.2h7.24V825H957.5v-1.1h7.14v-2.2h-5.71v-1.11h5.71v-2.11l-.91,0c-1.35.05-2.86.1-4.53.14l-.4-1.14h1.88a20.75,20.75,0,0,0,1.88-2.47h-2.75v-1.1H970.9V815Zm1.91-3.76h6.76v3.2H971.4v-2.11H959.29v2.11H958v-3.2h6.68v-1.8H966Z"/><path d="M745.67,796.52v-1.07h-6.95v-1.07h6.95V793H747v1.38H754v1.07H747v1.07h5.75v5.93h-2.18v1.22h3.91v1.11h-3.91v3a1.29,1.29,0,0,1-.42,1.12,1.94,1.94,0,0,1-1.11.24c-.53,0-1.3,0-2.31-.1l-.31-1.22a22.32,22.32,0,0,0,2.35.14c.23,0,.36-.05.4-.15a.71.71,0,0,0,0-.29v-2.74H738.31v-1.11h10.88v-1.22H740v-5.93ZM744,808.26a17.38,17.38,0,0,0-2.73-2.45l1-.76a18.76,18.76,0,0,1,2.76,2.35Zm1.63-10.74h-4.32V799h4.32Zm0,2.43h-4.32v1.5h4.32Zm1.31-2.43V799h4.44v-1.45Zm0,2.43v1.5h4.44V800Z"/><path d="M759.29,796.23v7.52c.85-.26,1.67-.55,2.45-.86l.13,1.22a60,60,0,0,1-6.13,2.11l-.55-1.33c.93-.22,1.85-.47,2.74-.73v-7.93h-2.48V795h6.07v1.21Zm6,8a17.75,17.75,0,0,1-2.46-4.9l-.06.09a14.55,14.55,0,0,1-1.35,2l-.91-1a17.9,17.9,0,0,0,3.21-7.35l1.33.23c-.27,1.08-.53,2-.79,2.72h6.92v1.22h-1.72A17,17,0,0,1,767,804.2a17.46,17.46,0,0,0,4.58,3.57L770.7,809a15.69,15.69,0,0,1-4.54-3.72,14.17,14.17,0,0,1-5,3.79l-.82-1.11A12,12,0,0,0,765.31,804.25Zm.76-1.13a17,17,0,0,0,2.08-5.84h-4.32c-.09.22-.18.41-.25.57A15.49,15.49,0,0,0,766.07,803.12Z"/><path d="M775.5,801.26a18.41,18.41,0,0,1-2.51,4.55l-.76-1.25a16.65,16.65,0,0,0,3.09-5.53h-2.93v-1.17h3.11v-2.71c-.71.16-1.47.3-2.27.41l-.55-1a31.8,31.8,0,0,0,5.82-1.42l.76,1c-.83.3-1.61.54-2.34.73l-.14,0v3h2.63V799h-2.63v1.22a22.56,22.56,0,0,1,2.73,2.19l-.81,1.1a27.25,27.25,0,0,0-1.92-2v7.57H775.5ZM786,802.55l2.42-.46.1,1.21-2.52.49v5.36h-1.34v-5.1l-5.76,1.12-.23-1.22,6-1.14V793H786Zm-3.43-.71a24.43,24.43,0,0,0-2.81-2.57l.78-.92a17.61,17.61,0,0,1,2.9,2.52Zm.24-3.86a20.91,20.91,0,0,0-2.87-2.66l.84-.91a19.41,19.41,0,0,1,2.94,2.58Z"/><path d="M738.29,817.14h5.87v1.12h-5.87Zm5.39,7.43v4.68H740v.9h-1.17v-5.58ZM739,814.69h4.46v1.08H739Zm0,4.95h4.46v1.07H739Zm0,2.43h4.46v1.06H739Zm1,3.59v2.5h2.52v-2.5Zm9.75-4.91v.88h3.57v4.26h1.17V827h-1.17v1.84a1.19,1.19,0,0,1-.4,1,1.72,1.72,0,0,1-1,.24,11.72,11.72,0,0,1-1.7-.11L750,828.8a12.94,12.94,0,0,0,1.77.12.36.36,0,0,0,.41-.4v-1.59h-5.79v3.21h-1.17V827H744v-1.07h1.17v-4.26h3.4v-.88H744v-1h2.56V818.5h-1.7v-1h1.7v-1.1h-2.17v-1h2.17V814h1.21v1.41h2.77V814h1.21v1.41H754v1h-2.26v1.1h1.8v1h-1.8v1.22h2.68v1Zm-1.17,1.84h-2.23v1.14h2.23Zm0,2.08h-2.23v1.26h2.23Zm2-8.24h-2.77v1.1h2.77Zm0,2.07h-2.77v1.22h2.77Zm-.8,4.09v1.14h2.39v-1.14Zm0,2.08v1.26h2.39v-1.26Z"/><path d="M767.1,826.15q1.14-.78,2-1.47l.9.75c-.83.65-1.62,1.21-2.35,1.71a4,4,0,0,0,1.3,1.28,1.34,1.34,0,0,0,.56.24c.28,0,.5-.72.64-2.16l1.16.69c-.21,2-.7,2.94-1.48,2.94a2.6,2.6,0,0,1-1-.34,5.63,5.63,0,0,1-2.17-2,22.22,22.22,0,0,1-3.72,1.9l-.76-1a21.23,21.23,0,0,0,3.93-1.88,11,11,0,0,1-.79-2.35H761v1.21c.92-.08,2-.19,3.38-.36v.92c-1,.16-2,.31-3.19.44l-.19,0V829a1,1,0,0,1-.43,1,2,2,0,0,1-1,.18,19.37,19.37,0,0,1-2.08-.12l-.22-1.12c1,.09,1.65.14,2,.14s.33,0,.39-.13a.69.69,0,0,0,.05-.29v-1.78c-1.35.13-2.64.23-3.86.3l-.33-1.1c1.5-.06,2.9-.15,4.19-.26v-1.32h-4.4v-1h4.4v-1c-1.06.11-2.12.18-3.16.23l-.43-.92A40.19,40.19,0,0,0,763,821l.67.9c-.92.2-1.81.34-2.65.44v1.11h4.06a23.26,23.26,0,0,1-.25-2.32h1.27c.09.92.18,1.69.28,2.32h5.09v1h-4.94A13.34,13.34,0,0,0,767.1,826.15ZM760,815.42a8.86,8.86,0,0,0-.78-1.15l1.37-.34a8.51,8.51,0,0,1,.87,1.49h3.81a9.92,9.92,0,0,0,.81-1.49l1.46.29c-.28.45-.55.85-.8,1.2H771v1h-7v1.1h6v1h-6v1.17h7.46v1H755.34v-1h7.33v-1.17h-5.92v-1h5.92v-1.1h-6.86v-1Zm9,8a10.05,10.05,0,0,0-1.86-1.81L768,821a11.68,11.68,0,0,1,1.9,1.71Z"/><path d="M779.07,819.56a.6.6,0,0,0-.06.11,17,17,0,0,1-1.84,2.33H778q1.92,0,4.44-.15l1.88-.08c-.55-.53-1.12-1-1.69-1.52l1.06-.62a38.35,38.35,0,0,1,3.14,2.86l.44.44-1,.8c-.33-.37-.63-.7-.9-1l-.11-.12-4.25.28v2.2h5.84v1.11H781v2.2h7.24v1.1h-15.7v-1.1h7.13v-2.2h-5.71v-1.11h5.71V823l-.91,0c-1.35.05-2.86.1-4.52.14l-.41-1.14c.73,0,1.35,0,1.89,0a19.8,19.8,0,0,0,1.87-2.46h-2.75v-1.1h11.09v1.1ZM781,815.8h6.77V819h-1.33v-2.1H774.3V819H773V815.8h6.68V814H781Z"/><path d="M758.69,836.18H763a8.67,8.67,0,0,1,2.92.41,3.61,3.61,0,0,1,1.55,1.06,3,3,0,0,1,.71,2,2.86,2.86,0,0,1-.95,2.25,4.11,4.11,0,0,1-1.94.88v.05a5.49,5.49,0,0,1,2.33.93,2.88,2.88,0,0,1,1.19,2.39,3.29,3.29,0,0,1-1.94,3.16,7.57,7.57,0,0,1-3.35.66h-4.79Zm1.54,1.28v4.69h2.5a6.19,6.19,0,0,0,2.39-.42,1.94,1.94,0,0,0,1.33-1.89c0-1.59-1.2-2.38-3.6-2.38Zm0,5.94v5.26h3a5.27,5.27,0,0,0,2.44-.46,2.47,2.47,0,0,0,.63-.44,2.29,2.29,0,0,0,.7-1.7,2.19,2.19,0,0,0-1.32-2,6.18,6.18,0,0,0-2.91-.64Z"/><path d="M838.3,950a65.61,65.61,0,0,0,.82-7.55l1.28.23c-.29,2.92-.6,5.2-.93,6.82.49-.21,1-.44,1.51-.69l.17,1.1a53.85,53.85,0,0,1-5.46,2.45l-.58-1.21C836.3,950.82,837.36,950.43,838.3,950Zm.49-9.63h2.26v1.21h-5.71v-1.21h2.19v-2.82h1.26Zm-2.35,8.94q-.41-4.32-.71-6.29l1.2-.27q.48,3.38.65,6.24Zm9.26-2.94h5.15v6a1.38,1.38,0,0,1-.26,1,1,1,0,0,1-.8.27,7.49,7.49,0,0,1-1-.08l-.25-1.25a5.38,5.38,0,0,0,.86.11c.19,0,.29-.13.29-.37v-4.51H848v5.79h-1.09v-5.79h-1.49v5.79h-1.09v-5.79h-1.47v6.22h-1.19v-7.33h2.83a15.12,15.12,0,0,0,.55-1.75H841v-1.13H851.5v1.13h-5.16A15.6,15.6,0,0,1,845.7,946.41Zm1-5.46h2.66v-2.41h1.2V942h-8.76v-3.5h1.22V941h2.46v-3.36h1.22Z"/><path d="M861.81,945.82a18.44,18.44,0,0,0,6.74,5.09l-.89,1.2a18,18,0,0,1-6.62-5.63v7.26h-1.35v-7.15a16.89,16.89,0,0,1-6.53,5.81l-.83-1.07a16.92,16.92,0,0,0,6.58-5.51h-5.56v-1.17h6.34v-3.17h-6.84v-1.17h6.84v-2.72H861v2.72H868v1.17H861v3.17h6.45v1.17Z"/><path d="M876.11,943.15l-.07.11a16.26,16.26,0,0,1-1.83,2.33h.85q1.91,0,4.44-.15l1.88-.08c-.56-.53-1.12-1-1.69-1.52l1-.61a36.55,36.55,0,0,1,3.15,2.85l.44.44-1.06.8c-.32-.37-.62-.69-.89-1l-.11-.12-4.25.28v2.21h5.83v1.1H878V952h7.24v1.1H869.55V952h7.14v-2.2H871v-1.1h5.71v-2.12l-.91,0c-1.35,0-2.86.1-4.53.14l-.4-1.14h1.88a20.75,20.75,0,0,0,1.88-2.47h-2.75v-1.1H883v1.1Zm1.91-3.76h6.76v3.2h-1.32v-2.11H871.34v2.11H870v-3.2h6.68v-1.8H878Z"/><path d="M576,940.9h12.69l1,.93a21,21,0,0,1-6.34,7.65,31,31,0,0,1,2.34,2.69l-1.08,1a38.15,38.15,0,0,0-6.84-7l.94-.94c1.07.85,2.32,2,3.77,3.34a18.39,18.39,0,0,0,5.56-6.5H576Z"/><path d="M594.83,940.12h1.35V943a32.09,32.09,0,0,1-.2,4.09,9.48,9.48,0,0,1-.83,3,8.19,8.19,0,0,1-3,3.33l-.91-1.06a7.4,7.4,0,0,0,3-3.66,18.3,18.3,0,0,0,.63-5.61Zm4.13-.48h1.35v12.09a9.28,9.28,0,0,0,3.07-2.32,11,11,0,0,0,2.28-4.31l1,1a12.37,12.37,0,0,1-2.58,4.5,12.15,12.15,0,0,1-4.15,2.83l-1-.86Z"/><path d="M614.7,945.24v-3.59c-1.7.21-3.29.34-4.75.41l-.42-1.15a39.12,39.12,0,0,0,9.8-1.43l.79,1.12a35.74,35.74,0,0,1-4.07.86v3.78h6.42v1.22H616a8.88,8.88,0,0,1-1.22,4.56,8.25,8.25,0,0,1-3.64,3l-.87-1.12a7.49,7.49,0,0,0,2.69-1.8,5.55,5.55,0,0,0,1.31-2.19,10.27,10.27,0,0,0,.39-2.42H608v-1.22Z"/><path d="M626.79,942.31c1.36.83,3,2,4.91,3.37a28.67,28.67,0,0,0,3.17-6.09l1.31.63a35.12,35.12,0,0,1-3.39,6.29,49,49,0,0,1,4.44,3.83l-1,1.08a51.26,51.26,0,0,0-4.27-3.84,24.48,24.48,0,0,1-7.2,6.26l-.88-1.17a23.33,23.33,0,0,0,7-5.94c-1.75-1.29-3.37-2.4-4.85-3.35Z"/><path d="M639.67,944.82h14.4V946h-6.22a11.48,11.48,0,0,1-1.12,5.13,7.29,7.29,0,0,1-3.59,2.8l-.87-1.09a6.07,6.07,0,0,0,3.49-2.84,10.59,10.59,0,0,0,.71-4h-6.8Zm1.82-4.58h9.23v1.21h-9.23Zm11,1.89a14.11,14.11,0,0,0-1.28-2.76l1-.31a13,13,0,0,1,1.29,2.73Zm2-.63a12.38,12.38,0,0,0-1.28-2.76l1-.28a10.75,10.75,0,0,1,1.31,2.68Z"/><path d="M662.71,953.89v-7.14a26.59,26.59,0,0,1-5,2.48l-.66-1.09a20.39,20.39,0,0,0,5.27-2.63,21.76,21.76,0,0,0,4-3.59l1,.66a26.16,26.16,0,0,1-3.42,3.25v8.06Z"/><path d="M670.33,940.62h12.95l.89.76a8,8,0,0,1-2.63,4.34,9.19,9.19,0,0,1-2.64,1.47l-.8-1a7.18,7.18,0,0,0,3.67-2.54,5.3,5.3,0,0,0,.86-1.81h-12.3Zm5.53,3.08h1.34v1.4a14.42,14.42,0,0,1-.64,4.93,6.93,6.93,0,0,1-3.52,3.6l-1-1a6.51,6.51,0,0,0,2.72-2.25,5.7,5.7,0,0,0,.81-1.88,16.45,16.45,0,0,0,.28-3.39Z"/><path d="M692.11,944.15l-.07.11a17,17,0,0,1-1.83,2.33h.84q1.92,0,4.44-.15l1.89-.08c-.56-.53-1.12-1-1.69-1.52l1-.61a39.79,39.79,0,0,1,3.15,2.85l.44.44-1.06.8c-.33-.37-.62-.69-.89-1l-.11-.12-4.25.28v2.21h5.83v1.1H694V953h7.24v1.1H685.55V953h7.14v-2.2H687v-1.1h5.71v-2.12l-.91,0c-1.35,0-2.86.1-4.53.14l-.4-1.14h1.88a20.75,20.75,0,0,0,1.88-2.47h-2.75v-1.1H699v1.1Zm1.91-3.76h6.76v3.2h-1.33v-2.11H687.33v2.11H686v-3.2h6.68v-1.8H694Z"/><path d="M729.69,918h10.76l1.57,1.48q-.24,5-2.48,7.53a10,10,0,0,1-3.71,2.55,21.64,21.64,0,0,1-3.25,1l-.69-1.21c3-.56,5.16-1.6,6.51-3.13s2.12-3.89,2.19-7h-10.9Zm13.22-3a2,2,0,0,1,1.08.33,1.87,1.87,0,0,1,.89,1.65,2,2,0,0,1-2.86,1.75,2,2,0,0,1-.75-.68,1.87,1.87,0,0,1-.34-1.09,2,2,0,0,1,.25-.93,1.82,1.82,0,0,1,.68-.72A1.87,1.87,0,0,1,742.91,915Zm0,.86a1.08,1.08,0,0,0-.57.17,1,1,0,0,0-.53,1,1,1,0,0,0,.28.73,1.06,1.06,0,0,0,.83.37A1.11,1.11,0,0,0,744,917a1.11,1.11,0,0,0-1.11-1.12Z"/><path d="M746.73,917.42h12.42v12.26H746.73Zm1.39,1.26v9.72h9.64v-9.72Z"/><path d="M773.21,918.18l1.08,1.05a14.64,14.64,0,0,1-3.35,7.5,14.38,14.38,0,0,1-6.57,3.78l-.78-1.18a13.17,13.17,0,0,0,6.06-3.31,12.61,12.61,0,0,0,3.26-6.62H767a13.94,13.94,0,0,1-3.9,4l-1-1a12.16,12.16,0,0,0,5-6.48l1.29.38a12.57,12.57,0,0,1-.76,1.8Zm.87.29a12.17,12.17,0,0,0-1.4-2.65l1.06-.32a10.62,10.62,0,0,1,1.41,2.61Zm2.19-.47a14,14,0,0,0-1.39-2.73l1-.32a12,12,0,0,1,1.41,2.67Z"/><path d="M730,941.74h13.27a13,13,0,0,1-1.65,5.67,7.56,7.56,0,0,1-3.2,2.78,17.15,17.15,0,0,1-4.61,1.31l-.62-1.22a11.35,11.35,0,0,0,6-2.17,7.72,7.72,0,0,0,2.47-5.16H730Zm1.18-4h10.51v1.2H731.13Z"/><path d="M745.25,949.07c.36,0,.82,0,1.38-.08A90.52,90.52,0,0,0,751,937.38l1.36.4a89.54,89.54,0,0,1-4.22,11.11q4.49-.35,8.37-.87a39.22,39.22,0,0,0-2.5-4l1.14-.7a43.38,43.38,0,0,1,4.23,7L758,951l0,0c-.25-.54-.52-1.09-.81-1.67l-.1-.19q-4.05.69-11.49,1.42Z"/><path d="M763.26,943.79a19.84,19.84,0,0,1-2.33,4.88l-.7-1.28a18.09,18.09,0,0,0,2.88-6.26h-2.62v-1.19h2.77v-3.68h1.28v3.68h2.27v1.19h-2.27v1.6a23.61,23.61,0,0,1,2.55,2.33l-.75,1.17a25.56,25.56,0,0,0-1.8-2.06v8.23h-1.28Zm12.13-6.61v15.16H774.1v-1.48H769v1.48h-1.24V937.18ZM769,938.33v3h5.15v-3Zm0,4.09v3h5.15v-3Zm0,4.07v3.2h5.15v-3.2Z"/><path d="M736.31,960.4h6.25v1.12h-6.25Zm5.71,7.43v4.68h-3.93v.9h-1.2v-5.58ZM737.14,958h4.64V959h-4.64Zm0,4.95h4.64V964h-4.64Zm0,2.43h4.64v1.06h-4.64Zm1,3.59v2.5h2.72v-2.5Zm9.28-7.68.18.09a45.42,45.42,0,0,1,4.65,3l-.87,1a40.1,40.1,0,0,0-4.34-3.11,6.76,6.76,0,0,1-4.12,3.36l-.79-1a7.31,7.31,0,0,0,3.11-1.87,4.52,4.52,0,0,0,1.11-2.52,13.09,13.09,0,0,0,.11-1.79v-1.15h1.27v1.08A11.07,11.07,0,0,1,747.37,961.24Zm.31,4.56V966a5.85,5.85,0,0,0,1.5,3.95,9.61,9.61,0,0,0,3.35,2.25l-.79,1.17a8.06,8.06,0,0,1-4.53-4.67,6.31,6.31,0,0,1-1.23,2.62,7.73,7.73,0,0,1-3.07,2.12l-.82-1.08a6.09,6.09,0,0,0,3.56-2.69,7.88,7.88,0,0,0,.76-3.75v-1.54h1.26Zm-5,3.09a9.32,9.32,0,0,0,1.35-3l1.1.25a8.89,8.89,0,0,1-1.38,3.41Zm.24-7.5a9.19,9.19,0,0,0,1.12-3l1.12.24a10.53,10.53,0,0,1-1.18,3.28Zm5.85,6.85a12.48,12.48,0,0,0,1.75-2.77l1.18.63a17.36,17.36,0,0,1-2,2.8Zm0-7.36a13.53,13.53,0,0,0,1.74-2.79l1.2.49a15.08,15.08,0,0,1-2,2.86Z"/><path d="M760.05,962.82a.6.6,0,0,0-.06.11,17.61,17.61,0,0,1-1.84,2.33H759q1.92,0,4.44-.15l1.89-.08c-.56-.53-1.13-1-1.7-1.52l1.06-.62a38.35,38.35,0,0,1,3.14,2.86l.44.44-1,.8c-.33-.37-.63-.7-.9-1l-.11-.12-4.25.28v2.2h5.84v1.11H762v2.2h7.24v1.1H753.5v-1.1h7.14v-2.2h-5.72v-1.11h5.72v-2.12l-.92,0c-1.35.05-2.86.1-4.52.14l-.41-1.14,1.89,0a19.8,19.8,0,0,0,1.87-2.46H755.8v-1.11h11.09v1.11Zm1.91-3.76h6.77v3.19H767.4v-2.1H755.28v2.1H754v-3.19h6.69v-1.8H762Z"/><path d="M671.82,800h1.35v3.36h3.5v1.22h-3.5v.76a12.89,12.89,0,0,1-1.16,6.16,7.05,7.05,0,0,1-3.94,3l-.85-1.07a6.15,6.15,0,0,0,3.84-3.15,12.39,12.39,0,0,0,.76-5v-.78h-5.47v4.76H665v-4.76h-3.26v-1.22H665v-3.26h1.34v3.26h5.47Z"/><path d="M678.32,806.36h14.33v1.31H678.32Z"/><path d="M694.78,812.84a19.92,19.92,0,0,0,2.45-5.27,30.24,30.24,0,0,0,1.29-6.41l1.35.29q-1.11,8.31-4,12.41Zm12.9,1a27.66,27.66,0,0,1-2.15-4.57,52.5,52.5,0,0,1-2.24-7.87l1.3-.41a44.31,44.31,0,0,0,2.26,7.79,29.48,29.48,0,0,0,2,4.13Zm-.73-11a14.06,14.06,0,0,0-1.5-2.79l1-.39a13.49,13.49,0,0,1,1.51,2.75Zm2.12-.59a12.67,12.67,0,0,0-1.48-2.79l1-.36a11.59,11.59,0,0,1,1.49,2.7Z"/><path d="M711.48,806.36H725.8v1.31H711.48Z"/><path d="M692.63,825.82a.6.6,0,0,0-.06.11,17.61,17.61,0,0,1-1.84,2.33h.85q1.92,0,4.44-.15l1.89-.08c-.56-.53-1.13-1-1.7-1.52l1.06-.62a38.35,38.35,0,0,1,3.14,2.86l.44.44-1.05.8c-.33-.37-.63-.7-.9-1l-.11-.12-4.25.28v2.2h5.84v1.11h-5.84v2.19h7.24v1.11h-15.7v-1.11h7.14v-2.19H687.5v-1.11h5.72v-2.12l-.92,0c-1.35.05-2.86.1-4.52.14l-.41-1.14,1.89,0a19.8,19.8,0,0,0,1.87-2.46h-2.75v-1.11h11.09v1.11Zm1.91-3.76h6.77v3.19H700v-2.1H687.86v2.1h-1.33v-3.19h6.69v-1.8h1.32Z"/><path d="M570.34,800.67v-1.08h-7v-1.07h7v-1.37h1.32v1.37h7.05v1.07h-7.05v1.08h5.74v5.93h-2.18v1.22h3.91v1.1h-3.91v3a1.29,1.29,0,0,1-.42,1.12,1.94,1.94,0,0,1-1.11.24c-.53,0-1.3,0-2.31-.1l-.31-1.22a22.31,22.31,0,0,0,2.35.13c.23,0,.36,0,.4-.14a.74.74,0,0,0,0-.3v-2.74H563v-1.1h10.88V806.6h-9.14v-5.93Zm-1.63,11.74A17.27,17.27,0,0,0,566,810l1-.76a18.17,18.17,0,0,1,2.76,2.35Zm1.63-10.74H566v1.44h4.31Zm0,2.43H566v1.5h4.31Zm1.32-2.43v1.44h4.43v-1.44Zm0,2.43v1.5h4.43v-1.5Z"/><path d="M584,800.37v7.53c.84-.26,1.66-.55,2.44-.86l.14,1.22a61.1,61.1,0,0,1-6.14,2.11l-.55-1.33c.93-.23,1.85-.47,2.74-.73v-7.94h-2.48v-1.2h6.07v1.2Zm6,8a17.83,17.83,0,0,1-2.46-4.89l-.06.09a14.46,14.46,0,0,1-1.34,2l-.92-1a17.89,17.89,0,0,0,3.21-7.36l1.33.24a27.2,27.2,0,0,1-.79,2.72h6.93v1.22h-1.73a16.86,16.86,0,0,1-2.53,6.92,17.46,17.46,0,0,0,4.58,3.57l-.83,1.27a15.73,15.73,0,0,1-4.54-3.73,14.19,14.19,0,0,1-5,3.8l-.82-1.11A11.94,11.94,0,0,0,590,808.39Zm.77-1.12a17.25,17.25,0,0,0,2.07-5.84H588.5c-.09.21-.17.4-.25.57A15.33,15.33,0,0,0,590.75,807.27Z"/><path d="M600.18,805.4a18.31,18.31,0,0,1-2.52,4.56l-.76-1.25a16.47,16.47,0,0,0,3.09-5.53h-2.93V802h3.12v-2.72c-.72.17-1.48.3-2.28.42l-.55-1a30.58,30.58,0,0,0,5.82-1.43l.77,1c-.84.3-1.62.54-2.35.73l-.13,0v3h2.63v1.17h-2.63v1.22a24.26,24.26,0,0,1,2.72,2.18l-.81,1.11a27.15,27.15,0,0,0-1.91-2v7.57h-1.28Zm10.46,1.3,2.41-.46.1,1.21-2.51.49v5.36h-1.35v-5.11l-5.76,1.12-.22-1.22,6-1.13v-9.81h1.35ZM607.2,806a24.43,24.43,0,0,0-2.81-2.57l.78-.92a18,18,0,0,1,2.9,2.51Zm.24-3.86a20.35,20.35,0,0,0-2.87-2.66l.84-.91a19.41,19.41,0,0,1,2.94,2.58Z"/><path d="M559.65,832.35a9.75,9.75,0,0,1-2.19-3,9.39,9.39,0,0,1-1.06-4.19,9.57,9.57,0,0,1,1.33-4.69,9.16,9.16,0,0,1,1.92-2.42h1.1a16.13,16.13,0,0,0-1.58,2.08,9.41,9.41,0,0,0-1.52,5.05A9.2,9.2,0,0,0,559,830a15.47,15.47,0,0,0,1.74,2.35Z"/><path d="M565.8,825.49a21.41,21.41,0,0,0,.6-4.29l1,.12a21.47,21.47,0,0,1-.63,4.72Zm2-7.39H569v14.25h-1.15Zm2,4.62a13.38,13.38,0,0,0-.87-2.29l.71-.56a11.17,11.17,0,0,1,1,2.14Zm5.77-3.55h4V820h-4V821h3.4v.86h-3.4v1h4.55v.91H570.15v-.91h4.38v-1h-3.3V821h3.3V820h-3.84v-.87h3.84V818.1h1.13Zm3.16,5.45v6.53a1.12,1.12,0,0,1-.29.85,1.35,1.35,0,0,1-.95.27c-.44,0-1,0-1.72-.08l-.19-1a14.37,14.37,0,0,0,1.6.1c.18,0,.29,0,.34-.11a.52.52,0,0,0,.07-.32V829.4h-5.1v2.94h-1.13v-7.72Zm-6.24.84v1.07h5.1v-1.07Zm0,1.94v1.12h5.1V827.4Z"/><path d="M585.18,826.42v1.71h2.62v1h-2.62v3.22H584v-3.22h-2.69v-1H584v-1.71h-2.85v-1h1.5c-.23-.9-.43-1.61-.62-2.12h-1.15v-1H584v-1.62H581.5v-1H584V818.1h1.14v1.64h2.44v1h-2.44v1.62H588v1h-1a20.09,20.09,0,0,1-.7,2.12h1.64v1Zm.71-3.1h-2.75c.21.61.4,1.32.59,2.12h1.52A20.23,20.23,0,0,0,585.89,823.32Zm8.36-4.65v3.52a1,1,0,0,1-.33.89,1.77,1.77,0,0,1-1,.2c-.56,0-1.11,0-1.65-.07l-.21-1c.77.08,1.35.12,1.73.12a.29.29,0,0,0,.33-.33v-2.32h-3.58v4.73H594l.65.56a13.55,13.55,0,0,1-1.64,4.35,10,10,0,0,0,2.25,2l-.67,1a11.15,11.15,0,0,1-2.23-2.06,11.52,11.52,0,0,1-2.08,2.12l-.72-.94a8.81,8.81,0,0,0,2.12-2.07,12.8,12.8,0,0,1-1.77-4h-.39v7h-1.13V818.67Zm-3.28,6.7a10.64,10.64,0,0,0,1.35,3.06,9.56,9.56,0,0,0,1.14-3.06Z"/><path d="M602.17,824.39A45.16,45.16,0,0,0,606,821.1l1.06.63a51.54,51.54,0,0,1-5.19,4l2.25-.11c1.32-.06,2.43-.13,3.35-.19-.45-.5-.88-1-1.3-1.35l.87-.57a16.94,16.94,0,0,1,3,3.28l-.95.67c-.27-.41-.57-.81-.88-1.2l-.16,0c-1.14.14-2.61.25-4.43.35v5.66h-1.19v-5.59l-2.18.12c-1,.06-2.25.11-3.63.16l-.31-1.1c.46,0,1.06,0,1.8,0l2.1,0c.3-.2.63-.43,1-.7l.15-.11a36.82,36.82,0,0,0-3.52-2.59l.8-.81,1.11.78a21.29,21.29,0,0,0,2.52-2.5l-.41,0c-1.47.15-3,.26-4.49.33l-.42-1a74.8,74.8,0,0,0,10.65-1.18l.83.89c-2.28.41-4.21.69-5.77.84l.86.38a26.45,26.45,0,0,1-3,2.77C601.18,823.54,601.74,824,602.17,824.39ZM596.48,831a9.48,9.48,0,0,0,2.64-3.48l1.11.52a11.82,11.82,0,0,1-2.82,3.81Zm12.18.46a26.41,26.41,0,0,0-3.19-3.55l.93-.67a22.08,22.08,0,0,1,3.23,3.42Z"/><path d="M615.35,832.35a16.33,16.33,0,0,0,1.59-2.09,9.37,9.37,0,0,0,1.52-5,9.24,9.24,0,0,0-1.36-4.79,17.24,17.24,0,0,0-1.75-2.34h1.1a9.61,9.61,0,0,1,2.2,2.95,9.47,9.47,0,0,1,1.06,4.17,9.59,9.59,0,0,1-1.34,4.7,9,9,0,0,1-1.92,2.43Z"/><polygon class="cls-2" points="1090.5 590.5 1065.5 590.5 1065.5 494.5 1090.5 494.5 1110.5 511.44 1110.5 573.5 1090.5 590.5"/><circle cx="1087.5" cy="542.5" r="4"/><path d="M1087.5,539a3.5,3.5,0,1,1-3.5,3.5,3.5,3.5,0,0,1,3.5-3.5m0-1a4.5,4.5,0,1,0,4.5,4.5,4.49,4.49,0,0,0-4.5-4.5Z"/><line class="cls-6" x1="1088.5" y1="542.5" x2="1048.5" y2="605.5"/><line class="cls-6" x1="1048.5" y1="605.5" x2="1013.5" y2="605.5"/><path d="M861.06,597.08h1.37v3.33h4v1.2h-4v8.53a1.57,1.57,0,0,1-.34,1.14,1.62,1.62,0,0,1-1.22.36c-.83,0-1.62,0-2.39-.08l-.32-1.35c.84.08,1.63.12,2.38.12.24,0,.39-.05.45-.13a.79.79,0,0,0,.07-.4v-7.75a22.51,22.51,0,0,1-3.82,4.58,20.29,20.29,0,0,1-4.17,3l-.86-1.16a19.16,19.16,0,0,0,4.53-3.16,21.19,21.19,0,0,0,3.22-3.69h-7.44v-1.2h8.54Z"/><path d="M867.75,607.8a30.87,30.87,0,0,0,5-8.33h1.49a45.94,45.94,0,0,0,8.11,9.84l-.86,1.2a53,53,0,0,1-4.7-5.1A46.08,46.08,0,0,1,873.6,601h-.08a30.47,30.47,0,0,1-4.72,7.82Zm12.07-9.71a1.91,1.91,0,0,1,1.08.33,1.87,1.87,0,0,1,.89,1.65,1.92,1.92,0,0,1-.58,1.39,1.89,1.89,0,0,1-1.4.58,1.93,1.93,0,0,1-.88-.21,2,2,0,0,1-.75-.67,2,2,0,0,1-.33-1.1,1.87,1.87,0,0,1,.25-.94,1.93,1.93,0,0,1,.67-.72A1.87,1.87,0,0,1,879.82,598.09Zm0,.87a1.14,1.14,0,0,0-.58.17,1,1,0,0,0-.53,1,1.09,1.09,0,0,0,.28.73,1.07,1.07,0,0,0,.83.37,1.14,1.14,0,0,0,.52-.12,1,1,0,0,0,.59-1,1.07,1.07,0,0,0-.34-.81A1.09,1.09,0,0,0,879.82,599Z"/><path d="M885.25,597.4h1.4v12.68a17.76,17.76,0,0,0,6.81-3.83,14.32,14.32,0,0,0,3.22-3.94l.88,1.31a18.06,18.06,0,0,1-4.42,4.66,22.13,22.13,0,0,1-6.95,3.43l-.94-.93Z"/><path d="M899.15,603.57h14.33v1.31H899.15Z"/><path d="M919.7,604.74a47.13,47.13,0,0,0-4.51-1.68l.51-1.24a26.14,26.14,0,0,1,4.51,1.67ZM916.28,610a20,20,0,0,0,4.89-.89,8.92,8.92,0,0,0,4.85-4,15.05,15.05,0,0,0,1.72-4.81L929,601a16.07,16.07,0,0,1-2.13,5.48,9.75,9.75,0,0,1-4.64,3.69,20.59,20.59,0,0,1-5.51,1.12Zm5.17-9.45a31.61,31.61,0,0,0-4.54-1.68l.43-1.19a21.65,21.65,0,0,1,4.55,1.61Z"/><path d="M931.48,600.67h9.75v10.4H931.09v-1.16H940v-3.69h-8.14V605.1H940v-3.3h-8.48Z"/><path d="M950.23,601.34a28,28,0,0,0-5-1.73l.43-1.29a23.55,23.55,0,0,1,5.09,1.72Zm-4.91,8.56a21,21,0,0,0,5.28-1q5-1.87,6.28-8.6l1.15.83a14.33,14.33,0,0,1-2.4,5.79,10,10,0,0,1-4.9,3.41,25.54,25.54,0,0,1-5.07,1Z"/><path d="M963.32,598h1.35v2.91a34.32,34.32,0,0,1-.19,4.08,10,10,0,0,1-.83,3,8.24,8.24,0,0,1-3,3.32l-.92-1a7.43,7.43,0,0,0,3-3.66,18.3,18.3,0,0,0,.63-5.61Zm4.14-.47h1.34v12.09a9.41,9.41,0,0,0,3.07-2.32,11,11,0,0,0,2.28-4.32l1,1.06a11.4,11.4,0,0,1-6.73,7.33l-1-.87Z"/><path d="M976.67,603.57H991v1.31H976.67Z"/><path d="M992.67,609.28c.36,0,.81,0,1.37-.08a90.15,90.15,0,0,0,4.32-11.61l1.36.4a90.16,90.16,0,0,1-4.22,11.11q4.49-.35,8.37-.87a40.66,40.66,0,0,0-2.5-4l1.14-.69a43.38,43.38,0,0,1,4.23,7l-1.32.71,0-.05c-.25-.53-.52-1.08-.81-1.66l-.1-.2q-4.05.71-11.49,1.43Z"/><circle cx="1285.5" cy="809.5" r="4"/><path d="M1285.5,806a3.5,3.5,0,1,1-3.5,3.5,3.5,3.5,0,0,1,3.5-3.5m0-1a4.5,4.5,0,1,0,4.5,4.5,4.49,4.49,0,0,0-4.5-4.5Z"/><circle cx="1311.5" cy="809.5" r="4"/><path d="M1311.5,806a3.5,3.5,0,1,1-3.5,3.5,3.5,3.5,0,0,1,3.5-3.5m0-1a4.5,4.5,0,1,0,4.5,4.5,4.49,4.49,0,0,0-4.5-4.5Z"/><line class="cls-6" x1="1285.5" y1="809.5" x2="1285.5" y2="693.5"/><line class="cls-6" x1="1312.5" y1="809.5" x2="1311.5" y2="722.5"/><line class="cls-6" x1="1285.5" y1="693.5" x2="1328.5" y2="693.5"/><line class="cls-6" x1="1311.5" y1="722.5" x2="1328.5" y2="722.5"/><path d="M1340.51,699.63v-8.78a28.43,28.43,0,0,1-6,3.07l-.75-1.2a24.56,24.56,0,0,0,6.36-3.17,26.23,26.23,0,0,0,4.79-4.36l1.16.73a33.36,33.36,0,0,1-4.17,3.93v9.78Z"/><path d="M1353.52,689.3a28.87,28.87,0,0,0-5-1.73l.44-1.29A23.75,23.75,0,0,1,1354,688Zm-4.91,8.56a20.86,20.86,0,0,0,5.27-1q5-1.87,6.29-8.6l1.15.83a14.33,14.33,0,0,1-2.4,5.79,10,10,0,0,1-4.9,3.41,24.18,24.18,0,0,1-5.07,1Z"/><path d="M1375.14,686.91l.92.8a16.85,16.85,0,0,1-3.68,8,13.33,13.33,0,0,1-3.54,2.7,16.76,16.76,0,0,1-3.43,1.39l-.7-1.19a13.73,13.73,0,0,0,6.71-3.84,26.39,26.39,0,0,0-4.45-3.34l.79-1a25,25,0,0,1,4.48,3.23,15,15,0,0,0,2.3-5.57h-6.13a14.43,14.43,0,0,1-4.56,4.69l-.91-.94a11.53,11.53,0,0,0,2.57-2.05,12.49,12.49,0,0,0,2.94-4.8l1.31.34,0,.06c-.24.6-.45,1.1-.65,1.5Z"/><path d="M1378.26,691.53h14.32v1.32h-14.32Z"/><path d="M1400.27,689.3a28.87,28.87,0,0,0-5-1.73l.44-1.29a23.75,23.75,0,0,1,5.09,1.72Zm-4.91,8.56a20.86,20.86,0,0,0,5.27-1q5-1.87,6.29-8.6l1.15.83a14.33,14.33,0,0,1-2.4,5.79,10,10,0,0,1-4.9,3.41,24.18,24.18,0,0,1-5.07,1Z"/><path d="M1414.28,692.7a47.39,47.39,0,0,0-4.51-1.67l.51-1.25a27,27,0,0,1,4.51,1.67Zm-3.42,5.23a21,21,0,0,0,4.89-.89,8.94,8.94,0,0,0,4.85-4,15,15,0,0,0,1.72-4.81l1.21.74a16,16,0,0,1-2.13,5.47,9.75,9.75,0,0,1-4.64,3.69,20.21,20.21,0,0,1-5.51,1.12Zm5.17-9.46a31.61,31.61,0,0,0-4.54-1.68l.43-1.19a21.1,21.1,0,0,1,4.55,1.62Z"/><path d="M1427,693.68a22.84,22.84,0,0,0-1.43-4.37l1.12-.57a22.75,22.75,0,0,1,1.53,4.45Zm1.44,4.84a8.28,8.28,0,0,0,5.48-3.87,17.81,17.81,0,0,0,1.65-6.4l1.27.38a25.28,25.28,0,0,1-1.07,5,8.75,8.75,0,0,1-2.74,4.1,11.87,11.87,0,0,1-3.89,1.92Zm2.3-5.57a25.57,25.57,0,0,0-1.39-4.34l1.2-.5a25.72,25.72,0,0,1,1.41,4.38Z"/><path d="M1440.07,687.12h10.76l1.57,1.48c-.17,3.33-1,5.84-2.48,7.53a9.84,9.84,0,0,1-3.71,2.55,21.64,21.64,0,0,1-3.25,1l-.7-1.21c3-.55,5.16-1.6,6.52-3.13s2.11-3.89,2.19-7h-10.9Zm13.22-3a2,2,0,0,1,1.08.33,2,2,0,0,1-1.1,3.61,1.92,1.92,0,0,1-.87-.21,2.13,2.13,0,0,1-.76-.67,2,2,0,0,1-.33-1.1,1.86,1.86,0,0,1,.25-.93,1.94,1.94,0,0,1,.67-.72A1.9,1.9,0,0,1,1453.29,684.17Zm0,.86a1.08,1.08,0,0,0-.57.17,1,1,0,0,0-.54.95,1.12,1.12,0,0,0,1.12,1.1,1,1,0,0,0,.51-.13,1,1,0,0,0,.59-1,1.07,1.07,0,0,0-.34-.81A1.09,1.09,0,0,0,1453.28,685Z"/><path d="M1462.53,690l-.07.11a17,17,0,0,1-1.84,2.33h.85q1.92,0,4.44-.15l1.89-.08c-.56-.53-1.13-1-1.7-1.52l1.06-.61a36.37,36.37,0,0,1,3.14,2.85l.44.44-1,.8c-.33-.37-.63-.7-.9-1l-.1-.12-4.25.28v2.2h5.83v1.11h-5.83v2.2h7.23V700H1456v-1.1h7.14v-2.2h-5.71v-1.11h5.71v-2.11l-.92,0c-1.35,0-2.85.1-4.52.14l-.41-1.14h1.89A19.7,19.7,0,0,0,1461,690h-2.74v-1.1h11.09V690Zm1.91-3.76h6.76v3.2h-1.33v-2.11h-12.12v2.11h-1.32v-3.2h6.68v-1.8h1.33Z"/><path d="M1341.42,715.24l.52,3.11,5.76-.38.06,1.23-5.64.37.6,3.66,6.16-.46L1349,724l-6.07.48.87,5.37-1.36.17-.88-5.44-6.88.53-.1-1.26,6.77-.51-.6-3.66-5.44.36-.06-1.24,5.3-.34-.5-3Z"/><path d="M1355.29,717.94l.51,2.89,6.32-1,.84.67a11,11,0,0,1-3.25,5.74l-1-.82a8.38,8.38,0,0,0,2-2.33,7.39,7.39,0,0,0,.75-1.94L1356,722l1.36,7.77-1.26.22-1.4-7.79-3.5.57-.15-1.21,3.45-.54-.51-2.86Z"/><path d="M1366.32,715.57h1.39v8.74h-1.39Zm8.51-.18h1.4v5.7a16.74,16.74,0,0,1-.4,4.25,5.5,5.5,0,0,1-1.26,2.35,9.12,9.12,0,0,1-4.48,2.27l-.73-1.22c2.35-.52,3.87-1.36,4.58-2.55a7,7,0,0,0,.82-2.88c0-.55.07-1.29.07-2.21Z"/><path d="M1379.17,716.65h12.94l.89.77a8,8,0,0,1-2.63,4.34,9.69,9.69,0,0,1-2.64,1.47l-.79-1a7.21,7.21,0,0,0,3.66-2.54,5.39,5.39,0,0,0,.86-1.81h-12.29Zm5.52,3.09H1386v1.39a14.48,14.48,0,0,1-.64,4.94,7,7,0,0,1-3.52,3.6l-1-1a6.51,6.51,0,0,0,2.72-2.25,5.7,5.7,0,0,0,.81-1.88,16.49,16.49,0,0,0,.28-3.4Z"/><path d="M1397.09,722.16a19.51,19.51,0,0,1-2.34,4.88l-.69-1.28a18,18,0,0,0,2.88-6.26h-2.62v-1.19h2.77v-3.68h1.28v3.68h2.27v1.19h-2.27v1.6a23.61,23.61,0,0,1,2.55,2.33l-.75,1.17a25.56,25.56,0,0,0-1.8-2.06v8.23h-1.28Zm12.13-6.61v15.16h-1.29v-1.48h-5.15v1.48h-1.24V715.55Zm-6.44,1.15v3h5.15v-3Zm0,4.09v3h5.15v-3Zm0,4.07v3.2h5.15v-3.2Z"/><path d="M1411.19,717.77h6.26v1.12h-6.26Zm5.71,7.43v4.68H1413v.9h-1.21V725.2Zm-4.88-9.88h4.64v1.08H1412Zm0,4.95h4.64v1.07H1412Zm0,2.43h4.64v1.06H1412Zm1,3.59v2.5h2.72v-2.5Zm9.28-7.68.17.09a44.4,44.4,0,0,1,4.66,3l-.87,1a40.23,40.23,0,0,0-4.35-3.11,6.74,6.74,0,0,1-4.11,3.36l-.79-1a7.27,7.27,0,0,0,3.1-1.87,4.45,4.45,0,0,0,1.11-2.52,11.66,11.66,0,0,0,.11-1.79v-1.15h1.27v1.08A11.57,11.57,0,0,1,1422.26,718.61Zm.3,4.56v.15a5.9,5.9,0,0,0,1.5,3.95,9.75,9.75,0,0,0,3.36,2.25l-.8,1.17a8,8,0,0,1-4.52-4.67,6.56,6.56,0,0,1-1.23,2.62,7.81,7.81,0,0,1-3.07,2.12l-.82-1.07a6.17,6.17,0,0,0,3.56-2.7,8,8,0,0,0,.76-3.75V721.7h1.25Zm-5,3.09a9.53,9.53,0,0,0,1.34-3l1.1.25a8.73,8.73,0,0,1-1.37,3.41Zm.24-7.5a9.33,9.33,0,0,0,1.12-3l1.12.24a10.53,10.53,0,0,1-1.19,3.28Zm5.84,6.85a11.91,11.91,0,0,0,1.75-2.77l1.19.63a16.8,16.8,0,0,1-2,2.8Zm0-7.36a14,14,0,0,0,1.73-2.79l1.21.5a14.85,14.85,0,0,1-2,2.85Z"/><path d="M1434.94,720.19l-.07.11a18.31,18.31,0,0,1-1.83,2.33h.85q1.9,0,4.44-.15l1.88-.08c-.56-.53-1.12-1-1.69-1.52l1-.61a36.39,36.39,0,0,1,3.15,2.85l.44.44-1.06.8c-.32-.37-.62-.7-.89-1l-.11-.12-4.25.28v2.2h5.83v1.11h-5.83v2.2h7.24v1.1h-15.71v-1.1h7.14v-2.2h-5.71v-1.11h5.71v-2.12l-.91,0c-1.35.05-2.86.1-4.53.14l-.4-1.14c.72,0,1.35,0,1.88,0a19.84,19.84,0,0,0,1.88-2.46h-2.75v-1.11h11.09v1.11Zm1.91-3.76h6.76v3.19h-1.32v-2.1h-12.12v2.1h-1.33v-3.19h6.68v-1.8h1.33Z"/><path class="cls-2" d="M411.47,178.5a17.48,17.48,0,0,0-34.94,0h0v75h35v-75Z"/><rect x="379.25" y="192.92" width="29.5" height="29.5" rx="2"/><rect class="cls-3" x="379.25" y="192.92" width="29.5" height="29.5" rx="2"/><polygon class="cls-1" points="398.54 198.58 398.54 203.47 393.11 203.47 393.11 208.36 387.68 208.36 387.68 213.25 383.51 213.25 383.51 215.76 390.2 215.76 390.2 210.87 395.62 210.87 395.62 205.99 401.05 205.99 401.05 201.1 405.22 201.1 405.22 198.58 398.54 198.58"/><path class="cls-2" d="M397.5,392.5h14l1-139h-35l-2.52.92a144,144,0,0,0-268.69,98l-.29.11.6,1.13a143.52,143.52,0,0,0,32,61.12L412.5,938.45l-1-492.95h-14Z"/><line class="cls-6" x1="314.5" y1="750.5" x2="412.5" y2="750.5"/><rect class="cls-2" x="363.5" y="671.5" width="49" height="79"/><rect x="373.62" y="696.73" width="29.5" height="29.5" rx="2"/><rect class="cls-3" x="373.62" y="696.73" width="29.5" height="29.5" rx="2"/><rect class="cls-1" x="387.61" y="700.88" width="1.38" height="21.76"/><path class="cls-1" d="M381.17,704.51a1.82,1.82,0,1,0-1.82-1.82A1.82,1.82,0,0,0,381.17,704.51Z"/><path class="cls-1" d="M384.71,707.11c-.36-1.25-1.19-2.07-2.12-2.07h-2.84c-.93,0-1.75.82-2.12,2.07l-1.34,4.74a.75.75,0,0,0,.54.91.74.74,0,0,0,.9-.54l1.34-4.73h.39l-2.32,8.23h2.19v6.11a.85.85,0,1,0,1.69,0v-6.11h.46v6.11a.85.85,0,1,0,1.7,0v-6.11h2l-2.32-8.23h.39l1.34,4.73a.74.74,0,0,0,.9.54.75.75,0,0,0,.54-.91Z"/><path class="cls-1" d="M395.69,704.51a1.82,1.82,0,1,0-1.82-1.82A1.81,1.81,0,0,0,395.69,704.51Z"/><path class="cls-1" d="M397.93,705h-4.78a2,2,0,0,0-1.84,1.83V713a.8.8,0,1,0,1.6,0v-5h.37v13.64a1,1,0,0,0,2.09,0v-7.92h.34v7.92a1.05,1.05,0,0,0,2.1,0V708h.36v5a.8.8,0,1,0,1.6,0v-6.11A2,2,0,0,0,397.93,705Z"/><rect x="231.14" y="336.14" width="29.5" height="29.5" rx="2"/><rect class="cls-3" x="231.14" y="336.14" width="29.5" height="29.5" rx="2"/><path class="cls-1" d="M246.4,347a6.93,6.93,0,0,1,0-.94l-.25.29a3.23,3.23,0,0,1-2.48.73c-.93-.1-1.33-.6-.89-1.11l3.31-3.46a.24.24,0,0,0,.05-.25.24.24,0,0,0-.22-.15h-.53a.6.6,0,0,0-.42.18l-2.87,2.91c-.59.62-.56,1-.56,1.92v11.12c0,.82,1,1.5,2,1.6a3.55,3.55,0,0,0,2.64-.73l.3-.34a1.6,1.6,0,0,1-.09-.53V347Z"/><path class="cls-1" d="M240.82,347a5.56,5.56,0,0,1,.05-.94l-.26.29a3.23,3.23,0,0,1-2.48.73c-.93-.1-1.33-.6-.89-1.11l3.31-3.46a.22.22,0,0,0,0-.25.24.24,0,0,0-.22-.15h-.53a.58.58,0,0,0-.41.18l-2.88,2.91c-.59.62-.56,1-.56,1.92v11.12c0,.82,1,1.5,2,1.6a3.55,3.55,0,0,0,2.64-.73l.3-.34a1.6,1.6,0,0,1-.09-.53Z"/><path class="cls-1" d="M256.33,342.14h-.58a.61.61,0,0,0-.44.2l-3.51,4a3.26,3.26,0,0,1-2.49.73c-.93-.1-1.33-.6-.89-1.11l3.31-3.46a.22.22,0,0,0,.05-.25.24.24,0,0,0-.21-.15H251a.59.59,0,0,0-.41.18l-2.88,2.91c-.59.62-.56,1-.56,1.92v11.12c0,.82,1,1.5,2,1.6a3.57,3.57,0,0,0,2.65-.73l4.34-5a1.76,1.76,0,0,0,.42-1.14V342.38A.23.23,0,0,0,256.33,342.14Z"/><rect x="1582.46" y="350.25" width="22.42" height="22.42" rx="2"/><rect class="cls-3" x="1582.46" y="350.25" width="22.42" height="22.42" rx="2"/><path class="cls-1" d="M1594.06,358.52a5.31,5.31,0,0,1,0-.71l-.19.22a2.5,2.5,0,0,1-1.89.56c-.71-.08-1-.46-.68-.84l2.52-2.64a.19.19,0,0,0,0-.19.2.2,0,0,0-.17-.11h-.4a.45.45,0,0,0-.32.14l-2.18,2.21c-.45.47-.43.73-.43,1.46v8.45c0,.62.79,1.14,1.5,1.22a2.82,2.82,0,0,0,2-.56l.22-.26a1.34,1.34,0,0,1-.06-.4v-8.55Z"/><path class="cls-1" d="M1589.82,358.52a5.31,5.31,0,0,1,0-.71l-.19.22a2.5,2.5,0,0,1-1.89.56c-.71-.08-1-.46-.68-.84l2.52-2.64a.19.19,0,0,0,0-.19.2.2,0,0,0-.17-.11h-.4a.45.45,0,0,0-.32.14l-2.18,2.21c-.45.47-.43.73-.43,1.46v8.45c0,.62.79,1.14,1.5,1.22a2.82,2.82,0,0,0,2-.56l.22-.26a1.34,1.34,0,0,1-.06-.4Z"/><path class="cls-1" d="M1601.6,354.81h-.44a.42.42,0,0,0-.33.16l-2.67,3.06a2.5,2.5,0,0,1-1.89.56c-.71-.08-1-.46-.68-.84l2.52-2.64a.17.17,0,0,0,0-.19.18.18,0,0,0-.16-.11h-.4a.43.43,0,0,0-.32.14l-2.18,2.21c-.45.47-.43.73-.43,1.46v8.45c0,.62.79,1.14,1.49,1.22a2.83,2.83,0,0,0,2-.56l3.29-3.83a1.33,1.33,0,0,0,.33-.87v-8A.18.18,0,0,0,1601.6,354.81Z"/><path d="M1628.25,354.52V368.9H1627V368h-11.09v.87h-1.25V354.52Zm-12.34,1.07v11.35H1627V355.59Zm4.91,7.73c-1.34-.66-2.77-1.29-4.27-1.91l.55-.86q2.18.79,4.32,1.79l.31.15a14,14,0,0,0,3.3-5.87l1.14.4a18.69,18.69,0,0,1-2.64,5.18,7.84,7.84,0,0,1-.68.84c1.22.62,2.35,1.23,3.38,1.8l-.69,1q-1.85-1.06-3.45-1.89l-.12-.06a15.42,15.42,0,0,1-4.72,2.59l-.72-.93A13.92,13.92,0,0,0,1620.82,363.32Zm-2-2.62a21.17,21.17,0,0,0-1.43-3.33l1.07-.47a20.2,20.2,0,0,1,1.46,3.3Zm2.74-.58a17.58,17.58,0,0,0-1.28-3.32l1-.45a18.33,18.33,0,0,1,1.32,3.3Z"/><path d="M1636.78,354.66v-1H1638v1h5.14v1.83h1.91v.88h-1.91v1.9H1638v.87h6V361h-6v.9h7v.92h-15.21v-.92h6.93V361H1631v-.88h5.78v-.87h-5.11v-.87h5.11v-1h-6.93v-.88h6.93v-1h-5.11v-.86Zm6.32,9v5.25h-1.26v-.7h-8.77v.7h-1.26v-5.25Zm-10,.88v.92h8.77v-.92Zm0,1.77v1h8.77v-1Zm8.85-10.77H1638v1h3.91Zm0,1.85H1638v1h3.91Z"/><path d="M1647.28,357.87h1.9v-1.6h1.12v1.6h2v5.68h-4.19v3.33c.85-.23,1.73-.49,2.65-.79a17.1,17.1,0,0,0-.89-1.62l1-.52a25.94,25.94,0,0,1,2,3.92l-1.07.6c-.22-.54-.42-1-.61-1.47a49.11,49.11,0,0,1-4.81,1.61l-.46-1.22c.34-.07.68-.14,1-.23v-9c-.16.14-.36.31-.61.5l-.66-1a10.31,10.31,0,0,0,3.21-4h1.26l.19.16a32.47,32.47,0,0,1,2.56,2.51l-.79.9a29.31,29.31,0,0,0-2.3-2.51l-.12-.11A12.68,12.68,0,0,1,1647.28,357.87Zm.85,2.32h3.07v-1.38h-3.07Zm0,2.42h3.07v-1.48h-3.07Zm9.37-7.27H1661v3.24h-1.18v-2.21h-5.67V358h5.64v4h-4.5v1.77h5.06v5.16h-1.21V368h-3.85v.93h-1.18V358.49H1653v-3.15h3.32v-1.65h1.22Zm1.07,3.67h-3.32v2h3.32Zm.53,5.74h-3.85v2.19h3.85Z"/></svg>