<svg id="レイヤー_1" data-name="レイヤー 1" xmlns="http://www.w3.org/2000/svg" viewBox="0 0 1920 1080"><defs><style>.cls-1,.cls-2{fill:#fff;}.cls-2,.cls-3,.cls-4,.cls-5,.cls-6,.cls-7{stroke:#000;stroke-miterlimit:10;}.cls-3,.cls-6{fill:none;}.cls-3{stroke-width:2px;}.cls-4{fill:#aae5ff;}.cls-5{fill:#fff1aa;}.cls-7{fill:#ffa49f;}</style></defs><rect class="cls-1" width="1920" height="1080"/><rect class="cls-2" x="906.5" y="210.5" width="99" height="98"/><rect class="cls-2" x="520.5" y="210.5" width="38" height="98"/><path class="cls-2" d="M558.5,178.5h-9c0-1.18-.13-7.5-9-14a22.53,22.53,0,0,0-26,0,23,23,0,0,0-8,27c3.68,9.2,12.5,12.51,14,13v6h485v158h-80v54h80l-2,443h-342v-22h-108v22h-35l2,19c-10-1.16-18.72,6.52-19,16a16.71,16.71,0,0,0,17,17c9.36-.27,17.78-8.54,17-18h18v21l108,1v-22h342v93h39v-93h151v20l156-1v-19h24v-21a14.22,14.22,0,0,0,10-13,14,14,0,0,0-12-14c-7.65-1-15.38,5.2-16,14h-83v-20h-80l1,20h-122v-93h-29v-464h29v-98h272c.78,10.77,10.1,18.18,19,17,7.82-1,14.8-8.63,14-17-.53-5.55-4.4-10.51-10-13v-19h-327v-97h-34v97Z"/><rect class="cls-2" x="1281.5" y="210.5" width="44" height="98"/><rect class="cls-2" x="1071.5" y="210.5" width="94" height="98"/><rect class="cls-2" x="897.5" y="772.5" width="106" height="93"/><rect class="cls-2" x="1272.5" y="772.5" width="43" height="93"/><rect class="cls-2" x="1071.5" y="772.5" width="94" height="93"/><rect class="cls-2" x="518.5" y="772.5" width="35" height="93"/><rect x="941.5" y="243.5" width="29.5" height="29.5" rx="2"/><rect class="cls-3" x="941.5" y="243.5" width="29.5" height="29.5" rx="2"/><rect class="cls-1" x="955.49" y="247.65" width="1.38" height="21.76"/><path class="cls-1" d="M949.05,251.28a1.82,1.82,0,1,0-1.82-1.82A1.82,1.82,0,0,0,949.05,251.28Z"/><path class="cls-1" d="M952.59,253.87c-.36-1.24-1.19-2.06-2.12-2.06h-2.84c-.93,0-1.75.82-2.12,2.06l-1.34,4.75a.75.75,0,0,0,.54.91.74.74,0,0,0,.9-.54l1.34-4.73h.39L945,262.49h2.19v6.11a.85.85,0,1,0,1.69,0v-6.11h.46v6.11a.85.85,0,1,0,1.7,0v-6.11h2l-2.32-8.23h.39l1.34,4.73a.74.74,0,0,0,.9.54.75.75,0,0,0,.54-.91Z"/><path class="cls-1" d="M963.57,251.28a1.82,1.82,0,1,0-1.82-1.82A1.81,1.81,0,0,0,963.57,251.28Z"/><path class="cls-1" d="M965.81,251.79H961a2,2,0,0,0-1.84,1.84v6.11a.8.8,0,0,0,1.6,0v-5h.37v13.64a1,1,0,0,0,2.09,0v-7.92h.34v7.92a1.05,1.05,0,0,0,2.1,0V254.72h.36v5a.8.8,0,1,0,1.6,0v-6.11A2,2,0,0,0,965.81,251.79Z"/><rect x="525.03" y="242.62" width="29.5" height="29.5" rx="2"/><rect class="cls-3" x="525.03" y="242.62" width="29.5" height="29.5" rx="2"/><polygon class="cls-1" points="544.32 248.29 544.32 253.18 538.89 253.18 538.89 258.07 533.46 258.07 533.46 262.95 529.29 262.95 529.29 265.47 535.97 265.47 535.97 260.58 541.4 260.58 541.4 255.69 546.83 255.69 546.83 250.8 551 250.8 551 248.29 544.32 248.29"/><rect x="1288.36" y="244.25" width="29.5" height="29.5" rx="2"/><rect class="cls-3" x="1288.36" y="244.25" width="29.5" height="29.5" rx="2"/><polygon class="cls-1" points="1307.65 249.92 1307.65 254.81 1302.22 254.81 1302.22 259.69 1296.8 259.69 1296.8 264.58 1292.62 264.58 1292.62 267.1 1299.31 267.1 1299.31 262.21 1304.73 262.21 1304.73 257.32 1310.16 257.32 1310.16 252.43 1314.33 252.43 1314.33 249.92 1307.65 249.92"/><rect x="1279.25" y="802.58" width="29.5" height="29.5" rx="2"/><rect class="cls-3" x="1279.25" y="802.58" width="29.5" height="29.5" rx="2"/><polygon class="cls-1" points="1298.54 808.25 1298.54 813.14 1293.11 813.14 1293.11 818.03 1287.68 818.03 1287.68 822.92 1283.51 822.92 1283.51 825.43 1290.2 825.43 1290.2 820.54 1295.62 820.54 1295.62 815.65 1301.05 815.65 1301.05 810.76 1305.22 810.76 1305.22 808.25 1298.54 808.25"/><rect x="521.58" y="803.92" width="29.5" height="29.5" rx="2"/><rect class="cls-3" x="521.58" y="803.92" width="29.5" height="29.5" rx="2"/><polygon class="cls-1" points="540.87 809.58 540.87 814.47 535.44 814.47 535.44 819.36 530.02 819.36 530.02 824.25 525.85 824.25 525.85 826.76 532.53 826.76 532.53 821.87 537.96 821.87 537.96 816.99 543.38 816.99 543.38 812.1 547.56 812.1 547.56 809.58 540.87 809.58"/><rect x="935.69" y="804.58" width="29.5" height="29.5" rx="2"/><rect class="cls-3" x="935.69" y="804.58" width="29.5" height="29.5" rx="2"/><rect class="cls-1" x="949.68" y="808.73" width="1.38" height="21.76"/><path class="cls-1" d="M943.25,812.36a1.82,1.82,0,1,0-1.82-1.81A1.81,1.81,0,0,0,943.25,812.36Z"/><path class="cls-1" d="M946.79,815c-.37-1.25-1.19-2.07-2.12-2.07h-2.85c-.92,0-1.75.82-2.12,2.07l-1.34,4.75a.75.75,0,0,0,.55.9.73.73,0,0,0,.9-.53l1.33-4.74h.4l-2.33,8.24h2.19v6.1a.85.85,0,1,0,1.69,0v-6.1h.47v6.1a.85.85,0,1,0,1.69,0v-6.1h2L945,815.34h.4l1.33,4.74a.73.73,0,0,0,.9.53.75.75,0,0,0,.55-.9Z"/><path class="cls-1" d="M957.77,812.36a1.82,1.82,0,1,0-1.82-1.81A1.81,1.81,0,0,0,957.77,812.36Z"/><path class="cls-1" d="M960,812.88h-4.77a2,2,0,0,0-1.84,1.84v6.11a.79.79,0,0,0,.8.79.79.79,0,0,0,.79-.79v-5h.37v13.64a1,1,0,1,0,2.1,0v-7.91h.33v7.91a1.05,1.05,0,1,0,2.1,0V815.8h.37v5a.8.8,0,0,0,1.59,0v-6.11A2,2,0,0,0,960,812.88Z"/><rect x="1102.58" y="802.92" width="29.5" height="29.5" rx="2"/><rect class="cls-3" x="1102.58" y="802.92" width="29.5" height="29.5" rx="2"/><path class="cls-1" d="M1113.69,815.37a1.07,1.07,0,1,0,1.07,1.06A1.06,1.06,0,0,0,1113.69,815.37Z"/><path class="cls-1" d="M1120.22,815.37a1.07,1.07,0,1,0,1.07,1.06A1.06,1.06,0,0,0,1120.22,815.37Z"/><path class="cls-1" d="M1124,811.1h-14a2,2,0,0,0-2,1.95v15a2,2,0,0,0,2,2h14a2,2,0,0,0,2-2v-15A2,2,0,0,0,1124,811.1Zm-10.5,17.67a.25.25,0,0,0,0-.07l.21-4.9.22,4.9s0,0,0,.07Zm6.53,0s0,0,0-.07l.22-4.9.21,4.9a.25.25,0,0,0,0,.07Zm4.69-.72a.72.72,0,0,1-.72.72h-2.46a.25.25,0,0,0,0-.07l.21-8,.2,2.14a.41.41,0,0,0,.43.4.42.42,0,0,0,.4-.44v-3.52c0-1.47-1.78-1.54-2.54-1.54s-2.55.07-2.55,1.54v3.52a.42.42,0,0,0,.4.44.43.43,0,0,0,.44-.4l.19-2.14.22,8s0,0,0,.07h-4s0,0,0-.07l.22-8,.19,2.14a.43.43,0,0,0,.44.4.42.42,0,0,0,.4-.44v-3.52c0-1.47-1.79-1.54-2.55-1.54s-2.54.07-2.54,1.54v3.52a.42.42,0,0,0,.4.44.41.41,0,0,0,.43-.4l.2-2.14.21,8a.25.25,0,0,0,0,.07H1110a.72.72,0,0,1-.72-.72v-15a.73.73,0,0,1,.72-.72h14a.73.73,0,0,1,.72.72v15Z"/><path class="cls-1" d="M1118.48,807.89l1.46-1.46v3.29a.55.55,0,0,0,.55.54.54.54,0,0,0,.54-.54v-3.29l1.46,1.46a.54.54,0,0,0,.39.16.51.51,0,0,0,.38-.16.53.53,0,0,0,0-.77l-2.39-2.39-.38-.38-.39.38-2.39,2.39a.54.54,0,0,0,.77.77Z"/><path class="cls-1" d="M1113.29,810.1l.39.39.38-.39,2.39-2.39a.54.54,0,0,0-.77-.77l-1.46,1.47v-3.29a.55.55,0,0,0-.54-.55.55.55,0,0,0-.55.55v3.29l-1.46-1.47a.54.54,0,0,0-.77.77Z"/><rect x="1104.25" y="244.36" width="29.5" height="29.5" rx="2"/><rect class="cls-3" x="1104.25" y="244.36" width="29.5" height="29.5" rx="2"/><path class="cls-1" d="M1115.36,256.81a1.07,1.07,0,1,0,1.07,1.07A1.07,1.07,0,0,0,1115.36,256.81Z"/><path class="cls-1" d="M1121.88,256.81a1.07,1.07,0,1,0,1.07,1.07A1.07,1.07,0,0,0,1121.88,256.81Z"/><path class="cls-1" d="M1125.62,252.55h-14a2,2,0,0,0-1.95,1.95v15a2,2,0,0,0,1.95,1.95h14a2,2,0,0,0,2-1.95v-15A2,2,0,0,0,1125.62,252.55Zm-10.49,17.66s0,0,0-.07l.21-4.89.22,4.89s0,.05,0,.07Zm6.52,0a.14.14,0,0,0,0-.07l.21-4.89.22,4.89s0,.05,0,.07Zm4.69-.72a.72.72,0,0,1-.72.72h-2.45s0,0,0-.07l.22-8,.19,2.14a.42.42,0,0,0,.84,0v-3.52c0-1.48-1.79-1.55-2.55-1.55s-2.54.07-2.54,1.55v3.52a.41.41,0,0,0,.4.43.41.41,0,0,0,.43-.39l.2-2.14.21,8a.14.14,0,0,0,0,.07h-3.95s0,0,0-.07l.22-8,.19,2.14a.42.42,0,0,0,.44.39.41.41,0,0,0,.39-.43v-3.52c0-1.48-1.78-1.55-2.54-1.55s-2.54.07-2.54,1.55v3.52a.41.41,0,0,0,.39.43.42.42,0,0,0,.44-.39l.2-2.14.21,8s0,.05,0,.07h-2.45a.72.72,0,0,1-.72-.72v-15a.72.72,0,0,1,.72-.72h14a.72.72,0,0,1,.72.72v15Z"/><path class="cls-1" d="M1120.15,249.34l1.46-1.47v3.29a.55.55,0,0,0,.54.55.55.55,0,0,0,.55-.55v-3.29l1.46,1.47a.54.54,0,0,0,.77,0,.55.55,0,0,0,0-.77l-2.39-2.39-.39-.39-.38.39-2.39,2.39a.54.54,0,0,0,.77.77Z"/><path class="cls-1" d="M1115,251.55l.38.38.39-.38,2.39-2.39a.54.54,0,1,0-.77-.77l-1.46,1.46v-3.29a.55.55,0,0,0-.55-.54.54.54,0,0,0-.54.54v3.29l-1.46-1.46a.55.55,0,0,0-.77,0,.53.53,0,0,0,0,.77Z"/><rect class="cls-4" x="328.5" y="141.5" width="23" height="23"/><path d="M367.78,147v1.61h4.48v1h-4.48v1.46h5.31v1h-5.31v1.57h7v1h-6.68a7.79,7.79,0,0,0,2.61,2.17,13.74,13.74,0,0,0,3.89,1.35l-.7,1.13a12.27,12.27,0,0,1-4.42-1.86,7.55,7.55,0,0,1-2.25-2.3c-.94,2.18-3.17,3.59-6.67,4.24l-.66-1.07q5-.78,6.34-3.66h-6.66v-1h6.93v-1.57h-5.19v-1h5.19v-1.46h-4.38v-1h4.38V147h-5v2h-1.25v-3h6.21v-1.74h1.23V146h6.27v3h-1.23v-2Z"/><path d="M375.43,157.67a19.68,19.68,0,0,0,.61-3.76l.92.16a20.51,20.51,0,0,1-.57,4.21Zm7.14-5.7a37.6,37.6,0,0,1-.43,6.16,1.75,1.75,0,0,1-.52,1,1.67,1.67,0,0,1-1.09.29c-.43,0-.95,0-1.55-.1l-.17-1.15a8.65,8.65,0,0,0,1.54.16.69.69,0,0,0,.62-.23c.27-.45.43-2.1.49-5V153H376.2v-8.12h6.5v1h-2.49v1.38h2v1h-2v1.39h2v1h-2V152Zm-5.07,5.62a34.51,34.51,0,0,0-.19-3.45l.78-.17a33,33,0,0,1,.34,3.39Zm-.17-11.73v1.38h1.78v-1.38Zm0,2.34v1.39h1.78V148.2Zm0,2.35V152h1.78v-1.42Zm1.74,6.64a28.15,28.15,0,0,0-.5-3.23l.72-.23a21,21,0,0,1,.6,3.19Zm1.36-.53a23,23,0,0,0-.68-3l.72-.25a17,17,0,0,1,.72,2.91Zm6.21-1.3a6.84,6.84,0,0,1-3.46,4.15l-.79-1a5.84,5.84,0,0,0,3.46-4h-2.72v-4.12h2.8v-1.53h-1.41v-.52a10.71,10.71,0,0,1-1.68,1.56l-.7-1a9.51,9.51,0,0,0,3.6-4.66h1.34a11.79,11.79,0,0,0,4,4.46l-.66,1a13.92,13.92,0,0,1-1.82-1.54v.64h-1.51v1.53H390v4.12h-2.7a9,9,0,0,0,3.63,3.85l-.7,1A9,9,0,0,1,386.64,155.36Zm-.68-4H384.2v2.15H386Zm2.27-3.55a12.21,12.21,0,0,1-1.8-2.59,10.91,10.91,0,0,1-1.49,2.59Zm-1.18,3.55v2.15h1.86v-2.15Z"/><path d="M399.24,150.4a1.4,1.4,0,0,1,1,.47,1.37,1.37,0,0,1,.39,1,1.41,1.41,0,0,1-.23.76,1.41,1.41,0,0,1-1.88.51,1.36,1.36,0,0,1-.78-1.29,1.38,1.38,0,0,1,.61-1.16A1.43,1.43,0,0,1,399.24,150.4Z"/><path d="M409.85,151.8a19.17,19.17,0,0,0-2.32-2.45l.86-.83a17,17,0,0,1,2.37,2.35Zm-2,6.6a24.53,24.53,0,0,0,2.65-5.29l1,.72a23.37,23.37,0,0,1-2.61,5.5Zm2.46-10.65a17.33,17.33,0,0,0-2.29-2.46l.88-.82a15.39,15.39,0,0,1,2.32,2.37Zm.47,10.75a14.49,14.49,0,0,0,4-2l.9.8a16.67,16.67,0,0,1-4.13,2.16ZM417.43,146h5.12v3.07h-1.22v-2.05H412.6v2.05h-1.2V146h4.81v-1.79h1.22Zm0,4.48h4v5.77h-9v-5.77h3.84v-1.27h-3v-1h7.55v1h-3.34Zm-1.17,2.34V151.5H413.6v1.36Zm0,2.44v-1.5H413.6v1.5Zm1.17-3.8v1.36h2.79V151.5Zm0,2.3v1.5h2.79v-1.5Zm4.54,5.59a34.57,34.57,0,0,0-4-2.14l.88-.76a28.57,28.57,0,0,1,4.08,2Z"/><path d="M424,150.39a30.42,30.42,0,0,0,4.91-1.79l.14,1a36.82,36.82,0,0,1-4.56,1.85Zm6.65-5.55v6.28l1.09.23a9.17,9.17,0,0,1-.52,1H437v7.12h-1.26v-.75h-8.86v.75h-1.25v-7.12h4.29a9.83,9.83,0,0,0,.43-1h-.92v-5.44h-5.27v-1Zm-3.21,3.63a19.11,19.11,0,0,0-2.83-1.41l.75-.85a20,20,0,0,1,2.83,1.35Zm-.54,4.85v1.58h8.86v-1.58Zm0,2.56v1.79h8.86v-1.79Zm11.07-11v6.56h-1.19v-5.54h-5.52v-1Zm-6.66,5.09a34.39,34.39,0,0,0,4.69-1.62l.21.94a44.66,44.66,0,0,1-4.37,1.7Zm3.27-1.54a22.28,22.28,0,0,0-2.89-1.39l.63-.83a18,18,0,0,1,2.93,1.37Z"/><path d="M446,149.48a.37.37,0,0,0-.06.1,16.72,16.72,0,0,1-1.73,2.2h.8c1.2,0,2.59-.07,4.18-.14l1.77-.08c-.53-.5-1.06-1-1.6-1.43l1-.58a37.46,37.46,0,0,1,3,2.69l.41.41-1,.75c-.31-.34-.59-.65-.84-.91l-.11-.11c-.29,0-1.63.12-4,.27v2.07h5.5v1h-5.5v2.07h6.82v1H439.82v-1h6.71v-2.07h-5.37v-1h5.37v-2l-.85,0c-1.28.06-2.7.1-4.26.14l-.39-1.07,1.78,0a18.29,18.29,0,0,0,1.76-2.32H442v-1h10.44v1Zm1.79-3.54h6.37v3H452.9v-2H441.5v2h-1.25v-3h6.28v-1.69h1.25Z"/><rect class="cls-5" x="328.5" y="174.5" width="23" height="23"/><path d="M362.11,184.5h3.28v7.09h-3.24V193h-1.1v-6.37a18.43,18.43,0,0,1-1,1.54L359.4,187a13.37,13.37,0,0,0,2.12-4.07,18.57,18.57,0,0,0,.69-2.62H360v-1.11h5.74v1.11h-2.34A19.19,19.19,0,0,1,362.11,184.5Zm0,1.07v5h2.17v-5Zm10.53-5.46v4.61h2.13v1.1h-2.13v7.59H371.5v-7.59H369a15.18,15.18,0,0,1-.57,4.43,9.35,9.35,0,0,1-1.75,3.21l-1.06-.8q2.12-2.06,2.19-6.84h-1.91v-1.1h1.92v-4.61h-1.33V179h7.84v1.1Zm-1.18,0H369v4.61h2.47Z"/><path d="M385.35,181v2.58c0,.26.1.41.3.46a4.67,4.67,0,0,0,.94.06c.88,0,1.39-.07,1.51-.22a2.5,2.5,0,0,0,.18-1.2l1.18.45a2.78,2.78,0,0,1-.41,1.57,4.51,4.51,0,0,1-2.58.43,4.91,4.91,0,0,1-2-.23c-.25-.15-.37-.46-.37-.94v-3h-6.65v2.24h-1.23V180h6.3v-1.71h1.25V180h6.4v2.65h-1.25V181Zm-2.47,5.6h4.2l-.29,4.69c0,.06,0,.11,0,.15,0,.26.1.42.29.47a3.4,3.4,0,0,0,.9.07,4.45,4.45,0,0,0,1.16-.09c.2-.07.33-.31.39-.7a14.31,14.31,0,0,0,.15-1.58l1.18.43c0,.08,0,.31,0,.68a5.89,5.89,0,0,1-.21,1.37,1.27,1.27,0,0,1-1,.93,9.9,9.9,0,0,1-1.76.11,3.82,3.82,0,0,1-2-.32,1,1,0,0,1-.38-.85.57.57,0,0,1,0-.12l.27-4.18H382.7a6.46,6.46,0,0,1-1.81,3.58,10.53,10.53,0,0,1-3.75,2.16l-.77-1a8.68,8.68,0,0,0,3.51-1.84,5.78,5.78,0,0,0,1.55-2.88H377v-1.06h4.58l.21-2.06,1.25.08Zm-6.27-2a6.57,6.57,0,0,0,3-1.22,4,4,0,0,0,1.2-2.09l1.13.39a4.68,4.68,0,0,1-2.09,3,7.82,7.82,0,0,1-2.49.91Z"/><path d="M398,183.48a.37.37,0,0,0-.06.1,16.72,16.72,0,0,1-1.73,2.2h.8c1.2,0,2.59-.07,4.18-.14l1.77-.08c-.53-.5-1.06-1-1.6-1.43l1-.58a37.46,37.46,0,0,1,3,2.69l.41.41-1,.75c-.31-.34-.59-.65-.84-.91l-.11-.11c-.29,0-1.63.12-4,.27v2.07h5.5v1h-5.5v2.07h6.82v1H391.82v-1h6.71v-2.07h-5.37v-1h5.37v-2l-.85,0c-1.28.06-2.7.1-4.26.14l-.39-1.07,1.78,0a18.29,18.29,0,0,0,1.76-2.32H394v-1h10.44v1Zm1.79-3.54h6.37v3H404.9v-2H393.5v2h-1.25v-3h6.28v-1.69h1.25Z"/><rect x="328.78" y="240" width="22" height="22" rx="2"/><rect class="cls-3" x="328.78" y="240" width="22" height="22" rx="2"/><polygon class="cls-1" points="343.16 244.23 343.16 247.87 339.12 247.87 339.12 251.52 335.07 251.52 335.07 255.16 331.96 255.16 331.96 257.04 336.94 257.04 336.94 253.39 340.99 253.39 340.99 249.75 345.04 249.75 345.04 246.1 348.15 246.1 348.15 244.23 343.16 244.23"/><path d="M360,244.44h3.59l.63.56a35.09,35.09,0,0,1-1.42,4.44,6.79,6.79,0,0,1,1.15,2.24,6.59,6.59,0,0,1,.31,2,3.65,3.65,0,0,1-.18,1.29,1.32,1.32,0,0,1-1.38.77,5.07,5.07,0,0,1-.94-.09l-.28-1.15a6,6,0,0,0,1,.1c.29,0,.46-.1.52-.28a2.63,2.63,0,0,0,.08-.81,6.31,6.31,0,0,0-1.42-3.92,26.27,26.27,0,0,0,1.24-4h-1.77v13.53H360Zm5,4.95V244h1.17v1.82h2.87v1h-2.87v2.28c.89-.18,1.82-.41,2.8-.68l.08,1a35.87,35.87,0,0,1-4.86,1.21l-.39-1.07Zm2.95,2.26a8.87,8.87,0,0,0,.49-1.51l1.18.21a8.69,8.69,0,0,1-.53,1.3h4.53v7.4h-1.23v-.86h-6.08v.86h-1.23v-7.4Zm-1.64,1v1.73h6.08v-1.73Zm0,2.7v1.85h6.08v-1.85Zm4.37-9.41a15.79,15.79,0,0,0,2.9-1.14l.75,1a20,20,0,0,1-3.65,1.19v1.8c0,.28.09.45.26.49a4.75,4.75,0,0,0,1,.07,5.5,5.5,0,0,0,1.11-.07c.22-.06.36-.26.43-.61a9.46,9.46,0,0,0,.11-1.16l1.09.37c0,.11,0,.28,0,.49a4.25,4.25,0,0,1-.22,1.28,1.11,1.11,0,0,1-1,.67,14,14,0,0,1-1.75.08,4,4,0,0,1-1.81-.25,1.09,1.09,0,0,1-.42-1v-5.2h1.15Z"/><path d="M376.91,245.05a20.26,20.26,0,0,0,4.51-1.1l.8.93a25.22,25.22,0,0,1-4.11,1V248h3.37v1.05h-3.37v2.21h3.37v1h-3.37v2.64c1.33-.19,2.55-.4,3.66-.62l.07,1c-.85.19-1.88.4-3.11.62l-.62.12v3h-1.2v-2.8l-1.06.16-.37-1.17,1.43-.17Zm9.25,11.53a15.36,15.36,0,0,1-4.07,2.54l-.83-1a13.78,13.78,0,0,0,4.07-2.35l-.08-.09a12.41,12.41,0,0,1-2.33-3.54h-.7v-1H389l.7.59a13.58,13.58,0,0,1-2.69,4.05,16.08,16.08,0,0,0,3.75,2.14l-.72,1.12A16.09,16.09,0,0,1,386.16,256.58Zm-2.84-12.1H388v4a.38.38,0,0,0,.09.3.79.79,0,0,0,.41.07c.49,0,.76-.06.82-.18a7.23,7.23,0,0,0,.16-1.75l1.1.44a8.14,8.14,0,0,1-.23,2,.94.94,0,0,1-.64.57,5.36,5.36,0,0,1-1.23.11,2.71,2.71,0,0,1-1.32-.21.87.87,0,0,1-.33-.79v-3.46h-2.36v.13a9.11,9.11,0,0,1-.39,3,3.86,3.86,0,0,1-1.41,1.8l-.85-.88a2.94,2.94,0,0,0,1.33-1.86,8.86,8.86,0,0,0,.19-2.08Zm.79,7.67a11.62,11.62,0,0,0,2.05,2.83,10.29,10.29,0,0,0,1.95-2.83Z"/><rect x="328.58" y="272.92" width="22.42" height="22.42" rx="2"/><rect class="cls-3" x="328.58" y="272.92" width="22.42" height="22.42" rx="2"/><path class="cls-1" d="M337,282.38a.81.81,0,1,0,0,1.62.81.81,0,0,0,0-1.62Z"/><path class="cls-1" d="M342,282.38a.81.81,0,1,0,.81.81A.81.81,0,0,0,342,282.38Z"/><path class="cls-1" d="M344.83,279.14H334.18a1.48,1.48,0,0,0-1.48,1.48V292a1.49,1.49,0,0,0,1.48,1.49h10.65a1.49,1.49,0,0,0,1.48-1.49V280.62A1.48,1.48,0,0,0,344.83,279.14Zm-8,13.42s0,0,0-.05l.17-3.72.16,3.72s0,0,0,.05Zm5,0s0,0,0-.05l.16-3.72.17,3.72a.09.09,0,0,0,0,.05Zm3.56-.55a.54.54,0,0,1-.54.55H343s0,0,0-.05l.16-6.05.15,1.62a.31.31,0,0,0,.33.3.31.31,0,0,0,.3-.33v-2.67c0-1.12-1.35-1.18-1.93-1.18s-1.93.06-1.93,1.18v2.67a.31.31,0,0,0,.3.33.31.31,0,0,0,.33-.3l.15-1.62.16,6.05s0,0,0,.05h-3a.09.09,0,0,0,0-.05l.17-6.05.15,1.62a.3.3,0,0,0,.33.3.31.31,0,0,0,.3-.33v-2.67c0-1.12-1.36-1.18-1.93-1.18s-1.94.06-1.94,1.18v2.67a.32.32,0,0,0,.31.33.31.31,0,0,0,.33-.3l.15-1.62.16,6.05s0,0,0,.05h-1.87a.54.54,0,0,1-.54-.55V280.62a.55.55,0,0,1,.54-.55h10.65a.55.55,0,0,1,.54.55V292Z"/><path class="cls-1" d="M340.66,276.7l1.12-1.11v2.5a.41.41,0,0,0,.82,0v-2.5l1.11,1.11a.42.42,0,0,0,.3.12.42.42,0,0,0,.29-.12.42.42,0,0,0,0-.59l-1.82-1.81-.29-.3-.29.3-1.82,1.81a.42.42,0,0,0,0,.59A.41.41,0,0,0,340.66,276.7Z"/><path class="cls-1" d="M336.72,278.38l.29.29.29-.29,1.82-1.82a.41.41,0,1,0-.58-.58l-1.11,1.11v-2.5a.41.41,0,0,0-.42-.41.41.41,0,0,0-.41.41v2.5L335.49,276a.42.42,0,0,0-.59,0,.41.41,0,0,0,0,.58Z"/><path d="M361.16,278.7h11.41v1.18h-5.14v8.71h6v1.15H360.25v-1.15h5.9v-8.71h-5Z"/><path d="M375.64,277.28H377v11.93a16.67,16.67,0,0,0,6.41-3.6,13.66,13.66,0,0,0,3-3.71l.83,1.23a17,17,0,0,1-4.16,4.39,21,21,0,0,1-6.54,3.23l-.88-.88Z"/><path d="M388.44,287.07a28.78,28.78,0,0,0,4.73-7.84h1.41a43.57,43.57,0,0,0,7.63,9.26l-.81,1.13a50.39,50.39,0,0,1-4.42-4.8,42.94,42.94,0,0,1-3-4.2h-.07a28.55,28.55,0,0,1-4.45,7.36Zm10.24-5.55a11.69,11.69,0,0,0-1.41-2.61l1-.37a11.92,11.92,0,0,1,1.43,2.58Zm2-.71a13.44,13.44,0,0,0-1.39-2.62l.92-.34a10.26,10.26,0,0,1,1.41,2.53Z"/><path d="M404.07,283.09h13.49v1.23H404.07Z"/><path d="M430.58,278.73l.87.75A16,16,0,0,1,428,287a12.66,12.66,0,0,1-3.33,2.54,15,15,0,0,1-3.23,1.3l-.66-1.11a12.91,12.91,0,0,0,6.32-3.62,25.29,25.29,0,0,0-4.19-3.14l.74-.91a23.91,23.91,0,0,1,4.22,3,14.12,14.12,0,0,0,2.16-5.23h-5.76a13.76,13.76,0,0,1-4.3,4.41l-.85-.89a12.1,12.1,0,0,0,5.18-6.44l1.23.32,0,.05c-.23.56-.43,1-.62,1.41Z"/><path d="M433.51,283.09H447v1.23H433.51Z"/><rect x="328.5" y="305.67" width="22.33" height="22.33" rx="2"/><rect class="cls-3" x="328.5" y="305.67" width="22.33" height="22.33" rx="2"/><rect class="cls-1" x="339.09" y="308.81" width="1.04" height="16.47"/><path class="cls-1" d="M334.22,311.56a1.38,1.38,0,1,0-1.38-1.38A1.37,1.37,0,0,0,334.22,311.56Z"/><path class="cls-1" d="M336.9,313.52c-.28-.94-.9-1.57-1.61-1.57h-2.15c-.7,0-1.33.63-1.61,1.57l-1,3.59a.57.57,0,0,0,.41.69.55.55,0,0,0,.68-.4l1-3.59h.3l-1.76,6.24h1.66v4.62a.64.64,0,0,0,1.28,0v-4.62h.35v4.62a.64.64,0,0,0,.64.64.64.64,0,0,0,.64-.64v-4.62h1.54l-1.76-6.24h.3l1,3.59a.55.55,0,0,0,.68.4.56.56,0,0,0,.41-.69Z"/><path class="cls-1" d="M345.21,311.56a1.38,1.38,0,1,0-1.38-1.38A1.37,1.37,0,0,0,345.21,311.56Z"/><path class="cls-1" d="M346.9,312h-3.61a1.54,1.54,0,0,0-1.39,1.39V318a.6.6,0,1,0,1.2,0v-3.8h.28v10.32a.8.8,0,1,0,1.59,0v-6h.25v6a.8.8,0,1,0,1.59,0V314.16h.28V318a.61.61,0,1,0,1.21,0v-4.62A1.55,1.55,0,0,0,346.9,312Z"/><path d="M361.36,309.32h1.31v4.45a48.83,48.83,0,0,1,7.66,2.93l-.65,1.19a48.39,48.39,0,0,0-7-2.87v8h-1.31Z"/><path d="M377.77,322.93v-8.26a27.24,27.24,0,0,1-5.68,2.88l-.7-1.12a23.07,23.07,0,0,0,6-3,24.53,24.53,0,0,0,4.51-4.1l1.1.69a32.28,32.28,0,0,1-3.93,3.69v9.21Z"/><path d="M385.5,309.5h1.31v11.93a16.78,16.78,0,0,0,6.42-3.6,13.47,13.47,0,0,0,3-3.71l.83,1.23a17,17,0,0,1-4.16,4.39,20.82,20.82,0,0,1-6.54,3.23l-.88-.88Z"/><path d="M345.55,68.74h5.28v26h7.43v3.71h-7.43v9.44h-4.22V98.42H326.83V94.76Zm1.06,26V80.89q0-4,.23-8.3h-.18a48.11,48.11,0,0,1-3.52,6.09l-11.41,16Z"/><path d="M376,67.41H386.8l1.88,1.69a102.82,102.82,0,0,1-4.27,13.31,21.16,21.16,0,0,1,4.39,12.65,11.14,11.14,0,0,1-.54,3.9q-.92,2.3-4.15,2.29a15.31,15.31,0,0,1-2.81-.26l-.82-3.44a19.54,19.54,0,0,0,3,.28c.86,0,1.39-.28,1.57-.84a8.44,8.44,0,0,0,.24-2.42,19,19,0,0,0-4.27-11.76,78.55,78.55,0,0,0,3.73-12.14h-5.32v40.57H376Zm15.12,14.86V66.12h3.52v5.46h8.6v3.16h-8.6v6.85q4-.82,8.39-2l.25,2.93a108.32,108.32,0,0,1-14.6,3.63l-1.17-3.21C389.14,82.64,390.34,82.42,391.14,82.27ZM400,89a26.13,26.13,0,0,0,1.45-4.52l3.57.63a28.11,28.11,0,0,1-1.6,3.89H417v22.2h-3.71v-2.56H395.08v2.56h-3.7V89Zm-4.92,3V97.2h18.23V92Zm0,8.11v5.53h18.23v-5.53Zm13.1-28.24a47.34,47.34,0,0,0,8.7-3.43l2.24,2.89a58.74,58.74,0,0,1-10.94,3.56v5.41c0,.85.26,1.34.77,1.48a15.17,15.17,0,0,0,3.17.21,16.2,16.2,0,0,0,3.33-.23c.65-.18,1.08-.79,1.28-1.83a26.31,26.31,0,0,0,.33-3.47l3.26,1.1c0,.34-.05.84-.09,1.48a13.06,13.06,0,0,1-.68,3.84,3.42,3.42,0,0,1-2.89,2,42.14,42.14,0,0,1-5.25.23q-4.26,0-5.41-.75a3.29,3.29,0,0,1-1.27-3V65.81h3.45Z"/><line class="cls-6" x1="1005.5" y1="368.5" x2="1005.5" y2="422.5"/><rect x="950.14" y="381.1" width="29.5" height="29.5" rx="2"/><rect class="cls-3" x="950.14" y="381.1" width="29.5" height="29.5" rx="2"/><polygon class="cls-1" points="969.43 386.77 969.43 391.66 964 391.66 964 396.55 958.57 396.55 958.57 401.44 954.4 401.44 954.4 403.95 961.08 403.95 961.08 399.06 966.51 399.06 966.51 394.17 971.94 394.17 971.94 389.28 976.11 389.28 976.11 386.77 969.43 386.77"/><rect class="cls-7" x="328.5" y="206.5" width="23" height="23"/><path d="M364.68,214.66a14.89,14.89,0,0,0,2.32-3.5l.93.66a19.14,19.14,0,0,1-1.9,2.84h1.47v1.05h-2.38a17.49,17.49,0,0,1-2,1.8h3.52l.5.64a16.34,16.34,0,0,1-2.29,1.78v.75l.29,0c.68-.08,1.55-.22,2.59-.39l.05,1c-.84.18-1.73.34-2.67.49l-.26,0v2.51a1.28,1.28,0,0,1-.3,1,1.47,1.47,0,0,1-.94.22c-.5,0-1.12,0-1.85-.07l-.26-1.1a13.77,13.77,0,0,0,1.8.15c.25,0,.38-.13.38-.4v-2.12l-1,.14c-.87.11-1.73.21-2.58.29l-.3-1.1c1.3-.11,2.6-.24,3.89-.39v-1.27a9.64,9.64,0,0,0,1.54-1.07H361.8c-.61.4-1.17.75-1.68,1l-.66-.9a20.13,20.13,0,0,0,4.14-2.9h-4v-1.05h3.09V212.9h-2.45v-1h2.45v-1.63h1.17v1.63h2v1h-2v1.76Zm5.73,6.11a19.75,19.75,0,0,1-1.74-4.21,15.39,15.39,0,0,1-.81,1.46l-.82-1a19.43,19.43,0,0,0,2.28-6.71l1.18.23c-.16.87-.36,1.72-.59,2.58h4.84v1.1h-1.26l0,.15a18.68,18.68,0,0,1-1.72,6.43,15.32,15.32,0,0,0,3.23,3.37l-.73,1.18a16.53,16.53,0,0,1-3.13-3.42,11.07,11.07,0,0,1-3.59,3.56l-.82-1A9.45,9.45,0,0,0,370.41,220.77Zm.61-1.19a18.51,18.51,0,0,0,1.28-5.35h-2.73q-.17.53-.24.72A19.07,19.07,0,0,0,371,219.58Z"/><path d="M382,215.48a.37.37,0,0,0-.06.1,16.72,16.72,0,0,1-1.73,2.2h.8c1.2,0,2.59-.07,4.18-.14l1.77-.08c-.53-.5-1.06-1-1.6-1.43l1-.58a37.46,37.46,0,0,1,3,2.69l.41.41-1,.75c-.31-.34-.59-.65-.84-.91l-.11-.11c-.29,0-1.63.12-4,.27v2.07h5.5v1h-5.5v2.07h6.82v1H375.82v-1h6.71v-2.07h-5.37v-1h5.37v-2l-.85,0c-1.28.06-2.7.1-4.26.14l-.39-1.07,1.78,0a18.29,18.29,0,0,0,1.76-2.32H378v-1h10.44v1Zm1.79-3.54h6.37v3H388.9v-2H377.5v2h-1.25v-3h6.28v-1.69h1.25Z"/><rect class="cls-7" x="1039.5" y="82" width="109.17" height="96.5"/><rect class="cls-7" x="1148.67" y="82" width="109.17" height="96.5"/><rect class="cls-7" x="1257.83" y="82" width="109.17" height="96.5"/><path d="M1073.6,128.65h1.07a5.48,5.48,0,0,0,2.55-.51,2.8,2.8,0,0,0,.4-.27,2.21,2.21,0,0,0,.84-1.76,2,2,0,0,0-.88-1.71,3.56,3.56,0,0,0-2.07-.56,5,5,0,0,0-3.47,1.49l-1-1a5.59,5.59,0,0,1,1.51-1.07,6.69,6.69,0,0,1,3-.7,5.8,5.8,0,0,1,2.81.65,3.14,3.14,0,0,1,.73,5.13,3.92,3.92,0,0,1-2.28.93v.07a4.78,4.78,0,0,1,2.73,1,3.16,3.16,0,0,1,1.06,2.5,3.48,3.48,0,0,1-1.56,3.05,6.12,6.12,0,0,1-3.54.92,6.58,6.58,0,0,1-4.93-1.94l1-1a4.84,4.84,0,0,0,1.2.93,5.61,5.61,0,0,0,2.74.7,3.94,3.94,0,0,0,2.56-.75,2.25,2.25,0,0,0,.83-1.88q0-2.9-4.3-2.89h-1Z"/><path d="M1087.59,136.55v-12.3a19.53,19.53,0,0,1-3.33,1l-.34-1.22a15.22,15.22,0,0,0,4.1-1.51h1.1v14Z"/><path d="M1099.57,122.51a4.31,4.31,0,0,1,3.77,2,9,9,0,0,1,1.29,5.13,9.59,9.59,0,0,1-1.09,4.85,4.38,4.38,0,0,1-4,2.35,4.33,4.33,0,0,1-3.82-2.11,9.2,9.2,0,0,1-1.24-5.09,8.93,8.93,0,0,1,1.37-5.26A4.33,4.33,0,0,1,1099.57,122.51Zm0,1.33a2.78,2.78,0,0,0-2.54,1.72,8.71,8.71,0,0,0-.82,4.12,9.11,9.11,0,0,0,.7,3.87,2.88,2.88,0,0,0,2.67,1.94,2.77,2.77,0,0,0,2.51-1.65,8.59,8.59,0,0,0,.85-4.16,8.44,8.44,0,0,0-.92-4.31A2.72,2.72,0,0,0,1099.55,123.84Z"/><path d="M1112.49,122.51a4.29,4.29,0,0,1,3.76,2,9,9,0,0,1,1.29,5.13,9.49,9.49,0,0,1-1.09,4.85,4.54,4.54,0,0,1-7.81.24,9.28,9.28,0,0,1-1.23-5.09,8.85,8.85,0,0,1,1.37-5.26A4.32,4.32,0,0,1,1112.49,122.51Zm0,1.33a2.78,2.78,0,0,0-2.54,1.72,8.84,8.84,0,0,0-.81,4.12,9.11,9.11,0,0,0,.7,3.87,2.86,2.86,0,0,0,2.67,1.94,2.78,2.78,0,0,0,2.51-1.65,8.71,8.71,0,0,0,.85-4.16,8.55,8.55,0,0,0-.92-4.31A2.75,2.75,0,0,0,1112.46,123.84Z"/><path d="M1182,128.94h1.07a5.58,5.58,0,0,0,2.55-.5,2.29,2.29,0,0,0,.41-.28,2.19,2.19,0,0,0,.84-1.75,2,2,0,0,0-.88-1.72,3.58,3.58,0,0,0-2.07-.55,5,5,0,0,0-3.48,1.49l-1-1a6,6,0,0,1,1.51-1.06,6.73,6.73,0,0,1,3-.71,5.71,5.71,0,0,1,2.82.66,3.14,3.14,0,0,1,.72,5.13,4,4,0,0,1-2.27.93v.07a4.78,4.78,0,0,1,2.73,1,3.2,3.2,0,0,1,1,2.51,3.49,3.49,0,0,1-1.56,3,6.18,6.18,0,0,1-3.54.92,6.61,6.61,0,0,1-4.93-1.94l1-1.05a4.8,4.8,0,0,0,1.2.92,5.65,5.65,0,0,0,2.74.71,4,4,0,0,0,2.57-.75,2.3,2.3,0,0,0,.83-1.88q0-2.9-4.3-2.89h-1Z"/><path d="M1192.45,136.84v-1.37c.52-1.84,1.94-3.53,4.25-5.1l.48-.32a16.6,16.6,0,0,0,2-1.56,2.75,2.75,0,0,0,.93-2,2.07,2.07,0,0,0-.77-1.65,3.17,3.17,0,0,0-2.13-.69,4.68,4.68,0,0,0-3.6,1.79l-1.07-.93a5.67,5.67,0,0,1,4.68-2.2,5.49,5.49,0,0,1,2.79.68,3.37,3.37,0,0,1,1.8,3.07,3.46,3.46,0,0,1-1.14,2.54,19.5,19.5,0,0,1-2.22,1.69l-.29.2-.58.41c-2.1,1.43-3.28,2.76-3.56,4h8v1.44Z"/><path d="M1210.19,122.81a4.32,4.32,0,0,1,3.77,2,9,9,0,0,1,1.29,5.13,9.47,9.47,0,0,1-1.09,4.85,4.54,4.54,0,0,1-7.81.24,9.24,9.24,0,0,1-1.24-5.09,8.91,8.91,0,0,1,1.37-5.25A4.34,4.34,0,0,1,1210.19,122.81Zm0,1.33a2.78,2.78,0,0,0-2.54,1.71,8.89,8.89,0,0,0-.82,4.12,9.32,9.32,0,0,0,.7,3.88,2.89,2.89,0,0,0,2.67,1.94,2.77,2.77,0,0,0,2.51-1.65,8.61,8.61,0,0,0,.86-4.16,8.45,8.45,0,0,0-.93-4.32A2.73,2.73,0,0,0,1210.17,124.14Z"/><path d="M1223.11,122.81a4.33,4.33,0,0,1,3.77,2,9,9,0,0,1,1.28,5.13,9.57,9.57,0,0,1-1.08,4.85,4.36,4.36,0,0,1-4,2.35,4.3,4.3,0,0,1-3.82-2.11A9.15,9.15,0,0,1,1218,130a8.91,8.91,0,0,1,1.37-5.25A4.33,4.33,0,0,1,1223.11,122.81Zm0,1.33a2.8,2.8,0,0,0-2.54,1.71,8.9,8.9,0,0,0-.81,4.12,9.16,9.16,0,0,0,.7,3.88,2.89,2.89,0,0,0,2.67,1.94,2.78,2.78,0,0,0,2.51-1.65,8.62,8.62,0,0,0,.85-4.16,8.46,8.46,0,0,0-.92-4.32A2.76,2.76,0,0,0,1223.08,124.14Z"/><path d="M1291,128.94h1.07a5.58,5.58,0,0,0,2.55-.5,2.29,2.29,0,0,0,.41-.28,2.19,2.19,0,0,0,.84-1.75,2,2,0,0,0-.88-1.72,3.58,3.58,0,0,0-2.07-.55,5,5,0,0,0-3.48,1.49l-1-1a6,6,0,0,1,1.51-1.06,6.73,6.73,0,0,1,3-.71,5.71,5.71,0,0,1,2.82.66,3.14,3.14,0,0,1,.72,5.13,4,4,0,0,1-2.27.93v.07a4.78,4.78,0,0,1,2.73,1,3.2,3.2,0,0,1,1,2.51,3.49,3.49,0,0,1-1.56,3,6.18,6.18,0,0,1-3.54.92,6.61,6.61,0,0,1-4.93-1.94l1-1.05a4.8,4.8,0,0,0,1.2.92,5.65,5.65,0,0,0,2.74.71,4,4,0,0,0,2.57-.75,2.3,2.3,0,0,0,.83-1.88q0-2.9-4.3-2.89h-1Z"/><path d="M1303.93,128.94H1305a5.58,5.58,0,0,0,2.55-.5,2.43,2.43,0,0,0,1.24-2,2,2,0,0,0-.88-1.72,3.53,3.53,0,0,0-2.06-.55,4.93,4.93,0,0,0-3.48,1.49l-1-1a5.78,5.78,0,0,1,1.51-1.06,6.7,6.7,0,0,1,3-.71,5.7,5.7,0,0,1,2.81.66,3.14,3.14,0,0,1,.73,5.13,4.05,4.05,0,0,1-2.28.93v.07a4.72,4.72,0,0,1,2.73,1,3.18,3.18,0,0,1,1.06,2.51,3.49,3.49,0,0,1-1.56,3,6.2,6.2,0,0,1-3.54.92,6.58,6.58,0,0,1-4.93-1.94l1-1.05a4.8,4.8,0,0,0,1.2.92,5.62,5.62,0,0,0,2.74.71,4,4,0,0,0,2.57-.75,2.3,2.3,0,0,0,.83-1.88c0-1.93-1.44-2.89-4.3-2.89h-1Z"/><path d="M1319.19,122.81a4.32,4.32,0,0,1,3.77,2,9,9,0,0,1,1.29,5.13,9.47,9.47,0,0,1-1.09,4.85,4.54,4.54,0,0,1-7.81.24,9.24,9.24,0,0,1-1.24-5.09,8.91,8.91,0,0,1,1.37-5.25A4.34,4.34,0,0,1,1319.19,122.81Zm0,1.33a2.78,2.78,0,0,0-2.54,1.71,8.89,8.89,0,0,0-.82,4.12,9.32,9.32,0,0,0,.7,3.88,2.89,2.89,0,0,0,2.67,1.94,2.77,2.77,0,0,0,2.51-1.65,8.61,8.61,0,0,0,.86-4.16,8.45,8.45,0,0,0-.93-4.32A2.73,2.73,0,0,0,1319.17,124.14Z"/><path d="M1332.11,122.81a4.33,4.33,0,0,1,3.77,2,9,9,0,0,1,1.28,5.13,9.57,9.57,0,0,1-1.08,4.85,4.36,4.36,0,0,1-4,2.35,4.3,4.3,0,0,1-3.82-2.11A9.15,9.15,0,0,1,1327,130a8.91,8.91,0,0,1,1.37-5.25A4.33,4.33,0,0,1,1332.11,122.81Zm0,1.33a2.8,2.8,0,0,0-2.54,1.71,8.9,8.9,0,0,0-.81,4.12,9.16,9.16,0,0,0,.7,3.88,2.89,2.89,0,0,0,2.67,1.94,2.78,2.78,0,0,0,2.51-1.65,8.62,8.62,0,0,0,.85-4.16,8.46,8.46,0,0,0-.92-4.32A2.76,2.76,0,0,0,1332.08,124.14Z"/><rect class="cls-7" x="1165.5" y="210.97" width="116" height="97.53"/><path d="M1201.54,258.91h1.07a5.46,5.46,0,0,0,2.55-.5,2.71,2.71,0,0,0,.41-.28,2.21,2.21,0,0,0,.83-1.75,2,2,0,0,0-.88-1.72,3.53,3.53,0,0,0-2.06-.55,5,5,0,0,0-3.48,1.49l-1-1a5.78,5.78,0,0,1,1.51-1.06,6.69,6.69,0,0,1,3-.7,5.84,5.84,0,0,1,2.82.65,3.14,3.14,0,0,1,.72,5.13,4.05,4.05,0,0,1-2.28.93v.07a4.72,4.72,0,0,1,2.73,1,3.16,3.16,0,0,1,1.06,2.5,3.48,3.48,0,0,1-1.56,3.05,6.2,6.2,0,0,1-3.54.92,6.6,6.6,0,0,1-4.93-1.94l1-1a4.57,4.57,0,0,0,1.2.92,5.62,5.62,0,0,0,2.74.71,4,4,0,0,0,2.57-.75,2.29,2.29,0,0,0,.83-1.88c0-1.93-1.44-2.89-4.3-2.89h-1Z"/><path d="M1217.61,253h1.87v9.2h2.63v1.31h-2.63v3.35H1218v-3.35h-7v-1.29Zm.37,9.2v-4.9q0-1.41.09-2.94H1218a15.72,15.72,0,0,1-1.25,2.16l-4,5.68Z"/><path d="M1229.72,252.78a4.31,4.31,0,0,1,3.77,2,9,9,0,0,1,1.29,5.13,9.56,9.56,0,0,1-1.09,4.84,4.54,4.54,0,0,1-7.81.25,9.2,9.2,0,0,1-1.24-5.09,8.93,8.93,0,0,1,1.37-5.26A4.34,4.34,0,0,1,1229.72,252.78Zm0,1.33a2.78,2.78,0,0,0-2.54,1.72,8.69,8.69,0,0,0-.82,4.11,9.32,9.32,0,0,0,.7,3.88,2.89,2.89,0,0,0,2.67,1.94,2.77,2.77,0,0,0,2.51-1.65,8.62,8.62,0,0,0,.85-4.16,8.42,8.42,0,0,0-.92-4.31A2.72,2.72,0,0,0,1229.7,254.11Z"/><path d="M1242.64,252.78a4.32,4.32,0,0,1,3.77,2,9.06,9.06,0,0,1,1.28,5.13,9.45,9.45,0,0,1-1.09,4.84,4.54,4.54,0,0,1-7.81.25,9.28,9.28,0,0,1-1.23-5.09,8.85,8.85,0,0,1,1.37-5.26A4.32,4.32,0,0,1,1242.64,252.78Zm0,1.33a2.78,2.78,0,0,0-2.54,1.72,8.83,8.83,0,0,0-.81,4.11,9.16,9.16,0,0,0,.7,3.88,2.88,2.88,0,0,0,2.67,1.94,2.78,2.78,0,0,0,2.51-1.65A8.62,8.62,0,0,0,1246,260a8.52,8.52,0,0,0-.92-4.31A2.75,2.75,0,0,0,1242.61,254.11Z"/><rect class="cls-7" x="559" y="81.75" width="112.01" height="96.5"/><rect class="cls-7" x="671.01" y="81.75" width="112.01" height="96.5"/><rect class="cls-7" x="783.02" y="81.75" width="112.01" height="96.5"/><path d="M590.4,136.3v-1.38q.79-2.74,4.36-5.1l.48-.32a17.23,17.23,0,0,0,2.11-1.55,2.76,2.76,0,0,0,.95-2,2.05,2.05,0,0,0-.78-1.66,3.34,3.34,0,0,0-2.19-.69,4.87,4.87,0,0,0-3.7,1.79l-1.1-.93a5.91,5.91,0,0,1,4.81-2.2,5.66,5.66,0,0,1,2.86.69,3.34,3.34,0,0,1,1.85,3.06,3.42,3.42,0,0,1-1.17,2.54,21.77,21.77,0,0,1-2.28,1.7l-.29.19-.61.41c-2.14,1.43-3.36,2.77-3.64,4h8.17v1.45Z"/><path d="M607.29,136.3V124a20.33,20.33,0,0,1-3.41,1l-.35-1.22a15.86,15.86,0,0,0,4.2-1.51h1.13v14Z"/><path d="M619.58,122.26a4.46,4.46,0,0,1,3.87,2,8.82,8.82,0,0,1,1.32,5.13,9.29,9.29,0,0,1-1.12,4.85,4.72,4.72,0,0,1-8,.24,9,9,0,0,1-1.27-5.09,8.71,8.71,0,0,1,1.41-5.26A4.48,4.48,0,0,1,619.58,122.26Zm0,1.33a2.86,2.86,0,0,0-2.61,1.72,8.7,8.7,0,0,0-.83,4.12,9.1,9.1,0,0,0,.71,3.87,3,3,0,0,0,2.75,1.94,2.85,2.85,0,0,0,2.57-1.65,8.47,8.47,0,0,0,.87-4.16,8.33,8.33,0,0,0-.94-4.31A2.81,2.81,0,0,0,619.56,123.59Z"/><path d="M632.84,122.26a4.43,4.43,0,0,1,3.86,2,8.82,8.82,0,0,1,1.32,5.13,9.39,9.39,0,0,1-1.11,4.85,4.72,4.72,0,0,1-8,.24,9.11,9.11,0,0,1-1.27-5.09,8.71,8.71,0,0,1,1.41-5.26A4.48,4.48,0,0,1,632.84,122.26Zm0,1.33a2.86,2.86,0,0,0-2.61,1.72,8.7,8.7,0,0,0-.83,4.12,9.1,9.1,0,0,0,.71,3.87,3,3,0,0,0,2.75,1.94,2.85,2.85,0,0,0,2.57-1.65,8.46,8.46,0,0,0,.88-4.16,8.32,8.32,0,0,0-.95-4.31A2.81,2.81,0,0,0,632.81,123.59Z"/><path d="M701.63,136.59v-1.37c.54-1.84,2-3.53,4.37-5.1l.48-.32a15.93,15.93,0,0,0,2.1-1.56,2.72,2.72,0,0,0,1-2,2,2,0,0,0-.79-1.65,3.29,3.29,0,0,0-2.18-.69,4.86,4.86,0,0,0-3.7,1.79l-1.1-.93a5.89,5.89,0,0,1,4.8-2.2,5.77,5.77,0,0,1,2.87.68,3.35,3.35,0,0,1,1.84,3.07,3.41,3.41,0,0,1-1.16,2.54,21.47,21.47,0,0,1-2.29,1.69l-.29.2-.6.41c-2.15,1.43-3.36,2.76-3.65,4h8.18v1.44Z"/><path d="M714.89,136.59v-1.37c.53-1.84,2-3.53,4.36-5.1l.48-.32a17,17,0,0,0,2.11-1.56,2.74,2.74,0,0,0,.95-2,2,2,0,0,0-.78-1.65,3.34,3.34,0,0,0-2.19-.69,4.87,4.87,0,0,0-3.7,1.79l-1.1-.93a5.91,5.91,0,0,1,4.81-2.2,5.76,5.76,0,0,1,2.86.68,3.36,3.36,0,0,1,1.85,3.07,3.42,3.42,0,0,1-1.17,2.54,21,21,0,0,1-2.28,1.69l-.29.2-.61.41c-2.14,1.43-3.36,2.76-3.64,4h8.17v1.44Z"/><path d="M733.09,122.56a4.45,4.45,0,0,1,3.86,2,8.86,8.86,0,0,1,1.32,5.13,9.36,9.36,0,0,1-1.11,4.85,4.72,4.72,0,0,1-8,.24,9.07,9.07,0,0,1-1.26-5.09,8.7,8.7,0,0,1,1.4-5.25A4.48,4.48,0,0,1,733.09,122.56Zm0,1.33a2.84,2.84,0,0,0-2.6,1.71,8.63,8.63,0,0,0-.84,4.12,9,9,0,0,0,.72,3.88,3,3,0,0,0,2.74,1.94,2.85,2.85,0,0,0,2.57-1.65,10.29,10.29,0,0,0-.07-8.48A2.82,2.82,0,0,0,733.06,123.89Z"/><path d="M746.34,122.56a4.48,4.48,0,0,1,3.87,2,8.86,8.86,0,0,1,1.32,5.13,9.36,9.36,0,0,1-1.12,4.85,4.49,4.49,0,0,1-4.09,2.35,4.44,4.44,0,0,1-3.92-2.11,9,9,0,0,1-1.27-5.09,8.77,8.77,0,0,1,1.4-5.25A4.48,4.48,0,0,1,746.34,122.56Zm0,1.33a2.87,2.87,0,0,0-2.6,1.71,8.63,8.63,0,0,0-.84,4.12,9,9,0,0,0,.72,3.88,3,3,0,0,0,2.74,1.94,2.84,2.84,0,0,0,2.57-1.65,10.34,10.34,0,0,0-.06-8.48A2.85,2.85,0,0,0,746.31,123.89Z"/><path d="M813.47,136.59v-1.37c.54-1.84,2-3.53,4.36-5.1l.49-.32a15.93,15.93,0,0,0,2.1-1.56,2.72,2.72,0,0,0,1-2,2,2,0,0,0-.79-1.65,3.29,3.29,0,0,0-2.18-.69,4.86,4.86,0,0,0-3.7,1.79l-1.1-.93a5.89,5.89,0,0,1,4.8-2.2,5.8,5.8,0,0,1,2.87.68,3.35,3.35,0,0,1,1.84,3.07,3.44,3.44,0,0,1-1.16,2.54,21.47,21.47,0,0,1-2.29,1.69l-.29.2-.6.41c-2.15,1.43-3.36,2.76-3.65,4h8.18v1.44Z"/><path d="M829.26,128.69h1.1a5.88,5.88,0,0,0,2.62-.5,3.41,3.41,0,0,0,.42-.28,2.18,2.18,0,0,0,.86-1.75,2,2,0,0,0-.91-1.72,3.73,3.73,0,0,0-2.12-.55,5.17,5.17,0,0,0-3.57,1.49l-1-1a6,6,0,0,1,1.55-1.06,7,7,0,0,1,3.09-.71,6,6,0,0,1,2.89.66,3.11,3.11,0,0,1,.74,5.13,4.19,4.19,0,0,1-2.34.93v.07a4.92,4.92,0,0,1,2.8,1,3.14,3.14,0,0,1,1.09,2.51,3.48,3.48,0,0,1-1.6,3,6.47,6.47,0,0,1-3.63.92,6.85,6.85,0,0,1-5.06-1.94l1-1.05a4.82,4.82,0,0,0,1.24.92,5.86,5.86,0,0,0,2.81.71,4.16,4.16,0,0,0,2.63-.75,2.26,2.26,0,0,0,.85-1.88q0-2.9-4.41-2.89h-1.07Z"/><path d="M844.93,122.56a4.45,4.45,0,0,1,3.86,2,8.86,8.86,0,0,1,1.32,5.13,9.36,9.36,0,0,1-1.11,4.85,4.72,4.72,0,0,1-8,.24,9.06,9.06,0,0,1-1.27-5.09,8.7,8.7,0,0,1,1.41-5.25A4.48,4.48,0,0,1,844.93,122.56Zm0,1.33a2.84,2.84,0,0,0-2.6,1.71,8.63,8.63,0,0,0-.84,4.12,9,9,0,0,0,.72,3.88,3,3,0,0,0,2.74,1.94,2.85,2.85,0,0,0,2.57-1.65,10.29,10.29,0,0,0-.07-8.48A2.82,2.82,0,0,0,844.9,123.89Z"/><path d="M858.18,122.56a4.48,4.48,0,0,1,3.87,2,8.86,8.86,0,0,1,1.32,5.13,9.36,9.36,0,0,1-1.12,4.85,4.49,4.49,0,0,1-4.09,2.35,4.44,4.44,0,0,1-3.92-2.11A9,9,0,0,1,853,129.7a8.77,8.77,0,0,1,1.4-5.25A4.48,4.48,0,0,1,858.18,122.56Zm0,1.33a2.87,2.87,0,0,0-2.6,1.71,8.63,8.63,0,0,0-.84,4.12,9,9,0,0,0,.72,3.88,3,3,0,0,0,2.74,1.94,2.84,2.84,0,0,0,2.57-1.65,8.38,8.38,0,0,0,.88-4.16,8.24,8.24,0,0,0-1-4.32A2.82,2.82,0,0,0,858.15,123.89Z"/><rect class="cls-7" x="894.5" y="81.75" width="112.01" height="96.5"/><path d="M925.26,137.55v-1.38q.81-2.74,4.36-5.1l.49-.32a16.13,16.13,0,0,0,2.1-1.55,2.73,2.73,0,0,0,1-2,2,2,0,0,0-.79-1.66,3.29,3.29,0,0,0-2.18-.69,4.86,4.86,0,0,0-3.7,1.79l-1.1-.93a5.89,5.89,0,0,1,4.8-2.2,5.67,5.67,0,0,1,2.87.69,3.33,3.33,0,0,1,1.84,3.06,3.41,3.41,0,0,1-1.16,2.54,20.13,20.13,0,0,1-2.29,1.69l-.29.2-.6.41c-2.15,1.43-3.36,2.77-3.65,4h8.18v1.45Z"/><path d="M944.29,123.69h1.92v9.2h2.7v1.31h-2.7v3.35h-1.54V134.2h-7.18v-1.29Zm.38,9.2V128c0-.94,0-1.92.09-2.93h-.07a15.68,15.68,0,0,1-1.28,2.15l-4.14,5.68Z"/><path d="M956.72,123.51a4.43,4.43,0,0,1,3.86,2,8.82,8.82,0,0,1,1.32,5.13,9.39,9.39,0,0,1-1.11,4.85,4.74,4.74,0,0,1-8,.24,9.11,9.11,0,0,1-1.27-5.09,8.71,8.71,0,0,1,1.41-5.26A4.48,4.48,0,0,1,956.72,123.51Zm0,1.33a2.85,2.85,0,0,0-2.6,1.72,8.56,8.56,0,0,0-.84,4.11,9,9,0,0,0,.72,3.88,2.94,2.94,0,0,0,2.74,1.94,2.85,2.85,0,0,0,2.57-1.65,10.26,10.26,0,0,0-.07-8.47A2.81,2.81,0,0,0,956.69,124.84Z"/><path d="M970,123.51a4.46,4.46,0,0,1,3.87,2,8.82,8.82,0,0,1,1.32,5.13,9.29,9.29,0,0,1-1.12,4.85,4.5,4.5,0,0,1-4.09,2.34,4.45,4.45,0,0,1-3.92-2.1,9,9,0,0,1-1.27-5.09,8.78,8.78,0,0,1,1.4-5.26A4.48,4.48,0,0,1,970,123.51Zm0,1.33a2.86,2.86,0,0,0-2.6,1.72,8.56,8.56,0,0,0-.84,4.11,9,9,0,0,0,.72,3.88,2.94,2.94,0,0,0,2.74,1.94,2.83,2.83,0,0,0,2.57-1.65,10.31,10.31,0,0,0-.06-8.47A2.84,2.84,0,0,0,969.94,124.84Z"/><rect class="cls-7" x="906.5" y="308.5" width="99.08" height="60"/><rect class="cls-7" x="829.09" y="210.5" width="77.17" height="98"/><rect class="cls-7" x="752" y="210.5" width="77.17" height="98"/><rect class="cls-2" x="714.5" y="210.56" width="37.75" height="98"/><rect class="cls-7" x="558.79" y="210.56" width="155.71" height="98"/><path d="M938,330.49v1.07a14.37,14.37,0,0,0,2,7.94,14.53,14.53,0,0,0,5.46,4.74l-1,1.2a14.81,14.81,0,0,1-5.78-5.46,11.77,11.77,0,0,1-1.42-3.78,14.11,14.11,0,0,1-1.7,4.54,13.17,13.17,0,0,1-5.52,4.83l-1-1.15a11.66,11.66,0,0,0,6.22-6.07,20.2,20.2,0,0,0,1.37-6.6h-4.43v-1.26Z"/><path d="M946.29,332.77h6.1v1.12h-6.1Zm5.84,7.43v4.68h-4v.9h-1.24V340.2Zm-5-9.88h4.74v1.08h-4.74Zm0,4.95h4.74v1.07h-4.74Zm0,2.43h4.74v1.06h-4.74Zm1,3.59v2.5h2.79v-2.5Zm8.14-3.35v4.18c.75-.18,1.48-.39,2.18-.63l.15,1.1a47.57,47.57,0,0,1-5.46,1.57l-.46-1.28c.68-.12,1.45-.27,2.31-.46v-4.48h-1.9v-1.09H958v1.09Zm3.19-4.68h3.46v1.17h-3.38q.3,3.72.62,5.43a15.18,15.18,0,0,0,1.07,3.79c.06.14.12.21.17.21s.27-.71.45-2.15l0-.37,1.1.76a12.45,12.45,0,0,1-.52,2.75c-.24.6-.54.91-.9.91-.61,0-1.2-.78-1.78-2.33a23,23,0,0,1-1.1-4.58c-.15-1-.3-2.42-.47-4.42h-5.28v-1.17h5.22l-.06-1.13c0-.54-.06-1.37-.1-2.5h1.33C959.35,331.07,959.4,332.28,959.45,333.26Zm1.6-.15a12.62,12.62,0,0,0-1.18-2.7l1-.53a12.8,12.8,0,0,1,1.25,2.59Z"/><path d="M970.65,335.19l-.07.11a17.44,17.44,0,0,1-1.88,2.33h.87q2,0,4.56-.15l1.93-.08c-.57-.53-1.15-1-1.74-1.52l1.09-.62a38.46,38.46,0,0,1,3.22,2.86l.45.44-1.08.8c-.33-.37-.64-.7-.92-1l-.11-.12-4.36.28v2.2h6v1.11h-6v2.2H980v1.1H963.92v-1.1h7.33v-2.2h-5.86v-1.11h5.86v-2.12l-.94.05c-1.38.05-2.93.1-4.64.14l-.42-1.14c.75,0,1.39,0,1.94,0a19.07,19.07,0,0,0,1.92-2.46h-2.82v-1.11h11.38v1.11Zm2-3.76h6.94v3.19h-1.36v-2.1H965.76v2.1h-1.37v-3.19h6.86v-1.8h1.36Z"/><path d="M847.18,241.39h1.4v4.13l8.37-1.1.87.83a10.47,10.47,0,0,1-4.4,5.71l-1-.88a8.21,8.21,0,0,0,2.5-2.12,7.37,7.37,0,0,0,1.23-2.22l-7.55,1v5.89c0,.66.19,1.06.58,1.2a11,11,0,0,0,2.89.22,48,48,0,0,0,4.8-.25v1.39c-1.35.11-2.74.16-4.16.16a17.68,17.68,0,0,1-4.46-.32c-.7-.28-1.05-1-1.05-2.11v-6l-3.66.51-.14-1.3,3.8-.5Zm8.9,2.62a12.84,12.84,0,0,0-1.52-2.72l1.05-.39a15.64,15.64,0,0,1,1.53,2.68Zm2.25-.51a12.53,12.53,0,0,0-1.52-2.74l1-.36a11.42,11.42,0,0,1,1.54,2.66Z"/><path d="M872.89,255.83q-6.57-2-12.14-3.17l.3-1.36a121.23,121.23,0,0,1,12.09,3.16Zm-.42-10.8a89.23,89.23,0,0,0-10.18-2.24l.19-1.28a80.18,80.18,0,0,1,10.19,2.21Zm-.88,4.84a62.61,62.61,0,0,0-9-2.12l.21-1.33a60,60,0,0,1,9,2.16Z"/><path d="M882.35,246.19a.34.34,0,0,0-.07.11,18.28,18.28,0,0,1-1.88,2.33h.86c1.32,0,2.83-.07,4.56-.15l1.93-.08c-.57-.53-1.15-1-1.73-1.52l1.08-.62a40.12,40.12,0,0,1,3.23,2.86l.45.44-1.08.8c-.34-.37-.65-.7-.92-1l-.11-.12-4.37.28v2.2h6v1.11h-6v2.2h7.43v1.1H875.62v-1.1h7.32v-2.2h-5.86v-1.11h5.86v-2.12l-.94,0c-1.38.05-2.93.1-4.64.14l-.41-1.14c.74,0,1.38,0,1.93,0a19.07,19.07,0,0,0,1.92-2.46H878v-1.11h11.38v1.11Zm1.95-3.76h7v3.19h-1.37v-2.1H877.45v2.1h-1.36v-3.19h6.85v-1.8h1.36Z"/><path d="M862.62,276.58v-1.37q.81-2.74,4.36-5.1l.49-.32a15.93,15.93,0,0,0,2.1-1.56,2.7,2.7,0,0,0,1-2,2,2,0,0,0-.79-1.65,3.29,3.29,0,0,0-2.18-.69,4.86,4.86,0,0,0-3.7,1.79l-1.1-.93a5.89,5.89,0,0,1,4.8-2.2,5.7,5.7,0,0,1,2.87.69,3.33,3.33,0,0,1,1.84,3.06,3.44,3.44,0,0,1-1.16,2.54,21.47,21.47,0,0,1-2.29,1.69l-.29.2-.6.41c-2.15,1.43-3.36,2.76-3.65,4h8.18v1.44Z"/><path d="M770.17,241.89h1.4V246l8.37-1.1.87.83a10.42,10.42,0,0,1-4.39,5.71l-1-.88a8.11,8.11,0,0,0,2.51-2.12,7.56,7.56,0,0,0,1.22-2.22l-7.55,1v5.89c0,.66.2,1.06.59,1.2a10.92,10.92,0,0,0,2.88.22,47.85,47.85,0,0,0,4.8-.25v1.4c-1.35.1-2.73.15-4.16.15a17.58,17.58,0,0,1-4.45-.32c-.7-.28-1.06-1-1.06-2.11v-6l-3.66.51-.14-1.3,3.8-.5Zm8.9,2.62a12.77,12.77,0,0,0-1.51-2.72l1-.39a15.06,15.06,0,0,1,1.54,2.68Zm2.25-.51a12.5,12.5,0,0,0-1.51-2.74l1-.36a11,11,0,0,1,1.53,2.66Z"/><path d="M795.89,256.33q-6.58-2-12.14-3.17l.3-1.36A120.24,120.24,0,0,1,796.13,255Zm-.42-10.8a91.62,91.62,0,0,0-10.19-2.24l.2-1.28a80.4,80.4,0,0,1,10.18,2.21Zm-.89,4.84a62.61,62.61,0,0,0-9-2.12l.21-1.33a60.44,60.44,0,0,1,9,2.16Z"/><path d="M805.34,246.69l-.07.11a17.61,17.61,0,0,1-1.88,2.33h.87c1.31,0,2.83-.07,4.55-.15l1.94-.08c-.58-.53-1.15-1-1.74-1.52l1.08-.61a36.53,36.53,0,0,1,3.23,2.85l.45.44-1.08.8c-.34-.37-.64-.7-.92-1l-.11-.12-4.36.28v2.2h6v1.11h-6v2.2h7.43v1.1H798.61v-1.1h7.33v-2.2h-5.86v-1.11h5.86v-2.11l-.94,0c-1.39.05-2.93.1-4.64.14l-.42-1.14c.74,0,1.39,0,1.93,0a19.11,19.11,0,0,0,1.93-2.46H801v-1.11h11.38v1.11Zm2-3.76h6.94v3.19h-1.36V244H800.44v2.1h-1.36v-3.19h6.86v-1.8h1.36Z"/><path d="M790.4,277.09v-12.3a21.78,21.78,0,0,1-3.42,1l-.35-1.22a16,16,0,0,0,4.2-1.51H792v14Z"/><path d="M619.73,252.31h6.36v1.12h-2.57a19.57,19.57,0,0,1-1.13,2.86h5v1.14H610.83v-1.14h4.84a30,30,0,0,0-1.06-2.86H612.1v-1.12h6.26v-1.68h1.37Zm4.84,6.49v8h-1.39v-.92H615v.92h-1.38v-8ZM615,259.87v1.82h8.16v-1.82Zm0,2.88v2h8.16v-2Zm1-9.32a22.93,22.93,0,0,1,1,2.86H621c.46-1.11.8-2,1-2.72,0,0,0-.1.05-.14Z"/><path d="M635.82,259h-2.7V252.2h2.29a2.93,2.93,0,0,1,.12-.32c.14-.43.26-.86.36-1.31l1.36.17a9.43,9.43,0,0,1-.58,1.46H640V259h-2.8v1.36h7.66v1.14h-6.35a20.54,20.54,0,0,0,6.45,3.28l-.85,1.19a18.12,18.12,0,0,1-6.91-4.3v5.1h-1.35v-5.1a16.44,16.44,0,0,1-6.8,4.59l-.8-1.11a20.12,20.12,0,0,0,3.34-1.47,17.61,17.61,0,0,0,3-2.18h-6.31v-1.14h7.55Zm-7.43-.58a20.8,20.8,0,0,0,3.7-2.55l.56,1.06a25.46,25.46,0,0,1-3.5,2.54Zm3-3.93a18.43,18.43,0,0,0-2.62-2.33l1-.88a19.83,19.83,0,0,1,2.63,2.28Zm3-1.26V255h4.23v-1.79Zm0,2.81V258h4.23v-1.94Zm9.47,3a26.62,26.62,0,0,0-3.33-2.48l.85-.87a22.26,22.26,0,0,1,3.37,2.35Zm-3.3-5.32a17,17,0,0,0,2.62-2.45l1.09.78a19.73,19.73,0,0,1-2.81,2.47Z"/><path d="M652.65,256.19l-.07.11a17.44,17.44,0,0,1-1.88,2.33h.87q2,0,4.56-.15l1.93-.08c-.57-.53-1.15-1-1.74-1.52l1.09-.62a38.46,38.46,0,0,1,3.22,2.86l.45.44-1.08.8c-.33-.37-.64-.7-.92-1l-.11-.12-4.36.28v2.2h6v1.11h-6v2.2H662v1.1H645.92v-1.1h7.33v-2.2h-5.86v-1.11h5.86v-2.12l-.94.05c-1.38.05-2.93.1-4.64.14l-.42-1.14c.75,0,1.39,0,1.94,0a19.07,19.07,0,0,0,1.92-2.46h-2.82v-1.11h11.38v1.11Zm2-3.76h6.94v3.19h-1.36v-2.1H647.76v2.1h-1.37v-3.19h6.86v-1.8h1.36Z"/><rect class="cls-2" x="1042.39" y="308.15" width="123.23" height="42.35"/><rect class="cls-7" x="1042.39" y="350.05" width="123.23" height="190.45"/><rect class="cls-2" x="1042.39" y="540.94" width="123.23" height="47.56"/><rect class="cls-4" x="1042.72" y="588.11" width="123.23" height="146.39"/><rect class="cls-2" x="1042.72" y="734.55" width="123.23" height="37.95"/><rect class="cls-2" x="897.5" y="724.5" width="106" height="48.62"/><rect class="cls-2" x="897.5" y="661.5" width="106.56" height="62.96"/><path d="M1065.07,440.48h8.12v1.16H1065V440.5a20.54,20.54,0,0,1-3.56,2.12l-.87-1.12a17.49,17.49,0,0,0,4.59-2.82,14.45,14.45,0,0,0,2.9-3.53h1.55a18.26,18.26,0,0,0,4.34,4.15,24.14,24.14,0,0,0,3.42,1.86l-.82,1.21a24.93,24.93,0,0,1-5.08-3.31,22,22,0,0,1-2.59-2.73A15.66,15.66,0,0,1,1065.07,440.48Zm9.67,3.42v7.4h-1.41v-1.07h-8.49v1.07h-1.42v-7.4Zm-9.9,1.16v4h8.49v-4Z"/><path d="M1093.79,436v13.62a1.34,1.34,0,0,1-.47,1.15,2.49,2.49,0,0,1-1.4.29c-1,0-2.05,0-3.05-.11l-.26-1.33a29.91,29.91,0,0,0,3.09.16c.34,0,.55-.06.64-.18a.6.6,0,0,0,.08-.36V437.18h-12V451.3h-1.37V436ZM1081.85,439H1091v1.09h-9.19Zm8.29,3v5.13H1084v1.27h-1.33v-6.4Zm-1.33,1.07H1084v3h4.85Z"/><path d="M1095.58,438.29h6v1.12h-6Zm5.53,7.43v4.67h-3.76v.91h-1.2v-5.58Zm-4.76-9.88h4.57v1.07h-4.57Zm0,5h4.57v1.07h-4.57Zm0,2.43h4.57v1.06h-4.57Zm1,3.59v2.5h2.58v-2.5Zm10-4.92v.89H1111V447h1.2v1.07H1111V450a1.19,1.19,0,0,1-.41,1,1.84,1.84,0,0,1-1.07.24,12.17,12.17,0,0,1-1.73-.11l-.24-1.15a13.42,13.42,0,0,0,1.81.12c.28,0,.42-.13.42-.4v-1.59h-5.94v3.21h-1.2v-3.18h-1.2V447h1.2v-4.26h3.49v-.89h-4.69v-1h2.63v-1.22h-1.74v-1h1.74v-1.1h-2.23v-1h2.23v-1.41h1.24v1.41h2.84v-1.41h1.25v1.41h2.31v1h-2.31v1.1h1.84v1h-1.84v1.22h2.75v1Zm-1.21,1.85h-2.29v1.14h2.29Zm0,2.08h-2.29v1.25h2.29Zm2-8.24h-2.84v1.1h2.84Zm0,2.07h-2.84v1.22h2.84Zm-.81,4.09v1.14h2.44v-1.14Zm0,2.08v1.25h2.44v-1.25Z"/><path d="M1125.15,447.3c.77-.52,1.45-1,2-1.47l.92.75c-.85.64-1.65,1.21-2.41,1.71a4.17,4.17,0,0,0,1.34,1.28,1.35,1.35,0,0,0,.57.23c.3,0,.52-.71.67-2.15l1.18.69c-.21,2-.72,2.93-1.52,2.93a2.75,2.75,0,0,1-1.08-.33,5.83,5.83,0,0,1-2.22-2,22.29,22.29,0,0,1-3.82,1.89l-.78-1a22.38,22.38,0,0,0,4-1.88,10.62,10.62,0,0,1-.81-2.35h-4.36v1.2c.93-.07,2.09-.19,3.46-.35v.92c-1,.16-2.1.31-3.27.44l-.19,0v2.32a1,1,0,0,1-.45.95,2.06,2.06,0,0,1-1,.18,17.87,17.87,0,0,1-2.13-.13l-.23-1.12q1.53.15,2,.15c.21,0,.34,0,.4-.13a.69.69,0,0,0,0-.29V448q-2.08.19-4,.3l-.33-1.1c1.53-.06,3-.15,4.29-.26v-1.32H1113v-1h4.52v-1c-1.09.11-2.17.18-3.25.23l-.43-.93a41.38,41.38,0,0,0,7-.79l.68.9c-.94.2-1.85.34-2.71.44v1.11h4.16a20.63,20.63,0,0,1-.25-2.32h1.3c.09.92.18,1.69.28,2.32h5.23v1h-5.07A10.86,10.86,0,0,0,1125.15,447.3Zm-7.32-10.73a7.31,7.31,0,0,0-.81-1.15l1.42-.34a9.9,9.9,0,0,1,.89,1.49h3.9a9.53,9.53,0,0,0,.84-1.49l1.5.29c-.29.45-.57.85-.82,1.2h4.34v1h-7.15v1.1h6.2v1h-6.2v1.17h7.64v1h-16.5v-1h7.52v-1.17h-6.07v-1h6.07v-1.1h-7v-1Zm9.23,8a10.75,10.75,0,0,0-1.91-1.8l.93-.66a12.3,12.3,0,0,1,2,1.71Z"/><path d="M1137.43,440.71l-.07.1a17.63,17.63,0,0,1-1.88,2.34h.87c1.31,0,2.83-.07,4.55-.15l1.94-.08c-.58-.53-1.16-1-1.74-1.52l1.08-.62a38.48,38.48,0,0,1,3.23,2.86l.45.44-1.08.8c-.34-.37-.64-.7-.92-1l-.11-.11-4.36.28v2.2h6v1.1h-6v2.2h7.43v1.11H1130.7v-1.11H1138v-2.2h-5.86v-1.1H1138v-2.12l-.94.05c-1.39.05-2.93.1-4.64.14l-.42-1.14,1.93,0a20,20,0,0,0,1.93-2.46h-2.82V439.6h11.38v1.11Zm2-3.76h6.94v3.19H1145V438h-12.44v2.11h-1.36V437H1138v-1.8h1.36Z"/><path d="M1080.3,654.32h1.14v-3.58h1.28v3.58h2.22v1.17h-2.22V659c.85-.31,1.61-.59,2.28-.86l.12,1.07c-.77.37-1.53.69-2.25,1l-.15.06v6.6h-1.28v-6.13l-.18.07q-1.27.45-2.61.84l-.45-1.23q1.72-.46,3.24-1v-4h-1.34a18.42,18.42,0,0,1-.8,2.78l-1.1-.73a20.88,20.88,0,0,0,1.17-5.42l1.18.15C1080.46,653.17,1080.38,653.85,1080.3,654.32Zm10.52.56h-1.43l0,.17a17.62,17.62,0,0,1-1.66,4.14,12.81,12.81,0,0,1-2.74,3.29l-1-.92a11.75,11.75,0,0,0,4.17-6.68h-1.25a11.47,11.47,0,0,1-1.7,2.62l-.82-1a12.81,12.81,0,0,0,2.58-5.77l1.35.25a16.67,16.67,0,0,1-.85,2.73h6.86c-.08,6-.31,9.77-.66,11.27a2,2,0,0,1-.92,1.46,3.41,3.41,0,0,1-1.51.26c-.57,0-1.21,0-1.93-.1l-.23-1.28a16.53,16.53,0,0,0,2,.16,1.22,1.22,0,0,0,1-.38,4.29,4.29,0,0,0,.48-1.75c.18-1.35.32-4,.43-7.93v-.56h-1a23.72,23.72,0,0,1-1.36,5,14.66,14.66,0,0,1-3,4.58A23,23,0,0,1,1086,666l-1-.9a15.68,15.68,0,0,0,3.6-4A16.55,16.55,0,0,0,1090.82,654.88Z"/><path d="M1099.42,652.91v4h1.89v1.22h-1.89v4.16c.8-.3,1.43-.55,1.91-.75l.13,1.2a47.24,47.24,0,0,1-5.52,2.09l-.42-1.33c.86-.22,1.72-.47,2.58-.76v-4.61H1096v-1.22h2.11v-4h-2.31v-1.22h5.77v1.22Zm11.93-1.41v8.26h-4v2h4.32v1.13h-4.32v2.22h4.94v1.17H1100.8v-1.17h5.25v-2.22H1102v-1.13h4.06v-2h-3.85V651.5Zm-7.91,1.12v2.43h2.61v-2.43Zm0,3.56v2.48h2.61v-2.48Zm6.66-1.13v-2.43h-2.77v2.43Zm0,3.61v-2.48h-2.77v2.48Z"/><path d="M1120.06,656.3l-.07.11a16.83,16.83,0,0,1-1.88,2.33h.87q2,0,4.56-.15l1.93-.08c-.57-.53-1.15-1-1.74-1.52l1.08-.61a36.53,36.53,0,0,1,3.23,2.85l.45.44-1.08.8c-.33-.37-.64-.7-.92-1l-.11-.12-4.36.28v2.2h6V663h-6v2.2h7.43v1.1h-16.12v-1.1h7.33V663h-5.86v-1.11h5.86v-2.11l-.94,0c-1.39.05-2.93.1-4.64.14l-.42-1.14h1.93a20,20,0,0,0,1.93-2.47h-2.82v-1.1h11.38v1.1Zm2-3.76H1129v3.2h-1.36v-2.11h-12.44v2.11h-1.36v-3.2h6.86v-1.8H1122Z"/><rect class="cls-4" x="790.5" y="899.5" width="213" height="93"/><rect class="cls-2" x="811.5" y="772.5" width="86" height="93"/><rect class="cls-7" x="688.5" y="772.5" width="123" height="93"/><rect class="cls-5" x="553.5" y="772.5" width="27.13" height="71.5"/><rect class="cls-5" x="580.63" y="772.5" width="27.13" height="71.5"/><rect class="cls-5" x="607.75" y="772.5" width="27.13" height="71.5"/><rect class="cls-5" x="634.88" y="772.5" width="27.13" height="71.5"/><rect class="cls-2" x="661.66" y="772.36" width="27.13" height="93.14"/><rect class="cls-2" x="719.5" y="899.5" width="71" height="93"/><rect class="cls-2" x="661.5" y="899.5" width="58" height="93"/><rect class="cls-5" x="553.64" y="920.99" width="27.13" height="71.5"/><rect class="cls-5" x="580.76" y="920.99" width="27.13" height="71.5"/><rect class="cls-5" x="607.89" y="920.99" width="27.13" height="71.5"/><rect class="cls-5" x="634.38" y="920.99" width="27.13" height="71.5"/><path d="M876,941.58v11.71h-1.36v-9.41a23.89,23.89,0,0,1-2.35,2.92l-.68-1.28a22.28,22.28,0,0,0,4.76-8.13l1.32.38A33.37,33.37,0,0,1,876,941.58Zm4.74,1.76a26.8,26.8,0,0,0,5.19-2.83l1,1a27.87,27.87,0,0,1-6.23,3.11v6.12a.62.62,0,0,0,.54.68,9.48,9.48,0,0,0,1.68.1,13.69,13.69,0,0,0,2.47-.14.75.75,0,0,0,.56-.69,18.42,18.42,0,0,0,.22-2.69l1.39.48a18.14,18.14,0,0,1-.26,2.9,1.51,1.51,0,0,1-1.08,1.26,11.6,11.6,0,0,1-2.91.24,12.26,12.26,0,0,1-3.16-.24c-.53-.2-.8-.68-.8-1.46V937.73h1.35Z"/><path d="M897.6,946.44v.89h7.23v1.17H897.6v3.6a1.27,1.27,0,0,1-.38,1,2,2,0,0,1-1.26.3c-.65,0-1.38,0-2.18-.1l-.33-1.26a21.84,21.84,0,0,0,2.29.18c.26,0,.42-.07.48-.19a.9.9,0,0,0,.08-.41V948.5h-7.62v-1.17h7.62v-1.5a13.74,13.74,0,0,0,3.05-1.41H891.5v-1.14h9.81l.68.83Q899.53,945.55,897.6,946.44Zm-5.16-6.19-.06-.15a9.55,9.55,0,0,0-1.22-2.09l1.14-.53a12.93,12.93,0,0,1,1.38,2.2l-1.19.57h6.87l0-.07a23.9,23.9,0,0,0,1.73-2.85l1.29.45a22.08,22.08,0,0,1-1.68,2.47h3.33v3.19h-1.32v-2.09H890.68v2.09h-1.31v-3.19Zm4.09-.08a14.3,14.3,0,0,0-1.28-2.42l1.16-.47a13.85,13.85,0,0,1,1.32,2.35Z"/><path d="M912.44,942.85s-.05.08-.06.11a16.4,16.4,0,0,1-1.84,2.33h.85q1.92,0,4.44-.15l1.88-.09c-.55-.53-1.12-1-1.69-1.51l1.06-.62a38.35,38.35,0,0,1,3.14,2.86l.44.44-1,.79c-.33-.37-.63-.69-.9-1l-.11-.11-4.25.28v2.2h5.84v1.1h-5.84v2.2h7.24v1.11h-15.7v-1.11H913v-2.2h-5.71v-1.1H913v-2.12l-.91,0c-1.35.06-2.86.11-4.52.14l-.41-1.13,1.89,0a20.71,20.71,0,0,0,1.87-2.47h-2.75v-1.1h11.09v1.1Zm1.91-3.76h6.77v3.2h-1.33v-2.11H907.67v2.11h-1.33v-3.2H913v-1.8h1.33Z"/><path d="M701.2,815.47h1.11v-3.58h1.24v3.58h2.16v1.17h-2.16v3.55c.83-.31,1.57-.59,2.23-.86l.11,1.07c-.75.36-1.49.68-2.2,1l-.14,0V828h-1.24V821.9l-.18.06c-.83.31-1.68.59-2.54.85l-.44-1.24c1.11-.3,2.17-.62,3.16-1v-4H701a18.48,18.48,0,0,1-.78,2.78l-1.07-.74a21.38,21.38,0,0,0,1.13-5.42l1.16.15C701.35,814.32,701.27,815,701.2,815.47Zm10.25.56h-1.4l0,.17a17.35,17.35,0,0,1-1.62,4.14,12.71,12.71,0,0,1-2.67,3.29l-.93-.92a11.89,11.89,0,0,0,4.07-6.68h-1.22a11.93,11.93,0,0,1-1.66,2.62l-.8-1a13,13,0,0,0,2.52-5.76l1.31.25a16.62,16.62,0,0,1-.83,2.72h6.69c-.09,6-.3,9.78-.65,11.28a2.07,2.07,0,0,1-.9,1.46,3.25,3.25,0,0,1-1.47.26c-.55,0-1.18,0-1.88-.1l-.22-1.28a15.56,15.56,0,0,0,2,.15,1.18,1.18,0,0,0,1-.38,4.25,4.25,0,0,0,.46-1.74c.17-1.36.31-4,.42-7.94V816h-1a23.25,23.25,0,0,1-1.32,5,14.48,14.48,0,0,1-2.93,4.57,20.93,20.93,0,0,1-1.67,1.55l-.93-.91a15.54,15.54,0,0,0,3.5-3.94A17,17,0,0,0,711.45,816Z"/><path d="M724.27,818.43a1.47,1.47,0,0,1,1.11.49,1.48,1.48,0,0,1,.41,1,1.53,1.53,0,0,1-.24.82,1.46,1.46,0,0,1-1.3.71,1.54,1.54,0,0,1-.7-.17,1.45,1.45,0,0,1-.82-1.37,1.43,1.43,0,0,1,.65-1.24A1.47,1.47,0,0,1,724.27,818.43Z"/><path d="M737.54,816.18v11.7h-1.36v-9.41a23.15,23.15,0,0,1-2.35,2.92l-.68-1.28a22.23,22.23,0,0,0,4.76-8.12l1.32.37A34.29,34.29,0,0,1,737.54,816.18Zm4.74,1.75a26.8,26.8,0,0,0,5.19-2.83l1,1a27.92,27.92,0,0,1-6.23,3.12v6.11a.62.62,0,0,0,.54.68,9.48,9.48,0,0,0,1.68.1A12.78,12.78,0,0,0,747,826a.75.75,0,0,0,.56-.69,18.42,18.42,0,0,0,.22-2.69l1.39.49a18,18,0,0,1-.26,2.89,1.49,1.49,0,0,1-1.08,1.26,11.6,11.6,0,0,1-2.91.24,12.26,12.26,0,0,1-3.16-.24c-.53-.19-.8-.68-.8-1.46V812.33h1.35Z"/><path d="M750.16,815H756v1.12h-5.87Zm5.39,7.43v4.67h-3.67V828h-1.17v-5.58Zm-4.64-9.88h4.46v1.07h-4.46Zm0,4.95h4.46v1.07h-4.46Zm0,2.43h4.46V821h-4.46Zm1,3.59v2.5h2.52v-2.5Zm9.75-4.92v.89h3.57v4.26h1.17v1.07H765.2v1.84a1.19,1.19,0,0,1-.4,1,1.72,1.72,0,0,1-1,.24,11.72,11.72,0,0,1-1.7-.11l-.23-1.15a12.94,12.94,0,0,0,1.77.12.36.36,0,0,0,.41-.4v-1.59h-5.79V828h-1.17v-3.18h-1.17v-1.07h1.17v-4.26h3.4v-.89h-4.57v-1h2.56v-1.22h-1.7v-1h1.7v-1.1h-2.17v-1h2.17v-1.41h1.21v1.41h2.77v-1.41h1.21v1.41h2.26v1h-2.26v1.1h1.8v1h-1.8v1.22h2.68v1Zm-1.17,1.85h-2.23v1.14h2.23Zm0,2.08h-2.23v1.25h2.23Zm2-8.24h-2.77v1.1h2.77Zm0,2.07h-2.77v1.22h2.77Zm-.8,4.09v1.14H764v-1.14Zm0,2.08v1.25H764v-1.25Z"/><path d="M779,824q1.14-.78,2-1.47l.9.75c-.83.64-1.62,1.21-2.35,1.71a4.06,4.06,0,0,0,1.3,1.28,1.28,1.28,0,0,0,.56.23c.28,0,.5-.71.64-2.15l1.16.69c-.21,2-.7,2.93-1.48,2.93a2.55,2.55,0,0,1-1-.33,5.71,5.71,0,0,1-2.17-2,21.49,21.49,0,0,1-3.72,1.89l-.76-1a21.23,21.23,0,0,0,3.93-1.88,11.16,11.16,0,0,1-.79-2.35h-4.25v1.21c.92-.08,2-.2,3.38-.36v.92c-1,.16-2,.31-3.19.44l-.19,0v2.32a1,1,0,0,1-.43,1,2,2,0,0,1-1,.18,19.37,19.37,0,0,1-2.08-.12l-.22-1.13c1,.1,1.65.15,2,.15s.33,0,.39-.13a.69.69,0,0,0,.05-.29v-1.78c-1.35.13-2.64.23-3.86.3l-.33-1.1c1.5-.06,2.9-.15,4.19-.26v-1.32h-4.4v-1h4.4v-1c-1.06.11-2.12.18-3.16.23l-.43-.92a40.19,40.19,0,0,0,6.86-.8l.67.9c-.92.2-1.81.34-2.65.44v1.11h4.06a23.26,23.26,0,0,1-.25-2.32H778c.09.92.18,1.69.28,2.32h5.09v1h-4.94A13.34,13.34,0,0,0,779,824Zm-7.13-10.73a8.86,8.86,0,0,0-.78-1.15l1.37-.34a8.51,8.51,0,0,1,.87,1.49h3.81a9.92,9.92,0,0,0,.81-1.49l1.46.29c-.28.45-.55.85-.8,1.2h4.24v1h-7v1.1h6v1h-6v1.17h7.46v1H767.21v-1h7.33v-1.17h-5.92v-1h5.92v-1.1h-6.85v-1Zm9,8a10.29,10.29,0,0,0-1.86-1.8l.91-.66a11.68,11.68,0,0,1,1.9,1.71Z"/><path d="M790.94,817.45a.6.6,0,0,0-.06.11,17.61,17.61,0,0,1-1.84,2.33h.85q1.92,0,4.44-.15l1.88-.08c-.55-.53-1.12-1-1.69-1.52l1.06-.62a38.35,38.35,0,0,1,3.14,2.86l.44.44-1,.8c-.33-.37-.63-.7-.9-1l-.11-.11-4.25.28V823h5.84v1.1h-5.84v2.2h7.24v1.11h-15.7V826.3h7.13v-2.2h-5.71V823h5.71v-2.12l-.91,0c-1.35.05-2.86.1-4.52.14l-.41-1.14,1.89,0a19.8,19.8,0,0,0,1.87-2.46h-2.75v-1.11h11.09v1.11Zm1.91-3.76h6.77v3.19h-1.33v-2.11H786.17v2.11h-1.33v-3.19h6.68v-1.8h1.33Z"/><path d="M1065.38,558.74h12.44V560h-5.6v9.26h6.58v1.22h-14.41v-1.22h6.44V560h-5.45Z"/><path d="M1081.57,557.38H1083v5.32a36.22,36.22,0,0,0,8-3l.85,1.12A43.52,43.52,0,0,1,1083,564v4.19c0,.49.16.8.47.93a14.92,14.92,0,0,0,3.63.24q3,0,6.26-.27v1.38q-2.6.18-5.7.18a38.48,38.48,0,0,1-4.53-.16,1.69,1.69,0,0,1-1.35-.86,2.68,2.68,0,0,1-.19-1.13Zm11.2,2.86a13.8,13.8,0,0,0-1.54-2.79l1-.39a13.74,13.74,0,0,1,1.56,2.75Zm2.13-.75a12.39,12.39,0,0,0-1.53-2.79l1-.36a11.61,11.61,0,0,1,1.54,2.69Z"/><path d="M1097,562.52h14.78v1.22h-6.39a11.1,11.1,0,0,1-1.15,5.13,7.43,7.43,0,0,1-3.68,2.81l-.89-1.09a6.18,6.18,0,0,0,3.57-2.85,10.31,10.31,0,0,0,.74-4h-7Zm1.87-4.57h9.47v1.2h-9.47Zm11.25,1.88a14.14,14.14,0,0,0-1.31-2.76l1-.3a12.51,12.51,0,0,1,1.33,2.72Zm2.09-.63a12.05,12.05,0,0,0-1.31-2.76l1-.28a11,11,0,0,1,1.34,2.68Z"/><path d="M1120.28,561.17a29.33,29.33,0,0,0-5.17-1.73l.45-1.29a25.08,25.08,0,0,1,5.22,1.71Zm-5,8.55a21.06,21.06,0,0,0,5.42-1q5.11-1.86,6.45-8.6l1.18.83a14.2,14.2,0,0,1-2.47,5.8,10.27,10.27,0,0,1-5,3.41,26.65,26.65,0,0,1-5.2,1Z"/><path d="M1131.45,558.32h10l.85.76a26.16,26.16,0,0,1-3.39,6,41.21,41.21,0,0,1,5.35,4.89l-1,1.12a55.18,55.18,0,0,0-5.11-5,18.57,18.57,0,0,1-7,5.08l-.8-1.2a17.16,17.16,0,0,0,6.85-4.87,18.53,18.53,0,0,0,3.38-5.56h-9.1Z"/><path d="M568.65,790.51h6.56v1.22h-13v2.87a39.15,39.15,0,0,1-.32,5.71,11.59,11.59,0,0,1-1.22,3.67l-1.1-1a11.83,11.83,0,0,0,1.09-4c.11-1.08.17-2.55.17-4.4v-4.09h6.48V788h1.37ZM563.79,802l.11-.21a56.29,56.29,0,0,0,3.43-8.91l1.35.38a52.93,52.93,0,0,1-3.45,8.64l1.75-.14c2-.16,3.91-.36,5.65-.61-.71-1.26-1.45-2.49-2.23-3.68l1.16-.6a52.86,52.86,0,0,1,3.75,6.31l-1.2.83c-.25-.53-.55-1.13-.91-1.82l-.2.05a104.5,104.5,0,0,1-10.52,1.19l-.44-1.33Z"/><path d="M561.5,816.87a26.62,26.62,0,0,0-2.19-2.57l.86-.8a16.23,16.23,0,0,1,2.27,2.45Zm-2,7.33a29.73,29.73,0,0,0,2.14-5.76l1.09.65a30.49,30.49,0,0,1-2.12,6Zm2.26-11.57a17.58,17.58,0,0,0-2.19-2.56l.89-.85a20.52,20.52,0,0,1,2.25,2.47Zm3.89,7.18a17,17,0,0,1-2.59,4.05l-.76-1.11a13.09,13.09,0,0,0,3.06-4.35h-2.06v-4.56h2.35v-1.79h-2.75v-1.12h2.75V809h1.14v1.93h2.59v1.12h-2.59v1.79h2.3v4.56h-2.3v.77a20.25,20.25,0,0,1,2.48,2.31l-.75,1a19.56,19.56,0,0,0-1.73-2v4.71h-1.14Zm0-4.91h-1.33v2.45h1.33Zm1.07,0v2.45h1.29V814.9Zm1.78,9.43a7.9,7.9,0,0,0,2.37-2.48l1,.66a9.14,9.14,0,0,1-2.43,2.71Zm4-11.75H575v9.08h-5v-9.08h1.49a16.7,16.7,0,0,0,.32-1.7h-2.44v-1.12h6.23v1.12H573C572.86,811.49,572.72,812.06,572.56,812.58Zm1.32,1.06H571.1v1.63h2.78Zm-2.78,2.64v1.57h2.78v-1.57Zm0,2.58v1.75h2.78v-1.75Zm3.68,6.31a13.15,13.15,0,0,0-1.84-2.73l.95-.61a13.17,13.17,0,0,1,1.85,2.5Z"/><path d="M601.55,789.45v14.26h-1.33v-1.29H589.07v1.28h-1.32V789.45Zm-12.48,1.19v4.49h4.86v-4.49Zm0,5.66v4.9h4.86v-4.9Zm11.15-1.17v-4.49h-5v4.49Zm0,6.07v-4.9h-5v4.9Z"/><path d="M593.91,812.33v-3.24h1.35v3.24h6.33v8.46h-1.34V819.6h-5v5.64h-1.35V819.6H589v1.28h-1.37v-8.55ZM589,813.58v4.77h4.89v-4.77Zm11.23,4.77v-4.77h-5v4.77Z"/><path d="M618.52,789h9.53v6.29h-1.34v-1h-8.62v1h-1.33v-4.53a19,19,0,0,1-2.45,1.75l-.84-1a13.24,13.24,0,0,0,5.26-4.93h-5.16v-1.13h16.15v1.13h-9.49A17.74,17.74,0,0,1,618.52,789Zm3.76-6.42h4.48v-2.65h1.31v3.75H615.29v-3.75h1.31v2.65H621v-3.44h1.32Zm-4.19,7.53v3.14h8.62v-3.14Z"/><path d="M628.55,801.45v14.26h-1.33v-1.29H616.07v1.28h-1.32V801.45Zm-12.48,1.19v4.49h4.86v-4.49Zm0,5.66v4.9h4.86v-4.9Zm11.15-1.17v-4.49h-5v4.49Zm0,6.07v-4.9h-5v4.9Z"/><path d="M614.73,834.32a9.12,9.12,0,0,1-2.05-2.76,8.31,8.31,0,0,1,.26-8.28,8.64,8.64,0,0,1,1.79-2.26h1a15.93,15.93,0,0,0-1.48,1.94,8.8,8.8,0,0,0-1.42,4.71,8.71,8.71,0,0,0,1.27,4.46,14.33,14.33,0,0,0,1.63,2.19Z"/><path d="M617.5,824.28v10h-1v-7.67a19,19,0,0,1-1.16,2l-.47-1.09a20.54,20.54,0,0,0,2.57-6.58l1,.26Q618,822.85,617.5,824.28Zm.91-.69h1v8.93h-1Zm6.42,1.94a17.28,17.28,0,0,0,3.6,1.34l-.57,1a15.06,15.06,0,0,1-3.79-1.67,11.38,11.38,0,0,1-4,1.88l-.61-.88a9.86,9.86,0,0,0,3.76-1.57,10.63,10.63,0,0,1-1.69-1.56,8.47,8.47,0,0,1-1.13,1.18l-.74-.68A7.43,7.43,0,0,0,622,821l1.06.23a8.06,8.06,0,0,1-.5,1.17h5.29v.91h-1.27A8.23,8.23,0,0,1,624.83,825.53Zm-4.5,3.57a10.49,10.49,0,0,0,4.2-2.14l.71.6a10.85,10.85,0,0,1-4.34,2.33Zm.1,4.36a13.12,13.12,0,0,0,6.72-3.57l.81.66a13.61,13.61,0,0,1-6.94,3.8Zm0-2.24a14,14,0,0,0,3.34-1.29,10.52,10.52,0,0,0,2.06-1.52l.74.6a11.26,11.26,0,0,1-3.34,2.26,15,15,0,0,1-2.22.78ZM624,825a7,7,0,0,0,1.44-1.7h-3.3A9.25,9.25,0,0,0,624,825Z"/><path d="M627.52,834.32a16.22,16.22,0,0,0,1.48-2,8.49,8.49,0,0,0,.15-9.17,15.93,15.93,0,0,0-1.63-2.18h1a9.2,9.2,0,0,1,2.05,2.75,8.31,8.31,0,0,1-.26,8.28,8.69,8.69,0,0,1-1.79,2.27Z"/><path d="M645,788.69h9.53V795H653.2v-1h-8.62v1h-1.33v-4.53a19,19,0,0,1-2.45,1.75l-.84-1a13.24,13.24,0,0,0,5.26-4.93h-5.16v-1.13h16.15v1.13h-9.5A16.83,16.83,0,0,1,645,788.69Zm3.75-6.42h4.49v-2.65h1.31v3.75H641.78v-3.75h1.31v2.65h4.36v-3.44h1.31Zm-4.18,7.53v3.14h8.62V789.8Z"/><path d="M655,801.19v14.26h-1.33v-1.29H642.56v1.28h-1.32V801.19Zm-12.48,1.19v4.49h4.86v-4.49Zm0,5.66v4.9h4.86V808Zm11.15-1.17v-4.49h-5v4.49Zm0,6.07V808h-5v4.9Z"/><path d="M641.22,834.06a9.12,9.12,0,0,1-2.05-2.76,8.31,8.31,0,0,1,.26-8.28,8.64,8.64,0,0,1,1.79-2.26h1a15,15,0,0,0-1.48,1.94,8.8,8.8,0,0,0-1.42,4.71,8.59,8.59,0,0,0,1.27,4.46,14.33,14.33,0,0,0,1.63,2.19Z"/><path d="M644,824v10h-1v-7.67a19,19,0,0,1-1.16,2l-.47-1.09a20.54,20.54,0,0,0,2.57-6.58l1,.26C644.63,822,644.32,823.07,644,824Zm.92-.69h1v8.93h-1Zm6.42,1.94a17.28,17.28,0,0,0,3.6,1.34l-.57.95a15.06,15.06,0,0,1-3.79-1.67,11.46,11.46,0,0,1-4,1.88l-.61-.88a9.86,9.86,0,0,0,3.76-1.57,11.17,11.17,0,0,1-1.7-1.56,7.87,7.87,0,0,1-1.12,1.18l-.74-.68a7.43,7.43,0,0,0,2.32-3.52l1.06.23a9.34,9.34,0,0,1-.5,1.17h5.29v.91h-1.27A8.23,8.23,0,0,1,651.32,825.27Zm-4.51,3.57A10.53,10.53,0,0,0,651,826.7l.71.6a10.85,10.85,0,0,1-4.34,2.33Zm.11,4.36a13.12,13.12,0,0,0,6.72-3.57l.81.66a13.61,13.61,0,0,1-7,3.8Zm0-2.24a13.94,13.94,0,0,0,3.35-1.29,10.17,10.17,0,0,0,2.05-1.52l.75.6a11.26,11.26,0,0,1-3.34,2.26,15,15,0,0,1-2.22.78Zm3.5-6.21a6.88,6.88,0,0,0,1.45-1.7h-3.31A9.25,9.25,0,0,0,650.44,824.75Z"/><path d="M654,834.06a16.22,16.22,0,0,0,1.48-1.95,8.49,8.49,0,0,0,.15-9.17,15.93,15.93,0,0,0-1.63-2.18h1a9.2,9.2,0,0,1,2.05,2.75,8.31,8.31,0,0,1-.26,8.28,8.69,8.69,0,0,1-1.79,2.27Z"/><path d="M616.09,945.61a20.61,20.61,0,0,0-2.51-2.53l.86-.92a20.06,20.06,0,0,1,2.59,2.46ZM614,952.56a26.18,26.18,0,0,0,3-5.6l1,.79a26.47,26.47,0,0,1-2.92,5.81Zm2.84-11.34a22.06,22.06,0,0,0-2.5-2.6l.89-.84a15,15,0,0,1,2.53,2.49Zm4.07,2.92V951c0,.48.17.76.53.85a18.93,18.93,0,0,0,3.08.14,16.35,16.35,0,0,0,3.23-.18.85.85,0,0,0,.58-.77,13.37,13.37,0,0,0,.15-1.86l1.27.48a12.07,12.07,0,0,1-.22,2.14,1.61,1.61,0,0,1-1.44,1.27,30,30,0,0,1-3.92.17,21.8,21.8,0,0,1-3.24-.15,1.4,1.4,0,0,1-1.17-.83,2.91,2.91,0,0,1-.13-1v-6.76l-1.87.61-.29-1.19,2.16-.7v-4.51h1.28v4.09l2.45-.79v-4.53h1.28v4.11l3.31-1.07.79.42v6.12a1.21,1.21,0,0,1-.44,1.07,2,2,0,0,1-1.1.24,10.24,10.24,0,0,1-1.36-.09l-.23-1.17a9.34,9.34,0,0,0,1.29.11c.26,0,.42,0,.49-.14a.76.76,0,0,0,.09-.44V942l-2.84.92v6.72h-1.28v-6.3Z"/><path d="M628.62,959.9v14.26H627.3v-1.3H616.15v1.28h-1.33V959.9Zm-12.47,1.18v4.49H621v-4.49Zm0,5.66v4.9H621v-4.9Zm11.15-1.17v-4.49h-5v4.49Zm0,6.07v-4.9h-5v4.9Z"/><path d="M654.62,938.9v14.26H653.3v-1.3H642.15v1.28h-1.33V938.9Zm-12.47,1.18v4.49H647v-4.49Zm0,5.66v4.9H647v-4.9Zm11.15-1.17v-4.49h-5v4.49Zm0,6.07v-4.9h-5v4.9Z"/><path d="M642.74,965.93a20.74,20.74,0,0,1-2.47,5.06l-.71-1.27a18.59,18.59,0,0,0,3-6.28H639.8v-1.22h2.94v-3.69H644v3.69h2.19v1.22H644v1.74a21.47,21.47,0,0,1,2.63,2.56l-.74,1.12a25.69,25.69,0,0,0-1.81-2.15l-.08-.08v8h-1.29Zm9.36-3.71v-3.69h1.33v3.69h2.36v1.2h-2.36v9.65a1.76,1.76,0,0,1-.26,1,1.48,1.48,0,0,1-1.23.41,22.69,22.69,0,0,1-2.53-.12l-.3-1.34a15.75,15.75,0,0,0,2.43.21c.25,0,.4,0,.47-.13a.78.78,0,0,0,.09-.44v-9.29h-5.29v-1.2Zm-2.75,8a28.59,28.59,0,0,0-2-4.39l1.06-.69a28.08,28.08,0,0,1,2.14,4.35Z"/><path d="M561,945.58a18,18,0,0,0-2.53-2.61l.92-.91a18,18,0,0,1,2.59,2.51Zm-2.12,7a26,26,0,0,0,2.66-5.56l1.08.74a25.68,25.68,0,0,1-2.65,5.75Zm2.74-11.38a17.91,17.91,0,0,0-2.47-2.63l.9-.85a17.15,17.15,0,0,1,2.54,2.51Zm8.36,6a11.89,11.89,0,0,0,4.85,3.86l-.93,1.2a13,13,0,0,1-4.54-4.17v5.55h-1.3v-5.52a11.93,11.93,0,0,1-4.8,4.53l-.89-1.07a11.53,11.53,0,0,0,5-4.38h-4.21V946.1h4.86v-1.78h1.3v1.78h5.27v1.14Zm-6.77-3.6a4.79,4.79,0,0,0,2.63-1.66,5.31,5.31,0,0,0,.81-2.15l1.19.32a6.34,6.34,0,0,1-1.54,3.14,6.65,6.65,0,0,1-2.27,1.35Zm7.45-4.1v3.09c0,.26.06.42.18.47a1.25,1.25,0,0,0,.48.06c.33,0,.6,0,.82,0s.35-.18.41-.46a5.55,5.55,0,0,0,.1-1.09l1.25.4a3.24,3.24,0,0,1-.48,1.9,1.36,1.36,0,0,1-.87.37,10.45,10.45,0,0,1-1.19.07,2.79,2.79,0,0,1-1.67-.34,1,1,0,0,1-.29-.8v-3.64h-4.73v2.34h-1.27v-3.44h10.85v2.85H573v-1.75Z"/><path d="M566.77,959.28v7.4h-3.09v2h3.17v1.12h-3.17v2.27l.7-.12c.55-.08,1.52-.25,2.91-.52l.09,1.11c-2.53.57-5.33,1.05-8.38,1.46l-.42-1.23q2.28-.27,3.84-.51v-2.46h-3.25v-1.12h3.25v-2h-3v-7.4Zm-6.24,1.07v2h1.92v-2Zm0,3.11v2.15h1.92v-2.15Zm5.13-1.07v-2h-2v2Zm0,3.22v-2.15h-2v2.15Zm5.81-2.27c.27.28.56.59.84.92l-.83.7h2.83l.57.61a27.88,27.88,0,0,1-1.68,3.93L572,969a16,16,0,0,0,1.36-2.93h-2.15v7.32a1.21,1.21,0,0,1-.37,1,1.68,1.68,0,0,1-1.06.25,16.62,16.62,0,0,1-2-.13l-.22-1.23c.91.1,1.58.16,2,.16.25,0,.37-.13.37-.39v-7h-2.7V965h4a1.47,1.47,0,0,1-.1-.13,21.92,21.92,0,0,0-2.95-2.88l.85-.77c.6.48,1.13,1,1.61,1.4a13.51,13.51,0,0,0,1.8-2.16h-4.82V959.3h6l.65.68A25.35,25.35,0,0,1,571.47,963.34Z"/><rect class="cls-2" x="1042.12" y="899.33" width="37.75" height="93.17"/><rect class="cls-2" x="1079.79" y="899.27" width="113.71" height="93.17"/><rect class="cls-2" x="1165.23" y="772.08" width="28.27" height="93.17"/><rect class="cls-5" x="1194" y="772.4" width="26.21" height="73.6"/><rect class="cls-5" x="1220.21" y="772.4" width="26.21" height="73.6"/><rect class="cls-2" x="1245.79" y="772.4" width="26.21" height="73.6"/><rect class="cls-5" x="1193.67" y="918.98" width="26.21" height="73.6"/><rect class="cls-5" x="1219.87" y="918.98" width="26.21" height="73.6"/><rect class="cls-5" x="1245.46" y="918.98" width="26.21" height="73.6"/><rect class="cls-5" x="1271.74" y="918.98" width="26.21" height="73.6"/><rect class="cls-5" x="1297.95" y="918.98" width="26.21" height="73.6"/><rect class="cls-5" x="1323.53" y="918.98" width="26.21" height="73.6"/><rect class="cls-2" x="1349.61" y="899.71" width="23.89" height="93.17"/><path d="M1094.35,944.48h15.7v1.38h-15.7Z"/><path d="M1116.79,945.79c-.81.08-1.86.17-3.15.26a29.11,29.11,0,0,1-.23,4.11,10,10,0,0,1-1.12,3.46l-1-.94a9.09,9.09,0,0,0,1-3.26,29.76,29.76,0,0,0,.16-3.09v-.19l-.64,0-.67,0-.21-1.14L1112,945l.46,0v-5.68h1.74a15.52,15.52,0,0,0,.49-1.92l1.33.17c-.2.63-.41,1.21-.63,1.75H1118v5.28l1-.09v.73h6.54l.82.65a14.78,14.78,0,0,1-2.57,4.33,14.66,14.66,0,0,0,3.64,2.16l-.77,1.2a13.4,13.4,0,0,1-3.74-2.47,14,14,0,0,1-3.76,2.51l-.79-1.07a12.46,12.46,0,0,0,3.69-2.31,13.77,13.77,0,0,1-2.36-3.88h-.74v-.81l-.38.05-.57,0v6.56a1.28,1.28,0,0,1-.36,1,1.82,1.82,0,0,1-1.08.25,14.33,14.33,0,0,1-1.71-.1l-.25-1.26a17.49,17.49,0,0,0,1.8.12.37.37,0,0,0,.41-.42Zm0-1.07v-4.27h-3.15v4.49l.4,0c.73,0,1.52-.09,2.38-.17Zm-1.63-.36a19.4,19.4,0,0,0-1.11-3l.92-.52a17.4,17.4,0,0,1,1.19,3Zm-.51,2.23h1.06v4h-1.06Zm10-8.38v4.38c0,.16,0,.26.11.3a1.27,1.27,0,0,0,.45.05q.46,0,.57-.21a5.09,5.09,0,0,0,.15-1.4l0-.35,1.17.39c0,.11,0,.26,0,.46a2.85,2.85,0,0,1-.49,1.93,2.27,2.27,0,0,1-1.44.36A3.26,3.26,0,0,1,1124,944a.91.91,0,0,1-.51-1v-3.68h-2.28v.42a12.41,12.41,0,0,1-.26,3,3.72,3.72,0,0,1-1.15,1.81l-1-.85a3,3,0,0,0,.92-1.46,9.76,9.76,0,0,0,.22-2.42v-1.59Zm-1.81,11.14a10.14,10.14,0,0,0,1.83-3H1121A11.1,11.1,0,0,0,1122.87,949.35Z"/><path d="M1132.15,942.68h8.33v1.16h-8.34v-1.15a19.71,19.71,0,0,1-3.34,1.88l-.76-1.07a15,15,0,0,0,7.28-6h1.49a17.54,17.54,0,0,0,4.44,4,26.39,26.39,0,0,0,3.11,1.56l-.71,1.18a24.52,24.52,0,0,1-3.66-2,20.79,20.79,0,0,1-3.89-3.55A14.86,14.86,0,0,1,1132.15,942.68Zm3,4.73a32.74,32.74,0,0,1-2.63,4.26l1.66-.09c2.12-.1,4.17-.27,6.17-.5q-1.3-1.4-2.28-2.31l1.07-.7a37.48,37.48,0,0,1,4.44,4.59l-1.17.86q-.77-1-1.23-1.5-5.75.79-11.59,1.08l-.44-1.33,1.18,0,.66,0a27.24,27.24,0,0,0,2.48-4.26l0-.06h-5.07v-1.17H1144v1.17Z"/><path d="M1145.11,940.62h5.74v1.13h-5.74Zm5.33,7.43v4.68h-3.64v.9h-1.17v-5.58Zm-4.6-9.87h4.38v1.07h-4.38Zm0,4.94h4.4v1.07h-4.4Zm0,2.44h4.4v1.05h-4.4Zm1,3.58v2.5h2.46v-2.5Zm11.67.58c.5-.52,1-1,1.34-1.51l.9.67c-.65.76-1.24,1.4-1.79,1.93a5,5,0,0,0,.75,1.13c.15.15.26.23.33.23s.33-.58.42-1.75l1,.62c-.13,1.73-.49,2.59-1.1,2.59a1.74,1.74,0,0,1-1-.48,5.36,5.36,0,0,1-1.27-1.55,15.52,15.52,0,0,1-2.41,1.73l-.75-.89a14,14,0,0,0,2.65-1.85,11.57,11.57,0,0,1-.66-2.62h-2.39v1.15l.21,0c.56-.1,1.13-.22,1.7-.35l.06.94c-.41.11-1.07.27-2,.47v2.38a1.17,1.17,0,0,1-.27.86,1.43,1.43,0,0,1-1,.25,9.5,9.5,0,0,1-1.53-.11l-.21-1.1a9.71,9.71,0,0,0,1.47.14c.17,0,.28-.06.31-.19a.78.78,0,0,0,0-.24v-1.76c-1,.17-1.74.3-2.37.39l-.28-1.09c.82-.08,1.7-.2,2.65-.35V948h-2.65v-1h2.65V946q-.77.13-1.77.24l-.43-.83a22.6,22.6,0,0,0,4.21-.86l.68.84c-.48.14-1,.27-1.52.38V947h2.26c-.07-.74-.12-1.51-.14-2.32h1.17c0,.74.08,1.51.16,2.32h3.33v1h-3.19A12.92,12.92,0,0,0,1158.47,949.72Zm-4.9-10.81a8.53,8.53,0,0,0-.68-1.12l1.11-.34a8.59,8.59,0,0,1,.8,1.46h2.13l.11-.21a9.93,9.93,0,0,0,.59-1.29l1.3.31c-.2.36-.44.75-.72,1.19h2.58v1h-4.29V941h3.72v1h-3.72v1.17h4.73v1h-10.51v-1h4.59V942h-3.5v-1h3.5v-1.1h-4.17v-1Zm6.07,7.92a7.68,7.68,0,0,0-1.2-1.71l.93-.5a8.15,8.15,0,0,1,1.24,1.67Z"/><path d="M1168.89,943l-.07.11a17.64,17.64,0,0,1-1.83,2.33h.84c1.28,0,2.76-.07,4.45-.15l1.88-.08c-.56-.53-1.12-1-1.69-1.52l1-.61a37.92,37.92,0,0,1,3.15,2.85l.44.44-1.06.8c-.32-.37-.62-.7-.89-1l-.11-.12-4.25.28v2.2h5.83v1.11h-5.83v2.2H1178V953h-15.71v-1.1h7.14v-2.2h-5.71v-1.11h5.71v-2.11l-.91,0c-1.35.05-2.86.1-4.53.14l-.4-1.14h1.88a20.75,20.75,0,0,0,1.88-2.47h-2.75v-1.1h11.09V943Zm1.91-3.76h6.76v3.2h-1.33v-2.11h-12.11v2.11h-1.33v-3.2h6.68v-1.8h1.33Z"/><path d="M1207.46,791h7v1.07H1199.2V791h6.94v-1.58h1.32Zm6.51,6.87V804a1.36,1.36,0,0,1-.36,1.05,1.87,1.87,0,0,1-1.25.33c-.53,0-1.23,0-2.08-.08l-.28-1.21a19.79,19.79,0,0,0,2,.12c.3,0,.48-.05.54-.16a.7.7,0,0,0,.08-.37v-4.77h-11.52v6.65h-1.35v-7.71Zm-2.06-4.7v3.63h-10.13v-3.63Zm-1.54,6.78v3.65h-6v.82h-1.26V800Zm-7.25-5.76v1.58h7.45v-1.58Zm6,6.8h-4.72v1.57h4.72Z"/><path d="M1206.92,811.17v7.4h-3.09v2H1207v1.12h-3.17V824l.7-.12c.54-.08,1.51-.25,2.91-.52l.09,1.11c-2.53.56-5.33,1-8.38,1.46l-.43-1.23c1.53-.18,2.81-.35,3.85-.51V821.7h-3.26v-1.12h3.26v-2h-3v-7.4Zm-6.25,1.07v2h1.93v-2Zm0,3.11v2.15h1.93v-2.15Zm5.14-1.07v-2h-2v2Zm0,3.22v-2.15h-2v2.15Zm5.81-2.27c.27.28.55.59.84.92l-.83.7h2.82l.58.61a28.4,28.4,0,0,1-1.68,3.93l-1.18-.47a16.67,16.67,0,0,0,1.36-2.92h-2.16v7.32a1.2,1.2,0,0,1-.36,1,1.7,1.7,0,0,1-1.06.25,16.49,16.49,0,0,1-2-.13l-.22-1.23c.91.1,1.58.16,2,.16.25,0,.37-.13.37-.4v-7h-2.71v-1.15h4.05a.91.91,0,0,0-.1-.13,21.84,21.84,0,0,0-2.94-2.89l.85-.76c.6.48,1.13.95,1.61,1.4a13.51,13.51,0,0,0,1.8-2.16h-4.82v-1.12h6l.65.68A25.35,25.35,0,0,1,1211.62,815.23Z"/><path d="M1233.71,782.91h6.8v3.35h-1.33V784H1227v2.26h-1.31v-3.35h6.71v-1.82h1.31Zm4.45,2.72v4.23h-4.64a12.15,12.15,0,0,1-.67,1.79h6.88v5.59h-1.39v-.9h-10.41v.9h-1.38v-5.59h4.92a12.21,12.21,0,0,0,.63-1.79H1228v-4.23Zm-10.23,7.09v2.53h10.41v-2.53Zm1.38-6v2.13h7.51v-2.13Z"/><path d="M1240,803.45v14.26h-1.33v-1.29h-11.15v1.28h-1.32V803.45Zm-12.48,1.19v4.49h4.86v-4.49Zm0,5.66v4.9h4.86v-4.9Zm11.15-1.17v-4.49h-5v4.49Zm0,6.07v-4.9h-5v4.9Z"/><path d="M1226.22,836.32a9.12,9.12,0,0,1-2-2.76,8.31,8.31,0,0,1,.26-8.28,8.48,8.48,0,0,1,1.79-2.26h1a14.32,14.32,0,0,0-1.48,1.94,8.8,8.8,0,0,0-1.42,4.71,8.61,8.61,0,0,0,1.27,4.46,15.38,15.38,0,0,0,1.63,2.19Z"/><path d="M1231,829.85l-.41,0c-.56.05-1.22.11-2,.16l-.14,0a28.48,28.48,0,0,1-.15,3.18,8.92,8.92,0,0,1-.91,3l-.84-.77a7.41,7.41,0,0,0,.76-2.3,21.71,21.71,0,0,0,.19-3.08l-.39,0-.63,0-.2-.93c.54,0,.94,0,1.22,0v-4.69h1.43l0-.19c.14-.52.25-1,.32-1.39l1.08.14c-.18.59-.35,1.07-.5,1.44h2v4.35l.8-.08v.86l-.67.07-.13,0v5.45a1,1,0,0,1-.26.81,1.33,1.33,0,0,1-.88.22,11.19,11.19,0,0,1-1.34-.07l-.2-1.06a13,13,0,0,0,1.41.1c.21,0,.32-.12.32-.35Zm0-.87v-3.52h-2.53v3.71C1229.13,829.14,1230,829.07,1231,829Zm-1.32-.3a18.22,18.22,0,0,0-.88-2.43l.75-.42a14.37,14.37,0,0,1,.93,2.44Zm-.41,1.84h.85v3.26h-.85ZM1238,828v6.79a.39.39,0,0,0,0,.22s.14.08.31.08a.65.65,0,0,0,.37-.07,7.48,7.48,0,0,0,.21-2.23l.94.49a6.48,6.48,0,0,1-.33,2.43.75.75,0,0,1-.56.34,4.35,4.35,0,0,1-.72,0,2.24,2.24,0,0,1-1-.14.84.84,0,0,1-.3-.76v-6.22h-2v1.25a13.31,13.31,0,0,1-.37,3.53,5.09,5.09,0,0,1-1.69,2.54l-.73-.78a4.1,4.1,0,0,0,1.5-2.34,12.35,12.35,0,0,0,.28-2.93V828Zm-1.58-2.66h3.18v1h-7v-1h2.79V823h1.07Z"/><path d="M1239,836.32a16.22,16.22,0,0,0,1.48-2,8.49,8.49,0,0,0,.15-9.17A15.93,15.93,0,0,0,1239,823h1a9.2,9.2,0,0,1,2,2.75,8.31,8.31,0,0,1-.26,8.28,8.69,8.69,0,0,1-1.79,2.27Z"/><path d="M1201.79,944.6v8.9h-1.21v-7a19.45,19.45,0,0,1-1.29,1.54l-.67-1.12a13.17,13.17,0,0,0,1.8-2.3,17.44,17.44,0,0,0,1.57-3.32l1.15.35A23,23,0,0,1,1201.79,944.6Zm2.25-4.82a10.11,10.11,0,0,1,.82,1.53l-1.21.46a9.9,9.9,0,0,0-.92-2h-1.19a12.23,12.23,0,0,1-1.68,2l-.94-.86a8.61,8.61,0,0,0,2.42-3.63l1.31.22c-.16.41-.34.81-.52,1.2h4.31v1Zm-1,3.28h1.16v8.55H1203Zm8.15,5.94a12.54,12.54,0,0,0,3.94,2.63l-.72,1.07a12.79,12.79,0,0,1-3.91-3.09v3.89h-1.25v-3.87a10.45,10.45,0,0,1-4,3.26l-.82-.92a10.63,10.63,0,0,0,4.15-3h-3.51v-1h4.17v-1.22h1.25V948h4.3v1Zm-2.24-3.8a9.33,9.33,0,0,1-1.86-1.36,8.68,8.68,0,0,1-1.49,1.28l-.77-.8a8.64,8.64,0,0,0,2.84-3.26l1.11.32q-.3.57-.48.87h6.22v1h-1.67a6.71,6.71,0,0,1-1.77,1.86,22.61,22.61,0,0,0,3.94,1l-.66,1.09a22.21,22.21,0,0,1-4.31-1.41,17.16,17.16,0,0,1-4.63,1.58l-.67-1A14.88,14.88,0,0,0,1208.94,945.2Zm-.22-6.46h6v1H1211c.31.44.62.91.92,1.41l-1.2.44a15.29,15.29,0,0,0-1.08-1.85h-1.42a9.43,9.43,0,0,1-1.26,1.77l-1-.71a8.78,8.78,0,0,0,1.94-3.54l1.27.21C1209,937.92,1208.88,938.33,1208.72,938.74Zm1.24,5.88a6,6,0,0,0,1.49-1.39h-3.6A9.3,9.3,0,0,0,1210,944.62Z"/><path d="M1207.71,962.16h5.41v6.44h-4.29v4.71a1.23,1.23,0,0,1-.29.91,1.6,1.6,0,0,1-1.09.28,12.9,12.9,0,0,1-2-.14l-.23-1.19a10.56,10.56,0,0,0,1.87.17q.45,0,.45-.42V968.6h-4.36v-6.44h3.26l.06-.12c.18-.4.39-.9.62-1.5l.08-.22h-5.75V965a38.44,38.44,0,0,1-.31,5.76,10.74,10.74,0,0,1-1.26,3.66l-1-.91a11,11,0,0,0,1.14-4.1c.1-1,.15-2.37.15-4.12v-6.08h14.25v1.14h-5.77s0,.08,0,.14A15,15,0,0,1,1207.71,962.16Zm-6.21,10.76a10.7,10.7,0,0,0,2.86-3.54l1.09.62a12.75,12.75,0,0,1-3,3.86Zm10.31-9.71h-7.36v1.61h7.36Zm-7.36,2.65v1.69h7.36v-1.69Zm9.19,7.77a24.19,24.19,0,0,0-3-3.57l1-.76a22.46,22.46,0,0,1,3,3.42Z"/><path d="M1227.19,945.32a20.15,20.15,0,0,0-2.53-2.53l.9-.92a19.83,19.83,0,0,1,2.57,2.44Zm-2.21,7.09a25.44,25.44,0,0,0,2.65-5.57l1,.81a27.28,27.28,0,0,1-2.61,5.75Zm2.79-11.36a16.76,16.76,0,0,0-2.47-2.56l.9-.92a15.66,15.66,0,0,1,2.5,2.47Zm7.61.33v1.12h4.37v1h-4.37v1.18h5.6v1h-2.61a12.38,12.38,0,0,1-.81,1.67h2.91v1h-5.09v1.31H1240v1h-4.58v2.75h-1.31v-2.75h-4.43v-1h4.43v-1.31h-4.89v-1h2.56a12.53,12.53,0,0,0-.76-1.67h-2.5v-1h5.59v-1.18h-4.35v-1h4.35v-1.12h-4.48v-3.45H1240v3.45Zm-4.57-2.48v1.53h1.9V938.9Zm6.24,6.82h-4.75a11.47,11.47,0,0,1,.65,1.67h3.37A16.83,16.83,0,0,0,1237.05,945.72Zm-3.29-6.82v1.53h1.93V938.9Zm5,1.53V938.9h-2v1.53Z"/><path d="M1239.77,959.71V974h-1.33v-1.29H1227.3V974H1226V959.71Zm-12.47,1.19v4.49h4.85V960.9Zm0,5.66v4.9h4.85v-4.9Zm11.14-1.17V960.9h-5v4.49Zm0,6.07v-4.9h-5v4.9Z"/><path d="M1261.93,951.75h-9.15v1h-1.31V948.8h1.31v1.9H1256v-2.5h-3.25v-9.36h4.08a12.32,12.32,0,0,0,.92-1.56l1.48.34a13.63,13.63,0,0,1-.93,1.22h6V944h-10.19v1h12.81v1h-12.81v1.07h12.06a19.92,19.92,0,0,1-.57,5.22,1.51,1.51,0,0,1-.93,1,3.47,3.47,0,0,1-1.17.16,13,13,0,0,1-2-.15l-.27-1.23a13.36,13.36,0,0,0,2.06.18c.48,0,.78-.11.91-.33a11.59,11.59,0,0,0,.57-3.77h-7.47v2.5h3.33v-1.9h1.28Zm-7.8-11.89v1.07H1263v-1.07Zm0,2V943H1263v-1.13Z"/><path d="M1265.77,959.71V974h-1.32v-1.29H1253.3V974H1252V959.71Zm-12.47,1.19v4.49h4.85V960.9Zm0,5.66v4.9h4.85v-4.9Zm11.15-1.17V960.9h-5v4.49Zm0,6.07v-4.9h-5v4.9Z"/><path d="M1284.14,940.59v-3.24h1.34v3.24h6.33V949h-1.34v-1.18h-5v5.64h-1.34v-5.64h-4.9v1.28h-1.36v-8.55Zm-4.9,1.25v4.77h4.9v-4.77Zm11.23,4.77v-4.77h-5v4.77Z"/><path d="M1282.08,963.31v-2.8h-5.24v-1.17h16v1.17h-5.76v2.8h4.73v10.9h-1.33v-1.33h-11.33v1.33h-1.31v-10.9Zm0,1.12h-2.88v7.3h11.33V968.8h-3.43c-.83,0-1.24-.37-1.24-1.12v-3.25h-2.5a8.55,8.55,0,0,1-.53,2.88,5.91,5.91,0,0,1-2.54,2.64l-.85-1a4.42,4.42,0,0,0,2.3-2.46A8.8,8.8,0,0,0,1282.07,964.43Zm1.29-1.12h2.49v-2.8h-2.49Zm3.76,1.12v2.81a.43.43,0,0,0,.1.33.52.52,0,0,0,.31.08h3v-3.22Z"/><path d="M1307.69,946.89v1.88h2.92v1.11h-2.92v3.61h-1.28v-3.61h-3.08v-1.11h3.08v-1.88h-3.3v-1.11h1.81c-.2-.79-.46-1.61-.76-2.45h-1.35v-1.1h3.6V940.4h-2.89v-1.1h2.89v-2h1.28v2h2.75v1.1h-2.75v1.83h3.47v1.1h-1.34a18.17,18.17,0,0,1-.84,2.45h1.84v1.11Zm.89-3.56h-3.2l0,.09a17.36,17.36,0,0,1,.69,2.36h1.69A19.3,19.3,0,0,0,1308.58,943.33Zm5.56-1.42a33.55,33.55,0,0,1-.37,4.43c.59.6,1.25,1.32,2,2.17l-.76,1.12c-.46-.6-1-1.2-1.48-1.81a11.5,11.5,0,0,1-2.93,5.67l-1-.92a10.38,10.38,0,0,0,2.85-5.87,23.52,23.52,0,0,0-1.78-1.64l.68-1,1.31,1.15c.11-1.16.19-2.27.23-3.33h-2.17v-1.22H1313l.08-3.34h1.25l-.06,3.34H1317l0,2.78v1.43a27.7,27.7,0,0,0,.52,6.2c0,.25.1.37.13.37s.1-.15.17-.44a16.18,16.18,0,0,0,.32-2.38l1,.78c-.26,2.7-.77,4.06-1.54,4.06-.42,0-.76-.39-1-1.17a24.86,24.86,0,0,1-.82-7.5c0-.16,0-.6,0-1.32l0-1.59Z"/><path d="M1307,965.34v9.16h-1.34v-7.63a22.62,22.62,0,0,1-2.2,2l-.76-1.09a19.16,19.16,0,0,0,5-5.68l1.11.64A22.1,22.1,0,0,1,1307,965.34Zm-4.06-2.77a13.73,13.73,0,0,0,4.09-4l1.11.69a16.78,16.78,0,0,1-4.42,4.35Zm12.92,2.77V973a1.26,1.26,0,0,1-.43,1.1,2.32,2.32,0,0,1-1.25.25c-1,0-2,0-2.85-.1l-.25-1.31a26.94,26.94,0,0,0,2.71.15.9.9,0,0,0,.58-.12.59.59,0,0,0,.11-.41v-7.25h-5.75v-1.25H1319v1.25Zm-6-5.94h8v1.22h-8Z"/><path d="M1337.48,950.51h4.79v-9.63h1.38v12.48h-1.38V951.8h-10.82v1.56h-1.38V940.88h1.38v9.63h4.67v-13h1.36Z"/><path d="M1331.58,964.76v2.12a20.39,20.39,0,0,1-.35,4.24,8.45,8.45,0,0,1-1.49,3.17l-1-.92a7.79,7.79,0,0,0,1.26-2.83,19.32,19.32,0,0,0,.26-3.69v-3.2h14.29v1.11Zm6-3.56H1342v-2.1h1.29v3.19h-12.42V959.1h1.29v2.1h4.19v-2.85h1.29Zm1,6.16v1.89h6.15v1.1h-6.15v4.15h-1.34v-4.15H1332v-1.1h5.36v-1.89h-4.48V966.3h10.61v1.06Z"/><circle cx="1258.5" cy="809.5" r="4"/><path d="M1258.5,806a3.5,3.5,0,1,1-3.5,3.5,3.5,3.5,0,0,1,3.5-3.5m0-1a4.5,4.5,0,1,0,4.5,4.5,4.49,4.49,0,0,0-4.5-4.5Z"/><line class="cls-6" x1="1258.5" y1="809.5" x2="1258.5" y2="744.5"/><path d="M1208,733.08c1.29-1.36,3.79-4.16,4.76-5.2a2.17,2.17,0,0,1,1.51-.83c.58,0,1,.3,1.63.9a89,89,0,0,1,8,8.87l-1,.94a82.92,82.92,0,0,0-7.62-8.77c-.41-.41-.65-.67-1-.67s-.51.26-.88.61c-.8.87-3.1,3.54-4.23,4.76a.53.53,0,0,1,0,.12.49.49,0,0,1-.17.36Z"/><path d="M1229.65,727.35c0,.16-.17.26-.4.29-.1,4.57-.47,8.74-3.09,11.78a8.93,8.93,0,0,0-1-.64c2.53-2.76,2.84-7,2.89-11.58Zm4.4,9.79a11.16,11.16,0,0,0,5.66-6.83,6.38,6.38,0,0,0,1,.66,12.66,12.66,0,0,1-6.93,7.69.74.74,0,0,1-.29.34l-.89-1.12.19-.26V725.14l1.58.09c0,.15-.13.29-.37.32Z"/><path d="M1243.6,726.74h10.81l.11,0,1.15.89a.46.46,0,0,1-.2.15c-1.38,6.39-4.34,9.72-9.54,11.69a6.75,6.75,0,0,0-.76-1c4.94-1.82,7.8-5,8.9-10.5H1243.6Zm13-3a1.86,1.86,0,1,1-1.87,1.87A1.86,1.86,0,0,1,1256.56,723.7Zm1.29,1.87a1.3,1.3,0,1,0-2.6,0,1.3,1.3,0,1,0,2.6,0Z"/><path d="M1273.73,731.37h-5.61l.29.08c0,.1-.16.19-.34.2a9.84,9.84,0,0,1-5.26,7.86,7.74,7.74,0,0,0-.92-.84c3.35-1.66,4.53-4.25,4.92-7.3h-6.5v-1.14h13.42Zm-2.5-4.65h-9.44v-1.13h9.44Zm.22-2.49a12.49,12.49,0,0,1,1.87,2.68l-.68.46a11.59,11.59,0,0,0-1.85-2.68Zm2-.58a13.73,13.73,0,0,1,1.93,2.67l-.7.42a12.84,12.84,0,0,0-1.87-2.65Z"/><path d="M1288.53,726.44a.34.34,0,0,1-.22.18,26.16,26.16,0,0,1-3.4,5.85,61.76,61.76,0,0,1,6.22,5.76l-1,.9a57.31,57.31,0,0,0-6-5.71,26.86,26.86,0,0,1-6.54,5.71,6.33,6.33,0,0,0-.89-.91,24.44,24.44,0,0,0,10-11.1h-8.34V726h9l.22-.08Z"/><path d="M1306.88,727.92a1.47,1.47,0,0,1-.26.23c-1.78,5.51-4.57,9.05-9.26,11.43a4.74,4.74,0,0,0-.87-.94,16,16,0,0,0,8.62-10.06H1299a17.37,17.37,0,0,1-3.81,4.2,6.64,6.64,0,0,0-1-.79,17.21,17.21,0,0,0,5.43-7.37l1.61.46c-.07.17-.27.22-.49.22-.34.74-.7,1.46-1.09,2.14h6l.21-.1Z"/></svg>