<svg id="レイヤー_1" data-name="レイヤー 1" xmlns="http://www.w3.org/2000/svg" viewBox="0 0 1920 1080"><defs><style>.cls-1,.cls-2{fill:#fff;}.cls-2,.cls-3,.cls-4,.cls-5,.cls-6,.cls-7{stroke:#000;stroke-miterlimit:10;}.cls-3,.cls-6{fill:none;}.cls-3{stroke-width:2px;}.cls-4{fill:#aae5ff;}.cls-5{fill:#fff1aa;}.cls-7{fill:#ffa49f;}</style></defs><rect class="cls-1" width="1920" height="1080"/><rect class="cls-2" x="925.5" y="210.5" width="80" height="98"/><rect class="cls-2" x="520.5" y="210.5" width="38" height="98"/><path class="cls-2" d="M558.5,178.5h-9c0-1.18-.13-7.5-9-14a22.53,22.53,0,0,0-26,0,23,23,0,0,0-8,27c3.68,9.2,12.5,12.51,14,13v6h38v20h348v-20h99v158h-80v54h80l-2,443h-402v-30h-48v30h-35l2,19c-10-1.16-18.72,6.52-19,16a16.71,16.71,0,0,0,17,17c9.36-.27,17.78-8.54,17-18h468v93h39v-93h331v-21a14.22,14.22,0,0,0,10-13,14,14,0,0,0-12-14c-7.65-1-15.38,5.2-16,14h-284v-93h-29v-464h29v-98h94v20h116v-20h62c.78,10.77,10.1,18.18,19,17,7.82-1,14.8-8.63,14-17-.53-5.55-4.4-10.51-10-13v-31h-89v12h-238v-97h-34v97Z"/><rect class="cls-2" x="1281.5" y="210.5" width="44" height="98"/><rect class="cls-2" x="1071.5" y="210.5" width="94" height="98"/><rect class="cls-2" x="897.5" y="772.5" width="106" height="93"/><rect class="cls-2" x="1272.5" y="772.5" width="43" height="93"/><rect class="cls-2" x="1071.5" y="772.5" width="94" height="93"/><rect class="cls-2" x="518.5" y="772.5" width="35" height="93"/><rect x="951.5" y="243.5" width="29.5" height="29.5" rx="2"/><rect class="cls-3" x="951.5" y="243.5" width="29.5" height="29.5" rx="2"/><rect class="cls-1" x="965.49" y="247.65" width="1.38" height="21.76"/><path class="cls-1" d="M959.05,251.28a1.82,1.82,0,1,0-1.82-1.82A1.82,1.82,0,0,0,959.05,251.28Z"/><path class="cls-1" d="M962.59,253.87c-.36-1.24-1.19-2.06-2.12-2.06h-2.84c-.93,0-1.75.82-2.12,2.06l-1.34,4.75a.75.75,0,0,0,.54.91.74.74,0,0,0,.9-.54l1.34-4.73h.39L955,262.49h2.19v6.11a.85.85,0,1,0,1.69,0v-6.11h.46v6.11a.85.85,0,1,0,1.7,0v-6.11h2l-2.32-8.23h.39l1.34,4.73a.74.74,0,0,0,.9.54.75.75,0,0,0,.54-.91Z"/><path class="cls-1" d="M973.57,251.28a1.82,1.82,0,1,0-1.82-1.82A1.81,1.81,0,0,0,973.57,251.28Z"/><path class="cls-1" d="M975.81,251.79H971a2,2,0,0,0-1.84,1.84v6.11a.8.8,0,0,0,1.6,0v-5h.37v13.64a1,1,0,0,0,2.09,0v-7.92h.34v7.92a1.05,1.05,0,0,0,2.1,0V254.72h.36v5a.8.8,0,1,0,1.6,0v-6.11A2,2,0,0,0,975.81,251.79Z"/><rect x="525.03" y="242.62" width="29.5" height="29.5" rx="2"/><rect class="cls-3" x="525.03" y="242.62" width="29.5" height="29.5" rx="2"/><polygon class="cls-1" points="544.32 248.29 544.32 253.18 538.89 253.18 538.89 258.07 533.46 258.07 533.46 262.95 529.29 262.95 529.29 265.47 535.97 265.47 535.97 260.58 541.4 260.58 541.4 255.69 546.83 255.69 546.83 250.8 551 250.8 551 248.29 544.32 248.29"/><rect x="1288.36" y="244.25" width="29.5" height="29.5" rx="2"/><rect class="cls-3" x="1288.36" y="244.25" width="29.5" height="29.5" rx="2"/><polygon class="cls-1" points="1307.65 249.92 1307.65 254.81 1302.22 254.81 1302.22 259.69 1296.8 259.69 1296.8 264.58 1292.62 264.58 1292.62 267.1 1299.31 267.1 1299.31 262.21 1304.73 262.21 1304.73 257.32 1310.16 257.32 1310.16 252.43 1314.33 252.43 1314.33 249.92 1307.65 249.92"/><rect x="1279.25" y="802.58" width="29.5" height="29.5" rx="2"/><rect class="cls-3" x="1279.25" y="802.58" width="29.5" height="29.5" rx="2"/><polygon class="cls-1" points="1298.54 808.25 1298.54 813.14 1293.11 813.14 1293.11 818.03 1287.68 818.03 1287.68 822.92 1283.51 822.92 1283.51 825.43 1290.2 825.43 1290.2 820.54 1295.62 820.54 1295.62 815.65 1301.05 815.65 1301.05 810.76 1305.22 810.76 1305.22 808.25 1298.54 808.25"/><rect x="521.58" y="803.92" width="29.5" height="29.5" rx="2"/><rect class="cls-3" x="521.58" y="803.92" width="29.5" height="29.5" rx="2"/><polygon class="cls-1" points="540.87 809.58 540.87 814.47 535.44 814.47 535.44 819.36 530.02 819.36 530.02 824.25 525.85 824.25 525.85 826.76 532.53 826.76 532.53 821.87 537.96 821.87 537.96 816.99 543.38 816.99 543.38 812.1 547.56 812.1 547.56 809.58 540.87 809.58"/><rect x="935.69" y="804.58" width="29.5" height="29.5" rx="2"/><rect class="cls-3" x="935.69" y="804.58" width="29.5" height="29.5" rx="2"/><rect class="cls-1" x="949.68" y="808.73" width="1.38" height="21.76"/><path class="cls-1" d="M943.25,812.36a1.82,1.82,0,1,0-1.82-1.81A1.81,1.81,0,0,0,943.25,812.36Z"/><path class="cls-1" d="M946.79,815c-.37-1.25-1.19-2.07-2.12-2.07h-2.85c-.92,0-1.75.82-2.12,2.07l-1.34,4.75a.75.75,0,0,0,.55.9.73.73,0,0,0,.9-.53l1.33-4.74h.4l-2.33,8.24h2.19v6.1a.85.85,0,1,0,1.69,0v-6.1h.47v6.1a.85.85,0,1,0,1.69,0v-6.1h2L945,815.34h.4l1.33,4.74a.73.73,0,0,0,.9.53.75.75,0,0,0,.55-.9Z"/><path class="cls-1" d="M957.77,812.36a1.82,1.82,0,1,0-1.82-1.81A1.81,1.81,0,0,0,957.77,812.36Z"/><path class="cls-1" d="M960,812.88h-4.77a2,2,0,0,0-1.84,1.84v6.11a.79.79,0,0,0,.8.79.79.79,0,0,0,.79-.79v-5h.37v13.64a1,1,0,1,0,2.1,0v-7.91h.33v7.91a1.05,1.05,0,1,0,2.1,0V815.8h.37v5a.8.8,0,0,0,1.59,0v-6.11A2,2,0,0,0,960,812.88Z"/><rect x="1102.58" y="802.92" width="29.5" height="29.5" rx="2"/><rect class="cls-3" x="1102.58" y="802.92" width="29.5" height="29.5" rx="2"/><path class="cls-1" d="M1113.69,815.37a1.07,1.07,0,1,0,1.07,1.06A1.06,1.06,0,0,0,1113.69,815.37Z"/><path class="cls-1" d="M1120.22,815.37a1.07,1.07,0,1,0,1.07,1.06A1.06,1.06,0,0,0,1120.22,815.37Z"/><path class="cls-1" d="M1124,811.1h-14a2,2,0,0,0-2,1.95v15a2,2,0,0,0,2,2h14a2,2,0,0,0,2-2v-15A2,2,0,0,0,1124,811.1Zm-10.5,17.67a.25.25,0,0,0,0-.07l.21-4.9.22,4.9s0,0,0,.07Zm6.53,0s0,0,0-.07l.22-4.9.21,4.9a.25.25,0,0,0,0,.07Zm4.69-.72a.72.72,0,0,1-.72.72h-2.46a.25.25,0,0,0,0-.07l.21-8,.2,2.14a.41.41,0,0,0,.43.4.42.42,0,0,0,.4-.44v-3.52c0-1.47-1.78-1.54-2.54-1.54s-2.55.07-2.55,1.54v3.52a.42.42,0,0,0,.4.44.43.43,0,0,0,.44-.4l.19-2.14.22,8s0,0,0,.07h-4s0,0,0-.07l.22-8,.19,2.14a.43.43,0,0,0,.44.4.42.42,0,0,0,.4-.44v-3.52c0-1.47-1.79-1.54-2.55-1.54s-2.54.07-2.54,1.54v3.52a.42.42,0,0,0,.4.44.41.41,0,0,0,.43-.4l.2-2.14.21,8a.25.25,0,0,0,0,.07H1110a.72.72,0,0,1-.72-.72v-15a.73.73,0,0,1,.72-.72h14a.73.73,0,0,1,.72.72v15Z"/><path class="cls-1" d="M1118.48,807.89l1.46-1.46v3.29a.55.55,0,0,0,.55.54.54.54,0,0,0,.54-.54v-3.29l1.46,1.46a.54.54,0,0,0,.39.16.51.51,0,0,0,.38-.16.53.53,0,0,0,0-.77l-2.39-2.39-.38-.38-.39.38-2.39,2.39a.54.54,0,0,0,.77.77Z"/><path class="cls-1" d="M1113.29,810.1l.39.39.38-.39,2.39-2.39a.54.54,0,0,0-.77-.77l-1.46,1.47v-3.29a.55.55,0,0,0-.54-.55.55.55,0,0,0-.55.55v3.29l-1.46-1.47a.54.54,0,0,0-.77.77Z"/><rect x="1104.25" y="244.36" width="29.5" height="29.5" rx="2"/><rect class="cls-3" x="1104.25" y="244.36" width="29.5" height="29.5" rx="2"/><path class="cls-1" d="M1115.36,256.81a1.07,1.07,0,1,0,1.07,1.07A1.07,1.07,0,0,0,1115.36,256.81Z"/><path class="cls-1" d="M1121.88,256.81a1.07,1.07,0,1,0,1.07,1.07A1.07,1.07,0,0,0,1121.88,256.81Z"/><path class="cls-1" d="M1125.62,252.55h-14a2,2,0,0,0-1.95,1.95v15a2,2,0,0,0,1.95,1.95h14a2,2,0,0,0,2-1.95v-15A2,2,0,0,0,1125.62,252.55Zm-10.49,17.66s0,0,0-.07l.21-4.89.22,4.89s0,.05,0,.07Zm6.52,0a.14.14,0,0,0,0-.07l.21-4.89.22,4.89s0,.05,0,.07Zm4.69-.72a.72.72,0,0,1-.72.72h-2.45s0,0,0-.07l.22-8,.19,2.14a.42.42,0,0,0,.84,0v-3.52c0-1.48-1.79-1.55-2.55-1.55s-2.54.07-2.54,1.55v3.52a.41.41,0,0,0,.4.43.41.41,0,0,0,.43-.39l.2-2.14.21,8a.14.14,0,0,0,0,.07h-3.95s0,0,0-.07l.22-8,.19,2.14a.42.42,0,0,0,.44.39.41.41,0,0,0,.39-.43v-3.52c0-1.48-1.78-1.55-2.54-1.55s-2.54.07-2.54,1.55v3.52a.41.41,0,0,0,.39.43.42.42,0,0,0,.44-.39l.2-2.14.21,8s0,.05,0,.07h-2.45a.72.72,0,0,1-.72-.72v-15a.72.72,0,0,1,.72-.72h14a.72.72,0,0,1,.72.72v15Z"/><path class="cls-1" d="M1120.15,249.34l1.46-1.47v3.29a.55.55,0,0,0,.54.55.55.55,0,0,0,.55-.55v-3.29l1.46,1.47a.54.54,0,0,0,.77,0,.55.55,0,0,0,0-.77l-2.39-2.39-.39-.39-.38.39-2.39,2.39a.54.54,0,0,0,.77.77Z"/><path class="cls-1" d="M1115,251.55l.38.38.39-.38,2.39-2.39a.54.54,0,1,0-.77-.77l-1.46,1.46v-3.29a.55.55,0,0,0-.55-.54.54.54,0,0,0-.54.54v3.29l-1.46-1.46a.55.55,0,0,0-.77,0,.53.53,0,0,0,0,.77Z"/><rect class="cls-4" x="328.5" y="141.5" width="23" height="23"/><path d="M367.78,147v1.61h4.48v1h-4.48v1.46h5.31v1h-5.31v1.57h7v1h-6.68a7.79,7.79,0,0,0,2.61,2.17,13.74,13.74,0,0,0,3.89,1.35l-.7,1.13a12.27,12.27,0,0,1-4.42-1.86,7.55,7.55,0,0,1-2.25-2.3c-.94,2.18-3.17,3.59-6.67,4.24l-.66-1.07q5-.78,6.34-3.66h-6.66v-1h6.93v-1.57h-5.19v-1h5.19v-1.46h-4.38v-1h4.38V147h-5v2h-1.25v-3h6.21v-1.74h1.23V146h6.27v3h-1.23v-2Z"/><path d="M375.43,157.67a19.68,19.68,0,0,0,.61-3.76l.92.16a20.51,20.51,0,0,1-.57,4.21Zm7.14-5.7a37.6,37.6,0,0,1-.43,6.16,1.75,1.75,0,0,1-.52,1,1.67,1.67,0,0,1-1.09.29c-.43,0-.95,0-1.55-.1l-.17-1.15a8.65,8.65,0,0,0,1.54.16.69.69,0,0,0,.62-.23c.27-.45.43-2.1.49-5V153H376.2v-8.12h6.5v1h-2.49v1.38h2v1h-2v1.39h2v1h-2V152Zm-5.07,5.62a34.51,34.51,0,0,0-.19-3.45l.78-.17a33,33,0,0,1,.34,3.39Zm-.17-11.73v1.38h1.78v-1.38Zm0,2.34v1.39h1.78V148.2Zm0,2.35V152h1.78v-1.42Zm1.74,6.64a28.15,28.15,0,0,0-.5-3.23l.72-.23a21,21,0,0,1,.6,3.19Zm1.36-.53a23,23,0,0,0-.68-3l.72-.25a17,17,0,0,1,.72,2.91Zm6.21-1.3a6.84,6.84,0,0,1-3.46,4.15l-.79-1a5.84,5.84,0,0,0,3.46-4h-2.72v-4.12h2.8v-1.53h-1.41v-.52a10.71,10.71,0,0,1-1.68,1.56l-.7-1a9.51,9.51,0,0,0,3.6-4.66h1.34a11.79,11.79,0,0,0,4,4.46l-.66,1a13.92,13.92,0,0,1-1.82-1.54v.64h-1.51v1.53H390v4.12h-2.7a9,9,0,0,0,3.63,3.85l-.7,1A9,9,0,0,1,386.64,155.36Zm-.68-4H384.2v2.15H386Zm2.27-3.55a12.21,12.21,0,0,1-1.8-2.59,10.91,10.91,0,0,1-1.49,2.59Zm-1.18,3.55v2.15h1.86v-2.15Z"/><path d="M399.24,150.4a1.4,1.4,0,0,1,1,.47,1.37,1.37,0,0,1,.39,1,1.41,1.41,0,0,1-.23.76,1.41,1.41,0,0,1-1.88.51,1.36,1.36,0,0,1-.78-1.29,1.38,1.38,0,0,1,.61-1.16A1.43,1.43,0,0,1,399.24,150.4Z"/><path d="M409.85,151.8a19.17,19.17,0,0,0-2.32-2.45l.86-.83a17,17,0,0,1,2.37,2.35Zm-2,6.6a24.53,24.53,0,0,0,2.65-5.29l1,.72a23.37,23.37,0,0,1-2.61,5.5Zm2.46-10.65a17.33,17.33,0,0,0-2.29-2.46l.88-.82a15.39,15.39,0,0,1,2.32,2.37Zm.47,10.75a14.49,14.49,0,0,0,4-2l.9.8a16.67,16.67,0,0,1-4.13,2.16ZM417.43,146h5.12v3.07h-1.22v-2.05H412.6v2.05h-1.2V146h4.81v-1.79h1.22Zm0,4.48h4v5.77h-9v-5.77h3.84v-1.27h-3v-1h7.55v1h-3.34Zm-1.17,2.34V151.5H413.6v1.36Zm0,2.44v-1.5H413.6v1.5Zm1.17-3.8v1.36h2.79V151.5Zm0,2.3v1.5h2.79v-1.5Zm4.54,5.59a34.57,34.57,0,0,0-4-2.14l.88-.76a28.57,28.57,0,0,1,4.08,2Z"/><path d="M424,150.39a30.42,30.42,0,0,0,4.91-1.79l.14,1a36.82,36.82,0,0,1-4.56,1.85Zm6.65-5.55v6.28l1.09.23a9.17,9.17,0,0,1-.52,1H437v7.12h-1.26v-.75h-8.86v.75h-1.25v-7.12h4.29a9.83,9.83,0,0,0,.43-1h-.92v-5.44h-5.27v-1Zm-3.21,3.63a19.11,19.11,0,0,0-2.83-1.41l.75-.85a20,20,0,0,1,2.83,1.35Zm-.54,4.85v1.58h8.86v-1.58Zm0,2.56v1.79h8.86v-1.79Zm11.07-11v6.56h-1.19v-5.54h-5.52v-1Zm-6.66,5.09a34.39,34.39,0,0,0,4.69-1.62l.21.94a44.66,44.66,0,0,1-4.37,1.7Zm3.27-1.54a22.28,22.28,0,0,0-2.89-1.39l.63-.83a18,18,0,0,1,2.93,1.37Z"/><path d="M446,149.48a.37.37,0,0,0-.06.1,16.72,16.72,0,0,1-1.73,2.2h.8c1.2,0,2.59-.07,4.18-.14l1.77-.08c-.53-.5-1.06-1-1.6-1.43l1-.58a37.46,37.46,0,0,1,3,2.69l.41.41-1,.75c-.31-.34-.59-.65-.84-.91l-.11-.11c-.29,0-1.63.12-4,.27v2.07h5.5v1h-5.5v2.07h6.82v1H439.82v-1h6.71v-2.07h-5.37v-1h5.37v-2l-.85,0c-1.28.06-2.7.1-4.26.14l-.39-1.07,1.78,0a18.29,18.29,0,0,0,1.76-2.32H442v-1h10.44v1Zm1.79-3.54h6.37v3H452.9v-2H441.5v2h-1.25v-3h6.28v-1.69h1.25Z"/><rect class="cls-5" x="328.5" y="174.5" width="23" height="23"/><path d="M362.11,184.5h3.28v7.09h-3.24V193h-1.1v-6.37a18.43,18.43,0,0,1-1,1.54L359.4,187a13.37,13.37,0,0,0,2.12-4.07,18.57,18.57,0,0,0,.69-2.62H360v-1.11h5.74v1.11h-2.34A19.19,19.19,0,0,1,362.11,184.5Zm0,1.07v5h2.17v-5Zm10.53-5.46v4.61h2.13v1.1h-2.13v7.59H371.5v-7.59H369a15.18,15.18,0,0,1-.57,4.43,9.35,9.35,0,0,1-1.75,3.21l-1.06-.8q2.12-2.06,2.19-6.84h-1.91v-1.1h1.92v-4.61h-1.33V179h7.84v1.1Zm-1.18,0H369v4.61h2.47Z"/><path d="M385.35,181v2.58c0,.26.1.41.3.46a4.67,4.67,0,0,0,.94.06c.88,0,1.39-.07,1.51-.22a2.5,2.5,0,0,0,.18-1.2l1.18.45a2.78,2.78,0,0,1-.41,1.57,4.51,4.51,0,0,1-2.58.43,4.91,4.91,0,0,1-2-.23c-.25-.15-.37-.46-.37-.94v-3h-6.65v2.24h-1.23V180h6.3v-1.71h1.25V180h6.4v2.65h-1.25V181Zm-2.47,5.6h4.2l-.29,4.69c0,.06,0,.11,0,.15,0,.26.1.42.29.47a3.4,3.4,0,0,0,.9.07,4.45,4.45,0,0,0,1.16-.09c.2-.07.33-.31.39-.7a14.31,14.31,0,0,0,.15-1.58l1.18.43c0,.08,0,.31,0,.68a5.89,5.89,0,0,1-.21,1.37,1.27,1.27,0,0,1-1,.93,9.9,9.9,0,0,1-1.76.11,3.82,3.82,0,0,1-2-.32,1,1,0,0,1-.38-.85.57.57,0,0,1,0-.12l.27-4.18H382.7a6.46,6.46,0,0,1-1.81,3.58,10.53,10.53,0,0,1-3.75,2.16l-.77-1a8.68,8.68,0,0,0,3.51-1.84,5.78,5.78,0,0,0,1.55-2.88H377v-1.06h4.58l.21-2.06,1.25.08Zm-6.27-2a6.57,6.57,0,0,0,3-1.22,4,4,0,0,0,1.2-2.09l1.13.39a4.68,4.68,0,0,1-2.09,3,7.82,7.82,0,0,1-2.49.91Z"/><path d="M398,183.48a.37.37,0,0,0-.06.1,16.72,16.72,0,0,1-1.73,2.2h.8c1.2,0,2.59-.07,4.18-.14l1.77-.08c-.53-.5-1.06-1-1.6-1.43l1-.58a37.46,37.46,0,0,1,3,2.69l.41.41-1,.75c-.31-.34-.59-.65-.84-.91l-.11-.11c-.29,0-1.63.12-4,.27v2.07h5.5v1h-5.5v2.07h6.82v1H391.82v-1h6.71v-2.07h-5.37v-1h5.37v-2l-.85,0c-1.28.06-2.7.1-4.26.14l-.39-1.07,1.78,0a18.29,18.29,0,0,0,1.76-2.32H394v-1h10.44v1Zm1.79-3.54h6.37v3H404.9v-2H393.5v2h-1.25v-3h6.28v-1.69h1.25Z"/><rect x="328.78" y="240" width="22" height="22" rx="2"/><rect class="cls-3" x="328.78" y="240" width="22" height="22" rx="2"/><polygon class="cls-1" points="343.16 244.23 343.16 247.87 339.12 247.87 339.12 251.52 335.07 251.52 335.07 255.16 331.96 255.16 331.96 257.04 336.94 257.04 336.94 253.39 340.99 253.39 340.99 249.75 345.04 249.75 345.04 246.1 348.15 246.1 348.15 244.23 343.16 244.23"/><path d="M360,244.44h3.59l.63.56a35.09,35.09,0,0,1-1.42,4.44,6.79,6.79,0,0,1,1.15,2.24,6.59,6.59,0,0,1,.31,2,3.65,3.65,0,0,1-.18,1.29,1.32,1.32,0,0,1-1.38.77,5.07,5.07,0,0,1-.94-.09l-.28-1.15a6,6,0,0,0,1,.1c.29,0,.46-.1.52-.28a2.63,2.63,0,0,0,.08-.81,6.31,6.31,0,0,0-1.42-3.92,26.27,26.27,0,0,0,1.24-4h-1.77v13.53H360Zm5,4.95V244h1.17v1.82h2.87v1h-2.87v2.28c.89-.18,1.82-.41,2.8-.68l.08,1a35.87,35.87,0,0,1-4.86,1.21l-.39-1.07Zm2.95,2.26a8.87,8.87,0,0,0,.49-1.51l1.18.21a8.69,8.69,0,0,1-.53,1.3h4.53v7.4h-1.23v-.86h-6.08v.86h-1.23v-7.4Zm-1.64,1v1.73h6.08v-1.73Zm0,2.7v1.85h6.08v-1.85Zm4.37-9.41a15.79,15.79,0,0,0,2.9-1.14l.75,1a20,20,0,0,1-3.65,1.19v1.8c0,.28.09.45.26.49a4.75,4.75,0,0,0,1,.07,5.5,5.5,0,0,0,1.11-.07c.22-.06.36-.26.43-.61a9.46,9.46,0,0,0,.11-1.16l1.09.37c0,.11,0,.28,0,.49a4.25,4.25,0,0,1-.22,1.28,1.11,1.11,0,0,1-1,.67,14,14,0,0,1-1.75.08,4,4,0,0,1-1.81-.25,1.09,1.09,0,0,1-.42-1v-5.2h1.15Z"/><path d="M376.91,245.05a20.26,20.26,0,0,0,4.51-1.1l.8.93a25.22,25.22,0,0,1-4.11,1V248h3.37v1.05h-3.37v2.21h3.37v1h-3.37v2.64c1.33-.19,2.55-.4,3.66-.62l.07,1c-.85.19-1.88.4-3.11.62l-.62.12v3h-1.2v-2.8l-1.06.16-.37-1.17,1.43-.17Zm9.25,11.53a15.36,15.36,0,0,1-4.07,2.54l-.83-1a13.78,13.78,0,0,0,4.07-2.35l-.08-.09a12.41,12.41,0,0,1-2.33-3.54h-.7v-1H389l.7.59a13.58,13.58,0,0,1-2.69,4.05,16.08,16.08,0,0,0,3.75,2.14l-.72,1.12A16.09,16.09,0,0,1,386.16,256.58Zm-2.84-12.1H388v4a.38.38,0,0,0,.09.3.79.79,0,0,0,.41.07c.49,0,.76-.06.82-.18a7.23,7.23,0,0,0,.16-1.75l1.1.44a8.14,8.14,0,0,1-.23,2,.94.94,0,0,1-.64.57,5.36,5.36,0,0,1-1.23.11,2.71,2.71,0,0,1-1.32-.21.87.87,0,0,1-.33-.79v-3.46h-2.36v.13a9.11,9.11,0,0,1-.39,3,3.86,3.86,0,0,1-1.41,1.8l-.85-.88a2.94,2.94,0,0,0,1.33-1.86,8.86,8.86,0,0,0,.19-2.08Zm.79,7.67a11.62,11.62,0,0,0,2.05,2.83,10.29,10.29,0,0,0,1.95-2.83Z"/><rect x="328.58" y="272.92" width="22.42" height="22.42" rx="2"/><rect class="cls-3" x="328.58" y="272.92" width="22.42" height="22.42" rx="2"/><path class="cls-1" d="M337,282.38a.81.81,0,1,0,0,1.62.81.81,0,0,0,0-1.62Z"/><path class="cls-1" d="M342,282.38a.81.81,0,1,0,.81.81A.81.81,0,0,0,342,282.38Z"/><path class="cls-1" d="M344.83,279.14H334.18a1.48,1.48,0,0,0-1.48,1.48V292a1.49,1.49,0,0,0,1.48,1.49h10.65a1.49,1.49,0,0,0,1.48-1.49V280.62A1.48,1.48,0,0,0,344.83,279.14Zm-8,13.42s0,0,0-.05l.17-3.72.16,3.72s0,0,0,.05Zm5,0s0,0,0-.05l.16-3.72.17,3.72a.09.09,0,0,0,0,.05Zm3.56-.55a.54.54,0,0,1-.54.55H343s0,0,0-.05l.16-6.05.15,1.62a.31.31,0,0,0,.33.3.31.31,0,0,0,.3-.33v-2.67c0-1.12-1.35-1.18-1.93-1.18s-1.93.06-1.93,1.18v2.67a.31.31,0,0,0,.3.33.31.31,0,0,0,.33-.3l.15-1.62.16,6.05s0,0,0,.05h-3a.09.09,0,0,0,0-.05l.17-6.05.15,1.62a.3.3,0,0,0,.33.3.31.31,0,0,0,.3-.33v-2.67c0-1.12-1.36-1.18-1.93-1.18s-1.94.06-1.94,1.18v2.67a.32.32,0,0,0,.31.33.31.31,0,0,0,.33-.3l.15-1.62.16,6.05s0,0,0,.05h-1.87a.54.54,0,0,1-.54-.55V280.62a.55.55,0,0,1,.54-.55h10.65a.55.55,0,0,1,.54.55V292Z"/><path class="cls-1" d="M340.66,276.7l1.12-1.11v2.5a.41.41,0,0,0,.82,0v-2.5l1.11,1.11a.42.42,0,0,0,.3.12.42.42,0,0,0,.29-.12.42.42,0,0,0,0-.59l-1.82-1.81-.29-.3-.29.3-1.82,1.81a.42.42,0,0,0,0,.59A.41.41,0,0,0,340.66,276.7Z"/><path class="cls-1" d="M336.72,278.38l.29.29.29-.29,1.82-1.82a.41.41,0,1,0-.58-.58l-1.11,1.11v-2.5a.41.41,0,0,0-.42-.41.41.41,0,0,0-.41.41v2.5L335.49,276a.42.42,0,0,0-.59,0,.41.41,0,0,0,0,.58Z"/><path d="M361.16,278.7h11.41v1.18h-5.14v8.71h6v1.15H360.25v-1.15h5.9v-8.71h-5Z"/><path d="M375.64,277.28H377v11.93a16.67,16.67,0,0,0,6.41-3.6,13.66,13.66,0,0,0,3-3.71l.83,1.23a17,17,0,0,1-4.16,4.39,21,21,0,0,1-6.54,3.23l-.88-.88Z"/><path d="M388.44,287.07a28.78,28.78,0,0,0,4.73-7.84h1.41a43.57,43.57,0,0,0,7.63,9.26l-.81,1.13a50.39,50.39,0,0,1-4.42-4.8,42.94,42.94,0,0,1-3-4.2h-.07a28.55,28.55,0,0,1-4.45,7.36Zm10.24-5.55a11.69,11.69,0,0,0-1.41-2.61l1-.37a11.92,11.92,0,0,1,1.43,2.58Zm2-.71a13.44,13.44,0,0,0-1.39-2.62l.92-.34a10.26,10.26,0,0,1,1.41,2.53Z"/><path d="M404.07,283.09h13.49v1.23H404.07Z"/><path d="M430.58,278.73l.87.75A16,16,0,0,1,428,287a12.66,12.66,0,0,1-3.33,2.54,15,15,0,0,1-3.23,1.3l-.66-1.11a12.91,12.91,0,0,0,6.32-3.62,25.29,25.29,0,0,0-4.19-3.14l.74-.91a23.91,23.91,0,0,1,4.22,3,14.12,14.12,0,0,0,2.16-5.23h-5.76a13.76,13.76,0,0,1-4.3,4.41l-.85-.89a12.1,12.1,0,0,0,5.18-6.44l1.23.32,0,.05c-.23.56-.43,1-.62,1.41Z"/><path d="M433.51,283.09H447v1.23H433.51Z"/><rect x="328.5" y="305.67" width="22.33" height="22.33" rx="2"/><rect class="cls-3" x="328.5" y="305.67" width="22.33" height="22.33" rx="2"/><rect class="cls-1" x="339.09" y="308.81" width="1.04" height="16.47"/><path class="cls-1" d="M334.22,311.56a1.38,1.38,0,1,0-1.38-1.38A1.37,1.37,0,0,0,334.22,311.56Z"/><path class="cls-1" d="M336.9,313.52c-.28-.94-.9-1.57-1.61-1.57h-2.15c-.7,0-1.33.63-1.61,1.57l-1,3.59a.57.57,0,0,0,.41.69.55.55,0,0,0,.68-.4l1-3.59h.3l-1.76,6.24h1.66v4.62a.64.64,0,0,0,1.28,0v-4.62h.35v4.62a.64.64,0,0,0,.64.64.64.64,0,0,0,.64-.64v-4.62h1.54l-1.76-6.24h.3l1,3.59a.55.55,0,0,0,.68.4.56.56,0,0,0,.41-.69Z"/><path class="cls-1" d="M345.21,311.56a1.38,1.38,0,1,0-1.38-1.38A1.37,1.37,0,0,0,345.21,311.56Z"/><path class="cls-1" d="M346.9,312h-3.61a1.54,1.54,0,0,0-1.39,1.39V318a.6.6,0,1,0,1.2,0v-3.8h.28v10.32a.8.8,0,1,0,1.59,0v-6h.25v6a.8.8,0,1,0,1.59,0V314.16h.28V318a.61.61,0,1,0,1.21,0v-4.62A1.55,1.55,0,0,0,346.9,312Z"/><path d="M361.36,309.32h1.31v4.45a48.83,48.83,0,0,1,7.66,2.93l-.65,1.19a48.39,48.39,0,0,0-7-2.87v8h-1.31Z"/><path d="M377.77,322.93v-8.26a27.24,27.24,0,0,1-5.68,2.88l-.7-1.12a23.07,23.07,0,0,0,6-3,24.53,24.53,0,0,0,4.51-4.1l1.1.69a32.28,32.28,0,0,1-3.93,3.69v9.21Z"/><path d="M385.5,309.5h1.31v11.93a16.78,16.78,0,0,0,6.42-3.6,13.47,13.47,0,0,0,3-3.71l.83,1.23a17,17,0,0,1-4.16,4.39,20.82,20.82,0,0,1-6.54,3.23l-.88-.88Z"/><path d="M332.88,69h21.84v3.84H336.67l-1.55,13.55h.19a13.16,13.16,0,0,1,8.91-3.14,12.88,12.88,0,0,1,8.53,2.91,11.69,11.69,0,0,1,4.13,9.49,12.72,12.72,0,0,1-1.95,7,12.28,12.28,0,0,1-6.66,5.18,16.63,16.63,0,0,1-5.32.82q-8,0-13-4.57l2.39-3a13.58,13.58,0,0,0,4.59,2.68,17.79,17.79,0,0,0,6,1.07,9,9,0,0,0,6.85-2.81,8.81,8.81,0,0,0,2.41-6.3A8.56,8.56,0,0,0,350,89.49a8.76,8.76,0,0,0-6.77-2.65,11.73,11.73,0,0,0-5.79,1.5,8.13,8.13,0,0,0-2.81,2.48l-4-.58Z"/><path d="M376,67.41H386.8l1.88,1.69a102.82,102.82,0,0,1-4.27,13.31,21.16,21.16,0,0,1,4.39,12.65,11.14,11.14,0,0,1-.54,3.9q-.92,2.3-4.15,2.29a15.31,15.31,0,0,1-2.81-.26l-.82-3.44a19.54,19.54,0,0,0,3,.28c.86,0,1.39-.28,1.57-.84a8.44,8.44,0,0,0,.24-2.42,19,19,0,0,0-4.27-11.76,78.55,78.55,0,0,0,3.73-12.14h-5.32v40.57H376Zm15.12,14.86V66.12h3.52v5.46h8.6v3.16h-8.6v6.85q4-.82,8.39-2l.25,2.93a108.32,108.32,0,0,1-14.6,3.63l-1.17-3.21C389.14,82.64,390.34,82.42,391.14,82.27ZM400,89a26.13,26.13,0,0,0,1.45-4.52l3.57.63a28.11,28.11,0,0,1-1.6,3.89H417v22.2h-3.71v-2.56H395.08v2.56h-3.7V89Zm-4.92,3V97.2h18.23V92Zm0,8.11v5.53h18.23v-5.53Zm13.1-28.24a47.34,47.34,0,0,0,8.7-3.43l2.24,2.89a58.74,58.74,0,0,1-10.94,3.56v5.41c0,.85.26,1.34.77,1.48a15.17,15.17,0,0,0,3.17.21,16.2,16.2,0,0,0,3.33-.23c.65-.18,1.08-.79,1.28-1.83a26.31,26.31,0,0,0,.33-3.47l3.26,1.1c0,.34-.05.84-.09,1.48a13.06,13.06,0,0,1-.68,3.84,3.42,3.42,0,0,1-2.89,2,42.14,42.14,0,0,1-5.25.23q-4.26,0-5.41-.75a3.29,3.29,0,0,1-1.27-3V65.81h3.45Z"/><line class="cls-6" x1="1005.5" y1="368.5" x2="1005.5" y2="422.5"/><rect x="950.14" y="381.1" width="29.5" height="29.5" rx="2"/><rect class="cls-3" x="950.14" y="381.1" width="29.5" height="29.5" rx="2"/><polygon class="cls-1" points="969.43 386.77 969.43 391.66 964 391.66 964 396.55 958.57 396.55 958.57 401.44 954.4 401.44 954.4 403.95 961.08 403.95 961.08 399.06 966.51 399.06 966.51 394.17 971.94 394.17 971.94 389.28 976.11 389.28 976.11 386.77 969.43 386.77"/><rect class="cls-7" x="1165.5" y="81.5" width="112" height="97"/><rect class="cls-7" x="1039.5" y="81.5" width="126" height="97"/><rect class="cls-5" x="1277.5" y="81.5" width="48" height="85"/><rect class="cls-5" x="1325.5" y="81.5" width="48" height="85"/><rect class="cls-7" x="328.5" y="206.5" width="23" height="23"/><path d="M364.68,214.66a14.89,14.89,0,0,0,2.32-3.5l.93.66a19.14,19.14,0,0,1-1.9,2.84h1.47v1.05h-2.38a17.49,17.49,0,0,1-2,1.8h3.52l.5.64a16.34,16.34,0,0,1-2.29,1.78v.75l.29,0c.68-.08,1.55-.22,2.59-.39l.05,1c-.84.18-1.73.34-2.67.49l-.26,0v2.51a1.28,1.28,0,0,1-.3,1,1.47,1.47,0,0,1-.94.22c-.5,0-1.12,0-1.85-.07l-.26-1.1a13.77,13.77,0,0,0,1.8.15c.25,0,.38-.13.38-.4v-2.12l-1,.14c-.87.11-1.73.21-2.58.29l-.3-1.1c1.3-.11,2.6-.24,3.89-.39v-1.27a9.64,9.64,0,0,0,1.54-1.07H361.8c-.61.4-1.17.75-1.68,1l-.66-.9a20.13,20.13,0,0,0,4.14-2.9h-4v-1.05h3.09V212.9h-2.45v-1h2.45v-1.63h1.17v1.63h2v1h-2v1.76Zm5.73,6.11a19.75,19.75,0,0,1-1.74-4.21,15.39,15.39,0,0,1-.81,1.46l-.82-1a19.43,19.43,0,0,0,2.28-6.71l1.18.23c-.16.87-.36,1.72-.59,2.58h4.84v1.1h-1.26l0,.15a18.68,18.68,0,0,1-1.72,6.43,15.32,15.32,0,0,0,3.23,3.37l-.73,1.18a16.53,16.53,0,0,1-3.13-3.42,11.07,11.07,0,0,1-3.59,3.56l-.82-1A9.45,9.45,0,0,0,370.41,220.77Zm.61-1.19a18.51,18.51,0,0,0,1.28-5.35h-2.73q-.17.53-.24.72A19.07,19.07,0,0,0,371,219.58Z"/><path d="M382,215.48a.37.37,0,0,0-.06.1,16.72,16.72,0,0,1-1.73,2.2h.8c1.2,0,2.59-.07,4.18-.14l1.77-.08c-.53-.5-1.06-1-1.6-1.43l1-.58a37.46,37.46,0,0,1,3,2.69l.41.41-1,.75c-.31-.34-.59-.65-.84-.91l-.11-.11c-.29,0-1.63.12-4,.27v2.07h5.5v1h-5.5v2.07h6.82v1H375.82v-1h6.71v-2.07h-5.37v-1h5.37v-2l-.85,0c-1.28.06-2.7.1-4.26.14l-.39-1.07,1.78,0a18.29,18.29,0,0,0,1.76-2.32H378v-1h10.44v1Zm1.79-3.54h6.37v3H388.9v-2H377.5v2h-1.25v-3h6.28v-1.69h1.25Z"/><path d="M1084.24,122.18h1.87v9.19h2.63v1.31h-2.63V136h-1.5v-3.35h-7v-1.29Zm.37,9.19v-4.89q0-1.42.09-2.94h-.07a17.49,17.49,0,0,1-1.24,2.15l-4.05,5.68Z"/><path d="M1094,128.13h1.07a5.45,5.45,0,0,0,2.55-.51,2.9,2.9,0,0,0,.41-.27,2.21,2.21,0,0,0,.84-1.75,2,2,0,0,0-.88-1.72,3.59,3.59,0,0,0-2.07-.56,5,5,0,0,0-3.48,1.49l-1-1a6,6,0,0,1,1.51-1.07,6.72,6.72,0,0,1,3-.7,5.71,5.71,0,0,1,2.82.66,3.13,3.13,0,0,1,.72,5.12,3.89,3.89,0,0,1-2.27.93v.07a4.78,4.78,0,0,1,2.73,1,3.19,3.19,0,0,1,1,2.51,3.47,3.47,0,0,1-1.56,3,6.1,6.1,0,0,1-3.54.92,6.58,6.58,0,0,1-4.93-1.94l1-1.05a4.71,4.71,0,0,0,1.21.93,5.58,5.58,0,0,0,2.73.7,4,4,0,0,0,2.57-.75,2.28,2.28,0,0,0,.83-1.88q0-2.9-4.3-2.89h-1Z"/><path d="M1109.27,122a4.34,4.34,0,0,1,3.77,2,9.06,9.06,0,0,1,1.28,5.13,9.6,9.6,0,0,1-1.08,4.85,4.39,4.39,0,0,1-4,2.35,4.35,4.35,0,0,1-3.83-2.11,9.28,9.28,0,0,1-1.23-5.09,8.82,8.82,0,0,1,1.37-5.25A4.3,4.3,0,0,1,1109.27,122Zm0,1.33a2.79,2.79,0,0,0-2.54,1.72,8.87,8.87,0,0,0-.81,4.12,9.11,9.11,0,0,0,.7,3.87,2.89,2.89,0,0,0,2.67,1.95,2.79,2.79,0,0,0,2.51-1.66,10.58,10.58,0,0,0-.07-8.47A2.75,2.75,0,0,0,1109.24,123.32Z"/><path d="M1122.18,122a4.33,4.33,0,0,1,3.77,2,9,9,0,0,1,1.29,5.13,9.49,9.49,0,0,1-1.09,4.85,4.54,4.54,0,0,1-7.81.24,9.28,9.28,0,0,1-1.24-5.09,8.89,8.89,0,0,1,1.37-5.25A4.33,4.33,0,0,1,1122.18,122Zm0,1.33a2.78,2.78,0,0,0-2.54,1.72,8.86,8.86,0,0,0-.82,4.12,9.27,9.27,0,0,0,.7,3.87,2.89,2.89,0,0,0,2.67,1.95,2.78,2.78,0,0,0,2.51-1.66,10.52,10.52,0,0,0-.06-8.47A2.75,2.75,0,0,0,1122.16,123.32Z"/><path d="M1198.75,122.26h7.74v1.36h-6.4l-.54,4.8h.06a4.67,4.67,0,0,1,3.16-1.11,4.6,4.6,0,0,1,3,1,4.18,4.18,0,0,1,1.46,3.37,4.47,4.47,0,0,1-.69,2.46,4.37,4.37,0,0,1-2.36,1.84,5.93,5.93,0,0,1-1.88.29,6.53,6.53,0,0,1-4.61-1.62l.85-1.07a4.77,4.77,0,0,0,1.63.94,6.16,6.16,0,0,0,2.13.39,3.21,3.21,0,0,0,2.42-1,3.13,3.13,0,0,0,.86-2.23,3.09,3.09,0,0,0-.79-2.18,3.13,3.13,0,0,0-2.4-.94,4.11,4.11,0,0,0-2.05.54,2.78,2.78,0,0,0-1,.88l-1.41-.21Z"/><path d="M1213,128.13h1.07a5.45,5.45,0,0,0,2.55-.51,2.9,2.9,0,0,0,.41-.27,2.21,2.21,0,0,0,.84-1.75,2,2,0,0,0-.88-1.72,3.59,3.59,0,0,0-2.07-.56,5,5,0,0,0-3.48,1.5l-1-1a5.71,5.71,0,0,1,1.51-1.06,6.73,6.73,0,0,1,3-.71,5.71,5.71,0,0,1,2.82.66,3.14,3.14,0,0,1,.72,5.13,4,4,0,0,1-2.27.93v.06a4.78,4.78,0,0,1,2.73,1,3.19,3.19,0,0,1,1,2.51,3.47,3.47,0,0,1-1.56,3,6.1,6.1,0,0,1-3.54.92,6.58,6.58,0,0,1-4.93-1.94l1-1a4.91,4.91,0,0,0,1.21.92,5.58,5.58,0,0,0,2.73.7,4,4,0,0,0,2.57-.74,2.31,2.31,0,0,0,.83-1.89c0-1.92-1.43-2.89-4.3-2.89h-1Z"/><path d="M1228.27,122a4.34,4.34,0,0,1,3.77,2,9.06,9.06,0,0,1,1.28,5.13,9.49,9.49,0,0,1-1.09,4.85,4.54,4.54,0,0,1-7.81.24,9.26,9.26,0,0,1-1.23-5.09,8.82,8.82,0,0,1,1.37-5.25A4.3,4.3,0,0,1,1228.27,122Zm0,1.33a2.78,2.78,0,0,0-2.54,1.72,8.87,8.87,0,0,0-.81,4.12,9.08,9.08,0,0,0,.7,3.87,2.89,2.89,0,0,0,2.67,1.95,2.79,2.79,0,0,0,2.51-1.66,10.58,10.58,0,0,0-.07-8.47A2.75,2.75,0,0,0,1228.24,123.32Z"/><path d="M1241.18,122a4.33,4.33,0,0,1,3.77,2,9,9,0,0,1,1.29,5.13,9.49,9.49,0,0,1-1.09,4.85,4.54,4.54,0,0,1-7.81.24,9.26,9.26,0,0,1-1.24-5.09,8.89,8.89,0,0,1,1.37-5.25A4.33,4.33,0,0,1,1241.18,122Zm0,1.33a2.78,2.78,0,0,0-2.54,1.72,8.86,8.86,0,0,0-.82,4.12,9.24,9.24,0,0,0,.7,3.87,2.89,2.89,0,0,0,2.67,1.95,2.78,2.78,0,0,0,2.51-1.66,10.52,10.52,0,0,0-.06-8.47A2.75,2.75,0,0,0,1241.16,123.32Z"/><rect class="cls-4" x="1165.5" y="772.5" width="107" height="93"/><rect class="cls-7" x="1042.5" y="899.5" width="112" height="93"/><rect class="cls-7" x="1154.5" y="899.5" width="112" height="93"/><rect class="cls-7" x="1266.5" y="899.5" width="112" height="93"/><rect class="cls-7" x="897.5" y="899.5" width="106" height="93"/><rect class="cls-7" x="786.5" y="899.5" width="111" height="93"/><rect class="cls-7" x="553.5" y="899.5" width="233" height="93"/><rect class="cls-5" x="1165.5" y="230" width="58" height="78.5"/><rect class="cls-5" x="1223.5" y="230" width="58" height="78.5"/><rect class="cls-5" x="790.5" y="230" width="58" height="78.5"/><rect class="cls-5" x="848.5" y="230" width="58" height="78.5"/><rect class="cls-5" x="674.5" y="230" width="58" height="78.5"/><rect class="cls-5" x="732.5" y="230" width="58" height="78.5"/><rect class="cls-5" x="558.5" y="230" width="58" height="78.5"/><rect class="cls-5" x="616.5" y="230" width="58" height="78.5"/><rect class="cls-2" x="906.5" y="210.5" width="19" height="98"/><rect class="cls-4" x="906.5" y="81.5" width="99" height="97"/><rect class="cls-4" x="710.5" y="81.5" width="196" height="97"/><rect class="cls-4" x="558.5" y="81.5" width="152" height="97"/><rect class="cls-4" x="853.5" y="772.5" width="44" height="93"/><rect class="cls-4" x="809.5" y="772.5" width="44" height="93"/><rect class="cls-4" x="738.5" y="772.5" width="72" height="93"/><rect class="cls-4" x="649.5" y="772.5" width="89" height="93"/><rect class="cls-4" x="601.5" y="772.5" width="48" height="93"/><rect class="cls-4" x="553.5" y="772.5" width="48" height="63"/><path d="M1079.65,938.69h1.87v9.2h2.63v1.31h-2.63v3.35H1080V949.2h-7v-1.29Zm.37,9.2V943c0-.94,0-1.92.08-2.93H1080a16.12,16.12,0,0,1-1.25,2.15l-4,5.68Z"/><path d="M1086.94,952.55v-1.38c.52-1.83,1.93-3.53,4.25-5.1l.47-.32a16,16,0,0,0,2-1.55,2.77,2.77,0,0,0,.93-2,2.09,2.09,0,0,0-.76-1.66,3.22,3.22,0,0,0-2.14-.69,4.71,4.71,0,0,0-3.6,1.79l-1.07-.93a5.67,5.67,0,0,1,4.68-2.2,5.4,5.4,0,0,1,2.79.69,3.35,3.35,0,0,1,1.8,3.06,3.46,3.46,0,0,1-1.14,2.54,18.36,18.36,0,0,1-2.22,1.69l-.28.2-.59.41c-2.09,1.43-3.28,2.77-3.56,4h8v1.45Z"/><path d="M1104.67,938.51a4.31,4.31,0,0,1,3.77,2,9,9,0,0,1,1.29,5.13,9.49,9.49,0,0,1-1.09,4.85,4.54,4.54,0,0,1-7.81.24,9.28,9.28,0,0,1-1.24-5.09,8.93,8.93,0,0,1,1.37-5.26A4.34,4.34,0,0,1,1104.67,938.51Zm0,1.33a2.78,2.78,0,0,0-2.54,1.72,8.83,8.83,0,0,0-.81,4.11,9.3,9.3,0,0,0,.69,3.88,2.88,2.88,0,0,0,2.68,1.94,2.77,2.77,0,0,0,2.5-1.65,10.52,10.52,0,0,0-.06-8.47A2.75,2.75,0,0,0,1104.65,939.84Z"/><path d="M1117.59,938.51a4.31,4.31,0,0,1,3.77,2,9,9,0,0,1,1.29,5.13,9.59,9.59,0,0,1-1.09,4.85,4.54,4.54,0,0,1-7.81.24,9.2,9.2,0,0,1-1.24-5.09,8.93,8.93,0,0,1,1.37-5.26A4.33,4.33,0,0,1,1117.59,938.51Zm0,1.33a2.78,2.78,0,0,0-2.54,1.72,8.69,8.69,0,0,0-.82,4.11,9.13,9.13,0,0,0,.7,3.88,2.88,2.88,0,0,0,2.67,1.94,2.77,2.77,0,0,0,2.51-1.65,8.59,8.59,0,0,0,.85-4.16,8.44,8.44,0,0,0-.92-4.31A2.73,2.73,0,0,0,1117.57,939.84Z"/><path d="M1193.27,939h1.87v9.2h2.63v1.31h-2.63v3.34h-1.5V949.5h-7v-1.3Zm.37,9.2v-4.9q0-1.41.09-2.94h-.07a18.6,18.6,0,0,1-1.24,2.16l-4.05,5.68Z"/><path d="M1204.11,952.84V940.55a19.59,19.59,0,0,1-3.33,1l-.34-1.22a14.67,14.67,0,0,0,4.09-1.51h1.11v14Z"/><path d="M1216.09,938.81a4.33,4.33,0,0,1,3.77,2,9,9,0,0,1,1.28,5.13,9.57,9.57,0,0,1-1.08,4.85,4.36,4.36,0,0,1-4,2.35,4.3,4.3,0,0,1-3.82-2.11A9.15,9.15,0,0,1,1211,946a8.91,8.91,0,0,1,1.37-5.25A4.33,4.33,0,0,1,1216.09,938.81Zm0,1.33a2.8,2.8,0,0,0-2.54,1.71,8.9,8.9,0,0,0-.81,4.12,9.16,9.16,0,0,0,.7,3.88,2.89,2.89,0,0,0,2.67,1.94,2.78,2.78,0,0,0,2.51-1.65,8.62,8.62,0,0,0,.85-4.16,8.46,8.46,0,0,0-.92-4.32A2.74,2.74,0,0,0,1216.06,940.14Z"/><path d="M1229,938.81a4.32,4.32,0,0,1,3.77,2,9,9,0,0,1,1.29,5.13,9.47,9.47,0,0,1-1.09,4.85,4.54,4.54,0,0,1-7.81.24,9.24,9.24,0,0,1-1.24-5.09,8.91,8.91,0,0,1,1.37-5.25A4.34,4.34,0,0,1,1229,938.81Zm0,1.33a2.78,2.78,0,0,0-2.54,1.71,8.9,8.9,0,0,0-.81,4.12,9.33,9.33,0,0,0,.69,3.88,2.89,2.89,0,0,0,2.68,1.94,2.77,2.77,0,0,0,2.5-1.65,10.55,10.55,0,0,0-.06-8.48A2.74,2.74,0,0,0,1229,940.14Z"/><path d="M1300.78,940.07h7.74v1.36h-6.4l-.54,4.8h.06a4.67,4.67,0,0,1,3.16-1.11,4.55,4.55,0,0,1,3,1,4.14,4.14,0,0,1,1.46,3.36,4.53,4.53,0,0,1-.69,2.47,4.31,4.31,0,0,1-2.36,1.83,5.88,5.88,0,0,1-1.88.29,6.55,6.55,0,0,1-4.61-1.62l.85-1.07a4.8,4.8,0,0,0,1.63,1,6.38,6.38,0,0,0,2.13.38,3.18,3.18,0,0,0,2.42-1,3.11,3.11,0,0,0,.86-2.23,3,3,0,0,0-.79-2.17,3.1,3.1,0,0,0-2.4-.94,4.2,4.2,0,0,0-2,.53,2.88,2.88,0,0,0-1,.88l-1.41-.21Z"/><path d="M1316.11,953.84V941.55a19.59,19.59,0,0,1-3.33,1l-.34-1.22a14.67,14.67,0,0,0,4.09-1.51h1.11v14Z"/><path d="M1328.09,939.81a4.33,4.33,0,0,1,3.77,2,9,9,0,0,1,1.28,5.14,9.56,9.56,0,0,1-1.08,4.84,4.36,4.36,0,0,1-4,2.35,4.3,4.3,0,0,1-3.82-2.11A9.14,9.14,0,0,1,1323,947a8.93,8.93,0,0,1,1.37-5.26A4.33,4.33,0,0,1,1328.09,939.81Zm0,1.33a2.8,2.8,0,0,0-2.54,1.71,8.9,8.9,0,0,0-.81,4.12,9.16,9.16,0,0,0,.7,3.88,2.89,2.89,0,0,0,2.67,1.94,2.78,2.78,0,0,0,2.51-1.65,8.62,8.62,0,0,0,.85-4.16,8.46,8.46,0,0,0-.92-4.32A2.74,2.74,0,0,0,1328.06,941.14Z"/><path d="M1341,939.81a4.32,4.32,0,0,1,3.77,2,9,9,0,0,1,1.29,5.14,9.45,9.45,0,0,1-1.09,4.84,4.54,4.54,0,0,1-7.81.24,9.22,9.22,0,0,1-1.24-5.08,8.93,8.93,0,0,1,1.37-5.26A4.34,4.34,0,0,1,1341,939.81Zm0,1.33a2.78,2.78,0,0,0-2.54,1.71,8.9,8.9,0,0,0-.81,4.12,9.33,9.33,0,0,0,.69,3.88,2.89,2.89,0,0,0,2.68,1.94,2.77,2.77,0,0,0,2.5-1.65,10.55,10.55,0,0,0-.06-8.48A2.74,2.74,0,0,0,1341,941.14Z"/><path d="M580.36,253.67h6.4v3.15h-1.25v-2.13H574v2.13h-1.23v-3.15h6.32V252h1.23Zm4.19,2.56v4h-4.38a11.22,11.22,0,0,1-.62,1.68H586v5.27h-1.32v-.85h-9.79v.85h-1.3v-5.27h4.63a12.46,12.46,0,0,0,.6-1.68H575v-4Zm-9.63,6.67v2.38h9.79V262.9Zm1.29-5.68v2h7.07v-2Z"/><path d="M602.32,253.24v13.42h-1.25v-1.22h-10.5v1.2h-1.25v-13.4Zm-11.75,1.11v4.23h4.57v-4.23Zm0,5.33v4.61h4.57v-4.61Zm10.5-1.1v-4.23h-4.69v4.23Zm0,5.71v-4.61h-4.69v4.61Z"/><path d="M573.52,288.16a10.39,10.39,0,0,1-2.35-3.15,10.07,10.07,0,0,1-1.12-4.46,10.31,10.31,0,0,1,1.41-5,10.06,10.06,0,0,1,2.06-2.59h1.17a18.72,18.72,0,0,0-1.69,2.22,10,10,0,0,0-1.62,5.39,9.88,9.88,0,0,0,1.45,5.1,16.53,16.53,0,0,0,1.86,2.5Z"/><path d="M588.39,277.56h6.07v9.09a1.31,1.31,0,0,1-.42,1.12,2.19,2.19,0,0,1-1.24.25c-.76,0-1.47,0-2.15-.09l-.29-1.22a19.53,19.53,0,0,0,2.29.13c.26,0,.42,0,.49-.14a.69.69,0,0,0,.07-.34v-7.71H582.44v9.51h-1.25v-10.6h5.94V273h1.26Zm-4.89-.35a18.45,18.45,0,0,0-1.86-3.14l1.06-.55a15.84,15.84,0,0,1,1.93,3.08Zm7.61,3.2v4.67H585.6v1h-1.21v-5.69Zm-1.2,1H585.6V284h4.31Zm.76-4.61a18.39,18.39,0,0,0,2-3.41l1.19.57a21.36,21.36,0,0,1-2.15,3.37Z"/><path d="M600.93,288.16a19,19,0,0,0,1.69-2.23,9.67,9.67,0,0,0,.17-10.48,17.59,17.59,0,0,0-1.86-2.5h1.17a10.47,10.47,0,0,1,2.35,3.15,9.48,9.48,0,0,1-.3,9.46,9.71,9.71,0,0,1-2,2.6Z"/><path d="M631.73,270.19a16.51,16.51,0,0,1-2,4.19l-.63-1.18a16,16,0,0,0,2.49-5.18h-2.31v-1.1h2.48v-2.53c-.53.13-1.17.25-1.91.36l-.49-.94a21.41,21.41,0,0,0,4.8-1.25l.73.89c-.58.23-1.24.44-2,.65v2.82h2V268h-2v1.26a15.75,15.75,0,0,1,2.08,1.89l-.71,1.06a18.13,18.13,0,0,0-1.37-1.68v7.1h-1.15Zm3.16-6.07a46.19,46.19,0,0,0,8.07-1.49l.83.94a51.84,51.84,0,0,1-8.37,1.56Zm.31,5.26h1.13v8.28H635.2Zm1.6-.53a17.66,17.66,0,0,0-1.12-3l1.06-.37a17.4,17.4,0,0,1,1.11,3Zm7,.52v8.29h-1.12v-.84h-3.88v.84h-1.1v-8.29Zm-4.26-.92a18.39,18.39,0,0,0-1-3.07l1.07-.35a18.15,18.15,0,0,1,1,3.06Zm-.74,1.91v2.16h3.88v-2.16Zm0,3.12v2.33h3.88v-2.33Zm2.53-5a26.4,26.4,0,0,0,1.54-3.76l1.23.41a30.61,30.61,0,0,1-1.74,3.71Z"/><path d="M652.61,264.93v2.38l6.45-.55.08,1.1-6.53.57v2.31l7.65-.65.08,1.1-7.73.67v3.38c0,.39.15.62.46.7a12.84,12.84,0,0,0,2.37.12,13.64,13.64,0,0,0,2.77-.16c.29-.09.46-.36.52-.81s.09-.92.12-1.69l1.29.43a7.76,7.76,0,0,1-.3,2.3,1.56,1.56,0,0,1-1.34.94,26,26,0,0,1-3.5.15,22.64,22.64,0,0,1-2.42-.08,1.32,1.32,0,0,1-1.09-.65,1.88,1.88,0,0,1-.17-.89V272l-5.83.51-.11-1.12,5.94-.52v-2.31l-5.06.45-.12-1.11,5.18-.45v-2.24c-1.62.29-3.14.51-4.57.65l-.52-1a51,51,0,0,0,10.83-2.2l.88.92a49.86,49.86,0,0,1-5.18,1.39Z"/><path d="M695.14,264.09V263h1.23v1.14h6V265h-6v1h5.14v.93h-5.14v1h7v.94H688.21V268h6.93v-1h-5V266h5v-1h-5.92v-.94Zm6,5.82v6.86a1.32,1.32,0,0,1-.33,1,1.7,1.7,0,0,1-1.16.31c-.6,0-1.38,0-2.35-.11l-.24-1.14a21.72,21.72,0,0,0,2.25.14c.26,0,.43-.06.49-.17a.89.89,0,0,0,.06-.37V275h-8v3.12h-1.28v-8.24Zm-9.31.93V272h8v-1.12Zm0,2.07v1.18h8v-1.18Z"/><path d="M712.75,267.48a18.69,18.69,0,0,0,6.68,7l-.88,1.17a21.17,21.17,0,0,1-6.14-6.78v9.28h-1.3v-9.1a17.48,17.48,0,0,1-2.27,3.49,18.35,18.35,0,0,1-3.73,3.41l-.88-1a17.78,17.78,0,0,0,6.58-7.46h-6.2V266.3h6.5V263h1.3v3.35H719v1.18Z"/><path d="M750.73,269.78h9.17v8.38h-1.31V277h-8v1.17h-1.29v-6.53a19.14,19.14,0,0,1-2.46,2.3l-.76-1a15.55,15.55,0,0,0,5.63-7.82h-5V264h14.4v1.13h-8A19.21,19.21,0,0,1,750.73,269.78Zm-.16,1.1v5h8v-5Z"/><path d="M776,270.24v6.62a1.22,1.22,0,0,1-.36,1,1.74,1.74,0,0,1-1.1.27c-.65,0-1.29,0-1.92-.1l-.27-1.17a14.54,14.54,0,0,0,1.94.16c.24,0,.39,0,.45-.14a.67.67,0,0,0,.07-.36v-6.28h-7.09v4.93h-4.12v1.29H762.5V265.85h1.06v8.2h1V263.13h1.07v10.92h1v-8.2h1v3.33h9.74v1.06Zm-4.31-5.67V263h1.17v1.62h3.82v1h-3.88a3.37,3.37,0,0,1-.12.41,32.31,32.31,0,0,1,3.82,2l-.75.9a38.76,38.76,0,0,0-3.5-2A4.45,4.45,0,0,1,771.1,268a6.53,6.53,0,0,1-2.17,1l-.65-.92a5.4,5.4,0,0,0,2.32-1,3,3,0,0,0,1-1.42h-3.35v-1Zm1.81,7v4h-3.58v.84h-1.06v-4.81Zm-3.58,1v2h2.54v-2Z"/><path d="M804.36,273.92a18.82,18.82,0,0,0,2.4-7.58l1.3.29a21.3,21.3,0,0,1-2.58,8.16Zm6.78-10.81h1.32v13.31a1.74,1.74,0,0,1-.29,1.13,2.09,2.09,0,0,1-1.49.38c-.8,0-1.54,0-2.21-.08l-.29-1.36a18.08,18.08,0,0,0,2.35.16.73.73,0,0,0,.54-.14.69.69,0,0,0,.07-.37Zm6.92,11.63a57.34,57.34,0,0,0-3-8.29l1.19-.52a50.32,50.32,0,0,1,3.08,8.13Z"/><path d="M823.32,269.85a19,19,0,0,1-2.45,4.87l-.7-1.18a17.24,17.24,0,0,0,3-6H820.4v-1.13h2.92V263h1.21v3.49H827v1.13h-2.42V269a20.25,20.25,0,0,1,2.66,2.38l-.72,1.11a21.72,21.72,0,0,0-1.94-2.15v7.86h-1.21Zm8.57-2.28a17.1,17.1,0,0,0,3.69,6.4l-.73,1.39a19.6,19.6,0,0,1-3.18-6v8.76h-1.21v-8.61a19.3,19.3,0,0,1-1.39,3.51,15.31,15.31,0,0,1-1.76,2.58l-.79-1.16a15.5,15.5,0,0,0,3.7-6.9h-2.69v-1.13h2.93V263h1.21v3.49h3.58v1.13Z"/><path d="M870.39,275.34h4.51v-9.06h1.3V278h-1.3v-1.46H864.71V278h-1.29V266.28h1.29v9.06h4.4V263.11h1.28Z"/><path d="M886.84,267.17a19.54,19.54,0,0,0,2.87,3.76,18,18,0,0,0,3.75,3l-.82,1.1a20.55,20.55,0,0,1-4.29-3.88,18.14,18.14,0,0,1-2-2.87v5.51h3.18v1.13h-3.15v3.24h-1.3v-3.24h-3v-1.13h3v-5.41a16.6,16.6,0,0,1-2.75,4.09,18.13,18.13,0,0,1-3.31,2.91l-.85-1a18.08,18.08,0,0,0,6.45-7.19H878.6V266h6.51v-3h1.3v3H893v1.18Z"/><path d="M1183,269.45h9.17v8.37h-1.31v-1.17h-8v1.17h-1.3V271.3a20.52,20.52,0,0,1-2.45,2.3l-.77-1a15.53,15.53,0,0,0,5.63-7.81h-5v-1.13h14.4v1.13h-8A19.39,19.39,0,0,1,1183,269.45Zm-.15,1.1v5h8v-5Z"/><path d="M1202.63,265.08a9.66,9.66,0,0,0,.48-.84c-.81.08-1.7.15-2.65.2l-.47-.9a41.86,41.86,0,0,0,7.38-.94l.85.83a33.62,33.62,0,0,1-3.87.67,8.09,8.09,0,0,1-.48,1h5.69v1h-2.85a11.39,11.39,0,0,0,3.11,2.15l-.66.89a10.34,10.34,0,0,1-2-1.31v2.37h-5.62v-2.22a11.16,11.16,0,0,1-1.81,1.25l-.72-.85a9.13,9.13,0,0,0,2.94-2.28h-2.61v1.09h-1.52v1.5a22,22,0,0,1,1.88,1.8l-.66,1c-.41-.56-.82-1.07-1.22-1.53v7.88h-1.12V269.6a19.23,19.23,0,0,1-1.84,4.58l-.57-1.24a18.35,18.35,0,0,0,2.29-5.81h-2.1V266h2.22v-3.39h1.12V266h1.45v-.93Zm6.45,5.94v5.66a.94.94,0,0,1-.3.8,1.5,1.5,0,0,1-.91.21,12.2,12.2,0,0,1-1.46-.08l-.24-1a11.58,11.58,0,0,0,1.42.1c.17,0,.27,0,.31-.12a.83.83,0,0,0,0-.31V272h-7.12v5.87h-1.1V271Zm-2.48,1.87v2.92h-3.52v.91H1202v-3.83Zm-4.2-5.81h4a11,11,0,0,1-.88-1l-.06-.08h-2.18A10.54,10.54,0,0,1,1202.4,267.08Zm3.65.9h-3.48v1.28h3.48Zm-.54,5.8h-2.43v1.13h2.43Z"/><path d="M1238.59,263.31h1.33v5.74a19.11,19.11,0,0,1-.57,5.34,8.4,8.4,0,0,1-1.78,3.06l-1-.92a6.94,6.94,0,0,0,1.77-3.53,19.81,19.81,0,0,0,.29-3.83Zm5,.29h1.29v12.65h-1.29Zm5.26-.61h1.33v14.62h-1.33Z"/><path d="M1266.18,269.9v6.63a1.23,1.23,0,0,1-.36,1,1.79,1.79,0,0,1-1.1.26q-1,0-1.92-.09l-.27-1.17a14.67,14.67,0,0,0,1.94.16q.36,0,.45-.15a.63.63,0,0,0,.07-.35V269.9h-7.09v4.93h-4.12v1.3h-1.06V265.52h1.06v8.19h1V262.8h1.07v10.91h1v-8.19h1v3.33h9.75v1Zm-4.31-5.66v-1.62H1263v1.62h3.83v1H1263a3.26,3.26,0,0,1-.11.4,33.12,33.12,0,0,1,3.81,2l-.75.9a37.6,37.6,0,0,0-3.49-2,4.79,4.79,0,0,1-1.11,1.17,6.9,6.9,0,0,1-2.18.95l-.65-.91a5.52,5.52,0,0,0,2.32-1,3.08,3.08,0,0,0,1-1.42h-3.35v-1Zm1.82,7v4h-3.59v.85H1259v-4.81Zm-3.59,1v2h2.55v-2Z"/><path d="M1286.08,116.38h4l.63.56a30.92,30.92,0,0,1-1.55,4.41,6.21,6.21,0,0,1,1.56,4.27,2.57,2.57,0,0,1-.3,1.41,1.45,1.45,0,0,1-1.31.57,7.82,7.82,0,0,1-1.09-.09l-.28-1.18a7.49,7.49,0,0,0,1.16.11c.32,0,.51-.11.58-.33a3,3,0,0,0,.07-.79,5.69,5.69,0,0,0-1.52-3.81,25.6,25.6,0,0,0,1.3-4.05h-2v13.39h-1.17Zm13.05,1.56v11.35a1.39,1.39,0,0,1-.3,1,1.63,1.63,0,0,1-1.23.38c-.83,0-1.59,0-2.3-.08l-.25-1.23a20.52,20.52,0,0,0,2.32.15.56.56,0,0,0,.45-.14.79.79,0,0,0,.09-.43v-11h-7.07v-1.12h9.8v1.12Zm-2.93,2.3v6.14h-3.45v1.23h-1.09v-7.37Zm-3.45,1v4h2.37v-4Z"/><path d="M1306.48,117.6H1310v1.08h-1.13a23,23,0,0,1-.9,3h2.32v1.1h-8.82v-1.1h2.19v-.07a25.11,25.11,0,0,0-.71-2.75l-.05-.17h-1.13V117.6h3.55v-1.94h1.2Zm2.67,6.82v6.29H1308v-.88h-4.16v1h-1.21v-6.43Zm-5.33,1.07v3.25H1308v-3.25Zm.23-6.81a26.37,26.37,0,0,1,.76,3h2a26.35,26.35,0,0,0,.85-3Zm10.24,3.18a6.75,6.75,0,0,1,2,4.71,2.3,2.3,0,0,1-.32,1.35,1.61,1.61,0,0,1-1.36.52,12.82,12.82,0,0,1-1.71-.11l-.26-1.22a10.38,10.38,0,0,0,1.63.16c.39,0,.63-.13.7-.39a2.52,2.52,0,0,0,0-.57,6.19,6.19,0,0,0-2-4.27,26,26,0,0,0,1.52-4.27h-2.47v13.08h-1.18V116.62h4.4l.7.61A35.74,35.74,0,0,1,1314.29,121.86Z"/><path d="M1336.18,122.74a18.53,18.53,0,0,1-2.2,4.61l-.65-1.22a16.79,16.79,0,0,0,2.71-5.89h-2.47v-1.11h2.61v-3.47h1.2v3.47h2.14v1.11h-2.14v1.51a21.84,21.84,0,0,1,2.4,2.19l-.7,1.1a24.73,24.73,0,0,0-1.7-1.94v7.75h-1.2Zm11.42-6.22v14.27h-1.22V129.4h-4.84v1.39h-1.17V116.52Zm-6.06,1.09v2.8h4.84v-2.8Zm0,3.85v2.78h4.84v-2.78Zm0,3.83v3h4.84v-3Z"/><path d="M1357.73,124.25a8.08,8.08,0,0,0,1.54,2.42,23.86,23.86,0,0,0,3.42-2.57l1,.93a29.22,29.22,0,0,1-3.56,2.39,13.44,13.44,0,0,0,4.59,2.22l-.8,1.07a17.14,17.14,0,0,1-4.06-1.94,9.58,9.58,0,0,1-3.39-4.52H1353V129q2.54-.53,4.92-1.24l.11,1.06a53.45,53.45,0,0,1-7.67,2l-.47-1.18,1.82-.33V117.43h4.59v-1.77h1.3v1.77h4.65v6.82Zm3.25-3.94v-1.84h-8v1.84Zm0,2.93v-1.9h-8v1.9Z"/><path d="M626.4,939H631a7,7,0,0,1,3.36.7,3.28,3.28,0,0,1,1.07.88,3.92,3.92,0,0,1,.84,2.51q0,4.3-5.36,4.31H628v5.37H626.4Zm1.57,1.33v5.76h2.62a5.4,5.4,0,0,0,3-.63,2.63,2.63,0,0,0,1-2.34,2.43,2.43,0,0,0-1.13-2.22,4.83,4.83,0,0,0-2.56-.57Z"/><path d="M639,939h4.27a8.39,8.39,0,0,1,2.92.41,3.59,3.59,0,0,1,1.55,1.05,3,3,0,0,1,.71,2,2.86,2.86,0,0,1-1,2.25,4,4,0,0,1-1.94.88v0a5.5,5.5,0,0,1,2.33.94,2.86,2.86,0,0,1,1.19,2.38,3.28,3.28,0,0,1-1.94,3.16,7.54,7.54,0,0,1-3.35.66H639Zm1.55,1.28V945h2.5a6,6,0,0,0,2.38-.43,1.92,1.92,0,0,0,1.33-1.89q0-2.37-3.6-2.37Zm0,5.93v5.27h3A5.4,5.4,0,0,0,646,951a2.4,2.4,0,0,0,.63-.45,2.26,2.26,0,0,0,.7-1.69,2.2,2.2,0,0,0-1.32-2,6.31,6.31,0,0,0-2.91-.64Z"/><path d="M652.05,939h1.61v12.36h6.63v1.41h-8.24Z"/><path d="M670.51,942.5a16,16,0,0,0,2.46-3.72l1,.7a20,20,0,0,1-2,3h1.56v1.12H671a19.76,19.76,0,0,1-2.12,1.91h3.75l.53.68a17,17,0,0,1-2.43,1.89v.8l.3,0c.73-.09,1.65-.24,2.75-.42l.06,1c-.89.19-1.84.37-2.84.52l-.27,0v2.67a1.33,1.33,0,0,1-.33,1,1.52,1.52,0,0,1-1,.24c-.54,0-1.19,0-2-.08l-.27-1.17a13.91,13.91,0,0,0,1.91.16c.27,0,.4-.14.4-.42v-2.25l-1.08.14c-.92.12-1.83.22-2.73.32l-.32-1.18c1.38-.11,2.76-.25,4.13-.41v-1.35a10.25,10.25,0,0,0,1.64-1.14h-3.65c-.64.43-1.24.79-1.78,1.09l-.7-1a21.75,21.75,0,0,0,4.4-3.08h-4.21V942.5h3.28v-1.87h-2.61v-1.08h2.61v-1.74h1.25v1.74h2.12v1.08h-2.12v1.87Zm6.08,6.49a20.65,20.65,0,0,1-1.85-4.47,14.16,14.16,0,0,1-.86,1.55L673,945a20.5,20.5,0,0,0,2.42-7.13l1.26.25c-.18.91-.39,1.83-.63,2.74h5.14v1.17h-1.34l0,.15A20,20,0,0,1,678,949a16.3,16.3,0,0,0,3.43,3.58l-.78,1.25a17.77,17.77,0,0,1-3.32-3.63,11.85,11.85,0,0,1-3.82,3.78l-.87-1.08A10,10,0,0,0,676.59,949Zm.65-1.26a19.49,19.49,0,0,0,1.36-5.68h-2.9c-.12.37-.2.62-.25.76A19.64,19.64,0,0,0,677.24,947.73Z"/><path d="M688.89,943.37a.41.41,0,0,0-.06.11,16.4,16.4,0,0,1-1.84,2.33h.85q1.92,0,4.44-.15l1.88-.09c-.56-.53-1.12-1-1.69-1.52l1-.61a36.79,36.79,0,0,1,3.15,2.86l.44.44-1.05.79c-.33-.37-.63-.69-.9-1l-.11-.11-4.25.28v2.2h5.84V950H690.8v2.2H698v1.1H682.33v-1.1h7.14V950h-5.71v-1.1h5.71v-2.12l-.91,0c-1.35.06-2.86.1-4.52.14l-.41-1.13,1.88,0a19.74,19.74,0,0,0,1.88-2.47h-2.75v-1.1h11.09v1.1Zm1.91-3.76h6.77v3.2h-1.33V940.7H684.12v2.11h-1.33v-3.2h6.68v-1.8h1.33Z"/><path d="M704.81,939h4.26a8.39,8.39,0,0,1,2.92.41,3.63,3.63,0,0,1,1.56,1.05,3,3,0,0,1,.7,2,2.86,2.86,0,0,1-.94,2.25,4.05,4.05,0,0,1-1.95.88v0a5.6,5.6,0,0,1,2.34.94,2.85,2.85,0,0,1,1.18,2.38,3.28,3.28,0,0,1-1.94,3.16,7.54,7.54,0,0,1-3.35.66h-4.78Zm1.54,1.28V945h2.5a6,6,0,0,0,2.38-.43,1.93,1.93,0,0,0,1.34-1.89c0-1.58-1.2-2.37-3.61-2.37Zm0,5.93v5.27h3a5.43,5.43,0,0,0,2.44-.46,2.79,2.79,0,0,0,.63-.45,2.29,2.29,0,0,0,.69-1.69,2.2,2.2,0,0,0-1.32-2,6.28,6.28,0,0,0-2.91-.64Z"/><path d="M819.27,939.59H827V941h-6.39l-.55,4.8h.07a4.67,4.67,0,0,1,3.16-1.11,4.55,4.55,0,0,1,3,1,4.14,4.14,0,0,1,1.46,3.36,4.53,4.53,0,0,1-.69,2.47,4.36,4.36,0,0,1-2.36,1.83,5.93,5.93,0,0,1-1.88.29,6.53,6.53,0,0,1-4.61-1.62l.85-1.07a4.85,4.85,0,0,0,1.62,1,6.49,6.49,0,0,0,2.14.38,3.18,3.18,0,0,0,2.42-1,3.11,3.11,0,0,0,.86-2.23,3,3,0,0,0-.79-2.17,3.1,3.1,0,0,0-2.4-.94,4.07,4.07,0,0,0-2,.53,2.88,2.88,0,0,0-1,.88l-1.41-.21Z"/><path d="M831.05,953.36V952c.52-1.84,1.93-3.54,4.25-5.1l.47-.33a15.12,15.12,0,0,0,2.05-1.55,2.75,2.75,0,0,0,.93-2,2,2,0,0,0-.76-1.65,3.22,3.22,0,0,0-2.14-.69,4.7,4.7,0,0,0-3.6,1.78l-1.07-.93a5.7,5.7,0,0,1,4.68-2.2,5.4,5.4,0,0,1,2.79.69,3.37,3.37,0,0,1,1.8,3.07,3.47,3.47,0,0,1-1.14,2.54,20.79,20.79,0,0,1-2.22,1.69l-.28.2-.59.41c-2.09,1.43-3.28,2.76-3.55,4h8v1.44Z"/><path d="M848.79,939.33a4.31,4.31,0,0,1,3.76,2,9,9,0,0,1,1.29,5.13,9.47,9.47,0,0,1-1.09,4.85,4.54,4.54,0,0,1-7.81.24,9.26,9.26,0,0,1-1.23-5.09,8.84,8.84,0,0,1,1.37-5.25A4.32,4.32,0,0,1,848.79,939.33Zm0,1.32a2.8,2.8,0,0,0-2.54,1.72,8.9,8.9,0,0,0-.81,4.12,9.33,9.33,0,0,0,.69,3.88,2.89,2.89,0,0,0,2.68,1.94,2.76,2.76,0,0,0,2.5-1.65,10.55,10.55,0,0,0-.06-8.48A2.75,2.75,0,0,0,848.76,940.65Z"/><path d="M861.7,939.33a4.32,4.32,0,0,1,3.77,2,9,9,0,0,1,1.29,5.13,9.57,9.57,0,0,1-1.09,4.85,4.54,4.54,0,0,1-7.81.24,9.17,9.17,0,0,1-1.24-5.09,8.91,8.91,0,0,1,1.37-5.25A4.34,4.34,0,0,1,861.7,939.33Zm0,1.32a2.8,2.8,0,0,0-2.54,1.72,8.76,8.76,0,0,0-.82,4.12,9.32,9.32,0,0,0,.7,3.88,2.89,2.89,0,0,0,2.67,1.94,2.77,2.77,0,0,0,2.51-1.65,8.61,8.61,0,0,0,.86-4.16,8.45,8.45,0,0,0-.93-4.32A2.72,2.72,0,0,0,861.68,940.65Z"/><path d="M934.89,931.7v-1.07h-6.95v-1.07h6.95v-1.38h1.32v1.38h7v1.07h-7v1.07H942v5.94h-2.18v1.22h3.91V940h-3.91v3a1.3,1.3,0,0,1-.42,1.12,1.94,1.94,0,0,1-1.11.24c-.53,0-1.3,0-2.31-.1l-.31-1.22a22.31,22.31,0,0,0,2.35.13c.23,0,.36,0,.4-.14a.8.8,0,0,0,0-.3V940H927.53v-1.1h10.88v-1.22h-9.14V931.7Zm-1.63,11.75a17.27,17.27,0,0,0-2.72-2.45l1-.76a18.66,18.66,0,0,1,2.76,2.34Zm1.63-10.74h-4.31v1.44h4.31Zm0,2.43h-4.31v1.49h4.31Zm1.32-2.43v1.44h4.43v-1.44Zm0,2.43v1.49h4.43v-1.49Z"/><path d="M948.52,931.41v7.53c.84-.27,1.66-.55,2.44-.86l.14,1.22a63.73,63.73,0,0,1-6.14,2.11l-.55-1.33c.93-.23,1.85-.47,2.74-.73v-7.94h-2.48v-1.2h6.07v1.2Zm6,8a17.75,17.75,0,0,1-2.46-4.9l-.06.09a14.55,14.55,0,0,1-1.34,2l-.92-1a17.89,17.89,0,0,0,3.21-7.36l1.33.23a26.7,26.7,0,0,1-.79,2.73h6.93v1.22H958.7a16.86,16.86,0,0,1-2.53,6.92,17.46,17.46,0,0,0,4.58,3.57l-.83,1.27a15.89,15.89,0,0,1-4.54-3.73,14,14,0,0,1-5,3.79l-.82-1.1A11.94,11.94,0,0,0,954.53,939.43Zm.77-1.12a17.33,17.33,0,0,0,2.07-5.84h-4.32c-.09.21-.17.4-.25.57A15.33,15.33,0,0,0,955.3,938.31Z"/><path d="M964.73,936.44a18.31,18.31,0,0,1-2.52,4.56l-.76-1.25a16.47,16.47,0,0,0,3.09-5.53h-2.93v-1.17h3.12v-2.72q-1.08.24-2.28.42l-.55-1a31.55,31.55,0,0,0,5.82-1.43l.77,1a24.37,24.37,0,0,1-2.35.72l-.14,0v3h2.64v1.17H966v1.22a22.49,22.49,0,0,1,2.73,2.18l-.81,1.1a25.21,25.21,0,0,0-1.92-2v7.57h-1.27Zm10.46,1.3,2.41-.46.1,1.2-2.51.49v5.37h-1.35v-5.11l-5.76,1.12-.22-1.22,6-1.14v-9.81h1.35Zm-3.44-.72a24.31,24.31,0,0,0-2.81-2.56l.78-.92a18,18,0,0,1,2.9,2.51Zm.24-3.86a21.46,21.46,0,0,0-2.87-2.65l.84-.92a19,19,0,0,1,2.94,2.59Z"/><path d="M918.93,952.33h5.87v1.12h-5.87Zm5.39,7.43v4.67h-3.67v.91h-1.17v-5.58Zm-4.64-9.88h4.46V951h-4.46Zm0,5h4.46v1.07h-4.46Zm0,2.43h4.46v1h-4.46Zm1,3.59v2.49h2.51v-2.49Zm9.75-4.92v.89H934v4.26h1.17v1.07H934V964a1.19,1.19,0,0,1-.4,1,1.64,1.64,0,0,1-1,.25,11.72,11.72,0,0,1-1.7-.11l-.23-1.16a11.53,11.53,0,0,0,1.77.13.36.36,0,0,0,.41-.4v-1.59H927v3.21h-1.17v-3.18h-1.17v-1.07h1.17v-4.26h3.4v-.89h-4.57v-1h2.56v-1.22h-1.7v-1h1.7v-1.1h-2.17v-1h2.17v-1.41h1.21v1.41h2.77v-1.41h1.21v1.41h2.26v1h-2.26v1.1h1.8v1h-1.8v1.22h2.68v1Zm-1.17,1.84H927v1.15h2.23Zm0,2.09H927v1.25h2.23Zm2-8.24h-2.77v1.1h2.77Zm0,2.07h-2.77v1.22h2.77Zm-.8,4.08v1.15h2.39v-1.15Zm0,2.09v1.25h2.39v-1.25Z"/><path d="M947.74,961.33c.76-.51,1.41-1,2-1.46l.9.74c-.83.65-1.62,1.22-2.35,1.71a4,4,0,0,0,1.3,1.29,1.37,1.37,0,0,0,.56.23c.28,0,.5-.72.64-2.16l1.16.69c-.21,2-.7,2.94-1.48,2.94a2.55,2.55,0,0,1-1.05-.33,5.71,5.71,0,0,1-2.17-2,21.49,21.49,0,0,1-3.72,1.89l-.76-1a20.54,20.54,0,0,0,3.93-1.87,11.16,11.16,0,0,1-.79-2.35h-4.25v1.2c.92-.07,2-.19,3.38-.36v.93c-1,.16-2.06.3-3.2.44l-.18,0v2.32a1,1,0,0,1-.43.94,1.87,1.87,0,0,1-1,.19,19.49,19.49,0,0,1-2.08-.13l-.22-1.12c1,.1,1.65.15,2,.15s.33,0,.39-.13a.69.69,0,0,0,.05-.29V962c-1.35.14-2.64.24-3.86.31l-.33-1.1c1.5-.07,2.9-.15,4.19-.26v-1.32H936v-1h4.4v-.95c-1.07.1-2.12.18-3.17.22l-.42-.92a40.38,40.38,0,0,0,6.86-.79l.67.9c-.92.19-1.81.34-2.65.44v1.1h4.06a20.18,20.18,0,0,1-.25-2.31h1.27c.09.92.18,1.69.28,2.31h5.09v1h-4.94A13.77,13.77,0,0,0,947.74,961.33Zm-7.13-10.72a7.46,7.46,0,0,0-.79-1.15l1.38-.34a10,10,0,0,1,.87,1.49h3.81a9.92,9.92,0,0,0,.81-1.49l1.46.29c-.28.45-.55.85-.8,1.2h4.24v1h-7v1.1h6v.95h-6v1.17h7.46v1H936v-1h7.33v-1.17h-5.92v-.95h5.92v-1.1h-6.86v-1Zm9,8a10.29,10.29,0,0,0-1.86-1.8l.91-.66a10.82,10.82,0,0,1,1.9,1.71Z"/><path d="M959.71,954.74s-.05.08-.06.11a16.4,16.4,0,0,1-1.84,2.33h.85q1.92,0,4.44-.15l1.88-.09c-.56-.53-1.12-1-1.69-1.52l1.05-.61a36.79,36.79,0,0,1,3.15,2.86l.44.44-1,.79c-.33-.37-.63-.69-.9-1l-.11-.11-4.25.28v2.2h5.84v1.1h-5.84v2.2h7.24v1.11h-15.7V963.6h7.13v-2.2h-5.71v-1.1h5.71v-2.12l-.91,0c-1.35.06-2.86.11-4.52.14l-.41-1.13,1.88,0a19.74,19.74,0,0,0,1.88-2.47h-2.75v-1.1h11.09v1.1Zm1.91-3.76h6.77v3.2h-1.33v-2.11H954.94v2.11h-1.33V951h6.68v-1.8h1.33Z"/><path d="M979.44,950.3H981l5.45,13.84h-1.73l-1.55-4.06h-6l-1.54,4.06H974Zm3.32,8.47L981.31,955a29.2,29.2,0,0,1-1-3.05h-.06c-.17.64-.51,1.66-1,3.05l-1.44,3.81Z"/><path d="M1178.47,813.29h7.65v1.12h-7.65Zm6.87,7.43v4.67h-4.83v.91h-1.28v-5.58Zm-5.77-9.88H1185v1.07h-5.42Zm0,4.95H1185v1.07h-5.44Zm0,2.43H1185v1.06h-5.44Zm.94,3.59v2.5h3.57v-2.5Zm9.06-6v-5.66h1.33v5.66h3.6v1.24h-3.6v9.25h-1.33v-9.25h-3.67v-1.24Z"/><path d="M1197.59,818.1a18.49,18.49,0,0,0-2.39-2.58l.92-.88a19.79,19.79,0,0,1,2.42,2.48Zm-2.12,7.14a25.49,25.49,0,0,0,2.58-5.75l1.07.73a28.13,28.13,0,0,1-2.56,6Zm2.6-11.46a16.73,16.73,0,0,0-2.33-2.53l.92-.85a15.71,15.71,0,0,1,2.36,2.43Zm.87,11.55a8.8,8.8,0,0,0,2-3l1.06.56a10.46,10.46,0,0,1-2.14,3.33Zm6.33-14.35v11h-5.16V811Zm-4,1.1v2.2h2.88v-2.2Zm0,3.25v2.18h2.88v-2.18Zm0,3.18v2.33h2.88v-2.33Zm3.7,7.19a18.4,18.4,0,0,0-1.65-2.89l.93-.56A17.18,17.18,0,0,1,1206,825Zm1.75-13.7h1.22v10.25h-1.22Zm2.93-1.46h1.26v14.17a1.28,1.28,0,0,1-.43,1.11,2.16,2.16,0,0,1-1.22.25,17.53,17.53,0,0,1-2-.1l-.22-1.24c1,.08,1.63.12,2.06.12.26,0,.42-.06.48-.19a.76.76,0,0,0,.08-.39Z"/><path d="M1212.2,818.53a25.61,25.61,0,0,0,.68-4.86l1.1.13a24.59,24.59,0,0,1-.71,5.35Zm2.31-8.38h1.3V826.3h-1.3Zm2.33,5.23a16.33,16.33,0,0,0-1-2.59l.8-.64a12.62,12.62,0,0,1,1.09,2.43Zm6.53-4h4.5v1h-4.5v1h3.85v1h-3.85v1.09h5.16v1h-11.4v-1h5v-1.09h-3.74v-1h3.74v-1h-4.35v-1h4.35v-1.22h1.28Zm3.59,6.17v7.4a1.28,1.28,0,0,1-.34,1,1.52,1.52,0,0,1-1.07.3q-.75,0-2-.09l-.21-1.17a16.07,16.07,0,0,0,1.81.12c.2,0,.33,0,.38-.12a.7.7,0,0,0,.08-.37V823h-5.78v3.33h-1.28v-8.75Zm-7.08,1v1.2h5.78v-1.2Zm0,2.19V822h5.78v-1.27Z"/><path d="M1234.16,819.58v1.94h3v1.12h-3v3.65h-1.29v-3.65h-3v-1.12h3v-1.94h-3.23v-1.11h1.7c-.26-1-.49-1.82-.7-2.41h-1.31V815h3.52v-1.84H1230V812h2.86v-1.86h1.29V812h2.76v1.11h-2.76V815h3.25v1.1h-1.18a19.94,19.94,0,0,1-.8,2.41h1.86v1.11Zm.8-3.52h-3.11c.23.7.46,1.5.67,2.41h1.71A18.38,18.38,0,0,0,1235,816.06Zm9.48-5.27v4a1.17,1.17,0,0,1-.37,1,2,2,0,0,1-1.11.22c-.64,0-1.26,0-1.87-.08l-.25-1.15c.88.08,1.53.13,2,.13a.33.33,0,0,0,.37-.38v-2.63h-4.06v5.37h5.08l.73.64a15.38,15.38,0,0,1-1.85,4.93,11.55,11.55,0,0,0,2.55,2.24l-.76,1.17a13,13,0,0,1-2.53-2.34,12.93,12.93,0,0,1-2.35,2.4l-.82-1.07a9.81,9.81,0,0,0,2.4-2.34,14.81,14.81,0,0,1-2-4.52h-.44v7.9h-1.27v-15.5Zm-3.72,7.6a12.33,12.33,0,0,0,1.53,3.47,11,11,0,0,0,1.29-3.47Z"/><path d="M1255,813.07v1.72h4.76v1.05H1255v1.56h5.64v1.06H1255v1.66h7.47v1.11h-7.09a8.13,8.13,0,0,0,2.77,2.31,14.87,14.87,0,0,0,4.14,1.43l-.75,1.2a13.12,13.12,0,0,1-4.7-2,8.28,8.28,0,0,1-2.39-2.45c-1,2.31-3.36,3.82-7.09,4.51l-.69-1.14c3.55-.55,5.8-1.85,6.73-3.89h-7.07v-1.11h7.36v-1.66h-5.51V817.4h5.51v-1.56h-4.66v-1.05h4.66v-1.72h-5.27v2.17h-1.33V812h6.6v-1.85H1255V812h6.66v3.24h-1.31v-2.17Z"/><path d="M672.44,809.28a20.24,20.24,0,0,1-2.58,5.13l-.75-1.27a19,19,0,0,0,3.16-6.33h-2.91v-1.22h3.08v-3.73h1.33v3.73h2.16v1.22h-2.16v1.56a21.42,21.42,0,0,1,2.82,2.58l-.78,1.15a25.14,25.14,0,0,0-2-2.28V818h-1.33Zm9-.88a18,18,0,0,1-5,6.38l-.92-1a16.56,16.56,0,0,0,3.2-3.17A17.93,17.93,0,0,0,681,806.8h-4.49v-1.21h5v-3.73h1.33v3.73h2.49v1.21h-2.49v9.57a1.44,1.44,0,0,1-.35,1.08,1.83,1.83,0,0,1-1.32.36,21.43,21.43,0,0,1-2.34-.13l-.23-1.31a21.08,21.08,0,0,0,2.35.13c.27,0,.43-.06.49-.19a.75.75,0,0,0,.07-.38Z"/><path d="M689.34,811.56a15.78,15.78,0,0,1-2.53,4.12l-.8-1.22a15.71,15.71,0,0,0,3.16-5.22h-2.91V808h3.08v-6.18h1.29V808h2.52v1.21h-2.52v.89l.2.18a24.31,24.31,0,0,1,2.27,2.19l-.81,1.21a25.45,25.45,0,0,0-1.66-2.06V818h-1.29Zm-2-4.29a31.16,31.16,0,0,0-.91-3.78l1.18-.39a21.47,21.47,0,0,1,.93,3.78Zm3.86-.41a23.69,23.69,0,0,0,1-4l1.24.33a21.16,21.16,0,0,1-1.24,4Zm8.66,5.85V818h-1.32v-5l-5.22,1-.2-1.2,5.42-1v-9.89h1.32v9.63l2.34-.45.1,1.2Zm-3.36-2a24.47,24.47,0,0,0-2.74-2.59l.78-.92a17.75,17.75,0,0,1,2.83,2.53Zm.25-3.88a19.58,19.58,0,0,0-2.78-2.66l.86-.89a18.68,18.68,0,0,1,2.83,2.58Z"/><path d="M713.81,804.45l.07-2.48h1.18l-.09,2.48h2.49l-.32,7.18a.32.32,0,0,0,0,.08.48.48,0,0,0,.08.31.62.62,0,0,0,.39.08.47.47,0,0,0,.47-.23,12.48,12.48,0,0,0,.26-2.25l1,.5a8.16,8.16,0,0,1-.4,2.7.82.82,0,0,1-.58.44,3.4,3.4,0,0,1-.85.09,2.6,2.6,0,0,1-1.11-.17,1,1,0,0,1-.49-1v-.1l.32-6.52H714.9a22.19,22.19,0,0,1-.38,3.3c.36.32.8.73,1.32,1.25l-.63,1c-.38-.42-.72-.76-1-1a7.76,7.76,0,0,1-2.57,3.7l-.83-.86a7,7,0,0,0,2.46-3.73l-.14-.13a14.48,14.48,0,0,0-1.21-1l.57-.91,1,.82a20.35,20.35,0,0,0,.24-2.44h-2v.76h-2.34v1q0,.27.12.33a1.09,1.09,0,0,0,.4,0c.39,0,.63-.08.71-.23a2.57,2.57,0,0,0,.1-.8l1,.37a1.91,1.91,0,0,1-.32,1.23c-.19.21-.71.32-1.55.32a3.41,3.41,0,0,1-1.34-.16.71.71,0,0,1-.33-.68v-1.39h-1.57a3.66,3.66,0,0,1-2.88,2.95l-.66-.89a2.9,2.9,0,0,0,2.36-2.06h-2.31v-1h3.73V804.2H704v-1h2.9v-1.34h1.22v1.34h3v1h-3v1.15h3.62v-.9Zm-6.92,5.09v-1.45h1.2v1.45h2.69v.93h-2.69V812c1-.16,2.1-.38,3.16-.65l.06.92a62.37,62.37,0,0,1-7.67,1.5l-.36-1.09c1.32-.14,2.52-.3,3.61-.48v-1.68h-2.6v-.93Zm-3.36,7.72a10.29,10.29,0,0,0,2-3l1.21.49a11.81,11.81,0,0,1-2,3.35Zm5.66.62a22.6,22.6,0,0,0-.66-3.28l1.21-.26a16.32,16.32,0,0,1,.85,3.2Zm3.86-.23a17.81,17.81,0,0,0-1-3.23l1.19-.37a16.93,16.93,0,0,1,1.21,3.15Zm4.84.19a27.6,27.6,0,0,0-2.25-3.51l1.1-.54a17,17,0,0,1,2.4,3.36Z"/><path d="M674.28,834.1c1.4,2.1,3.58,3.14,6.54,3.14h4.59a4.9,4.9,0,0,0-.39,1.33h-4.26a9.79,9.79,0,0,1-3.75-.69,7.84,7.84,0,0,1-3.38-2.63,12.71,12.71,0,0,1-3.37,3.73l-.92-1a12.52,12.52,0,0,0,3.56-3.89,16.67,16.67,0,0,1-1.49-4.45l0,.11a13.39,13.39,0,0,1-1.35,2.65l-.82-1.12a20.65,20.65,0,0,0,2.69-8.39l1.26.25q-.09.67-.21,1.29h2.85l.67.59Q675.91,831.07,674.28,834.1Zm-.72-1.36a24.8,24.8,0,0,0,1.6-7.13h-2.49a19.07,19.07,0,0,1-.52,1.91A20.17,20.17,0,0,0,673.56,832.74ZM682.4,824v9.79a.57.57,0,0,0,.09.38.65.65,0,0,0,.47.12c.34,0,.54-.08.61-.24a10.2,10.2,0,0,0,.21-2.26l1.14.46a13.13,13.13,0,0,1-.21,2.27,1.1,1.1,0,0,1-.87.92,7.25,7.25,0,0,1-1.16.08,1.75,1.75,0,0,1-1.25-.33,1.25,1.25,0,0,1-.25-.89v-9.08h-2.09v3.66a14.45,14.45,0,0,1-.49,4,8.85,8.85,0,0,1-1.46,2.8l-.94-.94a7.53,7.53,0,0,0,1.53-3.71,19,19,0,0,0,.14-2.45V824Z"/><path d="M689.8,825v4h1.86v1.22H689.8v4.16c.78-.3,1.41-.55,1.87-.75l.13,1.2a46.42,46.42,0,0,1-5.38,2.09l-.41-1.33c.83-.22,1.67-.47,2.52-.76V830.2h-2.06V829h2.06v-4h-2.26V823.8h5.63V825Zm11.63-1.41v8.26h-3.91v2h4.2V835h-4.2v2.22h4.81v1.17H691.16V837.2h5.11V835h-4v-1.13h4v-2h-3.75v-8.26Zm-7.71,1.12v2.44h2.55v-2.44Zm0,3.56v2.48h2.55v-2.48Zm6.49-1.12v-2.44h-2.69v2.44Zm0,3.6v-2.48h-2.69v2.48Z"/><path d="M709.93,828.41l-.07.11a17,17,0,0,1-1.84,2.33h.85q1.92,0,4.44-.15l1.89-.08c-.56-.53-1.13-1-1.7-1.52l1.06-.61a36.37,36.37,0,0,1,3.14,2.85l.44.44-1,.8c-.33-.37-.63-.69-.9-1l-.11-.12-4.25.28V834h5.84v1.11h-5.84v2.2h7.24v1.1h-15.7v-1.1h7.14v-2.2H704.8V834h5.71v-2.11l-.92,0c-1.35.05-2.86.1-4.52.14l-.41-1.14h1.89a19.7,19.7,0,0,0,1.87-2.47h-2.74v-1.1h11.09v1.1Zm1.9-3.76h6.77v3.2h-1.33v-2.11H705.15v2.11h-1.33v-3.2h6.69v-1.8h1.32Z"/><path d="M612.68,796.74a20.24,20.24,0,0,1-2.58,5.13l-.75-1.27a19,19,0,0,0,3.16-6.32H609.6v-1.22h3.08v-3.74H614v3.74h2.16v1.22H614v1.56a21.4,21.4,0,0,1,2.82,2.57l-.78,1.15a25.14,25.14,0,0,0-2-2.28v8.18h-1.33Zm9-.88a18,18,0,0,1-5,6.38l-.92-1a16.56,16.56,0,0,0,3.2-3.17,17.69,17.69,0,0,0,2.27-3.83h-4.49v-1.2h5v-3.74H623v3.74h2.49v1.2H623v9.57a1.51,1.51,0,0,1-.34,1.09,1.87,1.87,0,0,1-1.32.35,21.16,21.16,0,0,1-2.34-.13l-.24-1.31a21.21,21.21,0,0,0,2.35.13c.27,0,.43-.06.49-.19a.75.75,0,0,0,.07-.38Z"/><path d="M629.58,799a15.62,15.62,0,0,1-2.53,4.12l-.8-1.22a15.71,15.71,0,0,0,3.16-5.22H626.5v-1.2h3.08v-6.19h1.3v6.19h2.51v1.2h-2.51v.9l.19.17a24.31,24.31,0,0,1,2.27,2.19l-.81,1.21c-.46-.64-1-1.32-1.65-2v6.34h-1.3Zm-2-4.29a32.82,32.82,0,0,0-.9-3.77l1.17-.39a21.33,21.33,0,0,1,.93,3.77Zm3.86-.4a22.77,22.77,0,0,0,1-4l1.24.32a21.16,21.16,0,0,1-1.24,4Zm8.67,5.84v5.29h-1.33v-5l-5.22,1-.2-1.21,5.42-1v-9.89h1.33v9.63l2.33-.45.1,1.21Zm-3.37-2a24.42,24.42,0,0,0-2.74-2.58l.78-.92a16.83,16.83,0,0,1,2.83,2.53Zm.25-3.88a19.47,19.47,0,0,0-2.78-2.65l.87-.9a19.1,19.1,0,0,1,2.82,2.58Z"/><path d="M609.37,817.59a13.86,13.86,0,0,0,5.37-7.11L616,811a15.19,15.19,0,0,1-5.71,7.64Zm7.83.56a10.18,10.18,0,0,1-1.56,5.09,9.6,9.6,0,0,1-4.42,3.17l-.88-1.12a7.9,7.9,0,0,0,4.16-2.81,9,9,0,0,0,1.32-4.33h-3.36v-1.21h10.13a46.8,46.8,0,0,1-.6,7.77,1.81,1.81,0,0,1-.83,1.26,3.55,3.55,0,0,1-1.59.27c-.9,0-1.71,0-2.42-.08l-.3-1.33a22.43,22.43,0,0,0,2.49.17c.61,0,1-.15,1.16-.44q.53-.93.66-6.13v-.28Zm7.62.05a21.64,21.64,0,0,1-3.52-3.05,19,19,0,0,1-2.85-4.24l1.17-.55a16,16,0,0,0,6,6.68Z"/><path d="M629.48,817.78a19.87,19.87,0,0,1-2.46,5l-.7-1.24a18.26,18.26,0,0,0,3-6.31h-2.73V814h2.9v-3.69h1.3V814h2.39v1.2h-2.39v1.58a22.82,22.82,0,0,1,2.64,2.4l-.74,1.19a21.09,21.09,0,0,0-1.82-2.06l-.08-.1v8.25h-1.3Zm4.52-6,.61-.08a33.94,33.94,0,0,0,6-1.27l.81,1.06a32.07,32.07,0,0,1-6.18,1.29v3.3h7.26v1.2h-2.71v9.15H638.5v-9.15h-3.22v.53a25.84,25.84,0,0,1-.5,5,10,10,0,0,1-1.55,3.55l-1-1a9.21,9.21,0,0,0,1.51-3.94,31.33,31.33,0,0,0,.29-4.84Z"/><path d="M624.67,836.87l-.07.11a17,17,0,0,1-1.83,2.33h.84q1.92,0,4.44-.15l1.89-.09c-.56-.53-1.13-1-1.7-1.52l1.06-.61a40,40,0,0,1,3.14,2.85l.44.45-1,.79c-.33-.37-.63-.69-.9-1l-.1-.12c-.32,0-1.74.13-4.25.29v2.2h5.83v1.1h-5.83v2.2h7.23v1.1h-15.7v-1.1h7.14v-2.2h-5.71v-1.1h5.71v-2.12l-.92,0c-1.35.06-2.85.1-4.52.14l-.41-1.13,1.89,0a19.7,19.7,0,0,0,1.87-2.47h-2.74v-1.1h11.09v1.1Zm1.91-3.76h6.76v3.2H632V834.2H619.89v2.11h-1.32v-3.2h6.68v-1.8h1.33Z"/><path d="M751.3,791.41v-.95h-6.14v-.94h6.14V788.3h1.16v1.22h6.22v.94h-6.22v.95h5.06v5.23H755.6v1.08h3.45v1H755.6v2.65a1.12,1.12,0,0,1-.37,1,1.7,1.7,0,0,1-1,.22q-.71,0-2-.09l-.27-1.08a19.51,19.51,0,0,0,2.08.12c.2,0,.31,0,.35-.13a.79.79,0,0,0,0-.26v-2.42h-9.6v-1h9.6v-1.08h-8.07v-5.23Zm-1.45,10.36a14.3,14.3,0,0,0-2.4-2.16l.87-.68a16.88,16.88,0,0,1,2.44,2.08Zm1.45-9.48h-3.81v1.28h3.81Zm0,2.15h-3.81v1.32h3.81Zm1.16-2.15v1.28h3.91v-1.28Zm0,2.15v1.32h3.91v-1.32Z"/><path d="M763.32,791.15v6.64c.74-.23,1.46-.49,2.16-.76l.11,1.08a56.1,56.1,0,0,1-5.41,1.86l-.48-1.17c.82-.2,1.62-.42,2.42-.65v-7h-2.19v-1.06h5.35v1.06Zm5.31,7.07a15.68,15.68,0,0,1-2.18-4.32l-.05.08a12.11,12.11,0,0,1-1.19,1.76l-.8-.86a15.73,15.73,0,0,0,2.83-6.48l1.17.2a23.33,23.33,0,0,1-.69,2.4h6.11v1.08H772.3a14.83,14.83,0,0,1-2.23,6.11,15.71,15.71,0,0,0,4,3.15l-.73,1.12a14.14,14.14,0,0,1-4-3.29,12.44,12.44,0,0,1-4.39,3.35l-.73-1A10.56,10.56,0,0,0,768.63,798.22Zm.67-1a15.28,15.28,0,0,0,1.83-5.16h-3.81l-.22.5A13.78,13.78,0,0,0,769.3,797.24Z"/><path d="M777.62,795.59a16,16,0,0,1-2.22,4l-.67-1.11a14.6,14.6,0,0,0,2.73-4.88h-2.59v-1h2.75V790.2q-.95.21-2,.36l-.48-.9a29.07,29.07,0,0,0,5.14-1.26l.67.86c-.74.26-1.43.48-2.07.64l-.12,0v2.66h2.32v1h-2.32v1.08a19.68,19.68,0,0,1,2.4,1.93l-.71,1c-.53-.6-1.1-1.18-1.69-1.73v6.68h-1.13Zm9.23,1.14,2.13-.4.09,1.06-2.22.43v4.73h-1.19v-4.5l-5.08,1-.2-1.08,5.28-1V788.3h1.19Zm-3-.63a21.33,21.33,0,0,0-2.48-2.26L782,793a16.66,16.66,0,0,1,2.56,2.22Zm.21-3.41a19,19,0,0,0-2.53-2.34l.74-.81a17.62,17.62,0,0,1,2.6,2.28Z"/><path d="M796.31,790.46v-.86H791.6v-.88h10.67v.88h-4.83v.86h6.18v2.78h-1.17v-1.92h-5v3.35h-1.13v-3.35h-4.93v1.9h-1.15v-2.76Zm1.09,9.63v.73q0,.4.27.48a10.68,10.68,0,0,0,2.11.12,17.93,17.93,0,0,0,2.62-.11.58.58,0,0,0,.46-.52,10.72,10.72,0,0,0,.12-1.25l1.1.4a3.58,3.58,0,0,1-.41,2,1.23,1.23,0,0,1-.85.38,25.34,25.34,0,0,1-3.16.14,18.38,18.38,0,0,1-2.6-.11.88.88,0,0,1-.71-.52,1.57,1.57,0,0,1-.09-.58v-1.14h-3.69v.76H791.4v-5.68h11v4.92Zm-5.18-8h3.3v.78h-3.3Zm0,1.49h3.3v.75h-3.3Zm4,2.51h-3.69v1.07h3.69Zm0,2h-3.69v1.18h3.69Zm1.14-2v1.07h3.78v-1.07Zm0,2v1.18h3.78V798Zm.84-6h3.4v.78h-3.4Zm0,1.49h3.4v.75h-3.4Z"/><path d="M748.12,810.65h9.65v1H747.55a11.08,11.08,0,0,1-1.85,2.19l-.91-.79a8.27,8.27,0,0,0,2.62-3.75l1.23.25A10.63,10.63,0,0,1,748.12,810.65Zm1.43,9.09a29.11,29.11,0,0,0-3.13-1.75l.75-.83c1,.49,2,1.08,3.17,1.76a11.32,11.32,0,0,0,1.66-2.48l1.08.48a14.91,14.91,0,0,1-1.76,2.63c1.14.76,2.07,1.42,2.78,2l-.78.93c-1-.79-1.9-1.48-2.78-2.06a13.93,13.93,0,0,1-4.36,2.76l-.79-.94A11.35,11.35,0,0,0,749.55,819.74Zm6.93-4.86v.43a18.15,18.15,0,0,0,.72,6c.17.43.3.64.39.64s.14-.14.22-.44a10.5,10.5,0,0,0,.3-1.91l1,.71a13.44,13.44,0,0,1-.38,2c-.23.79-.58,1.19-1,1.19s-.78-.28-1.17-.83c-.8-1.12-1.22-3.36-1.27-6.7v-.13h-9.87v-1Zm-9.17-2.1h8.76v.91h-8.76Z"/><path d="M766.31,811.46v-.86H761.6v-.88h10.67v.88h-4.83v.86h6.18v2.78h-1.17v-1.92h-5v3.35h-1.13v-3.35h-4.93v1.9h-1.15v-2.76Zm1.09,9.63v.73q0,.4.27.48a10.68,10.68,0,0,0,2.11.12,17.93,17.93,0,0,0,2.62-.11.58.58,0,0,0,.46-.52,10.72,10.72,0,0,0,.12-1.25l1.1.4a3.58,3.58,0,0,1-.41,2,1.23,1.23,0,0,1-.85.38,25.34,25.34,0,0,1-3.16.14,18.38,18.38,0,0,1-2.6-.11.88.88,0,0,1-.71-.52,1.57,1.57,0,0,1-.09-.58v-1.14h-3.69v.76H761.4v-5.68h11v4.92Zm-5.18-8h3.3v.78h-3.3Zm0,1.49h3.3v.75h-3.3Zm4,2.51h-3.69v1.07h3.69Zm0,2h-3.69v1.18h3.69Zm1.14-2v1.07h3.78v-1.07Zm0,2v1.18h3.78V819Zm.84-6h3.4v.78h-3.4Zm0,1.49h3.4v.75h-3.4Z"/><path d="M782.67,814.05v1.83H789v1h-6.3v5.12a1.27,1.27,0,0,1-.43,1.1,2.12,2.12,0,0,1-1.21.25c-.88,0-1.62,0-2.23-.07l-.28-1.18c.92.09,1.66.13,2.21.13a1.05,1.05,0,0,0,.59-.1c.09-.06.14-.22.14-.46v-4.79h-6.59v-1h6.59V813.5a20.55,20.55,0,0,0,3.76-2.27h-8.67v-1.07h10.2l.69.74A35.1,35.1,0,0,1,782.67,814.05Z"/><path d="M789.77,815.72a12.18,12.18,0,0,0,4.74-6.27l1.11.42a13.44,13.44,0,0,1-5,6.75Zm6.91.49a9,9,0,0,1-1.38,4.5,8.4,8.4,0,0,1-3.89,2.79l-.78-1A6.9,6.9,0,0,0,794.3,820a7.85,7.85,0,0,0,1.16-3.83h-3v-1.06h8.94a40.28,40.28,0,0,1-.54,6.86,1.52,1.52,0,0,1-.73,1.1,3,3,0,0,1-1.4.25c-.79,0-1.5,0-2.13-.08l-.27-1.17a19.16,19.16,0,0,0,2.2.15q.81,0,1-.39c.31-.54.51-2.35.59-5.41v-.25Zm6.73,0a18.77,18.77,0,0,1-3.11-2.69,17,17,0,0,1-2.52-3.74l1-.49a14.13,14.13,0,0,0,5.32,5.9Z"/><path d="M752,831v6.53h-2.72v1.77H752v1h-2.79v2l.61-.1c.49-.07,1.34-.23,2.57-.46l.08,1c-2.23.51-4.7.94-7.39,1.29l-.38-1.08q2-.24,3.39-.45v-2.17h-2.87v-1h2.87v-1.77h-2.67V831Zm-5.51.94v1.81h1.7V831.9Zm0,2.75v1.89h1.7v-1.89Zm4.54-.94V831.9h-1.79v1.81Zm0,2.83v-1.89h-1.79v1.89Zm5.12-2c.24.25.49.52.74.81l-.73.62h2.49l.51.54a26.18,26.18,0,0,1-1.48,3.47l-1-.41a15.38,15.38,0,0,0,1.2-2.58H755.9v6.45a1.06,1.06,0,0,1-.32.89,1.54,1.54,0,0,1-.93.22,12.81,12.81,0,0,1-1.79-.12l-.2-1.09a15.61,15.61,0,0,0,1.77.14c.22,0,.33-.11.33-.34V837h-2.39v-1H756l-.09-.11a18.57,18.57,0,0,0-2.6-2.55l.76-.67c.52.42,1,.83,1.42,1.23A12.51,12.51,0,0,0,757,832h-4.25v-1h5.31l.57.6A21.85,21.85,0,0,1,756.12,834.54Z"/><path d="M767.46,832.88v1.51h4.19v.93h-4.19v1.38h5v.93h-5v1.47h6.59v1h-6.26a7.15,7.15,0,0,0,2.45,2,12.59,12.59,0,0,0,3.65,1.27l-.66,1.06a11.28,11.28,0,0,1-4.15-1.74,7.2,7.2,0,0,1-2.11-2.16c-.88,2-3,3.37-6.25,4l-.62-1c3.14-.48,5.12-1.63,5.94-3.43H759.8v-1h6.5v-1.47h-4.87v-.93h4.87v-1.38h-4.11v-.93h4.11v-1.51h-4.65v1.92h-1.17v-2.87h5.82V830.3h1.16v1.63h5.87v2.87h-1.16v-1.92Z"/><path d="M774.63,842.88a19.75,19.75,0,0,0,.57-3.52l.85.15a19.42,19.42,0,0,1-.52,3.94Zm6.68-5.34a35.13,35.13,0,0,1-.4,5.78,1.28,1.28,0,0,1-1.51,1.21,14.15,14.15,0,0,1-1.45-.09l-.16-1.07a9.36,9.36,0,0,0,1.45.14c.29,0,.49-.07.58-.22.25-.41.4-2,.45-4.64v-.16h-4.93v-7.62h6.1v1h-2.33v1.29H781v.9h-1.9v1.3H781v.9h-1.9v1.33Zm-4.75,5.27a30.73,30.73,0,0,0-.18-3.24l.74-.15a28.56,28.56,0,0,1,.31,3.18Zm-.15-11v1.29h1.67v-1.29Zm0,2.19v1.3h1.67V834Zm0,2.2v1.33h1.67v-1.33Zm1.62,6.23a23.67,23.67,0,0,0-.47-3l.68-.21a18.47,18.47,0,0,1,.57,3Zm1.28-.5a21.87,21.87,0,0,0-.63-2.79l.67-.24a15.13,15.13,0,0,1,.67,2.73Zm5.82-1.23a6.41,6.41,0,0,1-3.25,3.9l-.73-.94a5.49,5.49,0,0,0,3.24-3.72h-2.55v-3.86h2.63v-1.44h-1.33v-.48a10.19,10.19,0,0,1-1.57,1.45l-.66-.91a9,9,0,0,0,3.38-4.37h1.26a10.94,10.94,0,0,0,3.73,4.18l-.61,1a13.87,13.87,0,0,1-1.71-1.45v.6h-1.41v1.44h2.71V840h-2.53a8.46,8.46,0,0,0,3.4,3.61l-.65,1A8.37,8.37,0,0,1,785.13,840.71ZM784.5,837h-1.66v2h1.66Zm2.12-3.33a11.33,11.33,0,0,1-1.69-2.43,10,10,0,0,1-1.39,2.43Zm-1.1,3.33v2h1.74v-2Z"/><path d="M795.77,835.21l-.06.09a14.1,14.1,0,0,1-1.62,2.06h.75c1.13,0,2.43-.06,3.92-.13l1.66-.07c-.49-.47-1-.92-1.49-1.34l.93-.54a31.53,31.53,0,0,1,2.77,2.52l.39.38-.93.71c-.29-.33-.55-.62-.79-.86l-.09-.1-3.75.25v1.94h5.14v1h-5.14V843h6.38v1H790v-1h6.3v-1.94h-5v-1h5v-1.87l-.8,0q-1.79.08-4,.12l-.36-1,1.66,0a16.46,16.46,0,0,0,1.65-2.17H792v-1h9.79v1Zm1.69-3.32h6v2.82h-1.17v-1.86H791.56v1.86h-1.17v-2.82h5.89V830.3h1.18Z"/><path d="M616.25,134.19a7.51,7.51,0,0,1-5.09,1.85,6.37,6.37,0,0,1-5-2.2,7.22,7.22,0,0,1-1.64-4.92,7.68,7.68,0,0,1,1.25-4.37,6,6,0,0,1,.94-1.11,6.15,6.15,0,0,1,4.35-1.71,7.18,7.18,0,0,1,2.83.55,8,8,0,0,1,2.05,1.37l-1,1.14a5.26,5.26,0,0,0-2-1.37,5.47,5.47,0,0,0-1.82-.29,4.34,4.34,0,0,0-3.53,1.6,6.39,6.39,0,0,0-1.39,4.22,6.07,6.07,0,0,0,1.09,3.67,4.81,4.81,0,0,0,1.63,1.44,4.54,4.54,0,0,0,2.2.57,5.76,5.76,0,0,0,4.24-1.73Z"/><path d="M622.77,121.93h1.6l5.46,13.84h-1.74l-1.54-4.06H620.6l-1.55,4.06h-1.73Zm3.32,8.47-1.44-3.81a27,27,0,0,1-1-3h-.07c-.16.64-.51,1.66-1,3l-1.45,3.81Z"/><path d="M631.69,122h4.13a8.33,8.33,0,0,1,4.72,1.21,5.78,5.78,0,0,1,1.92,2.07,7.29,7.29,0,0,1,.86,3.58,7.1,7.1,0,0,1-1.26,4.27q-1.9,2.64-6.37,2.64h-4Zm1.56,1.36v11h2.34a7.13,7.13,0,0,0,3.82-.92,4.45,4.45,0,0,0,1.76-2.08,6.42,6.42,0,0,0,.46-2.51c0-2.2-.74-3.74-2.22-4.64a7.07,7.07,0,0,0-3.72-.88Z"/><path d="M655.74,126.37a.41.41,0,0,0-.06.11,16.4,16.4,0,0,1-1.84,2.33h.85q1.92,0,4.44-.15l1.88-.09c-.56-.53-1.12-1-1.69-1.52l1-.61a36.79,36.79,0,0,1,3.15,2.86l.44.44-1.05.79c-.33-.37-.63-.69-.9-1l-.11-.11-4.25.28v2.2h5.84V133h-5.84v2.2h7.24v1.1H649.18v-1.1h7.14V133h-5.71v-1.1h5.71v-2.12l-.91,0c-1.35.06-2.86.1-4.52.14l-.41-1.13,1.88,0a19.74,19.74,0,0,0,1.88-2.47h-2.75v-1.1h11.09v1.1Zm1.91-3.76h6.77v3.2h-1.33V123.7H651v2.11h-1.33v-3.2h6.68v-1.8h1.33Z"/><path d="M767.83,129.2a24.85,24.85,0,0,0,.69-4.87l1.1.13a25.24,25.24,0,0,1-.71,5.36Zm2.32-8.39h1.3V137h-1.3Zm2.32,5.24a15.43,15.43,0,0,0-1-2.59l.8-.64a12.88,12.88,0,0,1,1.09,2.42Zm6.54-4h4.5v1H779v1h3.85v1H779v1.09h5.16v1h-11.4v-1h5V125H774v-1h3.74v-1h-4.35v-1h4.35v-1.22H779Zm3.58,6.18v7.39a1.29,1.29,0,0,1-.33,1,1.59,1.59,0,0,1-1.07.29c-.5,0-1.15,0-2-.08l-.22-1.17a16.22,16.22,0,0,0,1.81.12c.21,0,.34,0,.39-.13a.64.64,0,0,0,.08-.36v-1.62h-5.78V137h-1.28v-8.75Zm-7.07.95v1.21h5.78v-1.21Zm0,2.19v1.27h5.78v-1.27Z"/><path d="M789.8,130.24v1.94h3v1.12h-3V137h-1.3V133.3h-3v-1.12h3v-1.94h-3.23v-1.1H787c-.26-1-.49-1.82-.7-2.41H785v-1.1h3.52v-1.85h-2.86v-1.1h2.86v-1.87h1.29v1.87h2.76v1.1h-2.76v1.85H793v1.1h-1.18a21.86,21.86,0,0,1-.8,2.41h1.86v1.1Zm.8-3.51h-3.11c.23.7.45,1.5.66,2.41h1.72A18.87,18.87,0,0,0,790.6,126.73Zm9.48-5.27v4a1.17,1.17,0,0,1-.37,1,2,2,0,0,1-1.11.23c-.64,0-1.26,0-1.87-.08l-.25-1.16c.87.09,1.53.13,2,.13a.32.32,0,0,0,.37-.37v-2.63h-4.06V128h5.08l.73.63a15.07,15.07,0,0,1-1.86,4.93,11.34,11.34,0,0,0,2.56,2.24l-.76,1.17a12.73,12.73,0,0,1-2.53-2.33,12.93,12.93,0,0,1-2.35,2.4l-.82-1.07a9.81,9.81,0,0,0,2.4-2.34,14.86,14.86,0,0,1-2-4.53h-.44V137h-1.28v-15.5Zm-3.72,7.59a12.08,12.08,0,0,0,1.53,3.47,10.81,10.81,0,0,0,1.29-3.47Z"/><path d="M806.75,129.09a45.5,45.5,0,0,0-4.51-1.68l.51-1.24a27.21,27.21,0,0,1,4.5,1.66Zm-3.42,5.22a20.46,20.46,0,0,0,4.89-.89,8.93,8.93,0,0,0,4.85-4,14.9,14.9,0,0,0,1.71-4.8l1.22.73a16.16,16.16,0,0,1-2.13,5.48,9.75,9.75,0,0,1-4.65,3.68,20.12,20.12,0,0,1-5.5,1.12Zm5.17-9.46a30.88,30.88,0,0,0-4.54-1.67l.42-1.2a22.12,22.12,0,0,1,4.56,1.62Z"/><path d="M818.75,122.84h9.71l.83.76a26.15,26.15,0,0,1-3.29,6,41.33,41.33,0,0,1,5.21,4.88l-1,1.12a54.71,54.71,0,0,0-5-5,18.21,18.21,0,0,1-6.78,5.08l-.78-1.2a16.7,16.7,0,0,0,6.67-4.87,18.59,18.59,0,0,0,3.3-5.56h-8.87Z"/><path d="M841.6,123.73v1.72h4.76v1.06H841.6v1.56h5.64v1.05H841.6v1.67h7.47v1.1H842a7.94,7.94,0,0,0,2.77,2.31,14.37,14.37,0,0,0,4.13,1.44l-.75,1.2a13.07,13.07,0,0,1-4.69-2,8.15,8.15,0,0,1-2.39-2.45q-1.51,3.47-7.09,4.5l-.7-1.13q5.34-.82,6.73-3.9h-7.07v-1.1h7.36v-1.67h-5.51v-1.05h5.51v-1.56h-4.65v-1.06h4.65v-1.72H835v2.18h-1.33v-3.25h6.6v-1.85h1.31v1.85h6.66v3.25H847v-2.18Z"/><path d="M929.61,120.09a45.5,45.5,0,0,0-4.51-1.68l.51-1.24a27.33,27.33,0,0,1,4.51,1.66Zm-3.42,5.22a20.46,20.46,0,0,0,4.89-.89,8.92,8.92,0,0,0,4.85-4,15.05,15.05,0,0,0,1.72-4.81l1.21.73a16.16,16.16,0,0,1-2.13,5.48,9.75,9.75,0,0,1-4.65,3.68,19.76,19.76,0,0,1-5.5,1.12Zm5.17-9.46a30.88,30.88,0,0,0-4.54-1.67l.42-1.2a22.12,22.12,0,0,1,4.56,1.62Z"/><path d="M941.61,113.84h9.71l.83.76a26.15,26.15,0,0,1-3.29,6,41.33,41.33,0,0,1,5.21,4.88l-1,1.12a52.28,52.28,0,0,0-5-5,18.21,18.21,0,0,1-6.78,5.08l-.78-1.2a16.63,16.63,0,0,0,6.67-4.87,18.64,18.64,0,0,0,3.31-5.56h-8.88Z"/><path d="M956.13,117.86h14.4v1.22h-6.24a11.61,11.61,0,0,1-1.12,5.31,7.2,7.2,0,0,1-3.59,2.8l-.85-1.08a6.07,6.07,0,0,0,3.48-2.87,11.07,11.07,0,0,0,.72-4.16h-6.8Zm1.82-4.57h10.52v1.2H958Z"/><path d="M972,124.63c.36,0,.82,0,1.37-.08a88.32,88.32,0,0,0,4.32-11.62l1.36.41a92.52,92.52,0,0,1-4.21,11.11q4.47-.36,8.36-.88a39.22,39.22,0,0,0-2.5-4l1.14-.7a43.21,43.21,0,0,1,4.23,7l-1.32.71,0,0c-.25-.53-.52-1.09-.81-1.67l-.1-.19q-4,.7-11.49,1.43Z"/><path d="M935,135.21v-2.4h1.28v2.4h3.66v1.11h-3.66v2.05h4.39v1.12h-4.39v1.86h3.57v4.44a1.06,1.06,0,0,1-.4,1,1.62,1.62,0,0,1-.9.2,12.6,12.6,0,0,1-1.43-.09l-.22-1.2a10.48,10.48,0,0,0,1.42.13.28.28,0,0,0,.31-.32v-3h-2.35V149H935v-6.53H932.7v4.8h-1.22v-5.88H935v-1.86h-4.48v-1.12H935v-2.05h-2.34a9.56,9.56,0,0,1-1,1.56l-1-.68a10.13,10.13,0,0,0,1.73-3.74l1.21.22c-.13.51-.29,1-.47,1.53Zm6.25-1.06h1.26v10.51H941.2Zm3.36-.86h1.28v14a1.35,1.35,0,0,1-.45,1.14,2,2,0,0,1-1.25.31c-.63,0-1.37,0-2.2-.12l-.27-1.31a19.79,19.79,0,0,0,2.33.16c.28,0,.45-.06.5-.19a1,1,0,0,0,.06-.4Z"/><path d="M950.54,139.62V149h-1.22v-7.61a19.31,19.31,0,0,1-1.4,1.57l-.65-1.24a16.34,16.34,0,0,0,3.45-4.87l1,.63A24,24,0,0,1,950.54,139.62Zm-3.17-3a12.65,12.65,0,0,0,3-3.81l1.15.56a15.16,15.16,0,0,1-3.45,4.28Zm8.49-1v2.6h2.73v1.16h-2.73v2.18h2.46v1.12h-2.46v3.2l.58-.14c.79-.2,1.49-.39,2.1-.56l.11,1.09a70.51,70.51,0,0,1-7.13,1.83l-.51-1.22.89-.16.32-.06v-5.54h1.16v5.31l1.14-.25.15,0v-6.77h-3.13v-1.16h3.13v-2.6h-1.1a9.07,9.07,0,0,1-1.1,1.77l-.91-.78a10.12,10.12,0,0,0,1.71-3.74l1.18.29c-.14.51-.27,1-.41,1.34h4.16v1.12Zm7.43-1.18v10.37c0,.72-.38,1.08-1.13,1.08a8.47,8.47,0,0,1-1.21-.08l-.28-1.26a8,8,0,0,0,1.07.1c.18,0,.28,0,.32-.14a1.13,1.13,0,0,0,0-.32v-8.53h-1.82V149h-1.2V134.45Z"/><path d="M973.13,135.73v1.72h4.76v1.06h-4.76v1.56h5.64v1.05h-5.64v1.67h7.47v1.1h-7.09a8.07,8.07,0,0,0,2.78,2.31,14.37,14.37,0,0,0,4.13,1.44l-.75,1.2a13.12,13.12,0,0,1-4.7-2,8.28,8.28,0,0,1-2.39-2.45q-1.5,3.47-7.09,4.5l-.69-1.13c3.55-.55,5.8-1.85,6.73-3.9h-7.07v-1.1h7.36v-1.67h-5.51v-1.05h5.51v-1.56h-4.66v-1.06h4.66v-1.72h-5.27v2.18h-1.33v-3.25h6.6v-1.85h1.31v1.85h6.66v3.25h-1.31v-2.18Z"/><line class="cls-6" x1="578" y1="726" x2="578" y2="804"/><path d="M534.34,702.32v-1H529v-1h12.09v1h-5.47v1h7v3.14h-1.33v-2.17h-5.68v3.79h-1.27v-3.79h-5.59v2.16h-1.31v-3.13Zm1.22,10.91v.83c0,.3.11.48.31.54a12.41,12.41,0,0,0,2.4.13,20.4,20.4,0,0,0,3-.12.66.66,0,0,0,.53-.58,11.18,11.18,0,0,0,.13-1.43l1.24.46a4.15,4.15,0,0,1-.45,2.25,1.49,1.49,0,0,1-1,.43,31.34,31.34,0,0,1-3.58.16,18.46,18.46,0,0,1-3-.14,1,1,0,0,1-.8-.58,1.76,1.76,0,0,1-.1-.66v-1.29h-4.19v.86h-1.32v-6.44h12.41v5.58Zm-5.86-9.1h3.74V705H529.7Zm0,1.69h3.74v.85H529.7Zm4.58,2.84h-4.19v1.22h4.19Zm0,2.24h-4.19v1.33h4.19Zm1.28-2.24v1.22h4.29v-1.22Zm0,2.24v1.33h4.29V710.9Zm1-6.77h3.86V705h-3.86Zm0,1.69h3.86v.85h-3.86Z"/><path d="M552.88,705.25v2.08H560v1.19h-7.14v5.8a1.42,1.42,0,0,1-.5,1.24,2.38,2.38,0,0,1-1.36.29c-1,0-1.85,0-2.53-.09l-.32-1.32c1,.09,1.88.14,2.51.14a1.26,1.26,0,0,0,.66-.11c.11-.08.16-.25.16-.52v-5.43H544v-1.19h7.46v-2.71a23.5,23.5,0,0,0,4.27-2.56h-9.83v-1.22H557.5l.78.85A40.26,40.26,0,0,1,552.88,705.25Z"/><path d="M568.53,700.66v6.57H566.6v5.91l.46-.11c.41-.09,1.08-.26,2-.5l.07,1.06a81.28,81.28,0,0,1-8,1.87l-.37-1.14c1-.16,1.92-.32,2.69-.47v-6.62h-1.93v-6.57Zm-6.59,12.09a28.19,28.19,0,0,0-.83-4.09l1.09-.31a35.59,35.59,0,0,1,.85,4.08Zm.77-11v1.7h4.61v-1.7Zm0,2.72v1.77h4.61v-1.77Zm1.82,2.81v6.39l1-.23v-6.16Zm2.33,4.62a27.45,27.45,0,0,0,.85-3.76l1.16.29a33.48,33.48,0,0,1-1,3.78Zm1.58,3.33a8.65,8.65,0,0,0,2.73-2.46l1,.66a10.76,10.76,0,0,1-2.9,2.69ZM573,703.5h3.22v9.07h-6.38V703.5h2c.16-.56.3-1.13.42-1.73h-3.11v-1.12H577v1.12h-3.51a3.48,3.48,0,0,0-.1.35C573.29,702.59,573.15,703.05,573,703.5Zm2,1h-4v1.65h4Zm-4,2.66v1.57h4V707.2Zm0,2.58v1.75h4v-1.75Zm5.07,6.26a16.26,16.26,0,0,0-2.45-2.64l.92-.7a19.25,19.25,0,0,1,2.55,2.43Z"/><path d="M581,706.66V716h-1.2v-7.64c-.39.5-.83,1-1.35,1.58l-.63-1.25a16.33,16.33,0,0,0,3.36-4.85l1,.68A23.54,23.54,0,0,1,581,706.66Zm-3.15-3a12,12,0,0,0,3-3.79l1.07.61a13.67,13.67,0,0,1-3.35,4.2Zm14.09,7.43a19.2,19.2,0,0,0,2.42,3.52l-.7,1.31a17.92,17.92,0,0,1-2.29-3.51,11.53,11.53,0,0,1-2.74,3.63l-.83-1.05a10.46,10.46,0,0,0,2.9-4,18.6,18.6,0,0,1-1.34-4.19l-.09.19a10.09,10.09,0,0,1-.5,1l-.43-.69v1H587v4a21.54,21.54,0,0,0,2-1.2l.23,1a27.31,27.31,0,0,1-3.93,2.26l-.54-1.09c.35-.13.69-.28,1-.44v-4.54h-1.5v.07a19,19,0,0,1-.38,4.33,5.88,5.88,0,0,1-1.51,2.71l-.88-.88a5.13,5.13,0,0,0,1.35-2.61,17.52,17.52,0,0,0,.26-3.45v-.17H581.8v-1.07h6.46l-.28-.44a13.17,13.17,0,0,0,1.22-3.51c.21-.94.39-2.09.55-3.44l1.2.17c-.16,1.12-.32,2.08-.48,2.89h3.69v1.17h-.91A23.79,23.79,0,0,1,591.91,711.12Zm-6.12-6.66H587V701.1h1.09v4.44h-5.63V701.1h1.08v3.36h1.16v-4.59h1.1Zm5.42,5.16a20.11,20.11,0,0,0,.5-2.22,24.45,24.45,0,0,0,.37-3.3H590.2a6.84,6.84,0,0,1-.22.82A20.59,20.59,0,0,0,591.21,709.62Z"/><path d="M597,704.07h3.52v1.09h-1.67v2.2h2.38v1.09h-2.38v5q1.15-.33,2.55-.84l.12,1.11a44.3,44.3,0,0,1-6.21,2l-.42-1.24q1.2-.25,2.52-.6l.27-.08v-5.36H595v-1.09h2.71v-2.2h-1.45c-.21.27-.5.6-.85,1l-.57-1.1a15.31,15.31,0,0,0,2.87-5.17H599l.14.16a29.92,29.92,0,0,1,2.42,3.15l-.88.89a26.85,26.85,0,0,0-2.12-3A19.55,19.55,0,0,1,597,704.07Zm-1,9.09a25.46,25.46,0,0,0-.75-3.33l1.07-.34a18.53,18.53,0,0,1,.77,3.29Zm3.26-.88a22.22,22.22,0,0,0,.79-3.08l1.12.3a19.75,19.75,0,0,1-.92,3Zm5.76-.73a4.85,4.85,0,0,1-1.06,2.9,5.39,5.39,0,0,1-2.85,1.57l-.72-1a4.86,4.86,0,0,0,2.77-1.48,4.17,4.17,0,0,0,.63-2h-1.61v-5.17h7.58v5.17h-2v2.63c0,.2.06.33.2.39a2.48,2.48,0,0,0,.66,0,6,6,0,0,0,.78,0,.53.53,0,0,0,.4-.48,12.37,12.37,0,0,0,.15-1.48l1.18.49a4.94,4.94,0,0,1-.4,2.16,1.27,1.27,0,0,1-.87.47,8,8,0,0,1-1.24.07,6,6,0,0,1-1.39-.1c-.46-.13-.69-.52-.69-1.16v-3Zm3.83-9.1c-.17.57-.37,1.15-.61,1.75h2.91v1H601v-1h2.56a15.48,15.48,0,0,0-.63-1.75h-1.53v-1.06h3.8v-1.52h1.3v1.52h4v1.06Zm-5.47,4.91v1.06h5.16v-1.06Zm0,2v1.17h5.16v-1.17Zm4.22-6.94h-3.4a12.81,12.81,0,0,1,.58,1.75H607A12.32,12.32,0,0,0,607.56,702.45Z"/><path d="M618.72,705.43a.3.3,0,0,0-.06.11,17,17,0,0,1-1.84,2.33h.85q1.92,0,4.44-.15l1.88-.08c-.56-.53-1.12-1-1.69-1.52l1.05-.61a35,35,0,0,1,3.15,2.85l.44.44-1.05.8c-.33-.37-.63-.7-.9-1l-.11-.12-4.25.28V711h5.84v1.11h-5.84v2.2h7.24v1.1H612.16v-1.1h7.14v-2.2h-5.71V711h5.71v-2.11l-.91,0c-1.35.05-2.86.1-4.52.14l-.41-1.14c.72,0,1.35,0,1.88,0a18.91,18.91,0,0,0,1.88-2.46h-2.75v-1.1h11.09v1.1Zm1.91-3.76h6.77v3.19h-1.33v-2.1H614v2.1h-1.33v-3.19h6.68v-1.8h1.33Z"/><line class="cls-6" x1="832" y1="819" x2="832" y2="741"/><line class="cls-6" x1="875.5" y1="818.5" x2="875.5" y2="714.5"/><line class="cls-6" x1="832.5" y1="740.5" x2="818.5" y2="740.5"/><line class="cls-6" x1="876" y1="714.5" x2="818.5" y2="714.5"/><path d="M651.65,737.48v-1.07H644.7v-1.07h6.95V734H653v1.38H660v1.07H653v1.07h5.75v5.94h-2.18v1.21h3.91v1.11h-3.91v3a1.28,1.28,0,0,1-.42,1.12,1.86,1.86,0,0,1-1.11.25c-.53,0-1.3,0-2.31-.1l-.31-1.22c.84.08,1.63.13,2.35.13.23,0,.36,0,.4-.14a.8.8,0,0,0,0-.3v-2.74H644.29v-1.11h10.88v-1.21H646v-5.94ZM650,749.23a16.44,16.44,0,0,0-2.73-2.45l1-.77a18.76,18.76,0,0,1,2.76,2.35Zm1.63-10.75h-4.31v1.45h4.31Zm0,2.44h-4.31v1.49h4.31Zm1.31-2.44v1.45h4.44v-1.45Zm0,2.44v1.49h4.44v-1.49Z"/><path d="M665.27,737.19v7.53c.85-.27,1.67-.55,2.45-.87l.14,1.23a64,64,0,0,1-6.14,2.1l-.55-1.32c.93-.23,1.85-.48,2.74-.74v-7.93h-2.48V736h6.07v1.2Zm6,8a17.89,17.89,0,0,1-2.46-4.9l-.06.09a14,14,0,0,1-1.35,2l-.91-1a17.84,17.84,0,0,0,3.21-7.35l1.33.23a27.2,27.2,0,0,1-.79,2.72h6.93v1.22h-1.73a16.9,16.9,0,0,1-2.53,6.93,17.89,17.89,0,0,0,4.58,3.57l-.83,1.27a15.89,15.89,0,0,1-4.54-3.73,14.17,14.17,0,0,1-5,3.79l-.82-1.1A11.94,11.94,0,0,0,671.29,745.21Zm.77-1.12a17.3,17.3,0,0,0,2.07-5.85h-4.32c-.09.22-.17.41-.25.58A15.41,15.41,0,0,0,672.06,744.09Z"/><path d="M681.49,742.22a18.68,18.68,0,0,1-2.52,4.56l-.76-1.26A16.42,16.42,0,0,0,681.3,740h-2.93v-1.18h3.12v-2.71q-1.08.24-2.28.42l-.55-1a31.76,31.76,0,0,0,5.82-1.43l.77,1a24.37,24.37,0,0,1-2.35.72l-.14,0v3h2.64V740h-2.64v1.21a22.56,22.56,0,0,1,2.73,2.19l-.81,1.1a27.25,27.25,0,0,0-1.92-2v7.57h-1.27Zm10.45,1.29,2.42-.45.1,1.2-2.52.49v5.36H690.6V745l-5.76,1.12-.22-1.22,6-1.14V734h1.34Zm-3.43-.71a24.31,24.31,0,0,0-2.81-2.56l.78-.93a18.61,18.61,0,0,1,2.9,2.52Zm.24-3.86a21.56,21.56,0,0,0-2.87-2.66l.84-.91a19.41,19.41,0,0,1,2.94,2.58Z"/><path d="M695.14,742.34a24.09,24.09,0,0,0,.68-4.86l1.11.13a25.15,25.15,0,0,1-.72,5.36Zm2.32-8.38h1.29v16.15h-1.29Zm2.32,5.24a14.6,14.6,0,0,0-1-2.59l.81-.64a13.55,13.55,0,0,1,1.09,2.42Zm6.53-4h4.5v1h-4.5v1h3.86v1h-3.86v1.08h5.17v1H700.07v-1h5v-1.08h-3.75v-1H705v-1h-4.35v-1H705V734h1.27Zm3.59,6.18v7.39a1.25,1.25,0,0,1-.33,1,1.54,1.54,0,0,1-1.07.3c-.5,0-1.15,0-2-.08l-.22-1.17a16,16,0,0,0,1.81.11.48.48,0,0,0,.39-.12.65.65,0,0,0,.07-.36v-1.62h-5.77v3.33h-1.28v-8.75Zm-7.07.95v1.2h5.77v-1.2Zm0,2.19v1.27h5.77V744.5Z"/><path d="M717.1,743.39v1.94h3v1.12h-3v3.66h-1.29v-3.66h-3v-1.12h3v-1.94h-3.23v-1.1h1.7a22,22,0,0,0-.7-2.41h-1.31v-1.11h3.52v-1.84h-2.85v-1.1h2.85V734h1.3v1.87h2.75v1.1h-2.75v1.84h3.24v1.11h-1.18a19.78,19.78,0,0,1-.79,2.41h1.86v1.1Zm.81-3.51H714.8c.23.7.45,1.5.66,2.41h1.72A20.64,20.64,0,0,0,717.91,739.88Zm9.48-5.27v4a1.2,1.2,0,0,1-.37,1,2,2,0,0,1-1.12.23c-.63,0-1.26,0-1.86-.09l-.25-1.15c.87.09,1.53.13,2,.13a.33.33,0,0,0,.38-.37v-2.63h-4.06v5.37h5.08l.73.63a15.07,15.07,0,0,1-1.86,4.93,11.13,11.13,0,0,0,2.56,2.24l-.77,1.17a13.26,13.26,0,0,1-2.52-2.33,13,13,0,0,1-2.36,2.4l-.81-1.07a9.81,9.81,0,0,0,2.4-2.34,14.39,14.39,0,0,1-2-4.53h-.44v7.91h-1.28v-15.5Zm-3.73,7.59a11.81,11.81,0,0,0,1.54,3.47,10.64,10.64,0,0,0,1.28-3.47Z"/><path d="M729.26,741.24a13.86,13.86,0,0,0,5.37-7.11l1.26.48a16.65,16.65,0,0,1-2.27,4.31,16.32,16.32,0,0,1-3.44,3.33Zm7.82.56a10,10,0,0,1-1.56,5.09,9.52,9.52,0,0,1-4.41,3.17l-.88-1.13a7.84,7.84,0,0,0,4.16-2.8,9,9,0,0,0,1.32-4.33h-3.36v-1.21h10.13a45.41,45.41,0,0,1-.61,7.77,1.8,1.8,0,0,1-.83,1.26,3.47,3.47,0,0,1-1.58.27c-.9,0-1.71,0-2.42-.08l-.3-1.33a22.16,22.16,0,0,0,2.49.16c.6,0,1-.14,1.16-.44q.52-.91.66-6.12v-.28Zm7.63.05a21.64,21.64,0,0,1-3.52-3.05,18.7,18.7,0,0,1-2.85-4.24l1.17-.55a16,16,0,0,0,6,6.68Z"/><path d="M754.42,734.71v7.39h-3.09v2h3.17v1.12h-3.17v2.28l.7-.12c.54-.08,1.51-.26,2.91-.52L755,748c-2.53.57-5.33,1.06-8.38,1.46l-.43-1.23c1.53-.17,2.81-.34,3.85-.5v-2.47h-3.26v-1.12h3.26v-2h-3v-7.39Zm-6.25,1.07v2h1.93v-2Zm0,3.11V741h1.93v-2.14Zm5.14-1.07v-2h-2v2Zm0,3.21v-2.14h-2V741Zm5.8-2.26c.28.28.56.59.85.92l-.83.69H762l.58.62a28.94,28.94,0,0,1-1.68,3.93l-1.18-.47a16.67,16.67,0,0,0,1.36-2.92h-2.16v7.31a1.23,1.23,0,0,1-.36,1,1.77,1.77,0,0,1-1.06.25,14.71,14.71,0,0,1-2-.14l-.22-1.23a18.33,18.33,0,0,0,2,.16c.24,0,.37-.13.37-.39v-7h-2.71v-1.16h4l-.1-.12a21.27,21.27,0,0,0-2.94-2.89l.85-.76c.59.48,1.13.95,1.61,1.4a13.12,13.12,0,0,0,1.8-2.17h-4.82v-1.12h6l.65.68A24.86,24.86,0,0,1,759.11,738.77Z"/><path d="M772,736.88v1.72h4.76v1H772v1.56h5.64v1.06H772v1.67h7.48V745h-7.09a8,8,0,0,0,2.77,2.31,15,15,0,0,0,4.13,1.44l-.74,1.2a12.89,12.89,0,0,1-4.7-2,8,8,0,0,1-2.39-2.45c-1,2.32-3.37,3.82-7.09,4.51l-.7-1.14q5.34-.81,6.73-3.89h-7.07v-1.1h7.36v-1.67h-5.51v-1.06h5.51v-1.56H766v-1h4.65v-1.72h-5.27v2.18h-1.33v-3.25h6.6V734H772v1.85h6.66v3.25h-1.31v-2.18Z"/><path d="M780.09,748.22a21.31,21.31,0,0,0,.65-4l1,.16a21.41,21.41,0,0,1-.6,4.48Zm7.58-6.05a38.73,38.73,0,0,1-.46,6.54,1.86,1.86,0,0,1-.54,1.08,1.82,1.82,0,0,1-1.17.3,15.32,15.32,0,0,1-1.64-.1l-.18-1.22a9.69,9.69,0,0,0,1.64.16.75.75,0,0,0,.66-.24c.28-.47.46-2.23.51-5.27v-.18H780.9v-8.63h6.91v1.07h-2.64v1.46h2.16v1h-2.16v1.48h2.16v1h-2.16v1.51Zm-5.39,6a33.31,33.31,0,0,0-.2-3.67l.83-.18a31.74,31.74,0,0,1,.36,3.61Zm-.17-12.46v1.46H784v-1.46Zm0,2.48v1.48H784v-1.48Zm0,2.5v1.51H784v-1.51Zm1.84,7.05a26.61,26.61,0,0,0-.53-3.43l.77-.24a22.26,22.26,0,0,1,.64,3.38Zm1.45-.56a23.9,23.9,0,0,0-.72-3.16l.76-.27a17,17,0,0,1,.77,3.09Zm6.59-1.39a7.22,7.22,0,0,1-3.67,4.42l-.83-1.07a6.18,6.18,0,0,0,3.67-4.22h-2.89v-4.37h3v-1.63h-1.51v-.55A12.06,12.06,0,0,1,788,740l-.75-1a10.11,10.11,0,0,0,3.83-5h1.43a12.41,12.41,0,0,0,4.23,4.73l-.7,1.11a15.6,15.6,0,0,1-1.93-1.64v.68h-1.6v1.63h3.08v4.37h-2.88a9.6,9.6,0,0,0,3.86,4.1l-.74,1.11A9.54,9.54,0,0,1,792,745.76Zm-.71-4.19H789.4v2.28h1.88Zm2.41-3.77a12.77,12.77,0,0,1-1.92-2.75,11.56,11.56,0,0,1-1.58,2.75Zm-1.26,3.77v2.28h2v-2.28Z"/><path d="M804.06,739.52l-.07.11a16.4,16.4,0,0,1-1.84,2.33H803q1.92,0,4.44-.15l1.89-.08c-.56-.53-1.13-1-1.7-1.52l1.06-.61a38.09,38.09,0,0,1,3.14,2.85l.44.44-1,.8c-.33-.37-.63-.69-.9-1l-.11-.12-4.25.29v2.2h5.84v1.1H806v2.2h7.24v1.1H797.5v-1.1h7.14v-2.2h-5.71v-1.1h5.71V743l-.92,0c-1.35,0-2.86.1-4.52.14l-.41-1.14h1.89a19.7,19.7,0,0,0,1.87-2.47h-2.74v-1.1H810.9v1.1Zm1.9-3.76h6.77V739H811.4v-2.11H799.28V739H798v-3.2h6.69V734H806Z"/><path d="M651.88,710.15v-1.07h-7V708h7v-1.37h1.31V708h7v1.08h-7v1.07h5.74v5.93h-2.17v1.22h3.91v1.11h-3.91v3a1.29,1.29,0,0,1-.43,1.12,1.94,1.94,0,0,1-1.11.24c-.53,0-1.3,0-2.31-.1l-.3-1.22a22,22,0,0,0,2.34.13c.23,0,.36,0,.4-.14a.74.74,0,0,0,0-.3v-2.73H644.51V717.3h10.88v-1.22h-9.14v-5.93Zm-1.64,11.74a16.83,16.83,0,0,0-2.72-2.45l1-.76a18.76,18.76,0,0,1,2.76,2.35Zm1.64-10.74h-4.32v1.44h4.32Zm0,2.43h-4.32v1.5h4.32Zm1.31-2.43v1.44h4.43v-1.44Zm0,2.43v1.5h4.43v-1.5Z"/><path d="M665.5,709.86v7.52c.84-.26,1.66-.55,2.45-.86l.13,1.22a61.1,61.1,0,0,1-6.14,2.11l-.54-1.33c.93-.23,1.84-.47,2.74-.73v-7.93h-2.49v-1.21h6.07v1.21Zm6,8a18.12,18.12,0,0,1-2.46-4.89l-.06.09a14.46,14.46,0,0,1-1.34,2l-.92-1a18,18,0,0,0,3.22-7.36l1.32.24a27.46,27.46,0,0,1-.78,2.72h6.92v1.22h-1.73a16.86,16.86,0,0,1-2.53,6.92,17.46,17.46,0,0,0,4.58,3.57l-.83,1.27a16,16,0,0,1-4.54-3.72,14.29,14.29,0,0,1-5,3.79l-.82-1.11A11.79,11.79,0,0,0,671.51,717.87Zm.77-1.12a17.17,17.17,0,0,0,2.07-5.84H670c-.09.22-.17.41-.25.57A15.51,15.51,0,0,0,672.28,716.75Z"/><path d="M681.71,714.89a18.1,18.1,0,0,1-2.52,4.55l-.76-1.25a16.67,16.67,0,0,0,3.1-5.53H678.6v-1.17h3.11v-2.71c-.72.16-1.47.3-2.28.41l-.54-1a30.65,30.65,0,0,0,5.81-1.43l.77,1c-.84.3-1.62.54-2.35.73l-.13,0v3h2.63v1.17H683v1.22a23.39,23.39,0,0,1,2.72,2.18l-.81,1.11a27.15,27.15,0,0,0-1.91-2v7.57h-1.28Zm10.46,1.29,2.41-.46.1,1.21-2.51.49v5.36h-1.35v-5.11l-5.76,1.13-.22-1.22,6-1.14v-9.81h1.35Zm-3.44-.71a23.63,23.63,0,0,0-2.81-2.57l.79-.92a18,18,0,0,1,2.89,2.52Zm.24-3.86A20.35,20.35,0,0,0,686.1,709L687,708a19.85,19.85,0,0,1,2.93,2.58Z"/><path d="M697.73,714.16a20.61,20.61,0,0,1-1.8,4.64l-.62-1.3a19.84,19.84,0,0,0,2.28-6h-2.07v-1.21h2.21v-3.63h1.2v3.63h1.58v1.21h-1.58v1.58c.51.54,1.08,1.22,1.7,2l-.68,1.17a17.76,17.76,0,0,0-1-1.65v8.18h-1.2Zm8.86-1,.26,0,.18,0h.25q.4-.5.9-1.2a21.29,21.29,0,0,0-1.53-2l.66-.38a17.2,17.2,0,0,0,1.4-2.73l1,.57a18.75,18.75,0,0,1-1.66,2.7c.27.37.5.7.69,1l0-.09c.46-.7.91-1.44,1.36-2.23l.91.65a29.24,29.24,0,0,1-2.61,3.61l1.57-.18.14,0c-.13-.32-.25-.61-.38-.89l.84-.42a11.9,11.9,0,0,1,1,2.67l-.91.41c-.06-.24-.14-.54-.25-.91a32.14,32.14,0,0,1-3.48.55l-.39-.88c.07.74.14,1.42.23,2H709a7.19,7.19,0,0,0-.84-.8l.92-.46a7.4,7.4,0,0,1,1.19,1.26h1.46v1.12H707a12.2,12.2,0,0,0,.77,2.14,12.7,12.7,0,0,0,1.47-1.87l1,.67a17.09,17.09,0,0,1-1.86,2.21,5.38,5.38,0,0,0,1.26,1.42,1,1,0,0,0,.47.24c.21,0,.39-.63.53-1.89l0-.29,1.09.68c-.17,2-.62,3-1.36,3a2.59,2.59,0,0,1-1.31-.56,6.56,6.56,0,0,1-1.63-1.71,17.37,17.37,0,0,1-3.38,2.23l-.7-1a14.46,14.46,0,0,0,3.51-2.26,11.87,11.87,0,0,1-1.07-3h-2.5a10.5,10.5,0,0,1-.2,1.23,17.8,17.8,0,0,1,2.23,1.69l-.68,1a15.6,15.6,0,0,0-1.82-1.65,8.6,8.6,0,0,1-2,3.55l-.85-.86a9.36,9.36,0,0,0,2.09-4.93h-1.58v-1.12h5.06v-.12a57.24,57.24,0,0,1-.39-6.5l0-2.12h1.17l0,2.12c0,1.51.09,2.9.18,4.19Zm-4.37-1.11a17.14,17.14,0,0,0-1.65-2l.71-.39a18.33,18.33,0,0,0,1.38-2.75l1,.49a21.7,21.7,0,0,1-1.59,2.78c.24.3.48.62.74,1,.47-.82.88-1.57,1.2-2.24l.89.6a33.14,33.14,0,0,1-2.53,4l.61-.06,1.07-.13c-.1-.34-.22-.67-.35-1l.78-.4a16.22,16.22,0,0,1,.81,2.58l-.83.41c-.05-.24-.1-.47-.17-.71-.88.19-2,.37-3.43.54l-.31-1.07.52-.05h.13C701.49,713.17,701.83,712.67,702.22,712.06Z"/><path d="M715,714.29a20.24,20.24,0,0,1-2,4.62l-.6-1.36a20.87,20.87,0,0,0,2.49-6.08h-2.29v-1.19H715v-3.65h1.26v3.65h1.65v1.19h-1.65V713a28.19,28.19,0,0,1,2,2.15l-.77,1.18a18.59,18.59,0,0,0-1.24-1.89v8.3H715Zm4.38.6v-2.47h1.13v2.47h1.19v-2.47h1.1v2.47h1.09V716h-1.09v3.71h-1.1V716h-1.19a16.05,16.05,0,0,1-.25,2.67,7.34,7.34,0,0,1-1.29,2.76l-.92-.86a5.85,5.85,0,0,0,1.11-2.4,11,11,0,0,0,.21-2.17h-1v-1.12Zm5.38,3.09a35.84,35.84,0,0,1-.94-6.71H718.3v-1.14h5.42l-.06-1q-.06-1-.09-2.49h1.24c0,1.4.06,2.57.11,3.5h3.63v1.14H725a44.23,44.23,0,0,0,.64,5.2,19,19,0,0,0,1.44-3.6l1.12.51a23.84,23.84,0,0,1-2.17,4.78,11.41,11.41,0,0,0,.81,2.2q.31.63.45.63c.07,0,.14-.11.19-.33a14.24,14.24,0,0,0,.4-2.25l1,.73c-.33,2.4-.85,3.61-1.53,3.61-.34,0-.71-.33-1.12-1a11.23,11.23,0,0,1-1.07-2.33,18,18,0,0,1-1.71,1.88,13.58,13.58,0,0,1-2,1.53l-.83-1A12.34,12.34,0,0,0,724.72,718Zm2.31-8.21a14.94,14.94,0,0,0-1.44-2.43l.92-.47a12.9,12.9,0,0,1,1.51,2.3Z"/><path d="M729.48,713.91a13.85,13.85,0,0,0,5.37-7.12l1.26.48a15.12,15.12,0,0,1-5.71,7.65Zm7.83.55a10.19,10.19,0,0,1-1.56,5.1,9.59,9.59,0,0,1-4.42,3.16l-.88-1.12a7.89,7.89,0,0,0,4.16-2.8,9,9,0,0,0,1.32-4.34h-3.35v-1.2H742.7a47,47,0,0,1-.6,7.77,1.79,1.79,0,0,1-.83,1.25,3.5,3.5,0,0,1-1.59.28c-.9,0-1.71,0-2.41-.09l-.31-1.33a20.24,20.24,0,0,0,2.49.17c.61,0,1-.15,1.16-.44.35-.61.57-2.66.66-6.12v-.29Zm7.63,0a20.79,20.79,0,0,1-3.52-3,18.8,18.8,0,0,1-2.86-4.25l1.17-.54a16,16,0,0,0,6,6.68Z"/><path d="M754.64,707.37v7.4h-3.09v2h3.17v1.12h-3.17v2.27l.7-.11c.55-.09,1.52-.26,2.91-.53l.09,1.11c-2.53.57-5.33,1.06-8.38,1.46l-.42-1.23c1.52-.18,2.8-.34,3.84-.51V717.9H747v-1.12h3.25v-2h-3v-7.4Zm-6.24,1.07v2h1.92v-2Zm0,3.12v2.14h1.92v-2.14Zm5.13-1.07v-2h-2v2Zm0,3.21v-2.14h-2v2.14Zm5.81-2.27c.27.28.56.59.84.92l-.83.7h2.83l.57.62a28.23,28.23,0,0,1-1.68,3.92l-1.18-.46a16.29,16.29,0,0,0,1.36-2.92H759.1v7.31a1.21,1.21,0,0,1-.37,1,1.68,1.68,0,0,1-1.06.25,14.84,14.84,0,0,1-2-.13l-.22-1.23a18.33,18.33,0,0,0,2,.16c.25,0,.37-.13.37-.39v-7h-2.7v-1.16h4l-.1-.12A21.37,21.37,0,0,0,756.1,710l.85-.77c.6.49,1.13,1,1.61,1.41a14,14,0,0,0,1.8-2.17h-4.82v-1.12h6l.65.68A25.35,25.35,0,0,1,759.34,711.43Z"/><path d="M772.19,709.55v1.72h4.75v1.05h-4.75v1.56h5.63v1.06h-5.63v1.66h7.47v1.11h-7.09a8,8,0,0,0,2.77,2.31,14.8,14.8,0,0,0,4.13,1.43l-.74,1.21a13.13,13.13,0,0,1-4.7-2,8,8,0,0,1-2.39-2.45c-1,2.31-3.37,3.82-7.09,4.51l-.7-1.14c3.56-.55,5.8-1.84,6.73-3.89h-7.07V716.6h7.37v-1.66h-5.52v-1.06h5.52v-1.56h-4.66v-1.05h4.66v-1.72H765.6v2.17h-1.32v-3.24h6.6v-1.85h1.31v1.85h6.65v3.24h-1.31v-2.17Z"/><path d="M780.31,720.89a20.5,20.5,0,0,0,.65-4l1,.17a21.41,21.41,0,0,1-.6,4.48Zm7.58-6a40.41,40.41,0,0,1-.45,6.54,2,2,0,0,1-.55,1.08,1.82,1.82,0,0,1-1.16.29q-.69,0-1.65-.09l-.18-1.22a9.78,9.78,0,0,0,1.64.16.73.73,0,0,0,.66-.25c.29-.47.46-2.22.51-5.26v-.18h-5.58v-8.64H788v1.07h-2.64v1.47h2.16v1h-2.16v1.47h2.16v1h-2.16v1.51Zm-5.39,6a35.82,35.82,0,0,0-.19-3.66l.83-.18a31.37,31.37,0,0,1,.35,3.6Zm-.17-12.46v1.47h1.89v-1.47Zm0,2.49v1.47h1.89v-1.47Zm0,2.5v1.51h1.89v-1.51Zm1.84,7a27.08,27.08,0,0,0-.53-3.44l.77-.24a21.42,21.42,0,0,1,.64,3.39Zm1.45-.56a24.52,24.52,0,0,0-.72-3.17l.77-.26a17.89,17.89,0,0,1,.76,3.09Zm6.6-1.39a7.32,7.32,0,0,1-3.68,4.42l-.83-1.07a6.2,6.2,0,0,0,3.67-4.22h-2.89v-4.38h3v-1.62H790V711a11.46,11.46,0,0,1-1.79,1.65l-.74-1a10.08,10.08,0,0,0,3.82-4.94h1.43a12.56,12.56,0,0,0,4.23,4.73l-.69,1.11a15.8,15.8,0,0,1-1.94-1.64v.68h-1.6v1.62h3.08v4.38H792.9a9.6,9.6,0,0,0,3.86,4.1l-.75,1.1A9.5,9.5,0,0,1,792.22,718.43Zm-.72-4.19h-1.87v2.28h1.87Zm2.41-3.77a12.84,12.84,0,0,1-1.92-2.76,11.37,11.37,0,0,1-1.57,2.76Zm-1.25,3.77v2.28h2v-2.28Z"/><path d="M804.28,712.19l-.07.11a18.31,18.31,0,0,1-1.83,2.33h.84q1.92,0,4.44-.15l1.89-.08c-.56-.53-1.13-1-1.7-1.52l1.06-.62a40.07,40.07,0,0,1,3.15,2.86l.44.44-1.06.8c-.33-.37-.62-.7-.9-1l-.1-.12-4.25.28v2.2H812v1.11h-5.83V721h7.23v1.11h-15.7V721h7.14v-2.19h-5.71v-1.11h5.71v-2.12l-.91,0c-1.35.05-2.86.1-4.53.14l-.41-1.14c.73,0,1.36,0,1.89,0a18.87,18.87,0,0,0,1.87-2.46H800v-1.11h11.09v1.11Zm1.91-3.76H813v3.19h-1.33v-2.1H799.5v2.1h-1.32v-3.19h6.68v-1.8h1.33Z"/><rect class="cls-5" x="1042.53" y="308.64" width="123.17" height="38.98"/><rect class="cls-5" x="1042.53" y="348.09" width="123.17" height="38.98"/><rect class="cls-5" x="1042.53" y="387.21" width="123.17" height="38.98"/><rect class="cls-5" x="1042.53" y="426.45" width="123.17" height="38.98"/><rect class="cls-5" x="1042.42" y="465.96" width="123.17" height="38.98"/><rect class="cls-5" x="1042.42" y="505.41" width="123.17" height="38.98"/><rect class="cls-5" x="1042.42" y="544.53" width="123.17" height="38.98"/><rect class="cls-5" x="1042.42" y="583.77" width="123.17" height="38.98"/><rect class="cls-5" x="1042.53" y="622.67" width="123.17" height="38.98"/><rect class="cls-5" x="1042.53" y="661.79" width="123.17" height="38.98"/><rect class="cls-5" x="1042.53" y="701.02" width="123.17" height="38.98"/><rect class="cls-5" x="1042.53" y="739.5" width="123.17" height="33.14"/><path d="M1095.73,482.65a13.51,13.51,0,0,0,2.67,5,14.2,14.2,0,0,0,4.11,3.45l-.81,1.19a15.31,15.31,0,0,1-4.51-4.06,15.69,15.69,0,0,1-2.11-4,11.27,11.27,0,0,1-6.68,8.17l-.83-1.06a10.63,10.63,0,0,0,6.61-8.65h-6.47v-1.22h6.51v-4h1.3v4h6.63v1.22Z"/><path d="M1111,478v7h-2.9v1.89h3v1.06h-3V490l.65-.11c.52-.08,1.43-.24,2.75-.49l.08,1q-3.57.81-7.89,1.38l-.4-1.16c1.43-.16,2.64-.32,3.62-.47V487.9h-3.06v-1.06h3.06V485H1104v-7Zm-5.87,1v1.92h1.81V479Zm0,2.93v2h1.81v-2Zm4.83-1V479H1108v1.92Zm0,3v-2H1108v2Zm5.47-2.13c.26.27.52.56.79.87l-.78.65h2.66l.54.58a26.14,26.14,0,0,1-1.58,3.7l-1.11-.44a15.85,15.85,0,0,0,1.28-2.75h-2v6.88a1.16,1.16,0,0,1-.34.95,1.69,1.69,0,0,1-1,.23,14.61,14.61,0,0,1-1.91-.12l-.21-1.16a18.3,18.3,0,0,0,1.89.15c.23,0,.35-.12.35-.37v-6.56h-2.55v-1.09h3.82l-.1-.11a19.37,19.37,0,0,0-2.77-2.72l.8-.72c.56.45,1.07.89,1.52,1.32a13.54,13.54,0,0,0,1.69-2h-4.53V478h5.66l.61.64A25,25,0,0,1,1115.4,481.81Z"/><path d="M1090.76,527.46h1.08v-8.23h1v9.35h-4.18v1.29h-1V519.23h1v8.23h1.06v-11h1Zm1.89,2.83a10.91,10.91,0,0,0,.93-3.36l1,.22a14.23,14.23,0,0,1-.87,3.67Zm3.62-12.53a13.09,13.09,0,0,0,.43-1.53l1.25.21c-.15.44-.32.87-.52,1.32h3.67v4.72H1095v.91h7.53v1H1095v.93h7a31.85,31.85,0,0,1-.31,5,1.5,1.5,0,0,1-.61,1,2.18,2.18,0,0,1-1.15.25,13.7,13.7,0,0,1-1.76-.12l-.21-1.12a13.83,13.83,0,0,0,1.85.14c.31,0,.5-.08.59-.23a13.88,13.88,0,0,0,.43-3.77v-.12h-7v-8.5Zm-1.28.93v1h5v-1Zm0,1.87v1h5v-1Zm.37,9.74a22.53,22.53,0,0,0-.34-3.18l.87-.18a18.35,18.35,0,0,1,.47,3.11Zm2.07-.44a23.59,23.59,0,0,0-.67-2.88l.82-.28a16.06,16.06,0,0,1,.77,2.75Zm2-.53a17.31,17.31,0,0,0-.94-2.51l.74-.36a12,12,0,0,1,1,2.39Z"/><path d="M1117.07,523.57v6.62a1.2,1.2,0,0,1-.36,1,1.74,1.74,0,0,1-1.1.27q-1,0-1.92-.09l-.27-1.18a15,15,0,0,0,1.94.17q.36,0,.45-.15a.63.63,0,0,0,.07-.35v-6.29h-7.09v4.93h-4.12v1.3h-1.06V519.19h1.06v8.19h1V516.47h1.07v10.91h1v-8.19h1v3.32h9.75v1.06Zm-4.31-5.67v-1.61h1.17v1.61h3.82v1h-3.88a2.91,2.91,0,0,1-.12.41,31,31,0,0,1,3.82,2l-.75.9a37.65,37.65,0,0,0-3.49-2,5,5,0,0,1-1.11,1.18,6.9,6.9,0,0,1-2.18,1l-.65-.92a5.53,5.53,0,0,0,2.32-1,3.1,3.1,0,0,0,1-1.43h-3.35v-1Zm1.82,7v4H1111v.85h-1.06v-4.82Zm-3.59,1v2h2.55v-2Z"/><path d="M1089.84,563a16.75,16.75,0,0,1-2,4.2l-.63-1.18a15.86,15.86,0,0,0,2.49-5.19h-2.31v-1.1h2.48v-2.53c-.53.13-1.17.25-1.91.36l-.49-.93a22,22,0,0,0,4.8-1.25l.73.88a19.92,19.92,0,0,1-2,.66v2.81h2v1.1h-2v1.27a15.69,15.69,0,0,1,2.08,1.88l-.71,1.06a21.23,21.23,0,0,0-1.37-1.68v7.1h-1.15ZM1093,557a45.58,45.58,0,0,0,8.08-1.49l.82.94a51.92,51.92,0,0,1-8.36,1.56Zm.31,5.27h1.13v8.27h-1.13Zm1.6-.53a17.49,17.49,0,0,0-1.12-3l1.06-.37a18.41,18.41,0,0,1,1.12,3Zm6.95.51v8.29h-1.12v-.84h-3.88v.84h-1.1V562.2Zm-4.26-.91a17.76,17.76,0,0,0-1-3.07l1.07-.35a17.17,17.17,0,0,1,1,3Zm-.74,1.9v2.16h3.88v-2.16Zm0,3.12v2.34h3.88v-2.34Zm2.54-5a27,27,0,0,0,1.53-3.76l1.23.42a31.34,31.34,0,0,1-1.74,3.71Z"/><path d="M1106.24,562.25a19.72,19.72,0,0,1-2.32,4.76l-.67-1.2a17.43,17.43,0,0,0,2.84-5.91h-2.62v-1.14h2.77v-3.47h1.22v3.47h2.06v1.14h-2.06v1.64a20.31,20.31,0,0,1,2.47,2.41l-.7,1.06a22.65,22.65,0,0,0-1.7-2l-.07-.08v7.58h-1.22Zm8.81-3.49v-3.47h1.25v3.47h2.23v1.13h-2.23V569a1.63,1.63,0,0,1-.24,1,1.38,1.38,0,0,1-1.16.39,20.36,20.36,0,0,1-2.38-.11l-.28-1.26a14.9,14.9,0,0,0,2.29.19.58.58,0,0,0,.44-.12.77.77,0,0,0,.08-.41v-8.74h-5v-1.13Zm-2.58,7.5a27.05,27.05,0,0,0-1.93-4.12l1-.66a26.58,26.58,0,0,1,2,4.1Z"/><path d="M1083.93,596.86v1.25h8.61v1h-8.61v1.26h8.61v1h-8.61v1.35h11v1h-7.15a7.45,7.45,0,0,0,1.72,2.48,21.85,21.85,0,0,0,3.33-2.34l1,.87a27.25,27.25,0,0,1-3.53,2.17A13.84,13.84,0,0,0,1095,609l-.82,1.11a16.44,16.44,0,0,1-3.75-1.78,9.39,9.39,0,0,1-3.78-4.72h-2.71v5l.11,0c1.53-.33,3-.74,4.55-1.21l.09,1.07a53.49,53.49,0,0,1-7.36,1.92l-.42-1.18,1.75-.31v-5.26h-2.88v-1h2.88v-6.8h10.72v1Z"/><path d="M1098.56,603.74h10v6.64h-1.3v-.91h-7.69v.91h-1.28v-6.45c-.42.26-1,.59-1.78,1l-.75-1.07a14,14,0,0,0,6.81-5.88h1.39a15.59,15.59,0,0,0,4.27,4,20.48,20.48,0,0,0,2.82,1.44l-.75,1.1a20.71,20.71,0,0,1-3.5-2,19,19,0,0,1-3.49-3.37A15.88,15.88,0,0,1,1098.56,603.74Zm-2.17-4.56a11.84,11.84,0,0,0,3.92-3.76l1,.62a12.76,12.76,0,0,1-4.06,4.05Zm10.85,5.66h-7.69v3.51h7.69Zm2-4.84a38.17,38.17,0,0,0-4.18-4l.94-.71a35.81,35.81,0,0,1,4.18,3.77Z"/><path d="M1113.93,595.86h1.32v5.75a19.16,19.16,0,0,1-.57,5.34,8.22,8.22,0,0,1-1.78,3l-1-.92a6.92,6.92,0,0,0,1.78-3.52,20.69,20.69,0,0,0,.29-3.84Zm5,.29h1.3v12.66H1119Zm5.26-.61h1.33v14.63h-1.33Z"/><path d="M1069.14,638v11.38h-1.23v-8.77a20.42,20.42,0,0,1-1.5,2.3l-.64-1.16a18,18,0,0,0,2.36-4.36c.35-.91.7-2,1-3.29l1.2.3A36.12,36.12,0,0,1,1069.14,638Zm10.54.68h1.46v1.06h-1.46v3.68h-4a7.91,7.91,0,0,1-.72,3.05,6.73,6.73,0,0,1-3,3l-.9-.91a6.09,6.09,0,0,0,2.68-2.49,7,7,0,0,0,.69-2.63h-3.6v-1.07h3.64v-2.61h-4.74v-1.06h4.74v-2.5h-3.39v-1.09h8.61Zm-1.22,0v-2.5h-2.77v2.5Zm0,1.06h-2.77v2.61h2.77Z"/><path d="M1087.25,638.11V648a1.29,1.29,0,0,1-.35,1.08,1.64,1.64,0,0,1-1,.21,12.84,12.84,0,0,1-1.35-.06l-.21-1.08a7.88,7.88,0,0,0,1.17.09,1.22,1.22,0,0,0,.52-.07.4.4,0,0,0,.11-.32v-3.15H1084a13.16,13.16,0,0,1-.27,2.36,8.55,8.55,0,0,1-1,2.28l-.89-.81a7.79,7.79,0,0,0,1-3,15.78,15.78,0,0,0,.08-1.64v-5.86Zm-1-2.62v-1.31h1.24v1.31h3.86v-1.31h1.24v1.31H1097v1h-4.33v.83h-1.24v-.83h-3.86v1.07h-1.24v-1.07h-4.2v-1Zm-2.3,3.65v1.8h2.18v-1.8Zm0,2.73v1.89h2.18v-1.89Zm9.87,1.11h-3.15a10.23,10.23,0,0,1-.94,1.1,10.2,10.2,0,0,1,1,1l-.77.76a13.12,13.12,0,0,0-1.06-1.1c-.22.18-.56.43-1,.73l-.68-.83a9.43,9.43,0,0,0,2.08-1.7h-1.66V642h2.36a9.77,9.77,0,0,0,.64-1.24l0-.09H1088v-.93h1.23a8.61,8.61,0,0,0-.81-1.38l1-.41a15.6,15.6,0,0,1,.9,1.79h.71a19.09,19.09,0,0,0,.46-2.17l1.13.09a19.31,19.31,0,0,1-.43,2.08h1.13a11.66,11.66,0,0,0,1.1-1.89l1.08.4c-.33.55-.65,1-1,1.49h1.88v.93h-2.87a7.64,7.64,0,0,0,.87,1.33H1097V643h-1.65a9.62,9.62,0,0,0,1.93,1.27l-.74.94c-.41-.25-.76-.49-1-.7a7.33,7.33,0,0,1-1.24,1.3l-.76-.67a7.4,7.4,0,0,0,1.18-1.3A9.1,9.1,0,0,1,1093.86,643Zm-6.24,4.62a15.35,15.35,0,0,0,3-1.6l.31.89a15.36,15.36,0,0,1-2.86,1.68Zm4-4.1h1.13v4.77a1.29,1.29,0,0,1-.21.83,1.26,1.26,0,0,1-.93.26,13,13,0,0,1-1.43-.08l-.19-1.07a9.34,9.34,0,0,0,1.28.11c.17,0,.27-.05.31-.14a.92.92,0,0,0,0-.32Zm1.59-1.46a11.51,11.51,0,0,1-.71-1.33h-.53a9.48,9.48,0,0,1-.61,1.33Zm2.9,6.61a23.25,23.25,0,0,0-2.93-1.93l.6-.79a26.32,26.32,0,0,1,3,1.78Z"/><path d="M1107.07,649.38a10.36,10.36,0,0,1-2.34-3.15,10,10,0,0,1-1.12-4.46,10.31,10.31,0,0,1,1.41-5,9.81,9.81,0,0,1,2-2.58h1.18a17,17,0,0,0-1.69,2.21,10,10,0,0,0-1.63,5.4,9.86,9.86,0,0,0,1.46,5.09,16.53,16.53,0,0,0,1.86,2.5Z"/><path d="M1120.68,636v-1.84h1.25V636h5.61v1h-5.61v1.72h7v1.07h-3.27a15.93,15.93,0,0,1-1.31,2.35h4.14v1h-6.57V645h6.14v1.05h-6.14v3.3h-1.25v-3.3h-6V645h6v-1.8h-6.47v-1H1118l-.11-.23a22,22,0,0,0-1.05-2.12h-3.07v-1.07h6.91v-1.72h-5.5v-1Zm3.61,3.83h-6.11l.06.12a23.86,23.86,0,0,1,1,2.23H1123A17.7,17.7,0,0,0,1124.29,639.84Z"/><path d="M1134.49,649.38a18.23,18.23,0,0,0,1.69-2.23,10,10,0,0,0,1.62-5.36,9.83,9.83,0,0,0-1.45-5.11,18.62,18.62,0,0,0-1.86-2.5h1.17a10.44,10.44,0,0,1,2.34,3.14,10.09,10.09,0,0,1,1.13,4.46,10.33,10.33,0,0,1-1.42,5,9.66,9.66,0,0,1-2,2.59Z"/><path d="M1100.43,675.92V675h-4.93v-1h4.93v-1.21h1.21V674h2.61v-1.21h1.22V674h5.08v1h-5.08v.93h4v5.16h-12.83v-5.16Zm8.24,6.07v6h-1.28v-.67h-8.75V688h-1.27v-6Zm-8.21-5.17h-2.63V678h2.63Zm0,2.09h-2.63v1.3h2.63Zm-1.82,4v1.25h8.75v-1.25Zm0,2.14v1.32h8.75v-1.32Zm3-9.14h2.61V675h-2.61Zm0,.9V678h2.61v-1.22Zm0,2.09v1.3h2.61v-1.3Zm3.8-2.09V678h2.79v-1.22Zm0,2.09v1.3h2.79v-1.3Z"/><path d="M1090.11,719.86a18.23,18.23,0,0,1-2.13,4.63l-.64-1.18a17.86,17.86,0,0,0,2.64-5.9h-2.45v-1.14h2.58v-3.46h1.22v3.46h2.09v1.14h-2.09v1.79a21.35,21.35,0,0,1,2.24,2.21l-.72,1c-.5-.66-1-1.27-1.52-1.83V728h-1.22Zm2.79-.11a13.71,13.71,0,0,0,2.52-6.48l1.16.4a16.43,16.43,0,0,1-2.75,6.92Zm1.27,6.37a.75.75,0,0,1,.06-.13,53.85,53.85,0,0,0,2.35-7.11l1.28.37a58.5,58.5,0,0,1-2.45,6.76c1.35-.13,2.88-.33,4.57-.61-.52-1-1.09-2-1.71-3l1-.57a40.11,40.11,0,0,1,2.94,5.39l-1.09.66c-.29-.65-.52-1.16-.71-1.54a60.76,60.76,0,0,1-6.94,1.11l-.42-1.23,1-.07Zm7.72-5.48a16.76,16.76,0,0,1-3.81-7.07l1-.43a15.31,15.31,0,0,0,3.57,6.42Z"/><path d="M1105.69,720.31a19.2,19.2,0,0,0-2.38-2.39l.85-.86a18.79,18.79,0,0,1,2.42,2.29Zm-2.07,6.67a24,24,0,0,0,2.49-5.24l1,.76a25.76,25.76,0,0,1-2.46,5.41Zm2.62-10.69a15.71,15.71,0,0,0-2.32-2.41l.84-.86a14.65,14.65,0,0,1,2.36,2.32Zm7.17.31v1.06h4.1v1h-4.1v1.12h5.26v.94h-2.45a13.71,13.71,0,0,1-.76,1.58h2.73v1h-4.78v1.23h4.3v1h-4.3V728h-1.24v-2.59H1108v-1h4.17v-1.23h-4.6v-1H1110a10.18,10.18,0,0,0-.72-1.58h-2.35v-.94h5.26v-1.12h-4.09v-1h4.09V716.6H1108v-3.25h9.76v3.25Zm-4.31-2.33v1.43h1.79v-1.43Zm5.88,6.41h-4.47a12,12,0,0,1,.61,1.58h3.17C1114.54,721.76,1114.77,721.23,1115,720.68Zm-3.1-6.41v1.43h1.81v-1.43Zm4.7,1.43v-1.43h-1.86v1.43Z"/><path d="M1092.61,752.12v-1.49H1088v-1.06h14.17v1.06h-4.76v1.49h3.76v4.06h-5.52v1.54h7v1.06h-5.92a16.5,16.5,0,0,0,3.54,2.29,23.76,23.76,0,0,0,2.47,1l-.77,1.12a16.61,16.61,0,0,1-6.34-4.18v5h-1.23v-5a15.09,15.09,0,0,1-6.25,4.47l-.71-1a16.59,16.59,0,0,0,5.89-3.66h-5.85v-1.06h6.92v-1.54h-5.43v-4.06Zm0,1h-2.45v2.11h2.45Zm1.19-1h2.39v-1.49h-2.39Zm0,1v2.11h2.39V753.1Zm3.56,0v2.11h2.52V753.1Z"/><path d="M1117.54,750.09v13.42h-1.25v-1.22H1105.8v1.2h-1.25v-13.4Zm-11.74,1.12v4.22h4.57v-4.22Zm0,5.32v4.61h4.57v-4.61Zm10.49-1.1v-4.22h-4.69v4.22Zm0,5.71v-4.61h-4.69v4.61Z"/><circle cx="875.5" cy="818.5" r="4"/><path d="M875.5,815a3.5,3.5,0,1,1-3.5,3.5,3.5,3.5,0,0,1,3.5-3.5m0-1a4.5,4.5,0,1,0,4.5,4.5,4.49,4.49,0,0,0-4.5-4.5Z"/><circle cx="832.5" cy="818.5" r="4"/><path d="M832.5,815a3.5,3.5,0,1,1-3.5,3.5,3.5,3.5,0,0,1,3.5-3.5m0-1a4.5,4.5,0,1,0,4.5,4.5,4.49,4.49,0,0,0-4.5-4.5Z"/><circle cx="577.5" cy="803.5" r="4"/><path d="M577.5,800a3.5,3.5,0,1,1-3.5,3.5,3.5,3.5,0,0,1,3.5-3.5m0-1a4.5,4.5,0,1,0,4.5,4.5,4.49,4.49,0,0,0-4.5-4.5Z"/></svg>