<svg id="レイヤー_1" data-name="レイヤー 1" xmlns="http://www.w3.org/2000/svg" viewBox="0 0 1920 1080"><defs><style>.cls-1,.cls-2{fill:#fff;}.cls-2,.cls-3,.cls-4,.cls-5,.cls-6,.cls-7{stroke:#000;stroke-miterlimit:10;}.cls-3{fill:#aae5ff;}.cls-4{fill:#ffa49f;}.cls-5,.cls-7{fill:none;}.cls-5{stroke-width:2px;}.cls-6{fill:#fff1aa;}</style></defs><rect class="cls-1" width="1920" height="1080"/><rect class="cls-2" x="907.5" y="210.5" width="98" height="98"/><rect class="cls-2" x="520.5" y="210.5" width="38" height="98"/><path class="cls-2" d="M558.5,178.5h-9c0-1.18-.13-7.5-9-14a22.53,22.53,0,0,0-26,0,23,23,0,0,0-8,27c3.68,9.2,12.5,12.51,14,13v6h485v158h-80l-1,54h81l-2,443h-483v19c-10-1.16-18.72,6.52-19,16a16.71,16.71,0,0,0,17,17c9.36-.27,17.78-8.54,17-18h473v93h34v-93h326v-20a15.08,15.08,0,0,0,13-13,14.54,14.54,0,1,0-29-1h-281v-93h-29v-464h29v-98h272c.78,10.77,10.1,18.18,19,17,7.82-1,14.8-8.63,14-17-.53-5.55-4.4-10.51-10-13v-19h-327v-97h-34v97Z"/><rect class="cls-3" x="1165.5" y="210.5" width="116" height="98"/><rect class="cls-2" x="1281.5" y="210.5" width="44" height="98"/><rect class="cls-2" x="1071.5" y="210.5" width="94" height="98"/><rect class="cls-2" x="897.5" y="772.5" width="106" height="93"/><rect class="cls-4" x="1333.5" y="899.5" width="43" height="93"/><rect class="cls-2" x="1272.5" y="772.5" width="43" height="93"/><rect class="cls-2" x="1071.5" y="772.5" width="94" height="93"/><rect class="cls-2" x="518.5" y="772.5" width="35" height="93"/><path d="M1206.72,254.5v10h7.45v1.26H1198V264.5h7.33v-10h-6.27v-1.22h14.06v1.22Z"/><path d="M1218.92,255.37v12h-1.34V257.9a23.59,23.59,0,0,1-2,2.74l-.65-1.29a19.69,19.69,0,0,0,2.68-4.26,31.18,31.18,0,0,0,1.46-3.9l1.29.34A32.17,32.17,0,0,1,1218.92,255.37Zm4.45-1.37h7.7v1.17h-5.29v2.77H1230v1.14h-4.25v2.75h4.57V263h-4.57v4.41h-1.31V255.17h-1.55a15.6,15.6,0,0,1-2.2,3.6l-.86-1a16.11,16.11,0,0,0,3-6.5l1.24.22A23.69,23.69,0,0,1,1223.37,254Z"/><path d="M1238.78,256.82l-.07.11a18.31,18.31,0,0,1-1.83,2.33h.84q1.92,0,4.44-.15l1.89-.08c-.56-.53-1.13-1-1.7-1.52l1.06-.62a38.35,38.35,0,0,1,3.14,2.86l.45.44-1.06.8c-.33-.37-.62-.7-.9-1l-.1-.12-4.25.28v2.2h5.83v1.11h-5.83v2.2h7.23v1.1h-15.7v-1.1h7.14v-2.2h-5.71v-1.11h5.71v-2.12l-.91.05c-1.36.05-2.86.1-4.53.14l-.41-1.14,1.89,0a18.87,18.87,0,0,0,1.87-2.46h-2.74v-1.11h11.09v1.11Zm1.91-3.76h6.76v3.19h-1.33v-2.1H1234v2.1h-1.32v-3.19h6.68v-1.8h1.33Z"/><rect x="941.5" y="243.5" width="29.5" height="29.5" rx="2"/><rect class="cls-5" x="941.5" y="243.5" width="29.5" height="29.5" rx="2"/><rect class="cls-1" x="955.49" y="247.65" width="1.38" height="21.76"/><path class="cls-1" d="M949.05,251.28a1.82,1.82,0,1,0-1.82-1.82A1.82,1.82,0,0,0,949.05,251.28Z"/><path class="cls-1" d="M952.59,253.87c-.36-1.24-1.19-2.06-2.12-2.06h-2.84c-.93,0-1.75.82-2.12,2.06l-1.34,4.75a.75.75,0,0,0,.54.91.74.74,0,0,0,.9-.54l1.34-4.73h.39L945,262.49h2.19v6.11a.85.85,0,1,0,1.69,0v-6.11h.46v6.11a.85.85,0,1,0,1.7,0v-6.11h2l-2.32-8.23h.39l1.34,4.73a.74.74,0,0,0,.9.54.75.75,0,0,0,.54-.91Z"/><path class="cls-1" d="M963.57,251.28a1.82,1.82,0,1,0-1.82-1.82A1.81,1.81,0,0,0,963.57,251.28Z"/><path class="cls-1" d="M965.81,251.79H961a2,2,0,0,0-1.84,1.84v6.11a.8.8,0,0,0,1.6,0v-5h.37v13.64a1,1,0,0,0,2.09,0v-7.92h.34v7.92a1.05,1.05,0,0,0,2.1,0V254.72h.36v5a.8.8,0,1,0,1.6,0v-6.11A2,2,0,0,0,965.81,251.79Z"/><rect x="525.03" y="242.62" width="29.5" height="29.5" rx="2"/><rect class="cls-5" x="525.03" y="242.62" width="29.5" height="29.5" rx="2"/><polygon class="cls-1" points="544.32 248.29 544.32 253.18 538.89 253.18 538.89 258.07 533.46 258.07 533.46 262.95 529.29 262.95 529.29 265.47 535.97 265.47 535.97 260.58 541.4 260.58 541.4 255.69 546.83 255.69 546.83 250.8 551 250.8 551 248.29 544.32 248.29"/><rect x="1288.36" y="244.25" width="29.5" height="29.5" rx="2"/><rect class="cls-5" x="1288.36" y="244.25" width="29.5" height="29.5" rx="2"/><polygon class="cls-1" points="1307.65 249.92 1307.65 254.81 1302.22 254.81 1302.22 259.69 1296.8 259.69 1296.8 264.58 1292.62 264.58 1292.62 267.1 1299.31 267.1 1299.31 262.21 1304.73 262.21 1304.73 257.32 1310.16 257.32 1310.16 252.43 1314.33 252.43 1314.33 249.92 1307.65 249.92"/><rect x="1279.25" y="802.58" width="29.5" height="29.5" rx="2"/><rect class="cls-5" x="1279.25" y="802.58" width="29.5" height="29.5" rx="2"/><polygon class="cls-1" points="1298.54 808.25 1298.54 813.14 1293.11 813.14 1293.11 818.03 1287.68 818.03 1287.68 822.92 1283.51 822.92 1283.51 825.43 1290.2 825.43 1290.2 820.54 1295.62 820.54 1295.62 815.65 1301.05 815.65 1301.05 810.76 1305.22 810.76 1305.22 808.25 1298.54 808.25"/><rect x="521.58" y="803.92" width="29.5" height="29.5" rx="2"/><rect class="cls-5" x="521.58" y="803.92" width="29.5" height="29.5" rx="2"/><polygon class="cls-1" points="540.87 809.58 540.87 814.47 535.44 814.47 535.44 819.36 530.02 819.36 530.02 824.25 525.85 824.25 525.85 826.76 532.53 826.76 532.53 821.87 537.96 821.87 537.96 816.99 543.38 816.99 543.38 812.1 547.56 812.1 547.56 809.58 540.87 809.58"/><rect x="935.69" y="804.58" width="29.5" height="29.5" rx="2"/><rect class="cls-5" x="935.69" y="804.58" width="29.5" height="29.5" rx="2"/><rect class="cls-1" x="949.68" y="808.73" width="1.38" height="21.76"/><path class="cls-1" d="M943.25,812.36a1.82,1.82,0,1,0-1.82-1.81A1.81,1.81,0,0,0,943.25,812.36Z"/><path class="cls-1" d="M946.79,815c-.37-1.25-1.19-2.07-2.12-2.07h-2.85c-.92,0-1.75.82-2.12,2.07l-1.34,4.75a.75.75,0,0,0,.55.9.73.73,0,0,0,.9-.53l1.33-4.74h.4l-2.33,8.24h2.19v6.1a.85.85,0,1,0,1.69,0v-6.1h.47v6.1a.85.85,0,1,0,1.69,0v-6.1h2L945,815.34h.4l1.33,4.74a.73.73,0,0,0,.9.53.75.75,0,0,0,.55-.9Z"/><path class="cls-1" d="M957.77,812.36a1.82,1.82,0,1,0-1.82-1.81A1.81,1.81,0,0,0,957.77,812.36Z"/><path class="cls-1" d="M960,812.88h-4.77a2,2,0,0,0-1.84,1.84v6.11a.79.79,0,0,0,.8.79.79.79,0,0,0,.79-.79v-5h.37v13.64a1,1,0,1,0,2.1,0v-7.91h.33v7.91a1.05,1.05,0,1,0,2.1,0V815.8h.37v5a.8.8,0,0,0,1.59,0v-6.11A2,2,0,0,0,960,812.88Z"/><rect x="1102.58" y="802.92" width="29.5" height="29.5" rx="2"/><rect class="cls-5" x="1102.58" y="802.92" width="29.5" height="29.5" rx="2"/><path class="cls-1" d="M1113.69,815.37a1.07,1.07,0,1,0,1.07,1.06A1.06,1.06,0,0,0,1113.69,815.37Z"/><path class="cls-1" d="M1120.22,815.37a1.07,1.07,0,1,0,1.07,1.06A1.06,1.06,0,0,0,1120.22,815.37Z"/><path class="cls-1" d="M1124,811.1h-14a2,2,0,0,0-2,1.95v15a2,2,0,0,0,2,2h14a2,2,0,0,0,2-2v-15A2,2,0,0,0,1124,811.1Zm-10.5,17.67a.25.25,0,0,0,0-.07l.21-4.9.22,4.9s0,0,0,.07Zm6.53,0s0,0,0-.07l.22-4.9.21,4.9a.25.25,0,0,0,0,.07Zm4.69-.72a.72.72,0,0,1-.72.72h-2.46a.25.25,0,0,0,0-.07l.21-8,.2,2.14a.41.41,0,0,0,.43.4.42.42,0,0,0,.4-.44v-3.52c0-1.47-1.78-1.54-2.54-1.54s-2.55.07-2.55,1.54v3.52a.42.42,0,0,0,.4.44.43.43,0,0,0,.44-.4l.19-2.14.22,8s0,0,0,.07h-4s0,0,0-.07l.22-8,.19,2.14a.43.43,0,0,0,.44.4.42.42,0,0,0,.4-.44v-3.52c0-1.47-1.79-1.54-2.55-1.54s-2.54.07-2.54,1.54v3.52a.42.42,0,0,0,.4.44.41.41,0,0,0,.43-.4l.2-2.14.21,8a.25.25,0,0,0,0,.07H1110a.72.72,0,0,1-.72-.72v-15a.73.73,0,0,1,.72-.72h14a.73.73,0,0,1,.72.72v15Z"/><path class="cls-1" d="M1118.48,807.89l1.46-1.46v3.29a.55.55,0,0,0,.55.54.54.54,0,0,0,.54-.54v-3.29l1.46,1.46a.54.54,0,0,0,.39.16.51.51,0,0,0,.38-.16.53.53,0,0,0,0-.77l-2.39-2.39-.38-.38-.39.38-2.39,2.39a.54.54,0,0,0,.77.77Z"/><path class="cls-1" d="M1113.29,810.1l.39.39.38-.39,2.39-2.39a.54.54,0,0,0-.77-.77l-1.46,1.47v-3.29a.55.55,0,0,0-.54-.55.55.55,0,0,0-.55.55v3.29l-1.46-1.47a.54.54,0,0,0-.77.77Z"/><rect x="1104.25" y="244.36" width="29.5" height="29.5" rx="2"/><rect class="cls-5" x="1104.25" y="244.36" width="29.5" height="29.5" rx="2"/><path class="cls-1" d="M1115.36,256.81a1.07,1.07,0,1,0,1.07,1.07A1.07,1.07,0,0,0,1115.36,256.81Z"/><path class="cls-1" d="M1121.88,256.81a1.07,1.07,0,1,0,1.07,1.07A1.07,1.07,0,0,0,1121.88,256.81Z"/><path class="cls-1" d="M1125.62,252.55h-14a2,2,0,0,0-1.95,1.95v15a2,2,0,0,0,1.95,1.95h14a2,2,0,0,0,2-1.95v-15A2,2,0,0,0,1125.62,252.55Zm-10.49,17.66s0,0,0-.07l.21-4.89.22,4.89s0,.05,0,.07Zm6.52,0a.14.14,0,0,0,0-.07l.21-4.89.22,4.89s0,.05,0,.07Zm4.69-.72a.72.72,0,0,1-.72.72h-2.45s0,0,0-.07l.22-8,.19,2.14a.42.42,0,0,0,.84,0v-3.52c0-1.48-1.79-1.55-2.55-1.55s-2.54.07-2.54,1.55v3.52a.41.41,0,0,0,.4.43.41.41,0,0,0,.43-.39l.2-2.14.21,8a.14.14,0,0,0,0,.07h-3.95s0,0,0-.07l.22-8,.19,2.14a.42.42,0,0,0,.44.39.41.41,0,0,0,.39-.43v-3.52c0-1.48-1.78-1.55-2.54-1.55s-2.54.07-2.54,1.55v3.52a.41.41,0,0,0,.39.43.42.42,0,0,0,.44-.39l.2-2.14.21,8s0,.05,0,.07h-2.45a.72.72,0,0,1-.72-.72v-15a.72.72,0,0,1,.72-.72h14a.72.72,0,0,1,.72.72v15Z"/><path class="cls-1" d="M1120.15,249.34l1.46-1.47v3.29a.55.55,0,0,0,.54.55.55.55,0,0,0,.55-.55v-3.29l1.46,1.47a.54.54,0,0,0,.77,0,.55.55,0,0,0,0-.77l-2.39-2.39-.39-.39-.38.39-2.39,2.39a.54.54,0,0,0,.77.77Z"/><path class="cls-1" d="M1115,251.55l.38.38.39-.38,2.39-2.39a.54.54,0,1,0-.77-.77l-1.46,1.46v-3.29a.55.55,0,0,0-.55-.54.54.54,0,0,0-.54.54v3.29l-1.46-1.46a.55.55,0,0,0-.77,0,.53.53,0,0,0,0,.77Z"/><rect class="cls-3" x="328.5" y="141.5" width="23" height="23"/><path d="M367.78,147v1.61h4.48v1h-4.48v1.46h5.31v1h-5.31v1.57h7v1h-6.68a7.79,7.79,0,0,0,2.61,2.17,13.74,13.74,0,0,0,3.89,1.35l-.7,1.13a12.27,12.27,0,0,1-4.42-1.86,7.55,7.55,0,0,1-2.25-2.3c-.94,2.18-3.17,3.59-6.67,4.24l-.66-1.07q5-.78,6.34-3.66h-6.66v-1h6.93v-1.57h-5.19v-1h5.19v-1.46h-4.38v-1h4.38V147h-5v2h-1.25v-3h6.21v-1.74h1.23V146h6.27v3h-1.23v-2Z"/><path d="M375.43,157.67a19.68,19.68,0,0,0,.61-3.76l.92.16a20.51,20.51,0,0,1-.57,4.21Zm7.14-5.7a37.6,37.6,0,0,1-.43,6.16,1.75,1.75,0,0,1-.52,1,1.67,1.67,0,0,1-1.09.29c-.43,0-.95,0-1.55-.1l-.17-1.15a8.65,8.65,0,0,0,1.54.16.69.69,0,0,0,.62-.23c.27-.45.43-2.1.49-5V153H376.2v-8.12h6.5v1h-2.49v1.38h2v1h-2v1.39h2v1h-2V152Zm-5.07,5.62a34.51,34.51,0,0,0-.19-3.45l.78-.17a33,33,0,0,1,.34,3.39Zm-.17-11.73v1.38h1.78v-1.38Zm0,2.34v1.39h1.78V148.2Zm0,2.35V152h1.78v-1.42Zm1.74,6.64a28.15,28.15,0,0,0-.5-3.23l.72-.23a21,21,0,0,1,.6,3.19Zm1.36-.53a23,23,0,0,0-.68-3l.72-.25a17,17,0,0,1,.72,2.91Zm6.21-1.3a6.84,6.84,0,0,1-3.46,4.15l-.79-1a5.84,5.84,0,0,0,3.46-4h-2.72v-4.12h2.8v-1.53h-1.41v-.52a10.71,10.71,0,0,1-1.68,1.56l-.7-1a9.51,9.51,0,0,0,3.6-4.66h1.34a11.79,11.79,0,0,0,4,4.46l-.66,1a13.92,13.92,0,0,1-1.82-1.54v.64h-1.51v1.53H390v4.12h-2.7a9,9,0,0,0,3.63,3.85l-.7,1A9,9,0,0,1,386.64,155.36Zm-.68-4H384.2v2.15H386Zm2.27-3.55a12.21,12.21,0,0,1-1.8-2.59,10.91,10.91,0,0,1-1.49,2.59Zm-1.18,3.55v2.15h1.86v-2.15Z"/><path d="M399.24,150.4a1.4,1.4,0,0,1,1,.47,1.37,1.37,0,0,1,.39,1,1.41,1.41,0,0,1-.23.76,1.41,1.41,0,0,1-1.88.51,1.36,1.36,0,0,1-.78-1.29,1.38,1.38,0,0,1,.61-1.16A1.43,1.43,0,0,1,399.24,150.4Z"/><path d="M409.85,151.8a19.17,19.17,0,0,0-2.32-2.45l.86-.83a17,17,0,0,1,2.37,2.35Zm-2,6.6a24.53,24.53,0,0,0,2.65-5.29l1,.72a23.37,23.37,0,0,1-2.61,5.5Zm2.46-10.65a17.33,17.33,0,0,0-2.29-2.46l.88-.82a15.39,15.39,0,0,1,2.32,2.37Zm.47,10.75a14.49,14.49,0,0,0,4-2l.9.8a16.67,16.67,0,0,1-4.13,2.16ZM417.43,146h5.12v3.07h-1.22v-2.05H412.6v2.05h-1.2V146h4.81v-1.79h1.22Zm0,4.48h4v5.77h-9v-5.77h3.84v-1.27h-3v-1h7.55v1h-3.34Zm-1.17,2.34V151.5H413.6v1.36Zm0,2.44v-1.5H413.6v1.5Zm1.17-3.8v1.36h2.79V151.5Zm0,2.3v1.5h2.79v-1.5Zm4.54,5.59a34.57,34.57,0,0,0-4-2.14l.88-.76a28.57,28.57,0,0,1,4.08,2Z"/><path d="M424,150.39a30.42,30.42,0,0,0,4.91-1.79l.14,1a36.82,36.82,0,0,1-4.56,1.85Zm6.65-5.55v6.28l1.09.23a9.17,9.17,0,0,1-.52,1H437v7.12h-1.26v-.75h-8.86v.75h-1.25v-7.12h4.29a9.83,9.83,0,0,0,.43-1h-.92v-5.44h-5.27v-1Zm-3.21,3.63a19.11,19.11,0,0,0-2.83-1.41l.75-.85a20,20,0,0,1,2.83,1.35Zm-.54,4.85v1.58h8.86v-1.58Zm0,2.56v1.79h8.86v-1.79Zm11.07-11v6.56h-1.19v-5.54h-5.52v-1Zm-6.66,5.09a34.39,34.39,0,0,0,4.69-1.62l.21.94a44.66,44.66,0,0,1-4.37,1.7Zm3.27-1.54a22.28,22.28,0,0,0-2.89-1.39l.63-.83a18,18,0,0,1,2.93,1.37Z"/><path d="M446,149.48a.37.37,0,0,0-.06.1,16.72,16.72,0,0,1-1.73,2.2h.8c1.2,0,2.59-.07,4.18-.14l1.77-.08c-.53-.5-1.06-1-1.6-1.43l1-.58a37.46,37.46,0,0,1,3,2.69l.41.41-1,.75c-.31-.34-.59-.65-.84-.91l-.11-.11c-.29,0-1.63.12-4,.27v2.07h5.5v1h-5.5v2.07h6.82v1H439.82v-1h6.71v-2.07h-5.37v-1h5.37v-2l-.85,0c-1.28.06-2.7.1-4.26.14l-.39-1.07,1.78,0a18.29,18.29,0,0,0,1.76-2.32H442v-1h10.44v1Zm1.79-3.54h6.37v3H452.9v-2H441.5v2h-1.25v-3h6.28v-1.69h1.25Z"/><rect class="cls-6" x="328.5" y="174.5" width="23" height="23"/><path d="M362.11,184.5h3.28v7.09h-3.24V193h-1.1v-6.37a18.43,18.43,0,0,1-1,1.54L359.4,187a13.37,13.37,0,0,0,2.12-4.07,18.57,18.57,0,0,0,.69-2.62H360v-1.11h5.74v1.11h-2.34A19.19,19.19,0,0,1,362.11,184.5Zm0,1.07v5h2.17v-5Zm10.53-5.46v4.61h2.13v1.1h-2.13v7.59H371.5v-7.59H369a15.18,15.18,0,0,1-.57,4.43,9.35,9.35,0,0,1-1.75,3.21l-1.06-.8q2.12-2.06,2.19-6.84h-1.91v-1.1h1.92v-4.61h-1.33V179h7.84v1.1Zm-1.18,0H369v4.61h2.47Z"/><path d="M385.35,181v2.58c0,.26.1.41.3.46a4.67,4.67,0,0,0,.94.06c.88,0,1.39-.07,1.51-.22a2.5,2.5,0,0,0,.18-1.2l1.18.45a2.78,2.78,0,0,1-.41,1.57,4.51,4.51,0,0,1-2.58.43,4.91,4.91,0,0,1-2-.23c-.25-.15-.37-.46-.37-.94v-3h-6.65v2.24h-1.23V180h6.3v-1.71h1.25V180h6.4v2.65h-1.25V181Zm-2.47,5.6h4.2l-.29,4.69c0,.06,0,.11,0,.15,0,.26.1.42.29.47a3.4,3.4,0,0,0,.9.07,4.45,4.45,0,0,0,1.16-.09c.2-.07.33-.31.39-.7a14.31,14.31,0,0,0,.15-1.58l1.18.43c0,.08,0,.31,0,.68a5.89,5.89,0,0,1-.21,1.37,1.27,1.27,0,0,1-1,.93,9.9,9.9,0,0,1-1.76.11,3.82,3.82,0,0,1-2-.32,1,1,0,0,1-.38-.85.57.57,0,0,1,0-.12l.27-4.18H382.7a6.46,6.46,0,0,1-1.81,3.58,10.53,10.53,0,0,1-3.75,2.16l-.77-1a8.68,8.68,0,0,0,3.51-1.84,5.78,5.78,0,0,0,1.55-2.88H377v-1.06h4.58l.21-2.06,1.25.08Zm-6.27-2a6.57,6.57,0,0,0,3-1.22,4,4,0,0,0,1.2-2.09l1.13.39a4.68,4.68,0,0,1-2.09,3,7.82,7.82,0,0,1-2.49.91Z"/><path d="M398,183.48a.37.37,0,0,0-.06.1,16.72,16.72,0,0,1-1.73,2.2h.8c1.2,0,2.59-.07,4.18-.14l1.77-.08c-.53-.5-1.06-1-1.6-1.43l1-.58a37.46,37.46,0,0,1,3,2.69l.41.41-1,.75c-.31-.34-.59-.65-.84-.91l-.11-.11c-.29,0-1.63.12-4,.27v2.07h5.5v1h-5.5v2.07h6.82v1H391.82v-1h6.71v-2.07h-5.37v-1h5.37v-2l-.85,0c-1.28.06-2.7.1-4.26.14l-.39-1.07,1.78,0a18.29,18.29,0,0,0,1.76-2.32H394v-1h10.44v1Zm1.79-3.54h6.37v3H404.9v-2H393.5v2h-1.25v-3h6.28v-1.69h1.25Z"/><rect x="328.78" y="240" width="22" height="22" rx="2"/><rect class="cls-5" x="328.78" y="240" width="22" height="22" rx="2"/><polygon class="cls-1" points="343.16 244.23 343.16 247.87 339.12 247.87 339.12 251.52 335.07 251.52 335.07 255.16 331.96 255.16 331.96 257.04 336.94 257.04 336.94 253.39 340.99 253.39 340.99 249.75 345.04 249.75 345.04 246.1 348.15 246.1 348.15 244.23 343.16 244.23"/><path d="M360,244.44h3.59l.63.56a35.09,35.09,0,0,1-1.42,4.44,6.79,6.79,0,0,1,1.15,2.24,6.59,6.59,0,0,1,.31,2,3.65,3.65,0,0,1-.18,1.29,1.32,1.32,0,0,1-1.38.77,5.07,5.07,0,0,1-.94-.09l-.28-1.15a6,6,0,0,0,1,.1c.29,0,.46-.1.52-.28a2.63,2.63,0,0,0,.08-.81,6.31,6.31,0,0,0-1.42-3.92,26.27,26.27,0,0,0,1.24-4h-1.77v13.53H360Zm5,4.95V244h1.17v1.82h2.87v1h-2.87v2.28c.89-.18,1.82-.41,2.8-.68l.08,1a35.87,35.87,0,0,1-4.86,1.21l-.39-1.07Zm2.95,2.26a8.87,8.87,0,0,0,.49-1.51l1.18.21a8.69,8.69,0,0,1-.53,1.3h4.53v7.4h-1.23v-.86h-6.08v.86h-1.23v-7.4Zm-1.64,1v1.73h6.08v-1.73Zm0,2.7v1.85h6.08v-1.85Zm4.37-9.41a15.79,15.79,0,0,0,2.9-1.14l.75,1a20,20,0,0,1-3.65,1.19v1.8c0,.28.09.45.26.49a4.75,4.75,0,0,0,1,.07,5.5,5.5,0,0,0,1.11-.07c.22-.06.36-.26.43-.61a9.46,9.46,0,0,0,.11-1.16l1.09.37c0,.11,0,.28,0,.49a4.25,4.25,0,0,1-.22,1.28,1.11,1.11,0,0,1-1,.67,14,14,0,0,1-1.75.08,4,4,0,0,1-1.81-.25,1.09,1.09,0,0,1-.42-1v-5.2h1.15Z"/><path d="M376.91,245.05a20.26,20.26,0,0,0,4.51-1.1l.8.93a25.22,25.22,0,0,1-4.11,1V248h3.37v1.05h-3.37v2.21h3.37v1h-3.37v2.64c1.33-.19,2.55-.4,3.66-.62l.07,1c-.85.19-1.88.4-3.11.62l-.62.12v3h-1.2v-2.8l-1.06.16-.37-1.17,1.43-.17Zm9.25,11.53a15.36,15.36,0,0,1-4.07,2.54l-.83-1a13.78,13.78,0,0,0,4.07-2.35l-.08-.09a12.41,12.41,0,0,1-2.33-3.54h-.7v-1H389l.7.59a13.58,13.58,0,0,1-2.69,4.05,16.08,16.08,0,0,0,3.75,2.14l-.72,1.12A16.09,16.09,0,0,1,386.16,256.58Zm-2.84-12.1H388v4a.38.38,0,0,0,.09.3.79.79,0,0,0,.41.07c.49,0,.76-.06.82-.18a7.23,7.23,0,0,0,.16-1.75l1.1.44a8.14,8.14,0,0,1-.23,2,.94.94,0,0,1-.64.57,5.36,5.36,0,0,1-1.23.11,2.71,2.71,0,0,1-1.32-.21.87.87,0,0,1-.33-.79v-3.46h-2.36v.13a9.11,9.11,0,0,1-.39,3,3.86,3.86,0,0,1-1.41,1.8l-.85-.88a2.94,2.94,0,0,0,1.33-1.86,8.86,8.86,0,0,0,.19-2.08Zm.79,7.67a11.62,11.62,0,0,0,2.05,2.83,10.29,10.29,0,0,0,1.95-2.83Z"/><rect x="328.58" y="272.92" width="22.42" height="22.42" rx="2"/><rect class="cls-5" x="328.58" y="272.92" width="22.42" height="22.42" rx="2"/><path class="cls-1" d="M337,282.38a.81.81,0,1,0,0,1.62.81.81,0,0,0,0-1.62Z"/><path class="cls-1" d="M342,282.38a.81.81,0,1,0,.81.81A.81.81,0,0,0,342,282.38Z"/><path class="cls-1" d="M344.83,279.14H334.18a1.48,1.48,0,0,0-1.48,1.48V292a1.49,1.49,0,0,0,1.48,1.49h10.65a1.49,1.49,0,0,0,1.48-1.49V280.62A1.48,1.48,0,0,0,344.83,279.14Zm-8,13.42s0,0,0-.05l.17-3.72.16,3.72s0,0,0,.05Zm5,0s0,0,0-.05l.16-3.72.17,3.72a.09.09,0,0,0,0,.05Zm3.56-.55a.54.54,0,0,1-.54.55H343s0,0,0-.05l.16-6.05.15,1.62a.31.31,0,0,0,.33.3.31.31,0,0,0,.3-.33v-2.67c0-1.12-1.35-1.18-1.93-1.18s-1.93.06-1.93,1.18v2.67a.31.31,0,0,0,.3.33.31.31,0,0,0,.33-.3l.15-1.62.16,6.05s0,0,0,.05h-3a.09.09,0,0,0,0-.05l.17-6.05.15,1.62a.3.3,0,0,0,.33.3.31.31,0,0,0,.3-.33v-2.67c0-1.12-1.36-1.18-1.93-1.18s-1.94.06-1.94,1.18v2.67a.32.32,0,0,0,.31.33.31.31,0,0,0,.33-.3l.15-1.62.16,6.05s0,0,0,.05h-1.87a.54.54,0,0,1-.54-.55V280.62a.55.55,0,0,1,.54-.55h10.65a.55.55,0,0,1,.54.55V292Z"/><path class="cls-1" d="M340.66,276.7l1.12-1.11v2.5a.41.41,0,0,0,.82,0v-2.5l1.11,1.11a.42.42,0,0,0,.3.12.42.42,0,0,0,.29-.12.42.42,0,0,0,0-.59l-1.82-1.81-.29-.3-.29.3-1.82,1.81a.42.42,0,0,0,0,.59A.41.41,0,0,0,340.66,276.7Z"/><path class="cls-1" d="M336.72,278.38l.29.29.29-.29,1.82-1.82a.41.41,0,1,0-.58-.58l-1.11,1.11v-2.5a.41.41,0,0,0-.42-.41.41.41,0,0,0-.41.41v2.5L335.49,276a.42.42,0,0,0-.59,0,.41.41,0,0,0,0,.58Z"/><path d="M361.16,278.7h11.41v1.18h-5.14v8.71h6v1.15H360.25v-1.15h5.9v-8.71h-5Z"/><path d="M375.64,277.28H377v11.93a16.67,16.67,0,0,0,6.41-3.6,13.66,13.66,0,0,0,3-3.71l.83,1.23a17,17,0,0,1-4.16,4.39,21,21,0,0,1-6.54,3.23l-.88-.88Z"/><path d="M388.44,287.07a28.78,28.78,0,0,0,4.73-7.84h1.41a43.57,43.57,0,0,0,7.63,9.26l-.81,1.13a50.39,50.39,0,0,1-4.42-4.8,42.94,42.94,0,0,1-3-4.2h-.07a28.55,28.55,0,0,1-4.45,7.36Zm10.24-5.55a11.69,11.69,0,0,0-1.41-2.61l1-.37a11.92,11.92,0,0,1,1.43,2.58Zm2-.71a13.44,13.44,0,0,0-1.39-2.62l.92-.34a10.26,10.26,0,0,1,1.41,2.53Z"/><path d="M404.07,283.09h13.49v1.23H404.07Z"/><path d="M430.58,278.73l.87.75A16,16,0,0,1,428,287a12.66,12.66,0,0,1-3.33,2.54,15,15,0,0,1-3.23,1.3l-.66-1.11a12.91,12.91,0,0,0,6.32-3.62,25.29,25.29,0,0,0-4.19-3.14l.74-.91a23.91,23.91,0,0,1,4.22,3,14.12,14.12,0,0,0,2.16-5.23h-5.76a13.76,13.76,0,0,1-4.3,4.41l-.85-.89a12.1,12.1,0,0,0,5.18-6.44l1.23.32,0,.05c-.23.56-.43,1-.62,1.41Z"/><path d="M433.51,283.09H447v1.23H433.51Z"/><rect x="328.5" y="305.67" width="22.33" height="22.33" rx="2"/><rect class="cls-5" x="328.5" y="305.67" width="22.33" height="22.33" rx="2"/><rect class="cls-1" x="339.09" y="308.81" width="1.04" height="16.47"/><path class="cls-1" d="M334.22,311.56a1.38,1.38,0,1,0-1.38-1.38A1.37,1.37,0,0,0,334.22,311.56Z"/><path class="cls-1" d="M336.9,313.52c-.28-.94-.9-1.57-1.61-1.57h-2.15c-.7,0-1.33.63-1.61,1.57l-1,3.59a.57.57,0,0,0,.41.69.55.55,0,0,0,.68-.4l1-3.59h.3l-1.76,6.24h1.66v4.62a.64.64,0,0,0,1.28,0v-4.62h.35v4.62a.64.64,0,0,0,.64.64.64.64,0,0,0,.64-.64v-4.62h1.54l-1.76-6.24h.3l1,3.59a.55.55,0,0,0,.68.4.56.56,0,0,0,.41-.69Z"/><path class="cls-1" d="M345.21,311.56a1.38,1.38,0,1,0-1.38-1.38A1.37,1.37,0,0,0,345.21,311.56Z"/><path class="cls-1" d="M346.9,312h-3.61a1.54,1.54,0,0,0-1.39,1.39V318a.6.6,0,1,0,1.2,0v-3.8h.28v10.32a.8.8,0,1,0,1.59,0v-6h.25v6a.8.8,0,1,0,1.59,0V314.16h.28V318a.61.61,0,1,0,1.21,0v-4.62A1.55,1.55,0,0,0,346.9,312Z"/><path d="M361.36,309.32h1.31v4.45a48.83,48.83,0,0,1,7.66,2.93l-.65,1.19a48.39,48.39,0,0,0-7-2.87v8h-1.31Z"/><path d="M377.77,322.93v-8.26a27.24,27.24,0,0,1-5.68,2.88l-.7-1.12a23.07,23.07,0,0,0,6-3,24.53,24.53,0,0,0,4.51-4.1l1.1.69a32.28,32.28,0,0,1-3.93,3.69v9.21Z"/><path d="M385.5,309.5h1.31v11.93a16.78,16.78,0,0,0,6.42-3.6,13.47,13.47,0,0,0,3-3.71l.83,1.23a17,17,0,0,1-4.16,4.39,20.82,20.82,0,0,1-6.54,3.23l-.88-.88Z"/><path d="M334.16,88.71a11.18,11.18,0,0,1,5.25-4.64A12.52,12.52,0,0,1,353,86.3a11.41,11.41,0,0,1,3.94,9,13.71,13.71,0,0,1-3.4,9.31,12.15,12.15,0,0,1-9.61,4.08,12.81,12.81,0,0,1-10.85-5.18,17.18,17.18,0,0,1-2.72-5.14,24.21,24.21,0,0,1-.93-7.1A21.11,21.11,0,0,1,331,83.53q4.6-11.85,18.43-16.17l1.73,3.35q-8.24,3-12.12,7.5a20.09,20.09,0,0,0-5,10.5Zm9.47-2.11a8.89,8.89,0,0,0-6.61,3,8.12,8.12,0,0,0-2.39,5.7,9.67,9.67,0,0,0,1.76,5.5,8.43,8.43,0,0,0,7.31,4.06,8,8,0,0,0,6.38-2.77,9.54,9.54,0,0,0,2.32-6.51A8.56,8.56,0,0,0,350,89,8.86,8.86,0,0,0,343.63,86.6Z"/><path d="M376,67.41H386.8l1.88,1.69a102.82,102.82,0,0,1-4.27,13.31,21.16,21.16,0,0,1,4.39,12.65,11.14,11.14,0,0,1-.54,3.9q-.92,2.3-4.15,2.29a15.31,15.31,0,0,1-2.81-.26l-.82-3.44a19.54,19.54,0,0,0,3,.28c.86,0,1.39-.28,1.57-.84a8.44,8.44,0,0,0,.24-2.42,19,19,0,0,0-4.27-11.76,78.55,78.55,0,0,0,3.73-12.14h-5.32v40.57H376Zm15.12,14.86V66.12h3.52v5.46h8.6v3.16h-8.6v6.85q4-.82,8.39-2l.25,2.93a108.32,108.32,0,0,1-14.6,3.63l-1.17-3.21C389.14,82.64,390.34,82.42,391.14,82.27ZM400,89a26.13,26.13,0,0,0,1.45-4.52l3.57.63a28.11,28.11,0,0,1-1.6,3.89H417v22.2h-3.71v-2.56H395.08v2.56h-3.7V89Zm-4.92,3V97.2h18.23V92Zm0,8.11v5.53h18.23v-5.53Zm13.1-28.24a47.34,47.34,0,0,0,8.7-3.43l2.24,2.89a58.74,58.74,0,0,1-10.94,3.56v5.41c0,.85.26,1.34.77,1.48a15.17,15.17,0,0,0,3.17.21,16.2,16.2,0,0,0,3.33-.23c.65-.18,1.08-.79,1.28-1.83a26.31,26.31,0,0,0,.33-3.47l3.26,1.1c0,.34-.05.84-.09,1.48a13.06,13.06,0,0,1-.68,3.84,3.42,3.42,0,0,1-2.89,2,42.14,42.14,0,0,1-5.25.23q-4.26,0-5.41-.75a3.29,3.29,0,0,1-1.27-3V65.81h3.45Z"/><line class="cls-7" x1="1005.5" y1="368.5" x2="1005.5" y2="422.5"/><rect x="950.14" y="381.1" width="29.5" height="29.5" rx="2"/><rect class="cls-5" x="950.14" y="381.1" width="29.5" height="29.5" rx="2"/><polygon class="cls-1" points="969.43 386.77 969.43 391.66 964 391.66 964 396.55 958.57 396.55 958.57 401.44 954.4 401.44 954.4 403.95 961.08 403.95 961.08 399.06 966.51 399.06 966.51 394.17 971.94 394.17 971.94 389.28 976.11 389.28 976.11 386.77 969.43 386.77"/><rect class="cls-4" x="1290.5" y="899.5" width="43" height="93"/><rect class="cls-6" x="1247.5" y="899.5" width="43" height="93"/><rect class="cls-6" x="1204.5" y="899.5" width="43" height="93"/><rect class="cls-6" x="1161.5" y="899.5" width="43" height="93"/><rect class="cls-6" x="1118.5" y="899.5" width="43" height="93"/><rect class="cls-3" x="1042.5" y="899.5" width="76" height="93"/><rect class="cls-2" x="783.5" y="772.5" width="114" height="93"/><rect class="cls-2" x="728.5" y="772.5" width="55" height="93"/><rect class="cls-2" x="553.5" y="772.5" width="175" height="93"/><rect class="cls-2" x="728.5" y="899.5" width="55" height="93"/><rect class="cls-4" x="553.5" y="899.5" width="175" height="93"/><rect class="cls-2" x="975.5" y="899.5" width="33" height="93"/><rect class="cls-2" x="783.5" y="899.5" width="192" height="93"/><rect class="cls-3" x="1042.5" y="308.5" width="123" height="114"/><rect class="cls-2" x="1042.5" y="422.5" width="123" height="52"/><rect class="cls-2" x="1042.5" y="474.5" width="123" height="66"/><rect class="cls-3" x="1042.5" y="537.5" width="123" height="123"/><rect class="cls-3" x="1042.5" y="660.5" width="123" height="46"/><rect class="cls-2" x="1042.5" y="706.5" width="123" height="66"/><rect class="cls-4" x="1165.5" y="81.5" width="112" height="97"/><rect class="cls-4" x="1039.5" y="81.5" width="126" height="97"/><rect class="cls-2" x="1277.5" y="81.5" width="48" height="97"/><rect class="cls-4" x="1325.5" y="81.5" width="48" height="97"/><rect class="cls-3" x="889.5" y="81.5" width="116" height="97"/><rect class="cls-3" x="773.5" y="81.5" width="116" height="97"/><rect class="cls-3" x="657.5" y="81.5" width="116" height="97"/><rect class="cls-3" x="558.5" y="81.5" width="38" height="97"/><rect class="cls-3" x="596.5" y="81.5" width="61" height="97"/><rect class="cls-3" x="558.5" y="210.5" width="116" height="98"/><rect class="cls-2" x="674.5" y="210.5" width="41" height="98"/><rect class="cls-2" x="866.5" y="210.5" width="41" height="98"/><rect class="cls-3" x="818.5" y="210.5" width="48" height="98"/><rect class="cls-3" x="715.5" y="210.5" width="103" height="98"/><rect class="cls-4" x="328.5" y="206.5" width="23" height="23"/><path d="M364.68,214.66a14.89,14.89,0,0,0,2.32-3.5l.93.66a19.14,19.14,0,0,1-1.9,2.84h1.47v1.05h-2.38a17.49,17.49,0,0,1-2,1.8h3.52l.5.64a16.34,16.34,0,0,1-2.29,1.78v.75l.29,0c.68-.08,1.55-.22,2.59-.39l.05,1c-.84.18-1.73.34-2.67.49l-.26,0v2.51a1.28,1.28,0,0,1-.3,1,1.47,1.47,0,0,1-.94.22c-.5,0-1.12,0-1.85-.07l-.26-1.1a13.77,13.77,0,0,0,1.8.15c.25,0,.38-.13.38-.4v-2.12l-1,.14c-.87.11-1.73.21-2.58.29l-.3-1.1c1.3-.11,2.6-.24,3.89-.39v-1.27a9.64,9.64,0,0,0,1.54-1.07H361.8c-.61.4-1.17.75-1.68,1l-.66-.9a20.13,20.13,0,0,0,4.14-2.9h-4v-1.05h3.09V212.9h-2.45v-1h2.45v-1.63h1.17v1.63h2v1h-2v1.76Zm5.73,6.11a19.75,19.75,0,0,1-1.74-4.21,15.39,15.39,0,0,1-.81,1.46l-.82-1a19.43,19.43,0,0,0,2.28-6.71l1.18.23c-.16.87-.36,1.72-.59,2.58h4.84v1.1h-1.26l0,.15a18.68,18.68,0,0,1-1.72,6.43,15.32,15.32,0,0,0,3.23,3.37l-.73,1.18a16.53,16.53,0,0,1-3.13-3.42,11.07,11.07,0,0,1-3.59,3.56l-.82-1A9.45,9.45,0,0,0,370.41,220.77Zm.61-1.19a18.51,18.51,0,0,0,1.28-5.35h-2.73q-.17.53-.24.72A19.07,19.07,0,0,0,371,219.58Z"/><path d="M382,215.48a.37.37,0,0,0-.06.1,16.72,16.72,0,0,1-1.73,2.2h.8c1.2,0,2.59-.07,4.18-.14l1.77-.08c-.53-.5-1.06-1-1.6-1.43l1-.58a37.46,37.46,0,0,1,3,2.69l.41.41-1,.75c-.31-.34-.59-.65-.84-.91l-.11-.11c-.29,0-1.63.12-4,.27v2.07h5.5v1h-5.5v2.07h6.82v1H375.82v-1h6.71v-2.07h-5.37v-1h5.37v-2l-.85,0c-1.28.06-2.7.1-4.26.14l-.39-1.07,1.78,0a18.29,18.29,0,0,0,1.76-2.32H378v-1h10.44v1Zm1.79-3.54h6.37v3H388.9v-2H377.5v2h-1.25v-3h6.28v-1.69h1.25Z"/><path d="M1084.24,122.18h1.87v9.19h2.63v1.31h-2.63V136h-1.5v-3.35h-7v-1.29Zm.37,9.19v-4.89q0-1.42.09-2.94h-.07a17.49,17.49,0,0,1-1.24,2.15l-4.05,5.68Z"/><path d="M1097.16,122.18H1099v9.19h2.64v1.31H1099V136h-1.49v-3.35h-7v-1.29Zm.37,9.19v-4.89c0-1,0-1.93.08-2.94h-.06a17.3,17.3,0,0,1-1.25,2.15l-4,5.68Z"/><path d="M1109.27,122a4.34,4.34,0,0,1,3.77,2,9.06,9.06,0,0,1,1.28,5.13,9.6,9.6,0,0,1-1.08,4.85,4.39,4.39,0,0,1-4,2.35,4.35,4.35,0,0,1-3.83-2.11,9.28,9.28,0,0,1-1.23-5.09,8.82,8.82,0,0,1,1.37-5.25A4.3,4.3,0,0,1,1109.27,122Zm0,1.33a2.79,2.79,0,0,0-2.54,1.72,8.87,8.87,0,0,0-.81,4.12,9.11,9.11,0,0,0,.7,3.87,2.89,2.89,0,0,0,2.67,1.95,2.79,2.79,0,0,0,2.51-1.66,10.58,10.58,0,0,0-.07-8.47A2.75,2.75,0,0,0,1109.24,123.32Z"/><path d="M1122.18,122a4.33,4.33,0,0,1,3.77,2,9,9,0,0,1,1.29,5.13,9.49,9.49,0,0,1-1.09,4.85,4.54,4.54,0,0,1-7.81.24,9.28,9.28,0,0,1-1.24-5.09,8.89,8.89,0,0,1,1.37-5.25A4.33,4.33,0,0,1,1122.18,122Zm0,1.33a2.78,2.78,0,0,0-2.54,1.72,8.86,8.86,0,0,0-.82,4.12,9.27,9.27,0,0,0,.7,3.87,2.89,2.89,0,0,0,2.67,1.95,2.78,2.78,0,0,0,2.51-1.66,10.52,10.52,0,0,0-.06-8.47A2.75,2.75,0,0,0,1122.16,123.32Z"/><path d="M1198.75,122.26h7.74v1.36h-6.4l-.54,4.8h.06a4.67,4.67,0,0,1,3.16-1.11,4.6,4.6,0,0,1,3,1,4.18,4.18,0,0,1,1.46,3.37,4.47,4.47,0,0,1-.69,2.46,4.37,4.37,0,0,1-2.36,1.84,5.93,5.93,0,0,1-1.88.29,6.53,6.53,0,0,1-4.61-1.62l.85-1.07a4.77,4.77,0,0,0,1.63.94,6.16,6.16,0,0,0,2.13.39,3.21,3.21,0,0,0,2.42-1,3.13,3.13,0,0,0,.86-2.23,3.09,3.09,0,0,0-.79-2.18,3.13,3.13,0,0,0-2.4-.94,4.11,4.11,0,0,0-2.05.54,2.78,2.78,0,0,0-1,.88l-1.41-.21Z"/><path d="M1216.16,122.18H1218v9.19h2.64v1.31H1218V136h-1.49v-3.35h-7v-1.29Zm.37,9.19v-4.89c0-1,0-1.92.08-2.94h-.06a18.39,18.39,0,0,1-1.25,2.16l-4,5.67Z"/><path d="M1228.27,122a4.34,4.34,0,0,1,3.77,2,9.06,9.06,0,0,1,1.28,5.13,9.49,9.49,0,0,1-1.09,4.85,4.54,4.54,0,0,1-7.81.24,9.26,9.26,0,0,1-1.23-5.09,8.82,8.82,0,0,1,1.37-5.25A4.3,4.3,0,0,1,1228.27,122Zm0,1.33a2.78,2.78,0,0,0-2.54,1.72,8.87,8.87,0,0,0-.81,4.12,9.08,9.08,0,0,0,.7,3.87,2.89,2.89,0,0,0,2.67,1.95,2.79,2.79,0,0,0,2.51-1.66,10.58,10.58,0,0,0-.07-8.47A2.75,2.75,0,0,0,1228.24,123.32Z"/><path d="M1241.18,122a4.33,4.33,0,0,1,3.77,2,9,9,0,0,1,1.29,5.13,9.49,9.49,0,0,1-1.09,4.85,4.54,4.54,0,0,1-7.81.24,9.26,9.26,0,0,1-1.24-5.09,8.89,8.89,0,0,1,1.37-5.25A4.33,4.33,0,0,1,1241.18,122Zm0,1.33a2.78,2.78,0,0,0-2.54,1.72,8.86,8.86,0,0,0-.82,4.12,9.24,9.24,0,0,0,.7,3.87,2.89,2.89,0,0,0,2.67,1.95,2.78,2.78,0,0,0,2.51-1.66,10.52,10.52,0,0,0-.06-8.47A2.75,2.75,0,0,0,1241.16,123.32Z"/><path d="M1076.34,359.59v-1H1071v-1h12.09v1h-5.47v1h7v3.15h-1.33v-2.17h-5.68v3.79h-1.27v-3.79h-5.59v2.15h-1.31v-3.13Zm1.22,10.92v.83c0,.3.11.48.31.54a12.41,12.41,0,0,0,2.4.13,20.4,20.4,0,0,0,3-.12.66.66,0,0,0,.53-.58,11.18,11.18,0,0,0,.13-1.43l1.24.46a4.09,4.09,0,0,1-.45,2.24,1.45,1.45,0,0,1-1,.44,31.82,31.82,0,0,1-3.58.15,19,19,0,0,1-3-.13,1,1,0,0,1-.8-.58,1.76,1.76,0,0,1-.1-.66v-1.29h-4.19v.86h-1.32v-6.44h12.41v5.58Zm-5.86-9.1h3.74v.88h-3.74Zm0,1.69h3.74v.84h-3.74Zm4.58,2.84h-4.19v1.22h4.19Zm0,2.24h-4.19v1.33h4.19Zm1.28-2.24v1.22h4.29v-1.22Zm0,2.24v1.33h4.29v-1.33Zm1-6.77h3.86v.88h-3.86Zm0,1.69h3.86v.84h-3.86Z"/><path d="M1094.88,362.52v2.09H1102v1.18h-7.14v5.81a1.43,1.43,0,0,1-.5,1.24,2.4,2.4,0,0,1-1.36.28c-1,0-1.85,0-2.53-.08l-.32-1.33c1,.1,1.88.14,2.51.14a1.29,1.29,0,0,0,.66-.1c.11-.08.16-.26.16-.53v-5.43H1086v-1.18h7.46V361.9a23.17,23.17,0,0,0,4.27-2.56h-9.83v-1.22h11.56l.78.84A38.42,38.42,0,0,1,1094.88,362.52Z"/><path d="M1115.13,366.88a16.29,16.29,0,0,0,4.12,2.13l-.82,1.17a15.23,15.23,0,0,1-4.92-3.3h-5.07a11.11,11.11,0,0,1-2.21,2.09h4.09V367.5h1.31V369h4.48V370h-4.48v1.71h6.55v1.07h-14.24v-1.07h6.38V370H1106v-.93l-.13.09a17,17,0,0,1-2.29,1.25l-.81-1.05a12.6,12.6,0,0,0,4.14-2.52h-4v-1.07h3.89V360h-3v-1h3v-1.81h1.33V359h5.59v-1.81h1.33V359h3.15v1h-3.15v5.81h4v1.07Zm-1.36-6.88h-5.59v1.26h5.59Zm0,2.23h-5.59v1.29h5.59Zm0,2.28h-5.59v1.3h5.59Z"/><path d="M1128.63,360.07v1.72h4.76v1h-4.76v1.56h5.64v1.05h-5.64v1.67h7.47v1.11H1129a8,8,0,0,0,2.78,2.3,14.37,14.37,0,0,0,4.13,1.44l-.75,1.2a13.12,13.12,0,0,1-4.7-2,8.28,8.28,0,0,1-2.39-2.45c-1,2.31-3.36,3.82-7.09,4.51l-.69-1.14q5.34-.83,6.73-3.89H1120v-1.11h7.36v-1.67h-5.51V364.4h5.51v-1.56h-4.66v-1h4.66v-1.72h-5.27v2.17h-1.33V359h6.6v-1.85h1.31V359h6.66v3.24H1134v-2.17Z"/><path d="M1078.22,592.93v-1h-5.34v-1H1085v1h-5.47v1h7v3.14h-1.33V593.9h-5.68v3.79h-1.28V593.9h-5.58v2.16h-1.31v-3.13Zm1.23,10.91v.83c0,.3.11.48.31.54a12.08,12.08,0,0,0,2.4.14,19.78,19.78,0,0,0,3-.13.65.65,0,0,0,.53-.58,11.18,11.18,0,0,0,.13-1.43l1.24.46a4.15,4.15,0,0,1-.45,2.25,1.49,1.49,0,0,1-1,.43,29.27,29.27,0,0,1-3.58.16,20.41,20.41,0,0,1-3-.13,1,1,0,0,1-.8-.59,1.76,1.76,0,0,1-.1-.66v-1.29H1074v.87h-1.32v-6.45h12.4v5.58Zm-5.87-9.09h3.75v.87h-3.75Zm0,1.68h3.75v.85h-3.75Zm4.59,2.84H1074v1.22h4.19Zm0,2.24H1074v1.33h4.19Zm1.28-2.24v1.22h4.29v-1.22Zm0,2.24v1.33h4.29v-1.33Zm1-6.76h3.86v.87h-3.86Zm0,1.68h3.86v.85h-3.86Z"/><path d="M1096.77,595.86v2.08h7.14v1.19h-7.14v5.8a1.45,1.45,0,0,1-.5,1.25,2.48,2.48,0,0,1-1.36.28c-1,0-1.85,0-2.53-.08l-.32-1.33c1,.09,1.88.14,2.51.14a1.26,1.26,0,0,0,.66-.11c.11-.08.16-.25.16-.52v-5.43h-7.46v-1.19h7.46v-2.7a23.59,23.59,0,0,0,4.27-2.57h-9.83v-1.22h11.56l.78.85A40.91,40.91,0,0,1,1096.77,595.86Z"/><path d="M1120,591.43v15.11h-1.34v-1.15h-11.49v1.15h-1.35V591.43Zm-12.83,1.17v11.58h11.49V592.6Zm9.16,2.44v6.54h-6.92V595Zm-5.63,1.13v4.27h4.35v-4.27Z"/><path d="M1130.52,593.4v1.72h4.76v1h-4.76v1.56h5.64v1.06h-5.64v1.67H1138v1.1h-7.09a8.13,8.13,0,0,0,2.77,2.31,14.87,14.87,0,0,0,4.14,1.43l-.75,1.21a13,13,0,0,1-4.7-2,8.16,8.16,0,0,1-2.39-2.45q-1.5,3.48-7.09,4.51l-.69-1.14c3.55-.54,5.8-1.84,6.73-3.89h-7.07v-1.1h7.36v-1.67h-5.51v-1.06h5.51v-1.56h-4.66v-1h4.66V593.4h-5.27v2.18h-1.33v-3.25h6.6v-1.85h1.31v1.85h6.66v3.25h-1.31V593.4Z"/><path d="M1077.74,678.3v-1h-5.34v-1h12.09v1H1079v1h7v3.14h-1.33v-2.17H1079v3.79h-1.28v-3.79h-5.58v2.16h-1.31V678.3Zm1.23,10.91V690c0,.3.1.48.31.54a12.08,12.08,0,0,0,2.4.14,19.88,19.88,0,0,0,3-.13.64.64,0,0,0,.52-.58,9.3,9.3,0,0,0,.14-1.43l1.24.46a4.15,4.15,0,0,1-.45,2.25,1.45,1.45,0,0,1-1,.43,29,29,0,0,1-3.57.16,20.41,20.41,0,0,1-3-.13,1,1,0,0,1-.8-.59,1.76,1.76,0,0,1-.1-.66v-1.29h-4.19v.87h-1.33v-6.44h12.41v5.57Zm-5.87-9.09h3.75V681h-3.75Zm0,1.68h3.75v.85h-3.75Zm4.59,2.84h-4.19v1.22h4.19Zm0,2.24h-4.19v1.33h4.19Zm1.28-2.24v1.22h4.28v-1.22Zm0,2.24v1.33h4.28v-1.33Zm1-6.76h3.86V681h-3.86Zm0,1.68h3.86v.85h-3.86Z"/><path d="M1096.29,681.23v2.08h7.14v1.19h-7.14v5.8a1.45,1.45,0,0,1-.5,1.25,2.48,2.48,0,0,1-1.36.28c-1,0-1.85,0-2.53-.08l-.32-1.33c1,.09,1.88.14,2.51.14a1.26,1.26,0,0,0,.66-.11c.11-.08.16-.25.16-.52V684.5h-7.46v-1.19h7.46v-2.7a23.93,23.93,0,0,0,4.27-2.57h-9.83v-1.22h11.56l.78.85A41.58,41.58,0,0,1,1096.29,681.23Z"/><path d="M1113.4,677.94h6.71v1.17H1107v3.59a38.31,38.31,0,0,1-.31,5.59,12.08,12.08,0,0,1-1.15,3.59l-1.1-1a12.27,12.27,0,0,0,1-3.82,44.32,44.32,0,0,0,.19-4.49v-4.66h6.4v-2.09h1.38Zm-6.4,11.75a17.52,17.52,0,0,0,1.58-5.68l1.24.27a19.47,19.47,0,0,1-1.65,6.17Zm7.67-6.19a19.63,19.63,0,0,0-3.54-3l.9-.87a20.64,20.64,0,0,1,3.61,2.91Zm-3.52-.5h1.29v6.6q0,.54.33.66a5.64,5.64,0,0,0,1.41.1,3.86,3.86,0,0,0,1.52-.18.77.77,0,0,0,.3-.59,20.31,20.31,0,0,0,.16-2.42l1.29.52a16,16,0,0,1-.2,2.49,1.5,1.5,0,0,1-1.22,1.31,12,12,0,0,1-2,.12,7.63,7.63,0,0,1-2.12-.18,1.13,1.13,0,0,1-.71-1.2Zm8.21,6.72a29.52,29.52,0,0,0-2.86-5.64l1.09-.62a27,27,0,0,1,2.93,5.51Z"/><path d="M1130,678.77v1.72h4.75v1H1130v1.56h5.63v1.06H1130v1.67h7.47v1.1h-7.09a8,8,0,0,0,2.77,2.31,14.87,14.87,0,0,0,4.14,1.43l-.75,1.21a13,13,0,0,1-4.7-2,8.16,8.16,0,0,1-2.39-2.45q-1.5,3.48-7.09,4.51l-.7-1.14q5.34-.81,6.74-3.89h-7.08v-1.1h7.37v-1.67h-5.52V683.1h5.52v-1.56h-4.66v-1h4.66v-1.72h-5.27V681h-1.33V677.7h6.6v-1.85H1130v1.85h6.66V681h-1.32v-2.18Z"/><path d="M622.58,824.53a7.54,7.54,0,0,1-5.09,1.85,6.38,6.38,0,0,1-5-2.21,7.19,7.19,0,0,1-1.64-4.91,7.71,7.71,0,0,1,1.25-4.38,6.73,6.73,0,0,1,.94-1.11,6.18,6.18,0,0,1,4.35-1.7,7,7,0,0,1,2.83.55,7.58,7.58,0,0,1,2,1.36l-1,1.14a5.37,5.37,0,0,0-2-1.37,5.45,5.45,0,0,0-1.81-.29,4.35,4.35,0,0,0-3.53,1.6,6.41,6.41,0,0,0-1.4,4.22,6.19,6.19,0,0,0,1.09,3.68,4.81,4.81,0,0,0,1.64,1.43,4.42,4.42,0,0,0,2.2.58,5.8,5.8,0,0,0,4.24-1.74Z"/><path d="M629.1,812.27h1.61l5.45,13.83h-1.73L632.88,822h-6l-1.54,4.06h-1.74Zm3.32,8.46L631,816.92a27,27,0,0,1-1-3h-.06c-.17.65-.52,1.66-1,3l-1.45,3.81Z"/><path d="M638,812.33h4.12a8.47,8.47,0,0,1,4.73,1.21,5.93,5.93,0,0,1,1.91,2.07,7.32,7.32,0,0,1,.86,3.58,7.14,7.14,0,0,1-1.25,4.27q-1.9,2.64-6.38,2.64h-4Zm1.56,1.36v11h2.33a7.13,7.13,0,0,0,3.82-.93,4.34,4.34,0,0,0,1.76-2.08,6.38,6.38,0,0,0,.46-2.51q0-3.29-2.22-4.64a7.16,7.16,0,0,0-3.72-.88Z"/><path d="M662.08,816.71l-.07.11a17.61,17.61,0,0,1-1.84,2.33H661q1.92,0,4.44-.15l1.89-.08c-.56-.53-1.13-1-1.7-1.52l1.06-.62a38.35,38.35,0,0,1,3.14,2.86l.44.44-1,.8c-.33-.37-.63-.7-.9-1l-.11-.11-4.25.28v2.2h5.84v1.1H664v2.2h7.24v1.11h-15.7v-1.11h7.14v-2.2H657v-1.1h5.71v-2.12l-.92.05c-1.35,0-2.86.1-4.52.14l-.41-1.14,1.89,0a18.87,18.87,0,0,0,1.87-2.46h-2.74V815.6h11.09v1.11ZM664,813h6.77v3.19h-1.33V814H657.3v2.11H656V813h6.69v-1.8H664Z"/><path d="M823.43,826.08a7.48,7.48,0,0,1-5.09,1.85,6.33,6.33,0,0,1-5-2.21,7.13,7.13,0,0,1-1.65-4.91,7.61,7.61,0,0,1,1.26-4.37,6,6,0,0,1,.94-1.12,6.19,6.19,0,0,1,4.35-1.7,7,7,0,0,1,2.83.55,8,8,0,0,1,2,1.37l-1,1.14a5.19,5.19,0,0,0-2-1.37,5.27,5.27,0,0,0-1.82-.29,4.34,4.34,0,0,0-3.53,1.6,6.39,6.39,0,0,0-1.39,4.22,6.13,6.13,0,0,0,1.08,3.67,4.84,4.84,0,0,0,1.64,1.44,4.54,4.54,0,0,0,2.2.57,5.81,5.81,0,0,0,4.24-1.73Z"/><path d="M830,813.82h1.6L837,827.66h-1.73l-1.55-4.06h-6l-1.54,4.06H824.5Zm3.32,8.47-1.45-3.81a25.84,25.84,0,0,1-1-3.06h-.07c-.17.65-.51,1.67-1,3.06l-1.44,3.81Z"/><path d="M838.93,813.89h9v1.36h-7.42v4.61h6.62v1.32h-6.62v5.08h7.64v1.4h-9.18Z"/><path d="M860.55,818.26s0,.08-.06.11a16.4,16.4,0,0,1-1.84,2.33h.85q1.92,0,4.44-.15l1.89-.08c-.56-.53-1.13-1-1.7-1.52l1.06-.61a38.09,38.09,0,0,1,3.14,2.85l.44.44-1,.8c-.33-.37-.63-.69-.9-1l-.11-.12c-.31,0-1.73.13-4.25.29v2.2h5.84v1.1h-5.84v2.2h7.24v1.1H854v-1.1h7.14v-2.2h-5.72v-1.1h5.72V821.7l-.92,0c-1.35.06-2.86.1-4.52.14l-.41-1.14h1.89a20.71,20.71,0,0,0,1.87-2.47H856.3v-1.1h11.09v1.1Zm1.91-3.76h6.77v3.2H867.9v-2.11H855.78v2.11h-1.33v-3.2h6.69v-1.8h1.32Z"/><path d="M596.7,938.7h4.61a7,7,0,0,1,3.36.7,3.42,3.42,0,0,1,1.07.89,3.94,3.94,0,0,1,.83,2.5c0,2.88-1.78,4.31-5.35,4.31h-2.94v5.37H596.7Zm1.58,1.33v5.76h2.62a5.42,5.42,0,0,0,3-.63,2.6,2.6,0,0,0,1-2.34,2.43,2.43,0,0,0-1.13-2.22,4.83,4.83,0,0,0-2.56-.57Z"/><path d="M609.32,938.7h4.27a8.67,8.67,0,0,1,2.92.41,3.68,3.68,0,0,1,1.55,1,3,3,0,0,1,.71,2,2.86,2.86,0,0,1-.95,2.25,4.2,4.2,0,0,1-1.94.88v0a5.63,5.63,0,0,1,2.33.94,2.88,2.88,0,0,1,1.19,2.39,3.29,3.29,0,0,1-1.94,3.16,7.69,7.69,0,0,1-3.35.65h-4.79Zm1.55,1.28v4.69h2.49a6.19,6.19,0,0,0,2.39-.42,2,2,0,0,0,1.33-1.9q0-2.37-3.6-2.37Zm0,5.94v5.26h3a5.27,5.27,0,0,0,2.44-.46,2.14,2.14,0,0,0,.63-.45,2.26,2.26,0,0,0,.7-1.69,2.21,2.21,0,0,0-1.32-2,6.31,6.31,0,0,0-2.91-.63Z"/><path d="M622.36,938.7H624v12.36h6.64v1.41h-8.24Z"/><path d="M640.81,942.21a16.16,16.16,0,0,0,2.47-3.72l1,.69a20.13,20.13,0,0,1-2,3h1.56v1.12h-2.53a20.89,20.89,0,0,1-2.12,1.91h3.75l.53.68A17.72,17.72,0,0,1,641,947.8v.81l.3-.05c.73-.09,1.64-.23,2.75-.42l.06,1c-.89.2-1.84.37-2.84.52l-.27.05v2.66a1.3,1.3,0,0,1-.33,1,1.52,1.52,0,0,1-1,.24c-.54,0-1.2,0-2-.08l-.28-1.16a15.69,15.69,0,0,0,1.91.15.37.37,0,0,0,.41-.42v-2.25l-1.08.14c-.92.12-1.83.22-2.73.32l-.32-1.17c1.38-.12,2.76-.26,4.13-.42v-1.35a10.05,10.05,0,0,0,1.64-1.14h-3.65c-.65.43-1.24.8-1.78,1.09l-.7-1a22.15,22.15,0,0,0,4.4-3.08h-4.21v-1.12h3.28v-1.87h-2.61v-1.09h2.61v-1.73H640v1.73h2.13v1.09H640v1.87Zm6.09,6.49a20.52,20.52,0,0,1-1.85-4.48,14.93,14.93,0,0,1-.86,1.55l-.87-1a20.43,20.43,0,0,0,2.42-7.13l1.26.25c-.18.92-.39,1.83-.63,2.74h5.14v1.17h-1.34l0,.16a20.14,20.14,0,0,1-1.82,6.83,16.07,16.07,0,0,0,3.43,3.58l-.78,1.26a18.13,18.13,0,0,1-3.33-3.64,11.54,11.54,0,0,1-3.81,3.78l-.88-1.07A10,10,0,0,0,646.9,948.7Zm.65-1.27a19.49,19.49,0,0,0,1.36-5.68H646c-.12.37-.21.62-.26.76A20.05,20.05,0,0,0,647.55,947.43Z"/><path d="M659.2,943.08l-.07.1a16.13,16.13,0,0,1-1.83,2.34h.85q1.92,0,4.44-.15l1.88-.08c-.56-.53-1.12-1-1.69-1.52l1.05-.62A36.79,36.79,0,0,1,667,946l.44.44-1.06.8c-.32-.37-.62-.7-.89-1l-.11-.11-4.25.28v2.2H667v1.1h-5.84v2.2h7.24V953H652.64v-1.11h7.14v-2.2h-5.71v-1.1h5.71v-2.12l-.91,0c-1.35.06-2.86.11-4.52.15l-.41-1.14,1.88,0a18.91,18.91,0,0,0,1.88-2.46H655V942H666v1.11Zm1.91-3.76h6.77v3.19h-1.33V940.4H654.43v2.11H653.1v-3.19h6.68v-1.8h1.33Z"/><path d="M678.92,938.64h1.61L686,952.47h-1.74l-1.54-4.06h-6l-1.54,4.06h-1.74Zm3.32,8.46-1.44-3.81a27,27,0,0,1-1-3h-.06c-.17.65-.52,1.66-1,3l-1.45,3.81Z"/><path d="M851.33,941.77a10.9,10.9,0,0,1,.74,1.36l-1.26.38a9.4,9.4,0,0,0-.87-1.74h-1.18a10.62,10.62,0,0,1-1.67,2l-1-.82a8.92,8.92,0,0,0,2.44-3.72l1.32.22a12.54,12.54,0,0,1-.54,1.24h4.38v1.07Zm2.32,8.83a16.07,16.07,0,0,1-6.21,4.11l-.87-1.05a15.48,15.48,0,0,0,5.9-3.34l.09-.08h-5.11a38.22,38.22,0,0,0,.62-3.83h5.58v-1.56h-6v-1.07h13.07v3.65h-5.73v1.75h6.65a13.21,13.21,0,0,1-.63,4,1.38,1.38,0,0,1-.83.81,3.44,3.44,0,0,1-1,.12,18.83,18.83,0,0,1-2-.12l-.33-1.26a14.87,14.87,0,0,0,2.09.17,1,1,0,0,0,.83-.27,6.23,6.23,0,0,0,.52-2.36h-5.24v5.17h-1.29Zm-4.35-3.17c-.07.62-.15,1.2-.24,1.75h4.59v-1.75Zm9-5.66a11.47,11.47,0,0,1,.83,1.28l-1.24.41a12,12,0,0,0-1-1.69h-1.13a8.34,8.34,0,0,1-1.32,1.84l-1-.73a9.05,9.05,0,0,0,2-3.67l1.31.18a13.56,13.56,0,0,1-.48,1.31h5.63v1.07Zm1.07,4.64v-1.56h-4.42v1.56Z"/><path d="M863.29,946.26H879v1.38H863.29Z"/><path d="M892,952.5a14.89,14.89,0,0,0,4.24,1.62l-.8,1.1a13.45,13.45,0,0,1-5.39-2.72,7.77,7.77,0,0,1-1.94-2.52,14.45,14.45,0,0,1-2.45,1.59v2.19c1.41-.23,2.85-.55,4.34-.94l0,1.06a51.76,51.76,0,0,1-7.56,1.54l-.43-1.14c.58-.07,1.35-.17,2.29-.31v-1.79a28.2,28.2,0,0,1-3.66,1.17l-.69-1a20.59,20.59,0,0,0,6.48-2.36h-6.39v-1.06h7.38v-.79h1.29v.79h7.48V950h-6.88a8.52,8.52,0,0,0,1.75,1.92,18.17,18.17,0,0,0,2.65-1.91l1,.8A19.31,19.31,0,0,1,892,952.5Zm-7.51-11.9v-1.34h1.19v1.34h3.63v1h-3.63v1h4.2v1h-4.2v.94h3.44v2.45a.9.9,0,0,1-.24.73,1.52,1.52,0,0,1-.88.18,10.88,10.88,0,0,1-1.3-.07l-.17-.94a8.24,8.24,0,0,0,1.15.08c.21,0,.32-.1.32-.3v-1.22h-2.32v2.8h-1.19v-2.8h-2.16v2.56h-1.17v-3.47h3.33v-.94h-4.42v-1h4.42v-1h-2.36a7,7,0,0,1-.79.88l-1-.68a6.23,6.23,0,0,0,1.64-2.3l1.14.22a6.81,6.81,0,0,1-.42.92Zm6.1-.5h1.22v5.52h-1.22Zm3.33-.79h1.26v7.28a1.29,1.29,0,0,1-.39,1.08,1.89,1.89,0,0,1-1.13.25c-.68,0-1.33,0-2-.08l-.21-1.05a14.83,14.83,0,0,0,1.75.12c.36,0,.57,0,.62-.14a.62.62,0,0,0,.06-.32Z"/><path d="M912.36,940.14v15.27H911v-.92H899.25v.92h-1.33V940.14Zm-13.11,1.13v12.06H911V941.27Zm5.21,8.21q-2.13-1-4.53-2l.59-.91c1.54.57,3.07,1.2,4.58,1.91l.34.15a14.88,14.88,0,0,0,3.5-6.23l1.21.42a19.82,19.82,0,0,1-2.8,5.51,8.5,8.5,0,0,1-.73.88q1.95,1,3.6,1.92l-.73,1.06c-1.31-.75-2.53-1.42-3.67-2l-.13-.07a16.42,16.42,0,0,1-5,2.75l-.76-1A14.79,14.79,0,0,0,904.46,949.48Zm-2.12-2.78a21.73,21.73,0,0,0-1.51-3.53l1.14-.51a23,23,0,0,1,1.55,3.51Zm2.91-.61a17.67,17.67,0,0,0-1.36-3.54l1.11-.47a20.32,20.32,0,0,1,1.41,3.5Z"/><path d="M1049.06,946.53a20.61,20.61,0,0,1-1.8,4.64l-.61-1.3a20.09,20.09,0,0,0,2.27-6h-2.07v-1.21h2.21V939h1.21v3.63h1.57v1.21h-1.57v1.58c.5.54,1.07,1.22,1.7,2l-.68,1.17q-.43-.78-1-1.65v8.18h-1.21Zm8.86-1,.26,0,.19,0h.25c.27-.33.57-.73.89-1.2a23,23,0,0,0-1.52-2l.65-.38a15.68,15.68,0,0,0,1.4-2.73l1,.57a17.9,17.9,0,0,1-1.66,2.7,11.51,11.51,0,0,1,.69,1l.05-.08c.46-.71.92-1.45,1.36-2.24l.92.65a30.41,30.41,0,0,1-2.62,3.61l1.57-.18.14,0c-.12-.32-.25-.61-.38-.88l.85-.43a11.9,11.9,0,0,1,1,2.67l-.91.41c-.06-.24-.14-.54-.25-.91a31.35,31.35,0,0,1-3.48.55l-.38-.88c.06.74.14,1.42.22,2h2.13a8,8,0,0,0-.83-.8l.92-.46a7.72,7.72,0,0,1,1.18,1.26H1063v1.12h-4.64a11.44,11.44,0,0,0,.76,2.14,13.41,13.41,0,0,0,1.48-1.87l1,.67a15.62,15.62,0,0,1-1.86,2.21,5.56,5.56,0,0,0,1.26,1.42,1,1,0,0,0,.48.24c.21,0,.38-.63.52-1.89l0-.29,1.09.68c-.16,2-.62,3-1.36,3a2.54,2.54,0,0,1-1.3-.56,6.58,6.58,0,0,1-1.64-1.71,17.07,17.07,0,0,1-3.38,2.23l-.69-1a14.67,14.67,0,0,0,3.5-2.25,11.69,11.69,0,0,1-1.06-3h-2.5q-.08.61-.21,1.23a17.1,17.1,0,0,1,2.23,1.69l-.68,1a14.83,14.83,0,0,0-1.82-1.65,8.6,8.6,0,0,1-2,3.55l-.85-.86a9.36,9.36,0,0,0,2.09-4.93h-1.58v-1.12H1057v-.12a55.42,55.42,0,0,1-.38-6.5l0-2.12h1.17l0,2.12c0,1.51.08,2.9.17,4.19Zm-4.37-1.11a16.2,16.2,0,0,0-1.65-2l.71-.39a16.61,16.61,0,0,0,1.38-2.75l1,.49a21.7,21.7,0,0,1-1.59,2.78c.24.3.49.62.74,1,.48-.82.88-1.57,1.21-2.24l.88.6a33.14,33.14,0,0,1-2.53,4l.62-.06,1.07-.13c-.11-.34-.23-.67-.36-1l.78-.4a16.22,16.22,0,0,1,.81,2.58l-.83.41c0-.24-.1-.47-.16-.71a33.26,33.26,0,0,1-3.44.54l-.31-1.07.53-.05h.12A15.17,15.17,0,0,0,1053.55,944.43Z"/><path d="M1066.29,946.66a19.61,19.61,0,0,1-2,4.62l-.61-1.36a21.17,21.17,0,0,0,2.5-6.08h-2.3v-1.19h2.41V939h1.27v3.65h1.65v1.19h-1.65v1.56a28.49,28.49,0,0,1,2,2.16l-.77,1.17a21.75,21.75,0,0,0-1.23-1.89v8.3h-1.27Zm4.38.6v-2.47h1.14v2.47H1073v-2.47h1.11v2.47h1.08v1.12h-1.08v3.71H1073v-3.71h-1.18a17.23,17.23,0,0,1-.25,2.67,7.53,7.53,0,0,1-1.3,2.76l-.92-.86a5.85,5.85,0,0,0,1.11-2.4,11,11,0,0,0,.21-2.17h-1v-1.12Zm5.39,3.09a35,35,0,0,1-1-6.71h-5.48V942.5h5.42l-.06-1c0-.66-.07-1.49-.09-2.5h1.24c0,1.4.06,2.57.11,3.5h3.63v1.14h-3.56a46.45,46.45,0,0,0,.64,5.2,19,19,0,0,0,1.45-3.6l1.12.51a23.85,23.85,0,0,1-2.18,4.78,12.52,12.52,0,0,0,.81,2.21c.22.41.36.62.45.62s.14-.11.19-.33a13.17,13.17,0,0,0,.4-2.25l1,.73c-.34,2.4-.85,3.61-1.54,3.61-.34,0-.71-.33-1.12-1a11.77,11.77,0,0,1-1.07-2.33,17.09,17.09,0,0,1-1.7,1.88,14.73,14.73,0,0,1-2,1.53l-.84-1A12.37,12.37,0,0,0,1076.06,950.35Zm2.3-8.21a14.94,14.94,0,0,0-1.44-2.43l.92-.47a12.47,12.47,0,0,1,1.51,2.31Z"/><path d="M1084.87,944.2h8.34v1.16h-8.35v-1.15a20.75,20.75,0,0,1-3.33,1.88l-.77-1.07a15,15,0,0,0,7.28-6h1.5a17.16,17.16,0,0,0,4.44,4,24.69,24.69,0,0,0,3.1,1.57l-.71,1.18a23.89,23.89,0,0,1-3.65-2,20.83,20.83,0,0,1-3.9-3.55A14.72,14.72,0,0,1,1084.87,944.2Zm3,4.72a31.45,31.45,0,0,1-2.63,4.26l1.66-.08q3.18-.15,6.17-.51c-.87-.92-1.62-1.69-2.28-2.3l1.07-.7a38.28,38.28,0,0,1,4.45,4.59l-1.18.86c-.51-.64-.92-1.15-1.22-1.5q-5.76.8-11.6,1.08l-.44-1.33,1.18,0,.66,0a26.47,26.47,0,0,0,2.48-4.26l0-.07h-5.06v-1.17h15.58v1.17Z"/><path d="M1097.83,942.14h5.74v1.12h-5.74Zm5.34,7.43v4.68h-3.65v.9h-1.17v-5.58Zm-4.61-9.88h4.38v1.08h-4.38Zm0,4.95h4.4v1.07h-4.4Zm0,2.43h4.4v1.06h-4.4Zm1,3.59v2.5H1102v-2.5Zm11.67.58c.51-.53,1-1,1.34-1.51l.9.67a25.45,25.45,0,0,1-1.79,1.93,4.75,4.75,0,0,0,.76,1.13c.14.15.25.23.32.23s.34-.58.42-1.75l1,.62c-.12,1.73-.49,2.59-1.1,2.59a1.74,1.74,0,0,1-1-.48,5.67,5.67,0,0,1-1.27-1.55,15.43,15.43,0,0,1-2.41,1.72l-.74-.88a14.31,14.31,0,0,0,2.64-1.85,11.57,11.57,0,0,1-.66-2.62h-2.39v1.15l.21,0c.56-.1,1.13-.22,1.71-.35l0,.94c-.41.11-1.07.27-2,.47V954a1.13,1.13,0,0,1-.27.85,1.41,1.41,0,0,1-1,.26,11,11,0,0,1-1.53-.11l-.2-1.1a9.48,9.48,0,0,0,1.46.14c.18,0,.28-.06.31-.19a.78.78,0,0,0,0-.24v-1.76q-1.43.25-2.37.39l-.28-1.09c.82-.08,1.7-.2,2.65-.36v-1.34h-2.65v-1H1106v-.92q-.76.13-1.77.24l-.42-.83a23.63,23.63,0,0,0,4.21-.86l.68.84c-.49.14-1,.27-1.53.38v1.15h2.26c-.07-.74-.11-1.51-.14-2.32h1.17c0,.74.08,1.51.16,2.32H1114v1h-3.19A13.27,13.27,0,0,0,1111.19,951.24Zm-4.9-10.82a12.19,12.19,0,0,0-.67-1.12l1.1-.34a9,9,0,0,1,.8,1.46h2.13l.12-.2a11.57,11.57,0,0,0,.58-1.29l1.3.31c-.19.36-.44.75-.72,1.18h2.59v1h-4.3v1.1h3.72v1h-3.72v1.17H1114v1h-10.51v-1H1108V943.5h-3.5v-1h3.5v-1.1h-4.17v-1Zm6.07,7.92a7.82,7.82,0,0,0-1.2-1.71l.93-.49a8.35,8.35,0,0,1,1.24,1.66Z"/><path d="M1131,941.61v-2.35h1.34v2.35h7.46v1.18h-7.46v2.57h6.3v1.15h-13.87v-1.15H1131v-2.57h-7.35v-1.18Zm6.81,7v6.82h-1.39v-1H1127v1h-1.41v-6.82ZM1127,949.74v3.48h9.4v-3.48Z"/><path d="M1155.64,940.62v14.26h-1.32v-1.3h-11.15v1.28h-1.33V940.62Zm-12.47,1.18v4.49H1148V941.8Zm0,5.67v4.89H1148v-4.89Zm11.15-1.18V941.8h-5v4.49Zm0,6.07v-4.89h-5v4.89Z"/><path d="M1175.37,942.5v10h7.44v1.26h-16.15V952.5H1174v-10h-6.28v-1.22h14.07v1.22Z"/><path d="M1189.32,943.44V954a1.42,1.42,0,0,1-.37,1.16,1.77,1.77,0,0,1-1,.22,11.83,11.83,0,0,1-1.44-.07l-.22-1.14a8.83,8.83,0,0,0,1.24.09,1.37,1.37,0,0,0,.55-.07.43.43,0,0,0,.12-.34v-3.35h-2.33a13.67,13.67,0,0,1-.29,2.51,8.47,8.47,0,0,1-1,2.42l-.94-.86a8.2,8.2,0,0,0,1-3.15c.05-.5.08-1.08.08-1.73v-6.23Zm-1-2.79v-1.39h1.31v1.39h4.1v-1.39H1195v1.39h4.61v1.1H1195v.89h-1.32v-.89h-4.1v1.14h-1.31v-1.14h-4.47v-1.1Zm-2.45,3.88v1.92h2.32v-1.92Zm0,2.9v2h2.32v-2Zm10.49,1.18H1193a10.63,10.63,0,0,1-1,1.17,9.69,9.69,0,0,1,1.11,1.11l-.81.8c-.48-.52-.85-.91-1.13-1.17q-.36.29-1.08.78l-.73-.89a9.71,9.71,0,0,0,2.22-1.8h-1.77v-1h2.52a11.62,11.62,0,0,0,.67-1.31l0-.1h-2.9v-1h1.32a9.23,9.23,0,0,0-.87-1.46l1.09-.44a16.75,16.75,0,0,1,.95,1.9h.75a18.2,18.2,0,0,0,.49-2.31l1.21.1c-.14.84-.29,1.58-.46,2.21h1.2a11.63,11.63,0,0,0,1.16-2l1.16.43c-.35.58-.7,1.11-1.05,1.58h2v1h-3a8.2,8.2,0,0,0,.93,1.41h2.73v1h-1.76a10.54,10.54,0,0,0,2,1.35l-.78,1c-.43-.27-.81-.52-1.12-.75a7.93,7.93,0,0,1-1.31,1.39l-.82-.71a8,8,0,0,0,1.26-1.39A10.2,10.2,0,0,1,1196.34,948.61Zm-6.63,4.91a15.91,15.91,0,0,0,3.21-1.7l.33.95a16.71,16.71,0,0,1-3,1.78Zm4.21-4.35h1.2v5.06a1.31,1.31,0,0,1-.23.88,1.27,1.27,0,0,1-1,.28,12.3,12.3,0,0,1-1.52-.09l-.2-1.13a10.42,10.42,0,0,0,1.36.11c.17,0,.28,0,.32-.15a1,1,0,0,0,.05-.34Zm1.69-1.56a9.64,9.64,0,0,1-.75-1.41h-.57a11.24,11.24,0,0,1-.64,1.41Zm3.08,7a23.6,23.6,0,0,0-3.11-2l.63-.84a26.82,26.82,0,0,1,3.21,1.89Z"/><path d="M1265,950.29h-4.4V955h-1.22v-4.71h-4a7.22,7.22,0,0,1-.44,2.41,5.84,5.84,0,0,1-2.05,2.62l-.94-1a4.53,4.53,0,0,0,1.93-2.53,6.72,6.72,0,0,0,.25-1.92v-3.42h1.26v.65h9.6v-.92h1.26v9H1265Zm-3.26-8.84.82.51a21.52,21.52,0,0,1-1.91,1.81v2.64h-1.27v-2.66c-.4-.4-.83-.8-1.3-1.2a11,11,0,0,1-.31,2.87,1.19,1.19,0,0,1-1.26.69,6.7,6.7,0,0,1-1.19-.1l-.14-1a8,8,0,0,0,1,.08c.25,0,.4-.09.46-.26a7.69,7.69,0,0,0,.22-1.53h-1.31a4.42,4.42,0,0,1-2.81,3.3l-.73-.86a4.87,4.87,0,0,0,1.58-1,3.11,3.11,0,0,0,.81-1.46h-1.83v-1h5.29l-.24-.19-.26-.2.78-.54h-6v-1h7.17V939h1.31v1.39h7.3v1Zm3.26,7.8V948.1h-9.6v1.15Zm-9.45,4.58a7.32,7.32,0,0,0,1.6-2.83l1.09.43a11,11,0,0,1-1.67,3.08Zm6-12.38h-3.2a14.58,14.58,0,0,1,1.68,1.6A15.17,15.17,0,0,0,1261.5,941.45Zm.71,1.1h.16a18.52,18.52,0,0,0,4.22-.92l.75.85c-.41.14-1,.29-1.7.47h-.1a5.54,5.54,0,0,0,2.67,2.61l-.78.89a6.11,6.11,0,0,1-2.92-3.29l-1.16.18V945c.82-.15,1.43-.28,1.81-.38l.07.93a29.44,29.44,0,0,1-3.44.67l-.33-1,.57-.06.18,0Zm1,11.68a16.43,16.43,0,0,0-1.79-2.77l.9-.61a21.64,21.64,0,0,1,1.94,2.69Z"/><path d="M1274.62,943.22v10.54a1.39,1.39,0,0,1-.38,1.15,1.71,1.71,0,0,1-1,.23,11.65,11.65,0,0,1-1.43-.07l-.23-1.14a8.94,8.94,0,0,0,1.24.09,1.18,1.18,0,0,0,.56-.08.39.39,0,0,0,.11-.33v-3.35h-2.32a13.44,13.44,0,0,1-.29,2.5,8.41,8.41,0,0,1-1,2.43l-.94-.87a8.08,8.08,0,0,0,1-3.14,14.79,14.79,0,0,0,.09-1.74v-6.22Zm-1-2.79V939h1.31v1.39h4.1V939h1.32v1.39h4.61v1.1h-4.61v.89H1279v-.89h-4.1v1.14h-1.31v-1.14h-4.47v-1.1Zm-2.45,3.88v1.91h2.31v-1.91Zm0,2.9v2h2.31v-2Zm10.49,1.18h-3.35a10.57,10.57,0,0,1-1,1.17,8.79,8.79,0,0,1,1.1,1.1l-.81.81a14.9,14.9,0,0,0-1.13-1.17c-.24.19-.59.45-1.07.78l-.73-.89a9.71,9.71,0,0,0,2.22-1.8h-1.77v-1h2.51a10.24,10.24,0,0,0,.68-1.31l0-.1h-2.9v-1h1.31a9.18,9.18,0,0,0-.86-1.46l1.09-.44a16,16,0,0,1,.94,1.9h.76a20.14,20.14,0,0,0,.49-2.31l1.2.1a20.83,20.83,0,0,1-.45,2.21h1.2a13.09,13.09,0,0,0,1.16-2l1.15.43a17.32,17.32,0,0,1-1,1.58h2v1h-3.05a8,8,0,0,0,.92,1.41H1285v1h-1.76a10.55,10.55,0,0,0,2,1.34l-.78,1c-.44-.27-.81-.52-1.12-.75a7.62,7.62,0,0,1-1.32,1.39l-.81-.72a7.22,7.22,0,0,0,1.25-1.38A11.61,11.61,0,0,1,1281.64,948.39Zm-6.63,4.9a15,15,0,0,0,3.21-1.7l.32,1a16.88,16.88,0,0,1-3,1.78Zm4.21-4.34h1.2V954a1.36,1.36,0,0,1-.23.88,1.27,1.27,0,0,1-1,.28,12.18,12.18,0,0,1-1.52-.09l-.21-1.14a9.29,9.29,0,0,0,1.36.12q.27,0,.33-.15a1,1,0,0,0,0-.34Zm1.68-1.57a11.3,11.3,0,0,1-.75-1.41h-.56a10.11,10.11,0,0,1-.65,1.41Zm3.09,7a23.91,23.91,0,0,0-3.11-2l.63-.84a25.53,25.53,0,0,1,3.21,1.89Z"/><rect class="cls-4" x="1166.5" y="772.5" width="63" height="93"/><rect class="cls-2" x="1229.5" y="772.5" width="43" height="93"/><path d="M686.67,125.54v-2.39H688v2.39h3.66v1.11H688v2.06h4.39v1.12H688v1.85h3.58v4.45a1.06,1.06,0,0,1-.4.94,1.6,1.6,0,0,1-.91.2,12.6,12.6,0,0,1-1.43-.09l-.22-1.2a9.08,9.08,0,0,0,1.42.13.28.28,0,0,0,.32-.31v-3H688v6.52h-1.28v-6.52h-2.25v4.79H683.2v-5.88h3.47v-1.85H682.2v-1.12h4.47v-2.06h-2.33a10.15,10.15,0,0,1-1,1.57l-1-.68a10.18,10.18,0,0,0,1.73-3.75l1.21.23c-.13.5-.29,1-.47,1.52Zm6.25-1.06h1.26V135h-1.26Zm3.36-.86h1.28v14a1.33,1.33,0,0,1-.45,1.14,2,2,0,0,1-1.25.31c-.63,0-1.37,0-2.2-.12l-.27-1.31a20.21,20.21,0,0,0,2.34.17c.27,0,.44-.07.49-.19a1.05,1.05,0,0,0,.06-.4Z"/><path d="M702.26,130v9.35H701v-7.6a19,19,0,0,1-1.4,1.56L699,132a16.32,16.32,0,0,0,3.44-4.87l1,.64A23.8,23.8,0,0,1,702.26,130Zm-3.16-3a12.37,12.37,0,0,0,3-3.81l1.15.56a15,15,0,0,1-3.45,4.29Zm8.48-1v2.6h2.73v1.15h-2.73v2.18H710V133h-2.46v3.2l.58-.14c.79-.2,1.49-.39,2.1-.56l.11,1.09a70.34,70.34,0,0,1-7.12,1.83l-.52-1.22c.25,0,.54-.09.89-.15l.32-.06v-5.55h1.16v5.32l1.14-.25.15,0v-6.77h-3.13v-1.15h3.13V126H705.3a9.4,9.4,0,0,1-1.11,1.77l-.91-.78a9.93,9.93,0,0,0,1.71-3.75l1.18.29a13.15,13.15,0,0,1-.41,1.35h4.16V126Zm7.43-1.19v10.37a1,1,0,0,1-1.13,1.09,8.53,8.53,0,0,1-1.21-.09l-.28-1.26a6.63,6.63,0,0,0,1.07.1c.18,0,.29-.05.32-.14a.85.85,0,0,0,0-.32V126H712v13.3h-1.2V124.78Z"/><path d="M731.34,124.1v15.11H730v-1.16H718.51v1.16h-1.34V124.1Zm-12.83,1.17v11.58H730V125.27Zm9.17,2.43v6.54h-6.93V127.7Zm-5.63,1.14v4.27h4.35v-4.27Z"/><path d="M741.85,126.07v1.72h4.76v1h-4.76v1.56h5.64v1h-5.64v1.67h7.47v1.11h-7.09a8,8,0,0,0,2.78,2.3,14.37,14.37,0,0,0,4.13,1.44l-.75,1.2a13.07,13.07,0,0,1-4.69-2,8,8,0,0,1-2.39-2.45c-1,2.31-3.37,3.82-7.09,4.51l-.7-1.14q5.34-.83,6.73-3.89h-7.07v-1.11h7.36v-1.67H735v-1h5.51v-1.56h-4.66v-1h4.66v-1.72h-5.27v2.17h-1.33V125h6.6v-1.85h1.31V125h6.66v3.24H747.2v-2.17Z"/><path d="M805,125.71v-1h-5.34v-1h12.09v1h-5.47v1h7v3.14H812v-2.17h-5.68v3.79H805v-3.79h-5.58v2.15H798.1v-3.12Zm1.23,10.91v.83c0,.3.1.48.31.54a12.41,12.41,0,0,0,2.4.13,20.5,20.5,0,0,0,3-.12.65.65,0,0,0,.52-.58,10.79,10.79,0,0,0,.14-1.43l1.24.46a4,4,0,0,1-.46,2.25,1.45,1.45,0,0,1-1,.43,31.26,31.26,0,0,1-3.57.16,18.46,18.46,0,0,1-2.95-.14,1,1,0,0,1-.81-.58,2,2,0,0,1-.1-.66v-1.29h-4.18v.86h-1.33V131h12.41v5.58Zm-5.87-9.1h3.75v.88h-3.75Zm0,1.69h3.75v.85h-3.75Zm4.58,2.84h-4.18v1.22h4.18Zm0,2.24h-4.18v1.33h4.18Zm1.29-2.24v1.22h4.28v-1.22Zm0,2.24v1.33h4.28v-1.33Zm1-6.77h3.86v.88h-3.86Zm0,1.69h3.86v.85h-3.86Z"/><path d="M823.55,128.64v2.08h7.14v1.19h-7.14v5.8a1.42,1.42,0,0,1-.5,1.24,2.41,2.41,0,0,1-1.36.29c-1,0-1.85,0-2.53-.09l-.32-1.33c1,.1,1.88.15,2.51.15a1.26,1.26,0,0,0,.66-.11c.11-.08.16-.25.16-.53v-5.42h-7.46v-1.19h7.46V128a23.85,23.85,0,0,0,4.27-2.56h-9.83v-1.22h11.56l.78.84A40.65,40.65,0,0,1,823.55,128.64Z"/><path d="M843.8,133a16.29,16.29,0,0,0,4.12,2.13l-.82,1.17a15.29,15.29,0,0,1-4.93-3.3h-5.06a11.5,11.5,0,0,1-2.22,2.1H839v-1.48h1.31v1.48h4.47v1.07H840.3v1.7h6.55v1.07H832.61v-1.07H839v-1.7H834.7v-.94l-.12.09a16.49,16.49,0,0,1-2.29,1.25l-.82-1.05a12.54,12.54,0,0,0,4.15-2.52h-4v-1.07h3.9v-5.81h-3v-1h3v-1.81h1.32v1.81h5.6v-1.81h1.33v1.81h3.14v1h-3.14v5.81h4V133Zm-1.36-6.88h-5.6v1.26h5.6Zm0,2.24h-5.6v1.28h5.6Zm0,2.27h-5.6v1.3h5.6Z"/><path d="M857.3,126.18v1.72h4.75v1H857.3v1.56h5.63v1.06H857.3v1.66h7.47v1.11h-7.09a8,8,0,0,0,2.77,2.31,14.76,14.76,0,0,0,4.14,1.43l-.75,1.21a13.13,13.13,0,0,1-4.7-2,8.16,8.16,0,0,1-2.39-2.45c-1,2.31-3.37,3.82-7.09,4.51l-.7-1.14c3.56-.55,5.81-1.84,6.74-3.89h-7.08v-1.11H856v-1.66h-5.52v-1.06H856V129h-4.66v-1H856v-1.72h-5.28v2.17h-1.32v-3.24H856v-1.85h1.31v1.85H864v3.24h-1.31v-2.17Z"/><path d="M833.23,242.85v-1h-5.35v-1H840v1H834.5v1h7V246h-1.33v-2.18H834.5v3.8h-1.27v-3.8h-5.59V246h-1.31v-3.13Zm1.22,10.92v.83c0,.3.11.48.31.54a12.41,12.41,0,0,0,2.4.13,20.4,20.4,0,0,0,3-.12.66.66,0,0,0,.53-.58,11.18,11.18,0,0,0,.13-1.43l1.24.45a4.1,4.1,0,0,1-.45,2.25,1.45,1.45,0,0,1-1,.44,32,32,0,0,1-3.58.15,19,19,0,0,1-2.95-.13,1,1,0,0,1-.8-.58,1.76,1.76,0,0,1-.1-.66v-1.29H829v.86h-1.32v-6.44h12.4v5.58Zm-5.87-9.1h3.75v.88h-3.75Zm0,1.69h3.75v.84h-3.75Zm4.59,2.84H829v1.22h4.19Zm0,2.24H829v1.32h4.19Zm1.28-2.24v1.22h4.29V249.2Zm0,2.24v1.32h4.29v-1.32Zm1-6.77h3.86v.88h-3.86Zm0,1.69h3.86v.84h-3.86Z"/><path d="M846.61,241.93h10.93V243H846a13,13,0,0,1-2.09,2.48l-1-.9a9.26,9.26,0,0,0,3-4.25l1.4.28A14,14,0,0,1,846.61,241.93Zm1.62,10.31a34.05,34.05,0,0,0-3.55-2l.86-.94c1.11.56,2.3,1.23,3.58,2A13.32,13.32,0,0,0,851,248.5l1.22.54a16.36,16.36,0,0,1-2,3c1.3.87,2.35,1.61,3.16,2.22l-.89,1.06a38.54,38.54,0,0,0-3.15-2.34,15.61,15.61,0,0,1-4.94,3.13l-.9-1.07A12.76,12.76,0,0,0,848.23,252.24Zm7.86-5.51v.49a20.67,20.67,0,0,0,.81,6.81c.19.48.34.73.44.73s.15-.17.25-.5a13,13,0,0,0,.34-2.18l1.19.82a14.9,14.9,0,0,1-.43,2.27c-.26.9-.66,1.35-1.19,1.35s-.89-.32-1.33-.94c-.9-1.27-1.38-3.81-1.44-7.6v-.15H843.54v-1.1Zm-10.41-2.38h9.93v1h-9.93Z"/><path d="M834.88,263.5h6.71v1.17H828.44v3.58a38.47,38.47,0,0,1-.31,5.6,12,12,0,0,1-1.15,3.58l-1.1-1a12.12,12.12,0,0,0,1-3.82,41.43,41.43,0,0,0,.19-4.49V263.5h6.4v-2.1h1.38Zm-6.4,11.74a17.45,17.45,0,0,0,1.58-5.68l1.24.28a19.55,19.55,0,0,1-1.64,6.17Zm7.67-6.18a19.29,19.29,0,0,0-3.54-3l.91-.86a21.38,21.38,0,0,1,3.6,2.9Zm-3.52-.5h1.29v6.6c0,.35.11.57.33.65a5.69,5.69,0,0,0,1.41.1,3.93,3.93,0,0,0,1.52-.17q.23-.12.3-.6a20.1,20.1,0,0,0,.16-2.41l1.3.52a18.83,18.83,0,0,1-.2,2.48,1.51,1.51,0,0,1-1.23,1.31,10.73,10.73,0,0,1-2,.13,7.63,7.63,0,0,1-2.12-.18,1.14,1.14,0,0,1-.71-1.2Zm8.21,6.72a29.93,29.93,0,0,0-2.86-5.65l1.09-.61a26,26,0,0,1,2.93,5.51Z"/><path d="M851.52,264.33V266h4.76v1.06h-4.76v1.56h5.64v1h-5.64v1.67H859v1.11H851.9a8.22,8.22,0,0,0,2.77,2.3,14.55,14.55,0,0,0,4.14,1.44l-.75,1.2a13.12,13.12,0,0,1-4.7-2A8.28,8.28,0,0,1,851,273q-1.5,3.47-7.09,4.51l-.69-1.14c3.55-.55,5.8-1.85,6.73-3.89h-7.07v-1.11h7.36v-1.67H844.7v-1h5.51V267.1h-4.66V266h4.66v-1.71h-5.27v2.17h-1.33v-3.24h6.6V261.4h1.31v1.86h6.66v3.24h-1.31v-2.17Z"/><path d="M758,242.72v-1h-5.35v-1h12.09v1h-5.47v1h7v3.15h-1.33V243.7h-5.68v3.79H758V243.7h-5.59v2.15h-1.31v-3.13Zm1.22,10.92v.83c0,.3.11.48.31.54a12.41,12.41,0,0,0,2.4.13,20.4,20.4,0,0,0,3-.12.66.66,0,0,0,.53-.58,11.18,11.18,0,0,0,.13-1.43l1.24.45a4.1,4.1,0,0,1-.45,2.25,1.45,1.45,0,0,1-1,.44,31.82,31.82,0,0,1-3.58.15,19,19,0,0,1-3-.13,1,1,0,0,1-.8-.58,1.76,1.76,0,0,1-.1-.66v-1.29h-4.19v.86H752.4v-6.44h12.41v5.58Zm-5.86-9.1h3.74v.88h-3.74Zm0,1.69h3.74v.84h-3.74Zm4.58,2.84h-4.19v1.22h4.19Zm0,2.24h-4.19v1.32h4.19Zm1.28-2.24v1.22h4.29v-1.22Zm0,2.24v1.32h4.29v-1.32Zm1-6.77H764v.88h-3.86Zm0,1.69H764v.84h-3.86Z"/><path d="M776.51,245.65v2.09h7.14v1.18h-7.14v5.81A1.43,1.43,0,0,1,776,256a2.4,2.4,0,0,1-1.36.28c-1,0-1.85,0-2.53-.08l-.32-1.33c1,.1,1.88.14,2.51.14a1.29,1.29,0,0,0,.66-.1c.11-.08.16-.26.16-.53v-5.43h-7.46v-1.18h7.46V245a23.5,23.5,0,0,0,4.27-2.56h-9.83v-1.22h11.56l.78.84A39.32,39.32,0,0,1,776.51,245.65Z"/><path d="M753.77,273.56a17.41,17.41,0,0,0,4.47,2.51l-.71,1.23a17.61,17.61,0,0,1-4.63-2.91,18.49,18.49,0,0,1-4.91,3l-.81-1.16a15,15,0,0,0,4.85-2.71,15.74,15.74,0,0,1-2.9-4.62h-.93v-1.15H752v-2.69h-4.4v.68H746V269c.55-.17,1.16-.39,1.82-.64l.12,1.15c-.76.32-1.41.57-1.94.75v5.8a1.3,1.3,0,0,1-.35,1,1.61,1.61,0,0,1-1,.27,10.72,10.72,0,0,1-1.72-.15l-.23-1.29a9.6,9.6,0,0,0,1.58.16c.22,0,.35-.06.4-.16a.78.78,0,0,0,0-.3v-4.91c-.7.22-1.46.45-2.26.67l-.39-1.25c1.2-.31,2.08-.55,2.65-.73v-3.68h-2.52v-1.21h2.52v-3.27H746v3.27h1.45v-.66H752v-2.61h1.31v2.61h4.85v1.19h-4.85v2.69h3.06l.75.64A17.41,17.41,0,0,1,753.77,273.56Zm-.9-.82a11.9,11.9,0,0,0,2.56-3.82h-5A12.34,12.34,0,0,0,752.87,272.74Z"/><path d="M762.27,267.76v9.67h-1.2v-7.86a14.47,14.47,0,0,1-1.63,1.84l-.61-1.21a16.08,16.08,0,0,0,3.54-5.34l1.13.53A18.77,18.77,0,0,1,762.27,267.76ZM759,265.12a11.16,11.16,0,0,0,2.86-3.76l1.21.51a14.89,14.89,0,0,1-3.32,4.22Zm4.17,9.39a26,26,0,0,0,1.1-6.44l1.12.16a29.54,29.54,0,0,1-1.1,6.92Zm3.16-9.44v-3.71h1.19v3.71h2.58v1.17h-2.58V277h-1.19V266.24h-2.61v-1.17Zm2.52-.62a13.87,13.87,0,0,0-.88-2.61l1-.4a10.54,10.54,0,0,1,.91,2.61Zm.3,10.17a50.47,50.47,0,0,0-1-6.46l1.07-.29a46.19,46.19,0,0,1,1.14,6.25Zm4.53-6.82V276a1.24,1.24,0,0,1-.37,1,1.78,1.78,0,0,1-1.13.27,16.12,16.12,0,0,1-1.62-.09l-.29-1.25a15.71,15.71,0,0,0,1.76.12c.21,0,.34-.05.39-.14a1.08,1.08,0,0,0,0-.3V267.8h-2.55v-1.2h5.42v1.2Zm-3.1-5.54h4.2v1.21h-4.2Z"/><path d="M784.76,264.2v1.72h4.76V267h-4.76v1.56h5.64v1.05h-5.64v1.67h7.47v1.11h-7.09a8,8,0,0,0,2.78,2.3,14.37,14.37,0,0,0,4.13,1.44l-.75,1.2a13.12,13.12,0,0,1-4.7-2,8.28,8.28,0,0,1-2.39-2.45c-1,2.31-3.36,3.82-7.09,4.51l-.69-1.14c3.55-.55,5.8-1.85,6.73-3.89h-7.07v-1.11h7.36v-1.67h-5.51v-1.05h5.51V267h-4.66v-1.05h4.66V264.2h-5.27v2.17h-1.33v-3.24h6.6v-1.85h1.31v1.85h6.66v3.24h-1.31V264.2Z"/><path d="M586.34,253.49a19.61,19.61,0,0,0,2.45-5.27,30.24,30.24,0,0,0,1.29-6.41l1.36.29q-1.12,8.31-4,12.41Zm12.82,1a27.71,27.71,0,0,1-2.17-4.66,51.42,51.42,0,0,1-2.2-7.79l1.29-.4a43.74,43.74,0,0,0,2.27,7.79,27.42,27.42,0,0,0,2,4.13Zm.36-14.35a2,2,0,0,1,1.08.33,1.89,1.89,0,0,1,.89,1.65,2,2,0,0,1-2,2,2,2,0,0,1-.88-.22,2.07,2.07,0,0,1-.74-.67,2,2,0,0,1,1.64-3.06Zm0,.87a1.07,1.07,0,0,0-.57.16,1,1,0,0,0-.53.95,1.07,1.07,0,0,0,.28.74,1.13,1.13,0,0,0,1.35.23,1,1,0,0,0,.58-1,1.09,1.09,0,0,0-1.11-1.11Z"/><path d="M603.82,241.93H616.4a26.48,26.48,0,0,1-.77,6.93,7.51,7.51,0,0,1-2.88,4.19,12.57,12.57,0,0,1-4.46,2l-.76-1.23a11.38,11.38,0,0,0,4.76-2.13,6.72,6.72,0,0,0,2.1-3.62,22.07,22.07,0,0,0,.55-4.91h-9.76v4.57h-1.36Z"/><path d="M619.49,242.35h12.12v1.25h-5.45v9.26h6.41v1.22H618.52v-1.22h6.28V243.6h-5.31Z"/><path d="M634.87,240.84h1.4v12.68a17.76,17.76,0,0,0,6.81-3.83,14.32,14.32,0,0,0,3.22-3.94l.88,1.31a18.06,18.06,0,0,1-4.42,4.66,22.13,22.13,0,0,1-7,3.43l-.94-.93Z"/><path d="M608.63,263.83v1.72h4.76v1.05h-4.76v1.56h5.64v1h-5.64v1.67h7.47V272H609a8.05,8.05,0,0,0,2.78,2.3,14.37,14.37,0,0,0,4.13,1.44l-.75,1.2a13.12,13.12,0,0,1-4.7-2,8.28,8.28,0,0,1-2.39-2.45c-1,2.31-3.36,3.82-7.09,4.51l-.69-1.14c3.55-.55,5.8-1.85,6.73-3.89H600v-1.11h7.36v-1.67h-5.51v-1h5.51V266.6h-4.66v-1.05h4.66v-1.72h-5.27V266h-1.33v-3.24h6.6v-1.85h1.31v1.85h6.66V266H614v-2.17Z"/><path d="M620.05,262.09h10v1.21h-1.73v11.36H630v1.2h-10v-1.2h1.74V263.3h-1.74Zm3.25,1.21v11.36h3.47V263.3Z"/><path d="M597.2,125.48a19.69,19.69,0,0,0,2.45-5.26,30.24,30.24,0,0,0,1.29-6.41l1.35.29q-1.11,8.31-4,12.41Zm12.81,1a28.56,28.56,0,0,1-2.16-4.66,50.29,50.29,0,0,1-2.2-7.79l1.29-.4a43.74,43.74,0,0,0,2.27,7.79,27.42,27.42,0,0,0,2,4.13Zm.37-14.35a2,2,0,0,1,1.08.33,2,2,0,0,1-1.1,3.61,2,2,0,0,1-.88-.21,2.19,2.19,0,0,1-.75-.67,1.93,1.93,0,0,1-.08-2,2,2,0,0,1,.67-.72A1.93,1.93,0,0,1,610.38,112.16Zm0,.87a1.07,1.07,0,0,0-.57.16,1,1,0,0,0-.53,1,1.07,1.07,0,0,0,.28.74,1.08,1.08,0,0,0,.83.36,1.11,1.11,0,0,0,1.1-1.1,1.09,1.09,0,0,0-1.11-1.11Z"/><path d="M614.68,113.93h12.58a26.92,26.92,0,0,1-.77,6.93,7.51,7.51,0,0,1-2.88,4.19,12.65,12.65,0,0,1-4.46,2l-.76-1.23a11.44,11.44,0,0,0,4.76-2.13,6.72,6.72,0,0,0,2.1-3.62,22.07,22.07,0,0,0,.55-4.91H616v4.57h-1.36Z"/><path d="M630.35,114.35h12.12v1.25H637v9.26h6.4v1.22h-14v-1.22h6.27V115.6h-5.3Z"/><path d="M645.73,112.84h1.4v12.68a17.76,17.76,0,0,0,6.81-3.83,14.27,14.27,0,0,0,3.21-3.94l.89,1.31a18.06,18.06,0,0,1-4.42,4.66,22.13,22.13,0,0,1-7,3.43l-.94-.93Z"/><path d="M619.49,135.83v1.71h4.76v1.06h-4.76v1.56h5.63v1.05h-5.63v1.67H627V144h-7.09a8.12,8.12,0,0,0,2.77,2.3,14.55,14.55,0,0,0,4.14,1.44l-.75,1.2a13.12,13.12,0,0,1-4.7-2,8.28,8.28,0,0,1-2.39-2.45q-1.5,3.47-7.09,4.51l-.7-1.14q5.34-.82,6.74-3.89h-7.08v-1.11h7.37v-1.67h-5.51v-1.05h5.51V138.6h-4.66v-1.06h4.66v-1.71h-5.27V138h-1.33v-3.24h6.6V132.9h1.31v1.86h6.66V138h-1.32v-2.17Z"/><path d="M633.38,134.09h5v1.21h-1.74v11.36h1.74v1.2h-5v-1.2h1.73V135.3h-1.73Z"/><path d="M568.34,114.87v-1H563v-1h12.09v1h-5.47v1h7V118h-1.33v-2.18h-5.68v3.8h-1.27v-3.8h-5.59V118h-1.31v-3.13Zm1.22,10.92v.83c0,.3.11.48.31.54a12.41,12.41,0,0,0,2.4.13,20.4,20.4,0,0,0,3-.12.66.66,0,0,0,.53-.59,11,11,0,0,0,.13-1.42l1.24.45a4.1,4.1,0,0,1-.45,2.25,1.4,1.4,0,0,1-1,.43,29.16,29.16,0,0,1-3.58.16,19,19,0,0,1-3-.13,1,1,0,0,1-.8-.58,1.78,1.78,0,0,1-.1-.67v-1.28h-4.19v.86h-1.32v-6.44h12.41v5.58Zm-5.86-9.1h3.74v.88H563.7Zm0,1.69h3.74v.84H563.7Zm4.58,2.83h-4.19v1.22h4.19Zm0,2.25h-4.19v1.32h4.19Zm1.28-2.25v1.22h4.29v-1.22Zm0,2.25v1.32h4.29v-1.32Zm1-6.77h3.86v.88h-3.86Zm0,1.69h3.86v.84h-3.86Z"/><path d="M581.72,114h10.93v1.1H581.07a13.09,13.09,0,0,1-2.09,2.49l-1-.9a9.31,9.31,0,0,0,3-4.25l1.4.28C582.09,113.2,581.89,113.63,581.72,114Zm1.62,10.31a32.32,32.32,0,0,0-3.55-2l.86-.94c1.11.56,2.3,1.23,3.58,2a13.32,13.32,0,0,0,1.89-2.81l1.22.54a16.36,16.36,0,0,1-2,3c1.3.86,2.35,1.61,3.16,2.22l-.89,1c-1.1-.89-2.15-1.67-3.15-2.33a15.78,15.78,0,0,1-4.94,3.13l-.9-1.07A12.89,12.89,0,0,0,583.34,124.26Zm7.86-5.51v.49A20.64,20.64,0,0,0,592,126c.19.49.34.74.44.74s.15-.17.25-.5a13,13,0,0,0,.34-2.18l1.19.82a14.9,14.9,0,0,1-.43,2.27c-.26.9-.66,1.35-1.19,1.35s-.89-.32-1.33-.94q-1.35-1.92-1.44-7.6v-.15H578.65v-1.1Zm-10.4-2.38h9.92v1H580.8Z"/><path d="M565,138.63h8.34v1.15H565v-1.14a20,20,0,0,1-3.33,1.87l-.77-1.07a14.94,14.94,0,0,0,7.28-6h1.5a17,17,0,0,0,4.44,4,23.45,23.45,0,0,0,3.1,1.56l-.71,1.19a23.06,23.06,0,0,1-3.65-2,20.5,20.5,0,0,1-3.9-3.55A14.62,14.62,0,0,1,565,138.63Zm3,4.72a31.69,31.69,0,0,1-2.63,4.26l1.66-.08q3.18-.17,6.17-.51-1.29-1.38-2.28-2.31L572,144a39,39,0,0,1,4.44,4.59l-1.17.86q-.78-1-1.23-1.5-5.76.79-11.6,1.08l-.44-1.33,1.18,0h.66a28.24,28.24,0,0,0,2.49-4.26l0-.07h-5.06v-1.17h15.59v1.17Z"/><path d="M577.94,136.57h5.74v1.12h-5.74Zm5.34,7.43v4.67h-3.65v.91h-1.17V144Zm-4.61-9.88h4.38v1.07h-4.38Zm0,4.95h4.4v1.07h-4.4Zm0,2.43h4.4v1.05h-4.4Zm1,3.59v2.49h2.46v-2.49Zm11.67.58c.51-.53,1-1,1.34-1.51l.91.67a25.21,25.21,0,0,1-1.8,1.92,4.85,4.85,0,0,0,.76,1.13c.14.16.25.24.32.24s.34-.59.42-1.76l1,.63c-.12,1.72-.49,2.59-1.1,2.59a1.77,1.77,0,0,1-1-.48,5.73,5.73,0,0,1-1.27-1.56,14.89,14.89,0,0,1-2.41,1.73l-.74-.89a14.23,14.23,0,0,0,2.64-1.84,11.71,11.71,0,0,1-.66-2.62h-2.39v1.15l.22,0c.55-.11,1.12-.22,1.7-.35l.06.94c-.42.11-1.08.26-2,.46v2.38a1.15,1.15,0,0,1-.27.86,1.41,1.41,0,0,1-1,.26,10.77,10.77,0,0,1-1.52-.11l-.21-1.11a8.49,8.49,0,0,0,1.46.15c.18,0,.28-.07.31-.2a.78.78,0,0,0,0-.24v-1.76q-1.42.27-2.37.39l-.28-1.08c.82-.09,1.7-.2,2.65-.36v-1.34H583.5v-1h2.65V142q-.76.14-1.77.24l-.42-.83a22.81,22.81,0,0,0,4.21-.85l.68.84c-.49.14-1,.26-1.53.38v1.14h2.27c-.08-.74-.12-1.51-.15-2.31h1.18c0,.73.08,1.51.15,2.31h3.33v1h-3.19A13.27,13.27,0,0,0,591.3,145.67Zm-4.9-10.82a9.39,9.39,0,0,0-.67-1.12l1.1-.34a9,9,0,0,1,.81,1.46h2.12l.12-.21a12.13,12.13,0,0,0,.59-1.28l1.29.3a13,13,0,0,1-.72,1.19h2.59v1h-4.3V137h3.73v1h-3.73v1.17h4.73v1H583.55v-1h4.59v-1.17h-3.5v-1h3.5v-1.1H584v-1Zm6.07,7.92a7.08,7.08,0,0,0-1.2-1.71l.93-.5a8.87,8.87,0,0,1,1.25,1.67Z"/><path d="M928.71,129.17l1.22.24a15.07,15.07,0,0,1-1,1.63h8.76v1.11H933.1a17.33,17.33,0,0,0,4.88,2.19l-.7,1.09-1.2-.45v5.24h-1.24v-.82h-3.11v.82h-1.24v-5.64h4.68a15.08,15.08,0,0,1-3.81-2.43H928a14.47,14.47,0,0,1-3.41,2.43h4.4v5.35H927.7v-.53h-3v.82h-1.25v-5.1l-1.2.51-.68-1a14.94,14.94,0,0,0,4.71-2.43h-4.41V131h5.54a8.82,8.82,0,0,0,1.07-1.55h-5.35v-4.66h5.6Zm-4.34-3.26v2.51h3.09v-2.51Zm.31,9.74v2.67h3v-2.67Zm11.61-10.82v4.66h-5.72v-4.66Zm-4.56,10.82v2.67h3.11v-2.67Zm.1-9.74v2.51H935v-2.51Z"/><path d="M942,131.5a20.24,20.24,0,0,1-2.58,5.13l-.75-1.27a19,19,0,0,0,3.16-6.32h-2.91v-1.23H942v-3.73h1.33v3.73h2.15V129h-2.15v1.56a21.4,21.4,0,0,1,2.82,2.57l-.78,1.15a25.14,25.14,0,0,0-2-2.28v8.18H942Zm9-.88a18,18,0,0,1-5,6.38l-.93-1a16.33,16.33,0,0,0,3.21-3.17,17.47,17.47,0,0,0,2.26-3.83H946v-1.21h5v-3.73h1.32v3.73h2.5V129h-2.5v9.57a1.47,1.47,0,0,1-.34,1.09,1.88,1.88,0,0,1-1.32.35,21.43,21.43,0,0,1-2.34-.13l-.23-1.31a21.08,21.08,0,0,0,2.35.13c.27,0,.43-.06.49-.19a.88.88,0,0,0,.07-.38Z"/><path d="M962.44,129.63s-.05.08-.06.11a16.4,16.4,0,0,1-1.84,2.33h.85c1.28,0,2.76-.07,4.44-.14l1.88-.09c-.55-.53-1.12-1-1.69-1.52l1.06-.61a38.09,38.09,0,0,1,3.14,2.85l.44.44-1,.8c-.33-.37-.63-.69-.9-1l-.11-.12c-.31,0-1.73.13-4.25.29v2.2h5.84v1.1h-5.84v2.2h7.24v1.1h-15.7v-1.1H963v-2.2h-5.72v-1.1H963v-2.12l-.92,0c-1.35.06-2.86.1-4.52.14l-.41-1.14h1.89a20.71,20.71,0,0,0,1.87-2.47h-2.75v-1.1h11.09v1.1Zm1.91-3.76h6.77v3.2h-1.33V127H957.67v2.11h-1.33v-3.2H963v-1.8h1.32Z"/><path d="M751.12,939.62a15,15,0,0,0,4.23,1.61l-.8,1.1a13.45,13.45,0,0,1-5.39-2.72,7.77,7.77,0,0,1-1.94-2.52,14.45,14.45,0,0,1-2.45,1.59v2.19c1.41-.23,2.85-.55,4.34-.94l0,1.06a51.76,51.76,0,0,1-7.56,1.54l-.43-1.14c.59-.06,1.35-.17,2.3-.31v-1.79a28.87,28.87,0,0,1-3.67,1.17l-.68-1a20.61,20.61,0,0,0,6.47-2.36h-6.39V936h7.38v-.79h1.29V936h7.48v1.06h-6.88A8.52,8.52,0,0,0,750.2,939a18.86,18.86,0,0,0,2.65-1.9l1,.79A20.68,20.68,0,0,1,751.12,939.62Zm-7.52-11.91v-1.34h1.19v1.34h3.63v1h-3.63v1H749v1h-4.2v.94h3.44V934a.9.9,0,0,1-.24.73,1.52,1.52,0,0,1-.88.18,10.88,10.88,0,0,1-1.3-.07l-.17-.94a8.24,8.24,0,0,0,1.15.08c.21,0,.32-.1.32-.3v-1.22h-2.32v2.8H743.6v-2.8h-2.16V935h-1.17v-3.47h3.33v-.94h-4.42v-1h4.42v-1h-2.36a7,7,0,0,1-.79.88l-1-.68a6.28,6.28,0,0,0,1.64-2.29l1.14.21a6.81,6.81,0,0,1-.42.92Zm6.1-.5h1.22v5.52H749.7Zm3.33-.79h1.26v7.28a1.29,1.29,0,0,1-.39,1.08,1.87,1.87,0,0,1-1.12.25c-.69,0-1.34,0-2-.08l-.21-1.05a14.83,14.83,0,0,0,1.75.12c.36,0,.57,0,.62-.14a.62.62,0,0,0,.06-.32Z"/><path d="M771.47,927.25v15.27h-1.33v-.92H758.36v.92H757V927.25Zm-13.11,1.13v12.07h11.78V928.38Zm5.21,8.21q-2.13-1-4.53-2l.59-.91c1.54.57,3.07,1.2,4.58,1.91l.34.15a14.88,14.88,0,0,0,3.5-6.23l1.21.42a19.82,19.82,0,0,1-2.8,5.51,8.5,8.5,0,0,1-.73.88q1.95,1,3.6,1.92l-.73,1.06c-1.31-.75-2.53-1.42-3.67-2l-.13-.07a16.42,16.42,0,0,1-5,2.75l-.76-1A14.79,14.79,0,0,0,763.57,936.59Zm-2.12-2.78a21.73,21.73,0,0,0-1.51-3.53l1.14-.51a23,23,0,0,1,1.55,3.51Zm2.91-.61a17.67,17.67,0,0,0-1.36-3.54l1.11-.47a20.32,20.32,0,0,1,1.41,3.5Z"/><path d="M750.38,950.16v1.32h3.1v.94h-3.1v1.31h3.1v.95h-3.1V956h4.22v1h-6.76v1.57h7.49v1.14h-7.49v3.76h-1.32v-3.76h-7.34v-1.14h7.34v-1.57H745.1v-5.67c-.29.32-.64.67-1,1l-.73-1a11.1,11.1,0,0,0,3-4.18l1.23.31a15.75,15.75,0,0,1-.82,1.57h2.67a12.06,12.06,0,0,0,.8-1.82l1.35.28a11.16,11.16,0,0,1-.83,1.54h3.55v1Zm-8.49,2.69a14.86,14.86,0,0,0-2.58-1.64l.73-1a17.24,17.24,0,0,1,2.66,1.65Zm-2.32,3.31a24.92,24.92,0,0,0,3.91-3.08l.55,1.14a31.79,31.79,0,0,1-3.78,3.11ZM743,950a12.41,12.41,0,0,0-2.56-1.79l.75-.89a14.18,14.18,0,0,1,2.65,1.67Zm6.15.21h-2.73v1.32h2.73Zm0,2.26h-2.73v1.31h2.73Zm0,2.26h-2.73V956h2.73Z"/><path d="M759.27,951.29v12.23H758v-9.38a21.62,21.62,0,0,1-1.44,2.39l-.57-1.31a25.16,25.16,0,0,0,3.17-8l1.26.31C760.09,948.85,759.7,950.09,759.27,951.29Zm4-2.15v-1.77h1.26v1.77h3.29v-1.77h1.3v1.77h2.68v1h-2.68v1.71h3.19v1H762v2.24a35.79,35.79,0,0,1-.2,4.45,10.29,10.29,0,0,1-1.18,3.66l-1-1a9,9,0,0,0,1-3.4c.09-.86.13-2.09.13-3.72v-3.32h2.59v-1.71h-2.55v-1Zm8,5.17v8c0,.73-.39,1.1-1.17,1.1a13,13,0,0,1-1.49-.08l-.25-1.15a7.55,7.55,0,0,0,1.31.11c.19,0,.3,0,.35-.15a.71.71,0,0,0,0-.3v-1.93H767.5v3.18h-1.17v-3.18h-2.4v3.6h-1.2v-9.2Zm-7.33,1v1.31h2.4v-1.31Zm0,2.26V959h2.4v-1.41Zm3.91-7.38h-3.29v1.71h3.29Zm2.22,6.43v-1.31H767.5v1.31Zm0,2.36v-1.41H767.5V959Z"/><line class="cls-7" x1="992" y1="946" x2="1011.5" y2="1028.5"/><line class="cls-7" x1="1011.5" y1="1028.5" x2="1042.5" y2="1028.5"/><path d="M1054.27,1023.28v-1.07h-7v-1.07h7v-1.38h1.31v1.38h7.05v1.07h-7.05v1.07h5.74v5.94h-2.17v1.22h3.91v1.1h-3.91v3a1.31,1.31,0,0,1-.42,1.13,2,2,0,0,1-1.12.24c-.53,0-1.3,0-2.3-.1l-.31-1.22c.84.08,1.62.13,2.35.13.22,0,.36,0,.4-.14a1.08,1.08,0,0,0,0-.3v-2.74h-10.88v-1.1h10.88v-1.22h-9.15v-5.94Zm-1.64,11.75a16.42,16.42,0,0,0-2.72-2.45l1-.77a18.2,18.2,0,0,1,2.75,2.35Zm1.64-10.74H1050v1.44h4.32Zm0,2.43H1050v1.49h4.32Zm1.31-2.43v1.44H1060v-1.44Zm0,2.43v1.49H1060v-1.49Z"/><path d="M1067.89,1023v7.53c.85-.27,1.66-.55,2.45-.86l.13,1.22a63.69,63.69,0,0,1-6.13,2.1l-.55-1.32c.93-.23,1.84-.47,2.74-.73V1023h-2.48v-1.2h6.06v1.2Zm6,8a17.93,17.93,0,0,1-2.47-4.9l-.06.09a13.1,13.1,0,0,1-1.34,2l-.91-1a18,18,0,0,0,3.21-7.35l1.33.23c-.27,1.09-.53,2-.79,2.72h6.92V1024h-1.73a16.9,16.9,0,0,1-2.53,6.93,18.07,18.07,0,0,0,4.58,3.57l-.83,1.27a16,16,0,0,1-4.54-3.73,14,14,0,0,1-5,3.79l-.82-1.1A12,12,0,0,0,1073.91,1031Zm.76-1.12a17.11,17.11,0,0,0,2.08-5.85h-4.33c-.09.22-.17.41-.25.58A15.79,15.79,0,0,0,1074.67,1029.89Z"/><path d="M1085.33,1021.55v1.32h9.14v1h-9.14v1.34h9.14v1h-9.14v1.43h11.73v1.07h-7.6a7.94,7.94,0,0,0,1.82,2.63,24.25,24.25,0,0,0,3.55-2.48l1.05.92a30,30,0,0,1-3.75,2.3,14.82,14.82,0,0,0,4.95,2.36l-.88,1.17a17.43,17.43,0,0,1-4-1.89,10.09,10.09,0,0,1-4-5h-2.87v5.3l.12,0q2.43-.54,4.83-1.29l.1,1.14a57.7,57.7,0,0,1-7.82,2l-.45-1.25,1.86-.34v-5.58h-3.06v-1.07H1084v-7.22h11.39v1.07Z"/><path d="M1106,1026.3a1.47,1.47,0,0,1,1.1.5,1.43,1.43,0,0,1,.42,1,1.55,1.55,0,0,1-1.55,1.53,1.42,1.42,0,0,1-.69-.18,1.53,1.53,0,0,1-.18-2.61A1.6,1.6,0,0,1,1106,1026.3Z"/><path d="M1114.89,1022.91h5.81V1024h-5.81Zm5.35,7.43V1035h-3.63v.91h-1.2v-5.58Zm-4.6-9.88h4.4v1.07h-4.4Zm0,5h4.42v1.07h-4.42Zm0,2.43h4.42v1.05h-4.42Zm1,3.58v2.5h2.45v-2.5Zm11.52-7.44v1h-4.88v-1a13.28,13.28,0,0,1-2.43,2l-.74-1a11.26,11.26,0,0,0,4.7-5.24h1.43a14,14,0,0,0,5.08,5l-.68,1.14A18,18,0,0,1,1128.13,1024Zm2.11,2.72v8.07a.93.93,0,0,1-1,1,6.56,6.56,0,0,1-1.08-.09l-.24-1.2a4.4,4.4,0,0,0,.89.1c.17,0,.27,0,.31-.15a.81.81,0,0,0,0-.17v-3.1h-1.65v4.3h-1.07v-4.3h-1.53v4.3h-1v-4.3h-1.51v4.72h-1.16v-9.22Zm-8,1.1v2.31h1.51v-2.31Zm1.14-3.89h4.65a16,16,0,0,1-2.55-3A12.16,12.16,0,0,1,1123.41,1023.91Zm1.42,3.89v2.31h1.53v-2.31Zm4.25,2.31v-2.31h-1.65v2.31Z"/><path d="M1145,1023.8a15.41,15.41,0,0,1-1.47,3.66,17.6,17.6,0,0,1-2.49,3.46,21.29,21.29,0,0,0,6.87,3.58l-.77,1.32a22.17,22.17,0,0,1-7-4,19.3,19.3,0,0,1-7.2,4l-.81-1.18a19.18,19.18,0,0,0,3.26-1.26,16.93,16.93,0,0,0,3.66-2.4l.09-.08a19.62,19.62,0,0,1-4.1-6.21c-.1-.27-.22-.58-.34-.93h-2.42v-1.25h7v-2.79h1.38v2.79h7.12v1.25Zm-1.44,0h-7.48a15.76,15.76,0,0,0,3.84,6.06l.14.14A15,15,0,0,0,1143.54,1023.8Z"/><path d="M1152.26,1024v11.88h-1.33v-9.11a21.81,21.81,0,0,1-1.51,2.31l-.68-1.25a18.89,18.89,0,0,0,2.45-4.46c.4-1.06.79-2.29,1.17-3.7l1.24.34A35.11,35.11,0,0,1,1152.26,1024Zm8,5.13a13.93,13.93,0,0,0,4.92,4.34l-.82,1.1a15.33,15.33,0,0,1-4.84-4.74v6h-1.28v-6a13.38,13.38,0,0,1-4.52,4.91l-.89-1a12.31,12.31,0,0,0,4.73-4.66H1153V1028h5.18v-2.11h-3.74v-5.47h8.91v5.47h-3.89V1028H1165v1.13Zm-4.46-7.61v3.27h6.33v-3.27Z"/><path d="M1171.08,1022.08a9.46,9.46,0,0,1,.76,1.39l-1.2.43a14.19,14.19,0,0,0-.88-1.82h-1a8.62,8.62,0,0,1-1.55,1.78l-1-.75a7.88,7.88,0,0,0,2.36-3.42l1.32.23a10.55,10.55,0,0,1-.49,1.1h4.24v1.06Zm7,0c.28.4.56.84.85,1.34l-1.19.42a16.77,16.77,0,0,0-1-1.76h-1a9.14,9.14,0,0,1-1.08,1.54v1h6.83v2.84h-1.32v-1.82h-12.29v1.82h-1.31v-2.84h6.75v-1h1.21l-.89-.66a8.39,8.39,0,0,0,1.8-3.21l1.31.21c-.17.45-.32.83-.47,1.13h5.42v1.06Zm.93,4.75v3.47h-9v1.26h9.81v4.36h-1.37v-.72h-8.44v.72h-1.37v-9.09Zm-9,1v1.52h7.65v-1.52Zm0,4.74v1.64h8.44v-1.64Z"/><path d="M1189.67,1025.32l-.07.11a16.26,16.26,0,0,1-1.83,2.33h.85c1.27,0,2.75-.07,4.44-.14l1.88-.09c-.56-.53-1.12-1-1.69-1.52l1-.61a36.63,36.63,0,0,1,3.15,2.86l.44.43-1.06.8c-.32-.37-.62-.69-.89-1l-.11-.12c-.32,0-1.73.13-4.25.29v2.2h5.84v1.1h-5.84v2.2h7.24v1.1h-15.71v-1.1h7.14V1032h-5.71v-1.1h5.71v-2.12l-.91,0c-1.35.06-2.86.1-4.53.14l-.4-1.14h1.88a20.75,20.75,0,0,0,1.88-2.47h-2.75v-1.1h11.09v1.1Zm1.91-3.76h6.76v3.2H1197v-2.11H1184.9v2.11h-1.33v-3.2h6.68v-1.8h1.33Z"/><path d="M1255.9,1024.55v-1.07h-7v-1.07h7V1021h1.31v1.38h7.06v1.07h-7.06v1.07H1263v5.94h-2.18v1.22h3.91v1.1h-3.91v3a1.29,1.29,0,0,1-.42,1.12,1.94,1.94,0,0,1-1.11.24c-.53,0-1.3,0-2.31-.1l-.31-1.22a22.16,22.16,0,0,0,2.35.13c.23,0,.36,0,.4-.14a.74.74,0,0,0,0-.3v-2.74h-10.88v-1.1h10.88v-1.22h-9.14v-5.94Zm-1.63,11.75a16.89,16.89,0,0,0-2.73-2.45l1-.76a18.17,18.17,0,0,1,2.76,2.35Zm1.63-10.74h-4.31V1027h4.31Zm0,2.43h-4.31v1.49h4.31Zm1.31-2.43V1027h4.44v-1.44Zm0,2.43v1.49h4.44V1028Z"/><path d="M1269.52,1024.26v7.53c.85-.26,1.67-.55,2.45-.86l.14,1.22a63.73,63.73,0,0,1-6.14,2.11l-.55-1.33c.93-.23,1.85-.47,2.74-.73v-7.94h-2.48v-1.2h6.07v1.2Zm6,8a17.75,17.75,0,0,1-2.46-4.9l-.06.1a14.55,14.55,0,0,1-1.35,2l-.91-1a17.89,17.89,0,0,0,3.21-7.36l1.33.24a27.2,27.2,0,0,1-.79,2.72h6.93v1.22h-1.73a16.86,16.86,0,0,1-2.53,6.92,17.46,17.46,0,0,0,4.58,3.57l-.83,1.27a15.89,15.89,0,0,1-4.54-3.73,14.19,14.19,0,0,1-5,3.8l-.82-1.11A11.94,11.94,0,0,0,1275.54,1032.28Zm.77-1.12a17.25,17.25,0,0,0,2.07-5.84h-4.32c-.09.21-.18.4-.25.57A15.33,15.33,0,0,0,1276.31,1031.16Z"/><path d="M1285.74,1029.29a18.31,18.31,0,0,1-2.52,4.56l-.76-1.25a16.47,16.47,0,0,0,3.09-5.53h-2.93v-1.17h3.12v-2.72q-1.08.24-2.28.42l-.55-1a31,31,0,0,0,5.82-1.43l.77,1a24.37,24.37,0,0,1-2.35.72l-.14,0v3h2.64v1.17H1287v1.22a23.5,23.5,0,0,1,2.73,2.18l-.81,1.11a25.33,25.33,0,0,0-1.92-2v7.57h-1.27Zm10.46,1.3,2.41-.46.1,1.21-2.51.49v5.36h-1.35v-5.11l-5.76,1.12-.22-1.22,6-1.13V1021h1.35Zm-3.44-.71a24.43,24.43,0,0,0-2.81-2.57l.78-.92a18,18,0,0,1,2.9,2.51Zm.24-3.87a21.46,21.46,0,0,0-2.87-2.65l.84-.91a19.41,19.41,0,0,1,2.94,2.58Z"/><path d="M1313.68,1037.19a11.1,11.1,0,0,1-2.49-3.35,10.78,10.78,0,0,1-1.19-4.74,11,11,0,0,1,1.5-5.32,10.72,10.72,0,0,1,2.18-2.75h1.25a17.94,17.94,0,0,0-1.79,2.36,10.67,10.67,0,0,0-1.73,5.73,10.47,10.47,0,0,0,1.54,5.41,18,18,0,0,0,2,2.66Z"/><path d="M1318.76,1028.56a21.4,21.4,0,0,1-1.8,4.64l-.62-1.29a19.8,19.8,0,0,0,2.28-6h-2.07v-1.2h2.21V1021h1.2v3.64h1.58v1.2H1320v1.59a25.76,25.76,0,0,1,1.7,2l-.68,1.17q-.43-.78-1-1.65v8.18h-1.2Zm8.85-1,.27,0,.18,0h.25q.4-.51.9-1.2a21.29,21.29,0,0,0-1.53-2l.66-.38a18.12,18.12,0,0,0,1.4-2.73l1,.57a18.75,18.75,0,0,1-1.66,2.7c.27.36.5.7.69,1l0-.09c.46-.7.91-1.44,1.36-2.23l.91.65a30,30,0,0,1-2.61,3.61l1.57-.18.14,0c-.13-.32-.26-.62-.38-.89l.84-.42a11.72,11.72,0,0,1,1,2.67l-.9.41c-.06-.24-.15-.54-.25-.91a32,32,0,0,1-3.49.55l-.38-.88c.07.74.14,1.42.23,2H1330a6.45,6.45,0,0,0-.84-.8l.92-.47a7.84,7.84,0,0,1,1.19,1.27h1.46v1.12h-4.64a12.2,12.2,0,0,0,.76,2.14,12.58,12.58,0,0,0,1.48-1.87l1,.66a16.59,16.59,0,0,1-1.86,2.22,5.55,5.55,0,0,0,1.26,1.42,1,1,0,0,0,.47.24c.21,0,.39-.63.52-1.89l0-.29,1.09.68c-.17,2-.62,3-1.36,3a2.56,2.56,0,0,1-1.31-.56,6.46,6.46,0,0,1-1.63-1.72,17.4,17.4,0,0,1-3.38,2.24l-.7-1a14.22,14.22,0,0,0,3.5-2.26,12,12,0,0,1-1.06-3h-2.5c0,.41-.12.82-.21,1.22a18.2,18.2,0,0,1,2.24,1.7l-.68,1a14,14,0,0,0-1.82-1.65,8.66,8.66,0,0,1-1.95,3.55l-.86-.86a9.4,9.4,0,0,0,2.1-4.93h-1.58v-1.12h5.06v-.12a57.89,57.89,0,0,1-.38-6.5l0-2.13h1.17l0,2.13c0,1.51.09,2.9.18,4.19Zm-4.36-1.11a17.14,17.14,0,0,0-1.65-2l.71-.4a17.69,17.69,0,0,0,1.38-2.74l1,.48a21.3,21.3,0,0,1-1.58,2.79c.24.29.48.62.74,1,.47-.82.87-1.57,1.2-2.24l.89.6a34.45,34.45,0,0,1-2.53,4l.61-.07,1.07-.12a8.49,8.49,0,0,0-.36-1l.78-.4a15.27,15.27,0,0,1,.82,2.58l-.83.4c0-.23-.11-.46-.17-.7-.88.19-2,.37-3.43.54l-.31-1.07.52,0h.13C1322.52,1027.57,1322.86,1027.08,1323.25,1026.47Z"/><path d="M1336,1028.7a20.44,20.44,0,0,1-2,4.62l-.61-1.36a20.84,20.84,0,0,0,2.5-6.09h-2.3v-1.18H1336V1021h1.26v3.66h1.65v1.18h-1.65v1.56q1,1,2,2.16l-.77,1.18a19.19,19.19,0,0,0-1.24-1.89v8.3H1336Zm4.37.59v-2.46h1.14v2.46h1.19v-2.46h1.1v2.46h1.09v1.12h-1.09v3.71h-1.1v-3.71h-1.19a16.2,16.2,0,0,1-.25,2.68,7.23,7.23,0,0,1-1.29,2.75l-.92-.85a6.12,6.12,0,0,0,1.11-2.4,11.83,11.83,0,0,0,.21-2.18h-1v-1.12Zm5.39,3.1a35.89,35.89,0,0,1-1-6.72h-5.47v-1.13h5.42l-.06-1c0-.65-.07-1.48-.09-2.5h1.23c0,1.41.06,2.58.12,3.51h3.63v1.13H1346a44.14,44.14,0,0,0,.64,5.21,19.27,19.27,0,0,0,1.44-3.6l1.12.5a23.06,23.06,0,0,1-2.18,4.78,11.26,11.26,0,0,0,.82,2.21c.21.42.36.62.45.62s.13-.1.19-.32a14.38,14.38,0,0,0,.4-2.26l1,.73c-.34,2.41-.85,3.61-1.53,3.61-.34,0-.72-.33-1.13-1a11.77,11.77,0,0,1-1.07-2.33,17,17,0,0,1-1.7,1.88,15.79,15.79,0,0,1-2,1.53l-.84-1A12.34,12.34,0,0,0,1345.75,1032.39Zm2.31-8.21a15.75,15.75,0,0,0-1.45-2.43l.93-.47a12.9,12.9,0,0,1,1.51,2.3Z"/><path d="M1357.61,1028.17a52.55,52.55,0,0,0,4.37-3.73l1.19.71a58.81,58.81,0,0,1-5.87,4.58l2.55-.12c1.48-.07,2.75-.15,3.79-.22-.51-.56-1-1.07-1.47-1.52l1-.65a19.45,19.45,0,0,1,3.34,3.71l-1.07.76c-.31-.46-.64-.92-1-1.36a1.25,1.25,0,0,0-.19,0c-1.29.15-3,.28-5,.39v6.42h-1.34v-6.34l-2.48.14q-1.77.1-4.11.18l-.35-1.24,2-.05,2.38-.06c.33-.23.71-.49,1.12-.79l.17-.12a39.54,39.54,0,0,0-4-2.94l.91-.92c.33.22.75.52,1.25.89a25.61,25.61,0,0,0,2.86-2.84l-.46,0c-1.67.16-3.36.29-5.1.37l-.47-1.1a87.27,87.27,0,0,0,12.07-1.33l.94,1q-3.89.69-6.54,1l1,.42a31,31,0,0,1-3.38,3.15C1356.49,1027.2,1357.12,1027.72,1357.61,1028.17Zm-6.45,7.52a11,11,0,0,0,3-4l1.25.58a13.34,13.34,0,0,1-3.19,4.32Zm13.81.51a31.07,31.07,0,0,0-3.62-4l1.05-.76a25.19,25.19,0,0,1,3.67,3.87Z"/><path d="M1368.3,1037.19a19.57,19.57,0,0,0,1.8-2.37,10.32,10.32,0,0,0,.18-11.13,18.89,18.89,0,0,0-2-2.66h1.25a11.23,11.23,0,0,1,2.49,3.35,10.64,10.64,0,0,1,1.19,4.73,10.83,10.83,0,0,1-1.51,5.32,10.17,10.17,0,0,1-2.17,2.76Z"/><line class="cls-7" x1="1312" y1="946" x2="1312.5" y2="1016.5"/><line class="cls-7" x1="1354.5" y1="945.5" x2="1312.5" y2="1004.5"/><path d="M1182.57,802.52v-.95h-6.14v-.94h6.14v-1.22h1.16v1.22H1190v.94h-6.22v.95h5.06v5.23h-1.91v1.08h3.45v1h-3.45v2.66a1.11,1.11,0,0,1-.38,1,1.63,1.63,0,0,1-1,.22c-.47,0-1.15,0-2-.09l-.28-1.08a19.66,19.66,0,0,0,2.08.12c.2,0,.31,0,.35-.13a.74.74,0,0,0,0-.26V809.8h-9.61v-1h9.61v-1.08h-8.08v-5.23Zm-1.44,10.36a14.76,14.76,0,0,0-2.41-2.16l.88-.67a16.12,16.12,0,0,1,2.43,2.07Zm1.44-9.48h-3.81v1.28h3.81Zm0,2.15h-3.81v1.32h3.81Zm1.16-2.15v1.28h3.91V803.4Zm0,2.15v1.32h3.91v-1.32Z"/><path d="M1194.59,802.26v6.64c.75-.23,1.47-.48,2.16-.76l.12,1.08c-1.46.6-3.26,1.22-5.42,1.86l-.48-1.17c.82-.2,1.63-.42,2.42-.65v-7h-2.19V801.2h5.35v1.06Zm5.31,7.07a15.68,15.68,0,0,1-2.18-4.32l0,.08a11.51,11.51,0,0,1-1.18,1.76l-.81-.85a15.84,15.84,0,0,0,2.83-6.49l1.18.2c-.24,1-.47,1.76-.7,2.4h6.11v1.08h-1.52a15,15,0,0,1-2.24,6.11,15.71,15.71,0,0,0,4,3.15l-.73,1.12a14,14,0,0,1-4-3.29,12.57,12.57,0,0,1-4.4,3.35l-.72-1A10.53,10.53,0,0,0,1199.9,809.33Zm.67-1a14.86,14.86,0,0,0,1.83-5.16h-3.81c-.08.19-.15.36-.22.51A13.82,13.82,0,0,0,1200.57,808.35Z"/><path d="M1208.89,806.7a16,16,0,0,1-2.22,4l-.67-1.11a14.55,14.55,0,0,0,2.73-4.87h-2.58v-1h2.74v-2.39c-.63.14-1.3.26-2,.36l-.49-.9a29.07,29.07,0,0,0,5.14-1.26l.67.86c-.74.26-1.43.48-2.07.64l-.12,0v2.66h2.32v1H1210v1.07a18.94,18.94,0,0,1,2.4,1.93l-.71,1c-.53-.6-1.09-1.17-1.69-1.73v6.68h-1.13Zm9.23,1.14,2.13-.4.09,1.06-2.22.43v4.73h-1.18v-4.5l-5.09,1-.2-1.08,5.29-1v-8.66h1.18Zm-3-.63a21.33,21.33,0,0,0-2.48-2.26l.69-.82a16.66,16.66,0,0,1,2.56,2.22Zm.21-3.4a18.51,18.51,0,0,0-2.53-2.35l.74-.8a17,17,0,0,1,2.6,2.27Z"/><path d="M1173.55,834.66a9.63,9.63,0,0,1-2.19-2.95,9.35,9.35,0,0,1-1.06-4.18,9.61,9.61,0,0,1,1.33-4.7,9.29,9.29,0,0,1,1.92-2.42h1.1a16.85,16.85,0,0,0-1.58,2.08,9.35,9.35,0,0,0-1.52,5,9.21,9.21,0,0,0,1.36,4.78,16,16,0,0,0,1.74,2.34Z"/><path d="M1178,827.05a18.67,18.67,0,0,1-1.59,4.1l-.54-1.14a17.56,17.56,0,0,0,2-5.33h-1.82v-1.06h2v-3.21h1.06v3.21h1.39v1.06h-1.39v1.4c.45.48,1,1.07,1.5,1.78l-.6,1c-.25-.45-.55-.94-.9-1.46v7.23H1178Zm7.81-.87h.24l.16,0h.22c.24-.29.5-.65.79-1.06a18,18,0,0,0-1.35-1.77l.58-.34a14.89,14.89,0,0,0,1.24-2.41l.9.51a16.5,16.5,0,0,1-1.47,2.38c.24.32.45.62.61.88l0-.07c.4-.62.8-1.28,1.2-2l.8.57a26.18,26.18,0,0,1-2.3,3.18l1.38-.16.13,0c-.12-.28-.23-.54-.34-.78l.75-.38a10.67,10.67,0,0,1,.85,2.36l-.8.36c0-.21-.12-.48-.22-.81a28.54,28.54,0,0,1-3.07.5l-.34-.78c.06.65.13,1.25.2,1.79h1.88a6.25,6.25,0,0,0-.74-.7l.81-.41a6.8,6.8,0,0,1,1,1.11h1.29v1h-4.09a10.19,10.19,0,0,0,.67,1.89,10.2,10.2,0,0,0,1.3-1.65l.85.59a15.87,15.87,0,0,1-1.64,2,4.9,4.9,0,0,0,1.11,1.25.88.88,0,0,0,.42.21c.18,0,.34-.56.46-1.67l0-.26,1,.6c-.15,1.76-.55,2.63-1.2,2.63a2.21,2.21,0,0,1-1.15-.49,5.52,5.52,0,0,1-1.44-1.51,15.65,15.65,0,0,1-3,2l-.61-.84a12.9,12.9,0,0,0,3.09-2,10.68,10.68,0,0,1-.94-2.69H1183c0,.37-.11.73-.18,1.09a16.89,16.89,0,0,1,2,1.49l-.61.86a12,12,0,0,0-1.6-1.46,7.54,7.54,0,0,1-1.72,3.13l-.76-.76a8.15,8.15,0,0,0,1.85-4.35h-1.39v-1H1185V828a48.58,48.58,0,0,1-.34-5.73l0-1.88h1l0,1.88c0,1.32.07,2.56.15,3.69Zm-3.85-1a13.86,13.86,0,0,0-1.46-1.81l.63-.35a15.1,15.1,0,0,0,1.22-2.43l.88.44a18.8,18.8,0,0,1-1.4,2.45c.21.26.43.55.65.86.42-.72.78-1.38,1.06-2l.79.53a28.87,28.87,0,0,1-2.24,3.49l.55,0,.94-.11a7.61,7.61,0,0,0-.32-.88l.69-.36a13.21,13.21,0,0,1,.72,2.28l-.73.35c0-.2-.09-.41-.15-.62q-1.17.26-3,.48l-.27-1,.46,0h.11A15.35,15.35,0,0,0,1182,825.21Z"/><path d="M1193.23,827.17a17.85,17.85,0,0,1-1.77,4.08l-.53-1.2a18.52,18.52,0,0,0,2.2-5.37h-2v-1h2.13v-3.22h1.12v3.22h1.45v1h-1.45v1.38c.58.57,1.17,1.2,1.77,1.9l-.68,1a17.69,17.69,0,0,0-1.09-1.67v7.33h-1.12Zm3.86.53v-2.18h1v2.18h1v-2.18h1v2.18h1v1h-1V832h-1v-3.27h-1a15.48,15.48,0,0,1-.22,2.36,6.41,6.41,0,0,1-1.15,2.43l-.81-.76a5.09,5.09,0,0,0,1-2.11,9.43,9.43,0,0,0,.19-1.92h-.9v-1Zm4.76,2.73a31.83,31.83,0,0,1-.84-5.93h-4.83v-1H1201l0-.88c0-.58-.06-1.32-.08-2.21h1.09c0,1.24,0,2.27.1,3.09h3.2v1h-3.14a38.28,38.28,0,0,0,.57,4.6,17.55,17.55,0,0,0,1.27-3.18l1,.45a21.12,21.12,0,0,1-1.92,4.21,10,10,0,0,0,.72,1.95c.18.37.32.55.39.55s.12-.09.17-.28a12,12,0,0,0,.35-2l.89.65c-.3,2.12-.75,3.18-1.36,3.18-.29,0-.62-.29-1-.87a10.12,10.12,0,0,1-1-2.06,14.75,14.75,0,0,1-1.5,1.66,13.6,13.6,0,0,1-1.77,1.35l-.74-.84A10.87,10.87,0,0,0,1201.85,830.43Zm2-7.24a12.92,12.92,0,0,0-1.27-2.15l.81-.42a11.07,11.07,0,0,1,1.33,2Z"/><path d="M1212.31,826.7a43.39,43.39,0,0,0,3.86-3.29l1,.63a51.12,51.12,0,0,1-5.18,4.05c1-.06,1.75-.09,2.24-.11l3.35-.19c-.44-.5-.88-.95-1.3-1.35l.88-.57a17.47,17.47,0,0,1,3,3.27l-1,.68a14.3,14.3,0,0,0-.88-1.21l-.16,0c-1.13.13-2.61.25-4.43.35v5.66h-1.19v-5.6l-2.18.13c-1,.06-2.25.11-3.62.16l-.32-1.1,1.8,0,2.11-.05,1-.7.15-.11a35.6,35.6,0,0,0-3.52-2.59l.8-.82c.3.2.67.47,1.11.79a21.35,21.35,0,0,0,2.52-2.51l-.4,0q-2.2.21-4.5.33l-.42-1a76.36,76.36,0,0,0,10.65-1.17l.83.89c-2.28.4-4.21.68-5.77.84l.86.37a26.51,26.51,0,0,1-3,2.78C1211.32,825.85,1211.88,826.31,1212.31,826.7Zm-5.69,6.64a9.78,9.78,0,0,0,2.65-3.48l1.1.51a11.6,11.6,0,0,1-2.82,3.81Zm12.18.45a26.28,26.28,0,0,0-3.19-3.54l.93-.68a23.09,23.09,0,0,1,3.24,3.42Z"/><path d="M1221.75,834.66a17.1,17.1,0,0,0,1.58-2.08,9.4,9.4,0,0,0,1.52-5,9.27,9.27,0,0,0-1.36-4.79,17.09,17.09,0,0,0-1.74-2.34h1.1a9.87,9.87,0,0,1,2.19,3,9.35,9.35,0,0,1,1.06,4.18,9.56,9.56,0,0,1-1.34,4.69,9.15,9.15,0,0,1-1.91,2.43Z"/><path d="M1160.79,43.55V42.48h-7V41.41h7V40h1.31v1.38h7.06v1.07h-7.06v1.07h5.75v5.94h-2.18v1.22h3.91v1.1h-3.91v3a1.29,1.29,0,0,1-.42,1.12,1.94,1.94,0,0,1-1.11.24c-.53,0-1.3,0-2.31-.1l-.31-1.22a22.16,22.16,0,0,0,2.35.13c.23,0,.36,0,.4-.14a.77.77,0,0,0,0-.3V51.81h-10.88v-1.1h10.88V49.49h-9.15V43.55Zm-1.63,11.75a16.89,16.89,0,0,0-2.73-2.45l1-.76a18.17,18.17,0,0,1,2.76,2.35Zm1.63-10.74h-4.32V46h4.32Zm0,2.43h-4.32v1.49h4.32Zm1.31-2.43V46h4.44V44.56Zm0,2.43v1.49h4.44V47Z"/><path d="M1174.41,43.26v7.53c.85-.26,1.67-.55,2.45-.86l.13,1.22a62.49,62.49,0,0,1-6.13,2.11l-.55-1.33c.93-.23,1.85-.47,2.74-.73V43.26h-2.48v-1.2h6.07v1.2Zm6,8a17.48,17.48,0,0,1-2.46-4.9l-.06.1a14.55,14.55,0,0,1-1.35,2l-.91-1a17.89,17.89,0,0,0,3.21-7.36l1.33.23c-.27,1.09-.53,2-.79,2.73h6.92v1.22h-1.72a17,17,0,0,1-2.53,6.92,17.46,17.46,0,0,0,4.58,3.57l-.83,1.27a15.89,15.89,0,0,1-4.54-3.73,14.19,14.19,0,0,1-5,3.8l-.82-1.11A12,12,0,0,0,1180.43,51.28Zm.76-1.12a17.06,17.06,0,0,0,2.08-5.84H1179c-.09.21-.18.4-.25.57A15.49,15.49,0,0,0,1181.19,50.16Z"/><path d="M1190.62,48.29a18.3,18.3,0,0,1-2.51,4.56l-.76-1.25a16.65,16.65,0,0,0,3.09-5.53h-2.93V44.9h3.11V42.18c-.71.16-1.47.3-2.27.42l-.55-1a31,31,0,0,0,5.82-1.43l.76,1a23.41,23.41,0,0,1-2.34.72l-.14,0v3h2.63v1.17h-2.63v1.22a22.58,22.58,0,0,1,2.72,2.18l-.8,1.11a25.33,25.33,0,0,0-1.92-2v7.57h-1.28Zm10.46,1.3,2.42-.46.1,1.21-2.52.49v5.36h-1.34V51.08L1194,52.2l-.23-1.22,6-1.13V40h1.34Zm-3.43-.72a25.25,25.25,0,0,0-2.81-2.56l.78-.92a18,18,0,0,1,2.9,2.51Zm.24-3.86a21.46,21.46,0,0,0-2.87-2.65l.84-.91A18.88,18.88,0,0,1,1198.8,44Z"/><path d="M1218.57,56.19a11.1,11.1,0,0,1-2.49-3.35,10.78,10.78,0,0,1-1.19-4.74,11,11,0,0,1,1.5-5.32,10.72,10.72,0,0,1,2.18-2.75h1.25a17.94,17.94,0,0,0-1.79,2.36,10.59,10.59,0,0,0-1.73,5.73,10.47,10.47,0,0,0,1.54,5.41,17.31,17.31,0,0,0,2,2.66Z"/><path d="M1228.81,42.48v-1h-5.35v-1h12.1v1h-5.47v1h7v3.15h-1.33V43.45h-5.67v3.8h-1.28v-3.8h-5.59v2.16h-1.31V42.48ZM1230,53.4v.83q0,.45.3.54a12.41,12.41,0,0,0,2.4.13,20.68,20.68,0,0,0,3-.12.66.66,0,0,0,.52-.58,11.18,11.18,0,0,0,.13-1.43l1.25.45a4.17,4.17,0,0,1-.46,2.25,1.43,1.43,0,0,1-1,.44,31.82,31.82,0,0,1-3.58.15,19.05,19.05,0,0,1-2.95-.13,1,1,0,0,1-.8-.58,1.76,1.76,0,0,1-.1-.66V53.4h-4.18v.86h-1.33V47.82h12.41V53.4Zm-5.87-9.1h3.74v.88h-3.74Zm0,1.69h3.74v.84h-3.74Zm4.58,2.83h-4.18V50h4.18Zm0,2.25h-4.18v1.32h4.18Zm1.29-2.25V50h4.28V48.82Zm0,2.25v1.32h4.28V51.07Zm1-6.77h3.86v.88H1231Zm0,1.69h3.86v.84H1231Z"/><path d="M1242.19,41.56h10.93v1.11h-11.58a13,13,0,0,1-2.09,2.48l-1-.9a9.26,9.26,0,0,0,3-4.25l1.4.28A12.69,12.69,0,0,1,1242.19,41.56Zm1.63,10.31a35.32,35.32,0,0,0-3.56-2l.86-.94c1.11.56,2.31,1.23,3.58,2a13.32,13.32,0,0,0,1.89-2.81l1.23.54a17.45,17.45,0,0,1-2,3q1.93,1.31,3.15,2.22l-.89,1.06a38.54,38.54,0,0,0-3.15-2.34,15.61,15.61,0,0,1-4.94,3.13l-.9-1.07A13,13,0,0,0,1243.82,51.87Zm7.85-5.51v.49a20.71,20.71,0,0,0,.81,6.81c.2.48.34.73.44.73s.16-.17.25-.5a13,13,0,0,0,.34-2.18l1.19.82a14.9,14.9,0,0,1-.43,2.27c-.26.9-.66,1.35-1.19,1.35s-.89-.32-1.33-.94c-.9-1.27-1.38-3.81-1.43-7.6v-.15h-11.19v-1.1ZM1241.27,44h9.93v1h-9.93Z"/><path d="M1262.5,47.16a50.41,50.41,0,0,0,4.37-3.72l1.19.71a58.81,58.81,0,0,1-5.87,4.58l2.54-.12c1.49-.07,2.76-.15,3.8-.22-.51-.56-1-1.07-1.47-1.52l1-.65a19.45,19.45,0,0,1,3.34,3.71l-1.07.76c-.31-.46-.64-.92-1-1.36l-.18,0c-1.29.15-3,.28-5,.39v6.42h-1.35V49.83l-2.47.14q-1.77.11-4.11.18l-.36-1.24,2.05,0,2.38-.06,1.12-.79.17-.12a38.5,38.5,0,0,0-4-2.94l.92-.92c.33.22.75.52,1.25.89a25.61,25.61,0,0,0,2.86-2.84l-.46.05c-1.67.16-3.37.29-5.1.37l-.47-1.1a87.45,87.45,0,0,0,12.07-1.33l.94,1q-3.88.69-6.54,1l1,.42a31,31,0,0,1-3.38,3.15C1261.38,46.2,1262,46.72,1262.5,47.16Zm-6.45,7.53a11,11,0,0,0,3-3.95l1.25.58a13.34,13.34,0,0,1-3.19,4.32Zm13.81.51a31.07,31.07,0,0,0-3.62-4l1-.76a25.68,25.68,0,0,1,3.67,3.87Z"/><path d="M1273.19,56.19a19.57,19.57,0,0,0,1.8-2.37,10.32,10.32,0,0,0,.18-11.13,18.89,18.89,0,0,0-2-2.66h1.25a11.23,11.23,0,0,1,2.49,3.35,10.06,10.06,0,0,1-.32,10,10.37,10.37,0,0,1-2.17,2.76Z"/><line class="cls-7" x1="1350" y1="130" x2="1318" y2="48"/><line class="cls-7" x1="1318.5" y1="48.5" x2="1288.5" y2="48.5"/><circle cx="992.5" cy="946.5" r="4"/><path d="M992.5,943a3.5,3.5,0,1,1-3.5,3.5,3.5,3.5,0,0,1,3.5-3.5m0-1a4.5,4.5,0,1,0,4.5,4.5,4.49,4.49,0,0,0-4.5-4.5Z"/><circle cx="1311.5" cy="946.5" r="4"/><path d="M1311.5,943a3.5,3.5,0,1,1-3.5,3.5,3.5,3.5,0,0,1,3.5-3.5m0-1a4.5,4.5,0,1,0,4.5,4.5,4.49,4.49,0,0,0-4.5-4.5Z"/><circle cx="1354.5" cy="946.5" r="4"/><path d="M1354.5,943a3.5,3.5,0,1,1-3.5,3.5,3.5,3.5,0,0,1,3.5-3.5m0-1a4.5,4.5,0,1,0,4.5,4.5,4.49,4.49,0,0,0-4.5-4.5Z"/><circle cx="1349.5" cy="129.5" r="4"/><path d="M1349.5,126a3.5,3.5,0,1,1-3.5,3.5,3.5,3.5,0,0,1,3.5-3.5m0-1a4.5,4.5,0,1,0,4.5,4.5,4.49,4.49,0,0,0-4.5-4.5Z"/><path d="M1214.35,948.6h9.17v6.33h-1.38v-1H1214v1h-1.36v-4.54a17.37,17.37,0,0,1-2.61,1.88l-.83-1.07a12.77,12.77,0,0,0,4.93-4.56h-2.94v-1.07h3.51a11.82,11.82,0,0,0,.62-1.88h-5.88v-1.11h6.11c.11-.68.2-1.31.25-1.89h-4.34v-1.1H1223v3h2.42v1.11H1223v2.95h-7.33A11.65,11.65,0,0,1,1214.35,948.6Zm-.33,1.12v3.1h8.12v-3.1Zm7.61-6h-4.92a14.4,14.4,0,0,1-.57,1.88h5.49Zm0-3h-4.47c-.06.72-.13,1.35-.23,1.89h4.7Z"/><path d="M1228.25,942.93v-4h1.28v4h1.7v1.2h-1.7v6.17c.48-.2,1-.43,1.63-.72l.17,1.17a37.9,37.9,0,0,1-4.72,2l-.45-1.25c.75-.22,1.45-.45,2.09-.68v-6.65h-1.93v-1.2Zm9.83,5.13a13.62,13.62,0,0,0,1.62,1.9,19.43,19.43,0,0,0,2.86,2.2l-.78,1.12a15,15,0,0,1-3.62-3.61,14.39,14.39,0,0,1,.12,1.73,6.74,6.74,0,0,1-.4,2.62,1.54,1.54,0,0,1-1.56.87,12.81,12.81,0,0,1-1.76-.14l-.23-1.24a8.66,8.66,0,0,0,1.71.19.72.72,0,0,0,.67-.27,4.91,4.91,0,0,0,.36-2.32,11.74,11.74,0,0,0-.07-1.28,18.21,18.21,0,0,1-5.47,4.08l-.8-1a18.3,18.3,0,0,0,6-4.28l.11-.12a9.12,9.12,0,0,0-.38-1.15,17.11,17.11,0,0,1-4.25,2.86l-.73-1a17,17,0,0,0,4.51-2.83,8.75,8.75,0,0,0-.65-1,18.59,18.59,0,0,1-3.32,1.82l-.78-.89a15.84,15.84,0,0,0,4.59-2.61h-2.65v-1.08h7v1.08h-2.83c-.35.33-.75.68-1.18,1a10.53,10.53,0,0,1,1.36,2.36,21.42,21.42,0,0,0,3.16-2.49l.94.93A28.33,28.33,0,0,1,1238.08,948.06Zm3.76-8.3V943h-1.27v-2.19h-7.75V943h-1.28v-3.28Z"/></svg>