<svg id="レイヤー_1" data-name="レイヤー 1" xmlns="http://www.w3.org/2000/svg" viewBox="0 0 1920 1080"><defs><style>.cls-1,.cls-3{fill:#fff;}.cls-2{fill:#fff1aa;}.cls-2,.cls-3,.cls-4,.cls-5,.cls-6,.cls-7,.cls-8{stroke:#000;stroke-miterlimit:10;}.cls-4{fill:#aae5ff;}.cls-5,.cls-6,.cls-7,.cls-8{fill:none;}.cls-5{stroke-width:2px;}.cls-7{stroke-dasharray:11.6 11.6;}.cls-8{stroke-dasharray:10.8 10.8;}</style></defs><rect class="cls-1" width="1920" height="1080"/><rect class="cls-2" x="558.5" y="100.5" width="59" height="59"/><rect class="cls-2" x="617.5" y="100.5" width="54" height="59"/><rect class="cls-2" x="671.5" y="100.5" width="56" height="59"/><rect class="cls-2" x="727.5" y="100.5" width="54" height="59"/><rect class="cls-3" x="781.5" y="100.5" width="56" height="59"/><rect class="cls-2" x="837.5" y="100.5" width="55" height="59"/><rect class="cls-2" x="892.5" y="100.5" width="55" height="59"/><rect class="cls-2" x="946.5" y="100.5" width="59" height="59"/><rect class="cls-3" x="558.5" y="218.5" width="44" height="90"/><rect class="cls-4" x="602.5" y="218.5" width="142" height="90"/><rect class="cls-4" x="744.5" y="218.5" width="148" height="90"/><rect class="cls-3" x="892.5" y="218.5" width="40" height="90"/><rect class="cls-3" x="932.5" y="218.5" width="73" height="90"/><rect class="cls-3" x="520.5" y="218.5" width="38" height="90"/><path d="M574.36,130.36a18.45,18.45,0,0,0-2.65-2.53l.88-1a16.52,16.52,0,0,1,2.72,2.42Zm-2.33,7a25.14,25.14,0,0,0,3-5.45l1,.86a26.72,26.72,0,0,1-2.95,5.61ZM575,126a20.47,20.47,0,0,0-2.6-2.51l.91-.91a17.88,17.88,0,0,1,2.61,2.42Zm8.17,7.87a21.66,21.66,0,0,0,2.63-2l.9.83a28.77,28.77,0,0,1-2.91,2.16,7.52,7.52,0,0,0,1.74,1.83,1.36,1.36,0,0,0,.59.3c.27,0,.49-.87.65-2.59l1.16.69a11.47,11.47,0,0,1-.48,2.37c-.24.67-.6,1-1.05,1a3,3,0,0,1-1.49-.62,8.61,8.61,0,0,1-2.25-2.29,37.6,37.6,0,0,1-5.76,2.66l-.75-1.07a32.76,32.76,0,0,0,5.89-2.56,12.91,12.91,0,0,1-1.09-2.67l-4.59.46-.11-1.17,4.45-.42q-.09-.45-.24-1.56l-3.45.31-.08-1.1,3.4-.31c-.05-.52-.09-1-.13-1.56l-3.87.33-.12-1.13,3.92-.33c0-.76-.08-1.78-.11-3.07h1.31c0,1.3.08,2.28.12,3l5.39-.44.08,1.12-5.39.45,0,.54,0,.55,0,.47,4.77-.43.08,1.09-4.72.43a15.37,15.37,0,0,0,.24,1.55l5.53-.52.1,1.09-5.37.55A9.83,9.83,0,0,0,583.19,133.91Zm1.71-9.07a15.72,15.72,0,0,0-2.45-1.8l.87-.72a14.51,14.51,0,0,1,2.52,1.71Z"/><path d="M591.08,123.12h1.42v6.1a20.47,20.47,0,0,1-.61,5.68,8.86,8.86,0,0,1-1.89,3.25l-1.11-1a7.37,7.37,0,0,0,1.89-3.75,22.2,22.2,0,0,0,.3-4.07Zm5.34.31h1.38v13.45h-1.38Zm5.6-.65h1.41v15.54H602Z"/><path d="M633.66,121a26.54,26.54,0,0,1,2.15,1.72l-.69,1a18,18,0,0,0-1.46-1.48v6.5h-1.14v-6.41a20.47,20.47,0,0,1-1.85,1.87l-.6-1a16.26,16.26,0,0,0,2.65-2.78,12.53,12.53,0,0,0,1.43-2.35h-3.78V117h2.13v-2.47h1.13V117H635l.52.59a18.49,18.49,0,0,1-1.9,3.34Zm2-5.86h8.59v1h-8.59Zm8.33,6.71v6.88h-1.1V128h-5.86v.69H636v-6.88Zm-.77-4.71v3.67h-6.58v-3.67Zm-6.19,5.64v1.67h2.37v-1.67Zm0,2.57v1.75h2.37v-1.75Zm.68-7.31v1.87h4.38V118Zm5.18,6.41v-1.67h-2.46v1.67Zm0,2.65v-1.75h-2.46v1.75Z"/><path d="M645.73,120.21h4.68l.6.59a13.28,13.28,0,0,1-2.35,4.55,12.22,12.22,0,0,1-2.67,2.36l-.83-.91a10.13,10.13,0,0,0,4.47-5.55h-3.9ZM653,118.8a10.25,10.25,0,0,0,1.07,2.61,21.9,21.9,0,0,0,3.57-3.07l1,.85a26.09,26.09,0,0,1-4,3l.1.15a12.23,12.23,0,0,0,4.84,3.93l-.84,1.06a12.81,12.81,0,0,1-5.7-6.06v6.23a1.09,1.09,0,0,1-.35.93,1.88,1.88,0,0,1-1.1.24,17.08,17.08,0,0,1-1.91-.11l-.25-1.18a14.31,14.31,0,0,0,2,.17c.21,0,.34,0,.39-.14a.62.62,0,0,0,.06-.32v-8.56h-4.33v-1H653Zm.89-1.84a40,40,0,0,0-4.44-1.74l.76-.82a34.9,34.9,0,0,1,4.35,1.67Z"/><path d="M631.43,146.74a9.25,9.25,0,0,1-1.93-11.83,9,9,0,0,1,1.93-2.42h1.09a17.1,17.1,0,0,0-1.58,2.08,9.41,9.41,0,0,0-1.52,5.05,9.2,9.2,0,0,0,1.36,4.77,16.18,16.18,0,0,0,1.74,2.35Z"/><path d="M640.38,136v10.76h-1.09v-8.22a22,22,0,0,1-1.25,2.1l-.5-1.18a21.92,21.92,0,0,0,2.75-7l1.1.27C641.08,133.86,640.75,135,640.38,136Zm1-.73h1.07v9.56h-1.07Zm6.87,2.08a19,19,0,0,0,3.86,1.42l-.61,1a16.15,16.15,0,0,1-4.06-1.78,12.31,12.31,0,0,1-4.28,2l-.65-.94a10.91,10.91,0,0,0,4-1.68,12.33,12.33,0,0,1-1.82-1.68,8.56,8.56,0,0,1-1.2,1.27l-.8-.73a8,8,0,0,0,2.49-3.77l1.13.24a8.39,8.39,0,0,1-.53,1.26h5.67v1h-1.36A9.42,9.42,0,0,1,648.24,137.33Zm-4.82,3.81a11.24,11.24,0,0,0,4.5-2.28l.76.64A11.49,11.49,0,0,1,644,142Zm.11,4.68a14.05,14.05,0,0,0,7.2-3.83l.87.71a14.55,14.55,0,0,1-7.44,4.07Zm0-2.4a15.56,15.56,0,0,0,3.58-1.38,10.94,10.94,0,0,0,2.2-1.64l.8.65a11.93,11.93,0,0,1-3.57,2.42,17.7,17.7,0,0,1-2.38.84Zm3.75-6.65a7.77,7.77,0,0,0,1.54-1.82h-3.54A10,10,0,0,0,647.31,136.77Z"/><path d="M657.13,146.74a17.14,17.14,0,0,0,1.58-2.09,9.37,9.37,0,0,0,1.52-5,9.24,9.24,0,0,0-1.36-4.79,16.5,16.5,0,0,0-1.74-2.34h1.1a9.75,9.75,0,0,1,2.19,2.95,9.34,9.34,0,0,1,1.06,4.17,9.62,9.62,0,0,1-1.34,4.7,9.15,9.15,0,0,1-1.91,2.43Z"/><path d="M691.93,133.47v5.45h-1.31v-5.46a16.13,16.13,0,0,1-6.62,4.8l-.78-1.09a16.9,16.9,0,0,0,6.31-4h-6.26v-1.12h7.35v-1.67h1.31v1.67h7.44v1.12h-6.29a19,19,0,0,0,6.39,3.6l-.83,1.19A18.14,18.14,0,0,1,691.93,133.47ZM689,125.11h2.56v1H689v2.67c1-.22,1.94-.45,2.8-.69l.07,1.12a73.72,73.72,0,0,1-8,1.7l-.49-1.13,1.51-.22v-5.27h1.25v5l1.34-.25.22,0v-6.32H689Zm4.6.59a20.41,20.41,0,0,0,4-1.75l.9,1a22.79,22.79,0,0,1-4.86,1.91v1.81c0,.33.1.53.31.6a6.2,6.2,0,0,0,1.47.1,7.46,7.46,0,0,0,1.69-.11.71.71,0,0,0,.52-.57,10.37,10.37,0,0,0,.16-1.61l1.22.42a8.63,8.63,0,0,1-.23,1.9,1.26,1.26,0,0,1-1,1,10.31,10.31,0,0,1-2.43.19,13.62,13.62,0,0,1-2-.09,1.21,1.21,0,0,1-1-1.35v-6.27h1.28Z"/><path d="M714.85,130.51v7a1.27,1.27,0,0,1-.38,1.06,1.8,1.8,0,0,1-1.16.29c-.69,0-1.37,0-2-.1l-.29-1.25a15.21,15.21,0,0,0,2.06.18c.26,0,.42-.06.48-.16a.73.73,0,0,0,.07-.38v-6.68h-7.53v5.24h-4.38v1.38h-1.12V125.85h1.12v8.71h1.07V123h1.14v11.59H705v-8.71h1.08v3.54h10.35v1.12Zm-4.57-6v-1.71h1.25v1.71h4.05v1.11h-4.12a3.68,3.68,0,0,1-.13.43,32.09,32.09,0,0,1,4.06,2.1l-.8,1a42,42,0,0,0-3.71-2.15,5,5,0,0,1-1.18,1.24,7.08,7.08,0,0,1-2.31,1l-.7-1a5.88,5.88,0,0,0,2.47-1.1,3.26,3.26,0,0,0,1.05-1.51h-3.57v-1.11Zm1.93,7.45v4.22H708.4v.89h-1.12v-5.11ZM708.4,133v2.09h2.7V133Z"/><path d="M752.56,124.52v6.24h-5.63V132h6.43v1.06h-6.43v1.36h7.47v1.08H738.25v-1.08h7.37v-1.36h-6.33V132h6.33v-1.24h-5.57v-6.24Zm-14,14.6a11.25,11.25,0,0,0,2.13-3l1.19.6a12.63,12.63,0,0,1-2.18,3.21Zm2.81-13.56v1.53h4.27v-1.53Zm0,2.51v1.66h4.27v-1.66Zm2.87,11.73a19.82,19.82,0,0,0-.73-3.07l1.29-.27a25.13,25.13,0,0,1,.87,3Zm7-12.71v-1.53h-4.34v1.53Zm0,2.64v-1.66h-4.34v1.66Zm-3,9.87a18.19,18.19,0,0,0-1.17-2.94l1.18-.43a17.49,17.49,0,0,1,1.33,2.89Zm4.69.12a20.61,20.61,0,0,0-2.16-3.18L752,136a20.65,20.65,0,0,1,2.26,3.09Z"/><path d="M764.33,128.59a20,20,0,0,0,7.09,7.45l-.94,1.23a22.33,22.33,0,0,1-6.52-7.2v9.86h-1.38v-9.67a18.49,18.49,0,0,1-2.41,3.71,20.11,20.11,0,0,1-4,3.63l-.94-1.09a18.93,18.93,0,0,0,7-7.92h-6.58v-1.26h6.9v-3.56H764v3.56h7v1.26Z"/><path d="M842.84,133.76a17.59,17.59,0,0,0,2.25-7.1l1.22.28a19.8,19.8,0,0,1-2.42,7.64Zm6.36-10.13h1.23v12.48a1.63,1.63,0,0,1-.27,1.06,1.92,1.92,0,0,1-1.39.36c-.75,0-1.45,0-2.08-.08l-.27-1.27a17.48,17.48,0,0,0,2.21.14c.26,0,.43,0,.5-.13a.59.59,0,0,0,.07-.34Zm6.48,10.91a53.51,53.51,0,0,0-2.82-7.77l1.12-.49a48.5,48.5,0,0,1,2.89,7.61Z"/><path d="M865.37,130.6v1.87H872v1h-6.58v4.24h-1.2V133.5H857.7v-1h6.47V130.6h-4.8v-6.51h10.92v6.51Zm-4.8-5.54v1.71h8.51v-1.71Zm0,2.65v1.94h8.51v-1.94Z"/><path d="M874.72,124.13H876v5.38a18.18,18.18,0,0,1-.53,5,8,8,0,0,1-1.67,2.87l-1-.87a6.41,6.41,0,0,0,1.66-3.3,19.27,19.27,0,0,0,.27-3.6Zm4.71.27h1.22v11.87h-1.22Zm4.94-.57h1.25v13.71h-1.25Z"/><path d="M909.14,123.43h8.41V129h-1.19v-.84h-7.6V129h-1.17v-4a17.25,17.25,0,0,1-2.16,1.54l-.75-.9a11.72,11.72,0,0,0,4.64-4.35h-4.55v-1H919v1h-8.38A15,15,0,0,1,909.14,123.43Zm3.31-5.67h4v-2.34h1.15v3.31H906.28v-3.31h1.16v2.34h3.85v-3h1.16Zm-3.69,6.64v2.78h7.6V124.4Z"/><path d="M933,115.93v12.58h-1.17v-1.14H922v1.12h-1.17V115.93Zm-11,1v4h4.28v-4Zm0,5v4.32h4.28V122Zm9.84-1v-4h-4.4v4Zm0,5.35V122h-4.4v4.32Z"/><path d="M906,147a9.78,9.78,0,0,1-2.2-2.95,9.5,9.5,0,0,1-1-4.19,9.66,9.66,0,0,1,1.32-4.69,9,9,0,0,1,1.93-2.42h1.1a15.27,15.27,0,0,0-1.58,2.08,9.34,9.34,0,0,0-1.53,5.05,9.21,9.21,0,0,0,1.37,4.77,14.83,14.83,0,0,0,1.74,2.35Z"/><path d="M914.31,139.79a16.75,16.75,0,0,0-2.13-2.28l.83-.78a16.83,16.83,0,0,1,2.16,2.21ZM912.44,146a25,25,0,0,0,2.35-5l.91.66a25.59,25.59,0,0,1-2.3,5.18ZM914.77,136a15,15,0,0,0-2.09-2.3l.82-.73a17.29,17.29,0,0,1,2.13,2.19Zm6.78,2.07v1.36h4.22v6.31a1.07,1.07,0,0,1-.33.89,1.67,1.67,0,0,1-1,.23c-.66,0-1.34,0-2-.09l-.17-1.07c.87.1,1.52.16,1.93.16.23,0,.36,0,.42-.12a.49.49,0,0,0,.06-.27v-5.14h-3.15v3.25h1.08v-2.38h1v3.34h-4v.91h-1v-4.25h.94v2.38h1v-3.25h-3V147h-1.1v-7.57h4.1v-1.36h-5.15v-1h3v-1.74h-2.19v-1h2.19v-1.66h1.07v1.66h3.17v-1.66h1.1v1.66H926v1h-2.26v1.74h2.87v1Zm1-2.7h-3.17v1.74h3.17Z"/><path d="M931.69,147a16.17,16.17,0,0,0,1.58-2.09,9,9,0,0,0,.16-9.82,15.76,15.76,0,0,0-1.74-2.34h1.1a9.78,9.78,0,0,1,2.2,3,9.46,9.46,0,0,1,1,4.17,9.61,9.61,0,0,1-1.33,4.7,9,9,0,0,1-1.92,2.43Z"/><path class="cls-3" d="M558.5,159.5v23l-9,.5c0-1.18-.13-12-9-18.5a22.53,22.53,0,0,0-26,0,23,23,0,0,0-8,27c3.68,9.2,12.5,12.51,14,13v14h485v110h-9l-1,424h10v113h-485v19c-10-1.16-18.72,6.52-19,16a16.71,16.71,0,0,0,17,17c9.36-.27,17.78-8.54,17-18h473v93h34v-93h326v-20a15.08,15.08,0,0,0,13-13,14.54,14.54,0,1,0-29-1h-281v-93h94v-16h16v-165h-16v-102h16l1-165h-17v-16h-90v-98h268c.78,10.77,10.1,18.18,19,17,7.82-1,14.8-8.63,14-17-.53-5.55-4.4-10.51-10-13v-19h-159v-19h-168v-78h-34v78Z"/><path d="M968,127.73a14.34,14.34,0,0,0,2.83,5.3,14.94,14.94,0,0,0,4.37,3.67l-.86,1.26a16.28,16.28,0,0,1-4.79-4.31,16.91,16.91,0,0,1-2.25-4.29,11.93,11.93,0,0,1-7.09,8.69l-.88-1.12a11.25,11.25,0,0,0,5.25-4.3,11,11,0,0,0,1.77-4.9h-6.88v-1.3h6.93V122.2h1.38v4.23h7v1.3Z"/><path d="M978.36,122.77h1.41v6.1a20.06,20.06,0,0,1-.61,5.67,8.86,8.86,0,0,1-1.89,3.25l-1.1-1a7.36,7.36,0,0,0,1.88-3.74,21.41,21.41,0,0,0,.31-4.08Zm5.34.3h1.37v13.45H983.7Zm5.59-.65h1.41V138h-1.41Z"/><rect class="cls-2" x="1039.5" y="100.5" width="57" height="59"/><rect class="cls-2" x="1096.5" y="100.5" width="57" height="59"/><rect class="cls-4" x="1153.5" y="100.5" width="54" height="59"/><rect class="cls-4" x="1207.5" y="100.5" width="42" height="78"/><rect class="cls-4" x="1249.5" y="100.5" width="125" height="78"/><rect class="cls-4" x="1165.5" y="210.5" width="116" height="98"/><rect class="cls-3" x="1281.5" y="210.5" width="44" height="98"/><rect class="cls-3" x="1075.5" y="210.5" width="90" height="98"/><rect class="cls-2" x="553.5" y="772.5" width="43" height="93"/><rect class="cls-2" x="596.5" y="772.5" width="43" height="93"/><rect class="cls-3" x="639.5" y="772.5" width="43" height="93"/><rect class="cls-2" x="682.5" y="772.5" width="43" height="93"/><rect class="cls-2" x="725.5" y="772.5" width="43" height="93"/><rect class="cls-2" x="768.5" y="772.5" width="43" height="93"/><rect class="cls-2" x="811.5" y="772.5" width="43" height="93"/><rect class="cls-2" x="854.5" y="772.5" width="43" height="93"/><rect class="cls-3" x="897.5" y="772.5" width="108" height="93"/><rect class="cls-3" x="553.5" y="899.5" width="43" height="93"/><rect class="cls-2" x="596.5" y="899.5" width="43" height="93"/><rect class="cls-3" x="639.5" y="899.5" width="25" height="93"/><rect class="cls-4" x="664.5" y="899.5" width="61" height="93"/><rect class="cls-4" x="725.5" y="899.5" width="56" height="93"/><rect class="cls-4" x="781.5" y="899.5" width="84" height="93"/><rect class="cls-4" x="865.5" y="899.5" width="143" height="93"/><rect class="cls-4" x="1168.5" y="899.5" width="165" height="93"/><rect class="cls-3" x="1333.5" y="899.5" width="43" height="93"/><rect class="cls-4" x="1165.5" y="772.5" width="107" height="93"/><rect class="cls-3" x="1272.5" y="772.5" width="43" height="93"/><rect class="cls-3" x="1071.5" y="772.5" width="94" height="93"/><rect class="cls-4" x="1111.5" y="899.5" width="57" height="93"/><rect class="cls-4" x="1042.5" y="899.5" width="69" height="93"/><rect class="cls-3" x="518.5" y="772.5" width="35" height="93"/><path d="M637.55,262.38a24.83,24.83,0,0,0,.68-4.86l1.1.13a24.5,24.5,0,0,1-.71,5.35Zm2.31-8.38h1.3v16.15h-1.3Zm2.33,5.24a14.31,14.31,0,0,0-1-2.59L642,256a12.84,12.84,0,0,1,1.08,2.42Zm6.53-4h4.5v1h-4.5v1h3.85v1h-3.85v1.09h5.16v1h-11.4v-1h5v-1.09H643.7v-1h3.74v-1h-4.35v-1h4.35V254h1.28Zm3.59,6.17v7.4a1.23,1.23,0,0,1-.34,1,1.52,1.52,0,0,1-1.07.3c-.49,0-1.14,0-1.95-.08l-.21-1.17c.69.07,1.3.11,1.81.11a.48.48,0,0,0,.39-.12.69.69,0,0,0,.07-.37v-1.62h-5.78v3.33H644v-8.75Zm-7.08,1v1.2H651v-1.2Zm0,2.19v1.27H651v-1.27Z"/><path d="M659.51,263.43v1.94h3v1.12h-3v3.65h-1.29v-3.65h-3.05v-1.12h3.05v-1.94H655v-1.11h1.7c-.25-1-.49-1.82-.7-2.4h-1.31v-1.11h3.52V257h-2.86v-1.1h2.86V254h1.3v1.87h2.75V257H659.5v1.84h3.24v1.11h-1.18a21.56,21.56,0,0,1-.79,2.4h1.85v1.11Zm.81-3.51H657.2a24.18,24.18,0,0,1,.67,2.4h1.72A21.82,21.82,0,0,0,660.32,259.92Zm9.48-5.27v4a1.18,1.18,0,0,1-.38,1,2,2,0,0,1-1.11.22c-.64,0-1.26,0-1.87-.08l-.25-1.15c.88.09,1.53.13,2,.13a.32.32,0,0,0,.37-.37v-2.63h-4v5.37h5.08l.73.63a15.53,15.53,0,0,1-1.86,4.93,11.3,11.3,0,0,0,2.55,2.24l-.76,1.17a13.26,13.26,0,0,1-2.52-2.33,13.64,13.64,0,0,1-2.36,2.4l-.81-1.08a10,10,0,0,0,2.39-2.34,14.44,14.44,0,0,1-2-4.52h-.44v7.9H663.2V254.65Zm-3.73,7.59a12.2,12.2,0,0,0,1.53,3.47,10.89,10.89,0,0,0,1.29-3.47Z"/><path d="M676.82,265.25c1.4,2.1,3.58,3.14,6.54,3.14H688a4.9,4.9,0,0,0-.39,1.33h-4.27a9.77,9.77,0,0,1-3.74-.69,7.93,7.93,0,0,1-3.39-2.63,12.55,12.55,0,0,1-3.36,3.73l-.92-1a12.49,12.49,0,0,0,3.55-3.89,16.76,16.76,0,0,1-1.48-4.45l-.05.11a12.89,12.89,0,0,1-1.36,2.65l-.81-1.12a20.81,20.81,0,0,0,2.69-8.39l1.25.25c-.06.45-.13.88-.2,1.29h2.84l.68.59C678.63,260.19,677.9,263.23,676.82,265.25Zm-.72-1.37a25.06,25.06,0,0,0,1.6-7.12h-2.49c-.16.71-.34,1.35-.52,1.91A19.23,19.23,0,0,0,676.1,263.88Zm8.84-8.73v9.79a.57.57,0,0,0,.09.38.65.65,0,0,0,.47.12c.33,0,.54-.08.61-.24a9.86,9.86,0,0,0,.2-2.26l1.14.45a11.38,11.38,0,0,1-.21,2.28,1.07,1.07,0,0,1-.87.92,7.27,7.27,0,0,1-1.15.07,1.74,1.74,0,0,1-1.25-.32,1.25,1.25,0,0,1-.25-.89v-9.08h-2.1V260a14.52,14.52,0,0,1-.48,4.06,8.69,8.69,0,0,1-1.47,2.8l-.93-.94a7.43,7.43,0,0,0,1.52-3.71,17.38,17.38,0,0,0,.14-2.46v-4.62Z"/><path d="M697.37,256.92v1.72h4.76v1.05h-4.76v1.56H703v1.06h-5.64V264h7.47v1.1h-7.09a8.07,8.07,0,0,0,2.78,2.31,14.68,14.68,0,0,0,4.13,1.43l-.75,1.21a13.21,13.21,0,0,1-4.7-2,8.16,8.16,0,0,1-2.39-2.45q-1.5,3.48-7.09,4.51L689,269c3.56-.55,5.8-1.84,6.73-3.89H688.7V264h7.36v-1.67h-5.51v-1.06h5.51v-1.56H691.4v-1.05h4.66v-1.72h-5.27v2.17h-1.33v-3.24h6.6V254h1.31v1.85H704v3.24h-1.31v-2.17Z"/><path d="M782.94,261.88a39.88,39.88,0,0,0-2.43-5.74l1.22-.62a36.56,36.56,0,0,1,2.54,5.73Zm.39,6a11.08,11.08,0,0,0,6.59-5.21,21.32,21.32,0,0,0,1.87-7.48l1.37.33c-.42,3.76-1.2,6.58-2.36,8.46a12.78,12.78,0,0,1-6.61,5.1Z"/><path d="M795.72,256.3h12.56a21,21,0,0,1-1,6.47A8.43,8.43,0,0,1,804,267a15.58,15.58,0,0,1-5.22,2.07l-.69-1.21c3-.57,5.16-1.62,6.5-3.17s2.13-4,2.2-7.17H795.72Z"/><path d="M812.58,254.74H814v4.73a52.72,52.72,0,0,1,8.15,3.11l-.7,1.26a51.49,51.49,0,0,0-7.45-3v8.5h-1.39Z"/><path d="M832.08,257.24v10h7.44v1.26H823.37v-1.26h7.33v-10h-6.28V256h14.07v1.22Z"/><path d="M849,256.92v1.72h4.76v1.05H849v1.56h5.64v1.06H849V264h7.48v1.11h-7.09a8,8,0,0,0,2.77,2.31,14.68,14.68,0,0,0,4.13,1.43l-.74,1.21a13.06,13.06,0,0,1-4.7-2,8,8,0,0,1-2.39-2.45c-1,2.31-3.37,3.82-7.09,4.51l-.7-1.14c3.56-.55,5.8-1.84,6.73-3.89h-7.07V264h7.36v-1.66h-5.51v-1.06h5.51v-1.56h-4.65v-1.05h4.65v-1.72h-5.27v2.17h-1.33v-3.24h6.6V254H849v1.85h6.66v3.24h-1.31v-2.17Z"/><path d="M1200,253.71v-1h-5.35v-1h12.1v1h-5.47v1h7v3.14H1207v-2.17h-5.67v3.79H1200v-3.79h-5.59v2.15h-1.31v-3.12Zm1.23,10.91v.83q0,.45.3.54a12.41,12.41,0,0,0,2.4.13,20.68,20.68,0,0,0,3-.12.66.66,0,0,0,.52-.58,11.18,11.18,0,0,0,.13-1.43l1.25.46a4.23,4.23,0,0,1-.46,2.25,1.47,1.47,0,0,1-1,.43,31.34,31.34,0,0,1-3.58.16,18.55,18.55,0,0,1-2.95-.14,1,1,0,0,1-.8-.58,1.76,1.76,0,0,1-.1-.66v-1.29h-4.18v.86h-1.33V259h12.41v5.58Zm-5.87-9.1h3.74v.88h-3.74Zm0,1.69h3.74v.85h-3.74Zm4.58,2.84h-4.18v1.22H1200Zm0,2.24h-4.18v1.33H1200Zm1.29-2.24v1.22h4.28v-1.22Zm0,2.24v1.33h4.28v-1.33Zm1-6.77h3.86v.88h-3.86Zm0,1.69h3.86v.85h-3.86Z"/><path d="M1209.51,259.64a24.83,24.83,0,0,0,.68-4.86l1.1.13a24.5,24.5,0,0,1-.71,5.35Zm2.31-8.38h1.3v16.15h-1.3Zm2.33,5.23a14.9,14.9,0,0,0-1-2.59l.81-.63a12.84,12.84,0,0,1,1.08,2.42Zm6.53-4h4.5v1h-4.5v1h3.85v1h-3.85v1.09h5.16v1h-11.4v-1h5v-1.09h-3.74v-1h3.74v-1h-4.35v-1h4.35v-1.22h1.28Zm3.59,6.17v7.4a1.26,1.26,0,0,1-.33,1,1.57,1.57,0,0,1-1.08.3c-.49,0-1.14,0-1.95-.08l-.21-1.17c.7.07,1.3.11,1.81.11a.48.48,0,0,0,.39-.12.69.69,0,0,0,.07-.37v-1.62h-5.77v3.33h-1.28v-8.75Zm-7.07,1v1.2H1223v-1.2Zm0,2.19v1.27H1223V261.8Z"/><path d="M1229,259.28a19.51,19.51,0,0,0-2.46-2.6l.92-.88a18,18,0,0,1,2.52,2.5Zm-2.12,7a26.9,26.9,0,0,0,2.82-5.62l1,.76a25.41,25.41,0,0,1-2.77,5.85Zm2.61-11.32a17.94,17.94,0,0,0-2.43-2.62l.94-.86a15.88,15.88,0,0,1,2.46,2.51Zm.5,11.43a15.53,15.53,0,0,0,4.3-2.11l1,.84a17.61,17.61,0,0,1-4.39,2.3Zm7.07-13.25h5.44v3.27h-1.29v-2.18H1232v2.18h-1.27v-3.27h5.11v-1.9h1.29Zm0,4.76h4.25v6.14h-9.57v-6.14h4.07v-1.34h-3.22v-1h8v1h-3.55Zm-1.25,2.48V259H1233v1.44Zm0,2.6v-1.59H1233V263Zm1.25-4v1.44h3V259Zm0,2.45V263h3v-1.59Zm4.82,5.94a35.66,35.66,0,0,0-4.28-2.27l.93-.82a31.2,31.2,0,0,1,4.34,2.1Z"/><path d="M1248.44,266.21V253.92a20.79,20.79,0,0,1-3.33,1l-.34-1.22a15,15,0,0,0,4.09-1.52H1250v14Z"/><path d="M1282.17,143.85a6,6,0,0,0,1.71,1.24,9.68,9.68,0,0,0,4,.7h7a6.13,6.13,0,0,0-.44,1.19h-6.54a11,11,0,0,1-4.07-.67,6.4,6.4,0,0,1-2.15-1.53,14.14,14.14,0,0,1-2.45,2.62l-.7-1.2a24.19,24.19,0,0,0,2.4-2.06v-4.43h-2.37v-1.16h3.66Zm-.67-8.41a19.4,19.4,0,0,0-2.43-3l.94-.78a18.64,18.64,0,0,1,2.51,2.84Zm8.78-.08h3.21v8.36a1.3,1.3,0,0,1-.28,1,1.39,1.39,0,0,1-1,.26c-.46,0-1,0-1.72-.09l-.2-1.09a11.05,11.05,0,0,0,1.55.12c.2,0,.32,0,.35-.14a1,1,0,0,0,0-.29v-1.78h-3v3H1288v-3h-2.94v3.23h-1.25v-9.54h4.56c-1-.52-1.93-1-3-1.46l.79-.7c.79.36,1.55.73,2.27,1.12a21.07,21.07,0,0,0,2.4-1.38h-7v-1.05h8.54l.71.71a23,23,0,0,1-3.7,2.25l.22.13Zm-5.2,1V138H1288v-1.66Zm0,2.63v1.7H1288V139Zm4.12-2.63V138h3v-1.66Zm3,4.33V139h-3v1.7Z"/><path d="M1299,135.23v12.18h-1.29V138a18.93,18.93,0,0,1-1.71,2.55l-.68-1.31a18.12,18.12,0,0,0,2.57-4.6c.35-.92.71-2.05,1.09-3.42l1.27.36A34.05,34.05,0,0,1,1299,135.23Zm.77-.86h11.87v1.14h-11.87Zm10.64,7.48v5.56h-1.33v-.89h-6.78v.89H1301v-5.56Zm-8.92-5h8.37v1.11h-8.37Zm0,2.44h8.37v1.07h-8.37Zm0-7.3h8.32V133h-8.32Zm.76,11v2.49h6.78v-2.49Z"/><path d="M1321.22,134.5v10h7.45v1.26h-16.16V144.5h7.33v-10h-6.27v-1.22h14.06v1.22Z"/><path d="M1338.19,134.18v1.72h4.75v1h-4.75v1.56h5.63v1.06h-5.63v1.66h7.47v1.11h-7.09a8,8,0,0,0,2.77,2.31,14.8,14.8,0,0,0,4.13,1.43l-.74,1.21a13.13,13.13,0,0,1-4.7-2,8.16,8.16,0,0,1-2.39-2.45c-1,2.31-3.37,3.82-7.09,4.51l-.7-1.14c3.56-.55,5.81-1.84,6.73-3.89h-7.07v-1.11h7.37v-1.66h-5.52v-1.06h5.52V137h-4.66v-1h4.66v-1.72h-5.28v2.17h-1.32v-3.24h6.6v-1.85h1.31v1.85h6.65v3.24h-1.31v-2.17Z"/><path d="M1220,124.05v-.85h-4.72v-.89H1226v.89h-4.82v.85h6.18v2.78h-1.17v-1.92h-5v3.35H1220v-3.35h-4.93v1.9h-1.16v-2.76Zm1.08,9.63v.74c0,.26.09.42.28.47a10.61,10.61,0,0,0,2.11.12,18.13,18.13,0,0,0,2.62-.11.58.58,0,0,0,.46-.51,11.19,11.19,0,0,0,.12-1.26l1.09.4a3.67,3.67,0,0,1-.4,2,1.28,1.28,0,0,1-.86.38,27.15,27.15,0,0,1-3.15.14,16.38,16.38,0,0,1-2.6-.12.87.87,0,0,1-.71-.51,1.66,1.66,0,0,1-.09-.59v-1.14h-3.69v.77h-1.17v-5.69h11v4.92Zm-5.17-8h3.3v.77h-3.3Zm0,1.48h3.3v.75h-3.3Zm4,2.51h-3.69v1.08H1220Zm0,2h-3.69v1.17H1220Zm1.13-2v1.08h3.78v-1.08Zm0,2v1.17h3.78v-1.17Zm.85-6h3.4v.77h-3.4Zm0,1.48h3.4v.75h-3.4Z"/><path d="M1228.37,129.29a21.41,21.41,0,0,0,.6-4.29l1,.12a21.56,21.56,0,0,1-.63,4.72Zm2-7.4h1.14v14.26h-1.14Zm2,4.62a13.59,13.59,0,0,0-.87-2.28l.71-.56a11.37,11.37,0,0,1,1,2.13Zm5.77-3.54h4v.87h-4v.92h3.39v.85h-3.39v1h4.55v.92h-10.06v-.92h4.38v-1h-3.31v-.85h3.31v-.92h-3.84V123h3.84v-1.08h1.13Zm3.16,5.45v6.52a1.14,1.14,0,0,1-.29.86,1.35,1.35,0,0,1-.95.26c-.44,0-1,0-1.72-.07l-.19-1a14.37,14.37,0,0,0,1.6.1c.18,0,.29,0,.34-.11a.52.52,0,0,0,.07-.32V133.2h-5.1v2.94H1234v-7.72Zm-6.24.84v1.06h5.1v-1.06Zm0,1.93v1.12h5.1v-1.12Z"/><path d="M1217.05,147.48h7.36v1H1217v-1a17.17,17.17,0,0,1-2.94,1.66l-.67-1a13.24,13.24,0,0,0,6.42-5.31h1.32a15,15,0,0,0,3.92,3.5,19.89,19.89,0,0,0,2.74,1.38l-.63,1A22.16,22.16,0,0,1,1224,147a18.22,18.22,0,0,1-3.43-3.13A13.11,13.11,0,0,1,1217.05,147.48Zm2.63,4.17a28.19,28.19,0,0,1-2.32,3.76l1.46-.07c1.87-.1,3.69-.25,5.45-.45-.77-.82-1.44-1.49-2-2l.94-.61a33.73,33.73,0,0,1,3.92,4l-1,.76c-.45-.57-.82-1-1.08-1.33q-5.09.71-10.24,1l-.38-1.18,1,0h.58a23.81,23.81,0,0,0,2.19-3.76l0-.06h-4.46v-1h13.75v1Z"/><path d="M1228.48,145.67h5.07v1h-5.07Zm4.71,6.55v4.13H1230v.8h-1v-4.93Zm-4.06-8.71H1233v.94h-3.87Zm0,4.36H1233v.95h-3.88Zm0,2.15H1233V151h-3.88Zm.85,3.16v2.21h2.17v-2.21Zm10.3.52c.44-.47.83-.91,1.18-1.34l.79.6c-.57.66-1.09,1.23-1.58,1.7a4.4,4.4,0,0,0,.67,1c.13.14.22.21.28.21s.3-.52.38-1.55l.86.55c-.11,1.52-.44,2.29-1,2.29a1.61,1.61,0,0,1-.87-.43,5,5,0,0,1-1.12-1.37,13.13,13.13,0,0,1-2.12,1.52l-.66-.78a12.43,12.43,0,0,0,2.34-1.63,9.88,9.88,0,0,1-.59-2.31h-2.11v1l.19,0c.49-.09,1-.19,1.5-.31l0,.83c-.36.1-.94.24-1.74.41v2.1a1,1,0,0,1-.23.76,1.27,1.27,0,0,1-.86.23,10,10,0,0,1-1.35-.1l-.18-1a8.34,8.34,0,0,0,1.29.12c.15,0,.25-.06.28-.17a1.06,1.06,0,0,0,0-.21v-1.55c-.84.15-1.54.26-2.09.34l-.25-1c.72-.07,1.5-.18,2.34-.31v-1.19h-2.34v-.9h2.34v-.81c-.45.07-1,.15-1.56.21l-.38-.73a20.63,20.63,0,0,0,3.72-.76l.6.74c-.43.12-.88.24-1.35.34v1h2c-.06-.65-.1-1.34-.12-2h1c0,.65.07,1.33.14,2h2.94v.9h-2.82A11,11,0,0,0,1240.28,153.7Zm-4.33-9.55a7.47,7.47,0,0,0-.6-1l1-.3a8.1,8.1,0,0,1,.71,1.29h1.87l.11-.18a10.47,10.47,0,0,0,.52-1.14l1.14.27a11,11,0,0,1-.64,1.05h2.29V145h-3.8v1h3.29v.86h-3.29v1h4.18v.89h-9.27v-.89h4v-1h-3.09V146h3.09v-1h-3.68v-.89Zm5.36,7a6.92,6.92,0,0,0-1.06-1.51l.82-.44a7.82,7.82,0,0,1,1.1,1.47Z"/><rect x="954.5" y="248.5" width="29.5" height="29.5" rx="2"/><rect class="cls-5" x="954.5" y="248.5" width="29.5" height="29.5" rx="2"/><rect class="cls-1" x="968.49" y="252.65" width="1.38" height="21.76"/><path class="cls-1" d="M962.05,256.28a1.82,1.82,0,1,0-1.82-1.82A1.82,1.82,0,0,0,962.05,256.28Z"/><path class="cls-1" d="M965.59,258.87c-.36-1.24-1.19-2.06-2.12-2.06h-2.84c-.93,0-1.75.82-2.12,2.06l-1.34,4.75a.75.75,0,0,0,.54.91.74.74,0,0,0,.9-.54l1.34-4.73h.39L958,267.49h2.19v6.11a.85.85,0,1,0,1.69,0v-6.11h.46v6.11a.85.85,0,1,0,1.7,0v-6.11h2l-2.32-8.23h.39l1.34,4.73a.74.74,0,0,0,.9.54.75.75,0,0,0,.54-.91Z"/><path class="cls-1" d="M976.57,256.28a1.82,1.82,0,1,0-1.82-1.82A1.81,1.81,0,0,0,976.57,256.28Z"/><path class="cls-1" d="M978.81,256.79H974a2,2,0,0,0-1.84,1.84v6.11a.8.8,0,0,0,1.6,0v-5h.37v13.64a1,1,0,0,0,2.09,0v-7.92h.34v7.92a1.05,1.05,0,0,0,2.1,0V259.72h.36v5a.8.8,0,1,0,1.6,0v-6.11A2,2,0,0,0,978.81,256.79Z"/><rect x="525.03" y="247.62" width="29.5" height="29.5" rx="2"/><rect class="cls-5" x="525.03" y="247.62" width="29.5" height="29.5" rx="2"/><polygon class="cls-1" points="544.32 253.29 544.32 258.18 538.89 258.18 538.89 263.07 533.46 263.07 533.46 267.95 529.29 267.95 529.29 270.47 535.97 270.47 535.97 265.58 541.4 265.58 541.4 260.69 546.83 260.69 546.83 255.8 551 255.8 551 253.29 544.32 253.29"/><rect x="1288.36" y="244.25" width="29.5" height="29.5" rx="2"/><rect class="cls-5" x="1288.36" y="244.25" width="29.5" height="29.5" rx="2"/><polygon class="cls-1" points="1307.65 249.92 1307.65 254.81 1302.22 254.81 1302.22 259.69 1296.8 259.69 1296.8 264.58 1292.62 264.58 1292.62 267.1 1299.31 267.1 1299.31 262.21 1304.73 262.21 1304.73 257.32 1310.16 257.32 1310.16 252.43 1314.33 252.43 1314.33 249.92 1307.65 249.92"/><rect x="1279.25" y="802.58" width="29.5" height="29.5" rx="2"/><rect class="cls-5" x="1279.25" y="802.58" width="29.5" height="29.5" rx="2"/><polygon class="cls-1" points="1298.54 808.25 1298.54 813.14 1293.11 813.14 1293.11 818.03 1287.68 818.03 1287.68 822.92 1283.51 822.92 1283.51 825.43 1290.2 825.43 1290.2 820.54 1295.62 820.54 1295.62 815.65 1301.05 815.65 1301.05 810.76 1305.22 810.76 1305.22 808.25 1298.54 808.25"/><rect x="521.58" y="803.92" width="29.5" height="29.5" rx="2"/><rect class="cls-5" x="521.58" y="803.92" width="29.5" height="29.5" rx="2"/><polygon class="cls-1" points="540.87 809.58 540.87 814.47 535.44 814.47 535.44 819.36 530.02 819.36 530.02 824.25 525.85 824.25 525.85 826.76 532.53 826.76 532.53 821.87 537.96 821.87 537.96 816.99 543.38 816.99 543.38 812.1 547.56 812.1 547.56 809.58 540.87 809.58"/><rect x="936.69" y="804.58" width="29.5" height="29.5" rx="2"/><rect class="cls-5" x="936.69" y="804.58" width="29.5" height="29.5" rx="2"/><rect class="cls-1" x="950.68" y="808.73" width="1.38" height="21.76"/><path class="cls-1" d="M944.25,812.36a1.82,1.82,0,1,0-1.82-1.81A1.81,1.81,0,0,0,944.25,812.36Z"/><path class="cls-1" d="M947.79,815c-.37-1.25-1.19-2.07-2.12-2.07h-2.85c-.92,0-1.75.82-2.12,2.07l-1.34,4.75a.75.75,0,0,0,.55.9.73.73,0,0,0,.9-.53l1.33-4.74h.4l-2.33,8.24h2.19v6.1a.85.85,0,1,0,1.69,0v-6.1h.47v6.1a.85.85,0,1,0,1.69,0v-6.1h2L946,815.34h.4l1.33,4.74a.73.73,0,0,0,.9.53.75.75,0,0,0,.55-.9Z"/><path class="cls-1" d="M958.77,812.36a1.82,1.82,0,1,0-1.82-1.81A1.81,1.81,0,0,0,958.77,812.36Z"/><path class="cls-1" d="M961,812.88h-4.77a2,2,0,0,0-1.84,1.84v6.11a.79.79,0,0,0,.8.79.79.79,0,0,0,.79-.79v-5h.37v13.64a1,1,0,1,0,2.1,0v-7.91h.33v7.91a1.05,1.05,0,1,0,2.1,0V815.8h.37v5a.8.8,0,0,0,1.59,0v-6.11A2,2,0,0,0,961,812.88Z"/><rect x="1104.58" y="802.92" width="29.5" height="29.5" rx="2"/><rect class="cls-5" x="1104.58" y="802.92" width="29.5" height="29.5" rx="2"/><path class="cls-1" d="M1115.69,815.37a1.07,1.07,0,1,0,1.07,1.06A1.06,1.06,0,0,0,1115.69,815.37Z"/><path class="cls-1" d="M1122.22,815.37a1.07,1.07,0,1,0,1.07,1.06A1.06,1.06,0,0,0,1122.22,815.37Z"/><path class="cls-1" d="M1126,811.1h-14a2,2,0,0,0-2,1.95v15a2,2,0,0,0,2,2h14a2,2,0,0,0,2-2v-15A2,2,0,0,0,1126,811.1Zm-10.5,17.67a.25.25,0,0,0,0-.07l.21-4.9.22,4.9s0,0,0,.07Zm6.53,0s0,0,0-.07l.22-4.9.21,4.9a.25.25,0,0,0,0,.07Zm4.69-.72a.72.72,0,0,1-.72.72h-2.46a.25.25,0,0,0,0-.07l.21-8,.2,2.14a.41.41,0,0,0,.43.4.42.42,0,0,0,.4-.44v-3.52c0-1.47-1.78-1.54-2.54-1.54s-2.55.07-2.55,1.54v3.52a.42.42,0,0,0,.4.44.43.43,0,0,0,.44-.4l.19-2.14.22,8s0,0,0,.07h-4s0,0,0-.07l.22-8,.19,2.14a.43.43,0,0,0,.44.4.42.42,0,0,0,.4-.44v-3.52c0-1.47-1.79-1.54-2.55-1.54s-2.54.07-2.54,1.54v3.52a.42.42,0,0,0,.4.44.41.41,0,0,0,.43-.4l.2-2.14.21,8a.25.25,0,0,0,0,.07H1112a.72.72,0,0,1-.72-.72v-15a.73.73,0,0,1,.72-.72h14a.73.73,0,0,1,.72.72v15Z"/><path class="cls-1" d="M1120.48,807.89l1.46-1.46v3.29a.55.55,0,0,0,.55.54.54.54,0,0,0,.54-.54v-3.29l1.46,1.46a.54.54,0,0,0,.39.16.51.51,0,0,0,.38-.16.53.53,0,0,0,0-.77l-2.39-2.39-.38-.38-.39.38-2.39,2.39a.54.54,0,0,0,.77.77Z"/><path class="cls-1" d="M1115.29,810.1l.39.39.38-.39,2.39-2.39a.54.54,0,0,0-.77-.77l-1.46,1.47v-3.29a.55.55,0,0,0-.54-.55.55.55,0,0,0-.55.55v3.29l-1.46-1.47a.54.54,0,0,0-.77.77Z"/><rect x="1106.25" y="244.36" width="29.5" height="29.5" rx="2"/><rect class="cls-5" x="1106.25" y="244.36" width="29.5" height="29.5" rx="2"/><path class="cls-1" d="M1117.36,256.81a1.07,1.07,0,1,0,1.07,1.07A1.07,1.07,0,0,0,1117.36,256.81Z"/><path class="cls-1" d="M1123.88,256.81a1.07,1.07,0,1,0,1.07,1.07A1.07,1.07,0,0,0,1123.88,256.81Z"/><path class="cls-1" d="M1127.62,252.55h-14a2,2,0,0,0-1.95,1.95v15a2,2,0,0,0,1.95,1.95h14a2,2,0,0,0,2-1.95v-15A2,2,0,0,0,1127.62,252.55Zm-10.49,17.66s0,0,0-.07l.21-4.89.22,4.89s0,.05,0,.07Zm6.52,0a.14.14,0,0,0,0-.07l.21-4.89.22,4.89s0,.05,0,.07Zm4.69-.72a.72.72,0,0,1-.72.72h-2.45s0,0,0-.07l.22-8,.19,2.14a.42.42,0,0,0,.84,0v-3.52c0-1.48-1.79-1.55-2.55-1.55s-2.54.07-2.54,1.55v3.52a.41.41,0,0,0,.4.43.41.41,0,0,0,.43-.39l.2-2.14.21,8a.14.14,0,0,0,0,.07h-3.95s0,0,0-.07l.22-8,.19,2.14a.42.42,0,0,0,.44.39.41.41,0,0,0,.39-.43v-3.52c0-1.48-1.78-1.55-2.54-1.55s-2.54.07-2.54,1.55v3.52a.41.41,0,0,0,.39.43.42.42,0,0,0,.44-.39l.2-2.14.21,8s0,.05,0,.07h-2.45a.72.72,0,0,1-.72-.72v-15a.72.72,0,0,1,.72-.72h14a.72.72,0,0,1,.72.72v15Z"/><path class="cls-1" d="M1122.15,249.34l1.46-1.47v3.29a.55.55,0,0,0,.54.55.55.55,0,0,0,.55-.55v-3.29l1.46,1.47a.54.54,0,0,0,.77,0,.55.55,0,0,0,0-.77l-2.39-2.39-.39-.39-.38.39-2.39,2.39a.54.54,0,0,0,.77.77Z"/><path class="cls-1" d="M1117,251.55l.38.38.39-.38,2.39-2.39a.54.54,0,1,0-.77-.77l-1.46,1.46v-3.29a.55.55,0,0,0-.55-.54.54.54,0,0,0-.54.54v3.29l-1.46-1.46a.55.55,0,0,0-.77,0,.53.53,0,0,0,0,.77Z"/><path d="M566.63,811.75h6.75v2.84h-1.31v-1.82H559.93v1.82h-1.31v-2.84h6.7v-1.49h1.31Zm6.1,8.09v6.56h-1.29v-.73H560.65v.73h-1.32v-6.56Zm-12.08,1v1.4h4.69v-1.4Zm0,2.34v1.52h4.69v-1.52Zm0-9.37h10.68v1H560.66Zm10.44,1.87V819H561v-3.29Zm-8.84.94V818h7.54V816.6Zm9.18,5.62v-1.4H566.6v1.4Zm0,2.46v-1.52H566.6v1.52Z"/><path d="M575.55,816.75h5.31l.68.66a15.12,15.12,0,0,1-2.67,5.16,14.13,14.13,0,0,1-3,2.68l-.93-1a11.42,11.42,0,0,0,5.06-6.29h-4.42Zm8.25-1.6a11.39,11.39,0,0,0,1.21,3,24.91,24.91,0,0,0,4-3.49l1.11,1a31.11,31.11,0,0,1-4.55,3.46l.11.16a13.94,13.94,0,0,0,5.49,4.46l-1,1.2A14.44,14.44,0,0,1,583.8,818v7.07a1.26,1.26,0,0,1-.4,1,2.18,2.18,0,0,1-1.25.27q-1,0-2.16-.12l-.29-1.35a15.53,15.53,0,0,0,2.28.2c.24,0,.38,0,.44-.15a.83.83,0,0,0,.07-.37v-9.7h-4.9v-1.17h6.21Zm1-2.09a45.2,45.2,0,0,0-5-2l.86-.93a38.62,38.62,0,0,1,4.93,1.9Z"/><path d="M601.33,824H617v1.29H601.33Zm1.2-11.41h13.23v1.28H602.53Zm.92,5.45h11.37v1.24H603.45Z"/><path d="M618.62,811.52h4.06l.65.58a31.32,31.32,0,0,1-1.68,4.74,7.08,7.08,0,0,1,1.51,4.39,3.62,3.62,0,0,1-.24,1.47,1.4,1.4,0,0,1-1.43.78,5.09,5.09,0,0,1-1.08-.1l-.28-1.23a5.83,5.83,0,0,0,1.16.11.51.51,0,0,0,.55-.32A2.58,2.58,0,0,0,622,821a6.55,6.55,0,0,0-1.49-4.06,28.24,28.24,0,0,0,1.46-4.27h-2.06v14.23h-1.24Zm11.92,11.32a12.18,12.18,0,0,0-.54-1.31l.86-.4a20.16,20.16,0,0,1,1.25,3.24l-1,.5a10,10,0,0,0-.28-1.11c-1.65.3-3.36.53-5.15.69l-.29-1.16c1,0,1.91-.11,2.65-.18v-2.49h-3.21v6.31h-1.2v-7.41H628v-1.38h-3.63v-6.55h8.5v6.55h-3.75v1.38h4.62v6a1.24,1.24,0,0,1-.38,1,1.87,1.87,0,0,1-1.1.26c-.44,0-1,0-1.66-.11l-.21-1.21a15.15,15.15,0,0,0,1.74.17c.26,0,.39-.16.39-.49v-4.52h-3.4V823h.13C629.71,823,630.12,822.9,630.54,822.84Zm-4.94-10.18v1.63H628v-1.63Zm0,2.67v1.75H628v-1.75Zm6.11-1v-1.63h-2.55v1.63Zm0,2.79v-1.75h-2.55v1.75Z"/><path d="M692,806.07v10.67h-1.16v-8.23a18.93,18.93,0,0,1-1.41,2.16l-.6-1.09a16.29,16.29,0,0,0,2.21-4.08,29.43,29.43,0,0,0,1-3.09l1.13.29A34.36,34.36,0,0,1,692,806.07Zm9.87.64h1.38v1h-1.38v3.45h-3.77a7.26,7.26,0,0,1-.67,2.86,6.3,6.3,0,0,1-2.8,2.79l-.85-.85a5.71,5.71,0,0,0,2.51-2.33,6.54,6.54,0,0,0,.65-2.47h-3.37v-1H697V807.7h-4.44v-1H697v-2.35h-3.18v-1h8.07Zm-1.14,0v-2.35h-2.6v2.35Zm0,1h-2.6v2.45h2.6Z"/><path d="M709,806.18v9.3a1.24,1.24,0,0,1-.33,1,1.54,1.54,0,0,1-.9.19,11.25,11.25,0,0,1-1.27-.06l-.2-1a7,7,0,0,0,1.09.09,1.08,1.08,0,0,0,.49-.07.35.35,0,0,0,.11-.29v-3h-2.06a11.76,11.76,0,0,1-.25,2.21,7.65,7.65,0,0,1-.9,2.14L704,816a7.37,7.37,0,0,0,.89-2.78c0-.44.07-1,.07-1.53v-5.49Zm-.9-2.47v-1.23h1.16v1.23h3.62v-1.23h1.16v1.23h4.07v1h-4.07v.78h-1.16v-.78h-3.62v1h-1.16v-1h-3.94v-1ZM706,807.14v1.69h2v-1.69Zm0,2.56v1.77h2V809.7Zm9.26,1h-3a10.15,10.15,0,0,1-.89,1,9.06,9.06,0,0,1,1,1l-.72.71c-.42-.47-.75-.81-1-1-.21.17-.52.4-.94.69l-.65-.78a8.53,8.53,0,0,0,2-1.59h-1.56v-.89h2.22a9.65,9.65,0,0,0,.59-1.15l0-.09h-2.56v-.87h1.16a9.11,9.11,0,0,0-.76-1.29l1-.39a14.64,14.64,0,0,1,.83,1.68h.67a17.34,17.34,0,0,0,.43-2l1.06.09c-.12.74-.25,1.39-.4,2h1.06a11.31,11.31,0,0,0,1-1.78l1,.38a14.78,14.78,0,0,1-.92,1.4h1.77v.87h-2.7a7.21,7.21,0,0,0,.82,1.24h2.41v.89h-1.55a9.3,9.3,0,0,0,1.81,1.19l-.69.88q-.57-.36-1-.66a6.82,6.82,0,0,1-1.16,1.23l-.71-.63a6.89,6.89,0,0,0,1.1-1.23A7.82,7.82,0,0,1,715.21,810.74Zm-5.85,4.33a14,14,0,0,0,2.83-1.5l.29.84A15.09,15.09,0,0,1,709.8,816Zm3.71-3.84h1.06v4.47a1.19,1.19,0,0,1-.2.77,1.11,1.11,0,0,1-.87.25,9.56,9.56,0,0,1-1.34-.08l-.18-1a8,8,0,0,0,1.2.1c.16,0,.25,0,.29-.13a.8.8,0,0,0,0-.3Zm1.49-1.38a9.32,9.32,0,0,1-.66-1.24h-.5a10.86,10.86,0,0,1-.57,1.24Zm2.72,6.21a20.4,20.4,0,0,0-2.74-1.81l.55-.74a22.54,22.54,0,0,1,2.84,1.67Z"/><path d="M690.24,834.74a9.94,9.94,0,0,1-2.2-3,9.5,9.5,0,0,1-1-4.19,9.66,9.66,0,0,1,1.32-4.69,9.2,9.2,0,0,1,1.93-2.43h1.1a16.61,16.61,0,0,0-1.58,2.08,9.4,9.4,0,0,0-1.53,5.06,9.21,9.21,0,0,0,1.37,4.77,14.83,14.83,0,0,0,1.74,2.35Z"/><path d="M701.38,830.56c1.52-.17,2.58-.31,3.18-.4v.94c-1.08.19-2.06.33-2.92.44l-.27,0v1.95a1.12,1.12,0,0,1-.33,1,1.57,1.57,0,0,1-.94.21,11.28,11.28,0,0,1-1.6-.11l-.22-1.05a13.3,13.3,0,0,0,1.55.1c.21,0,.33,0,.36-.13a.64.64,0,0,0,0-.27v-1.51l-.54.07q-1.23.15-3,.3l-.24-1.06,2.19-.18,1.56-.15v-1a8.27,8.27,0,0,0,1.77-.93H697.4v-.95h6.08l.62.65a17.3,17.3,0,0,1-2.72,1.65Zm-.13-8.46h3.27v1h-7.88v-1h3.45v-1.62h1.16Zm2.32,1.86v3h-5.82v-3Zm-4.74.87v1.26h3.68v-1.26Zm6.47,1.69a14.35,14.35,0,0,1-.78,1.41l-.71-.92a18.65,18.65,0,0,0,2.11-6.46l1.13.21c-.17.86-.35,1.68-.56,2.43h4.24v1h-1.14v.15a18.89,18.89,0,0,1-1.54,6,13.43,13.43,0,0,0,2.91,3.21l-.74,1.08a14.41,14.41,0,0,1-2.74-3.2,9.61,9.61,0,0,1-3.3,3.32l-.75-.88a8.94,8.94,0,0,0,3.4-3.56A18.33,18.33,0,0,1,705.3,826.52Zm.6-1.44a15,15,0,0,0,1.46,4.11.64.64,0,0,1,.06-.16,17.38,17.38,0,0,0,1.07-4.81h-2.3C706.1,824.53,706,824.81,705.9,825.08Z"/><path d="M715.94,834.74a16.17,16.17,0,0,0,1.58-2.09,9.07,9.07,0,0,0,.17-9.82,17.27,17.27,0,0,0-1.75-2.35H717a9.82,9.82,0,0,1,2.2,3,9.46,9.46,0,0,1,1,4.17,9.61,9.61,0,0,1-1.33,4.7,9,9,0,0,1-1.92,2.43Z"/><path d="M735.27,806.43v10.66h-1.16v-8.23A20,20,0,0,1,732.7,811l-.6-1.1a16.29,16.29,0,0,0,2.21-4.08,31.77,31.77,0,0,0,1-3.09l1.12.29A35.57,35.57,0,0,1,735.27,806.43Zm9.87.63h1.38v1h-1.38v3.45h-3.77a7.35,7.35,0,0,1-.67,2.87,6.35,6.35,0,0,1-2.8,2.79l-.85-.86a5.68,5.68,0,0,0,2.52-2.33,6.75,6.75,0,0,0,.64-2.47h-3.37v-1h3.41v-2.45h-4.44v-1h4.44v-2.35h-3.18v-1h8.07Zm-1.14,0v-2.35h-2.6v2.35Zm0,1h-2.6v2.45H744Z"/><path d="M752.24,806.53v9.3a1.24,1.24,0,0,1-.33,1,1.54,1.54,0,0,1-.9.19,11.66,11.66,0,0,1-1.27,0l-.2-1a8.36,8.36,0,0,0,1.09.08,1,1,0,0,0,.49-.07.34.34,0,0,0,.11-.29v-3h-2.06a11.76,11.76,0,0,1-.25,2.21,7.53,7.53,0,0,1-.9,2.14l-.83-.76a7.37,7.37,0,0,0,.89-2.78c0-.44.07-.95.07-1.53v-5.49Zm-.9-2.46v-1.23h1.16v1.23h3.62v-1.23h1.16v1.23h4.07v1h-4.07v.78h-1.16V805H752.5v1h-1.16v-1H747.4v-1Zm-2.16,3.42v1.69h2.05v-1.69Zm0,2.56v1.77h2.05v-1.77Zm9.26,1h-3a9,9,0,0,1-.89,1,9.06,9.06,0,0,1,1,1l-.72.71a12.86,12.86,0,0,0-1-1c-.21.17-.52.4-.94.68l-.65-.78a8.53,8.53,0,0,0,2-1.59h-1.56v-.88h2.22a10.59,10.59,0,0,0,.59-1.16l0-.09H753v-.87h1.16a8.25,8.25,0,0,0-.76-1.29l1-.39a15.5,15.5,0,0,1,.83,1.68h.67a17.34,17.34,0,0,0,.43-2l1.06.09c-.12.74-.25,1.39-.4,2H758a11.7,11.7,0,0,0,1-1.77l1,.38a16,16,0,0,1-.92,1.39h1.77V809h-2.7a7.72,7.72,0,0,0,.82,1.25h2.41v.88h-1.55a9.3,9.3,0,0,0,1.81,1.19l-.69.88c-.38-.24-.71-.45-1-.66a6.51,6.51,0,0,1-1.16,1.23l-.71-.63a7.18,7.18,0,0,0,1.1-1.22A9.07,9.07,0,0,1,758.44,811.09Zm-5.85,4.33a14,14,0,0,0,2.83-1.5l.29.84a15.09,15.09,0,0,1-2.68,1.57Zm3.71-3.84h1.06v4.47a1.24,1.24,0,0,1-.2.78,1.16,1.16,0,0,1-.87.24A9.56,9.56,0,0,1,755,817l-.18-1a8,8,0,0,0,1.2.1c.16,0,.25,0,.29-.13a.8.8,0,0,0,0-.3Zm1.49-1.37a9.42,9.42,0,0,1-.66-1.25h-.5a11.88,11.88,0,0,1-.57,1.25Zm2.72,6.2a21.42,21.42,0,0,0-2.74-1.81l.55-.74a23.84,23.84,0,0,1,2.84,1.67Z"/><path d="M733.47,835.09a9.94,9.94,0,0,1-2.2-3,8.91,8.91,0,0,1,.28-8.88,8.93,8.93,0,0,1,1.92-2.42h1.1a15.27,15.27,0,0,0-1.58,2.08,9.06,9.06,0,0,0-.16,9.83,15.26,15.26,0,0,0,1.74,2.34Z"/><path d="M744.92,822.67v12.41h-1V832c-1.35.41-2.63.76-3.87,1l-.34-1.13,1.11-.21v-9h-1v-1h6.08v1Zm-1,0h-2.06v2.11h2.06Zm0,3.06h-2.06v2.11h2.06Zm0,3h-2.06v2.68c.94-.22,1.63-.38,2.06-.5Zm1.52,5a11.16,11.16,0,0,0,.76-3.44l1,.16a12.88,12.88,0,0,1-.8,3.87Zm.1-8.7a9.79,9.79,0,0,0,2.25-3.95l1,.37a11.64,11.64,0,0,1-2.52,4.38Zm6.53,2.85c-1.63.22-3.57.42-5.8.59l-.33-1.08,1,0,.22,0,.08-.15a21.16,21.16,0,0,0,1.51-3.55l1.1.24a21,21,0,0,1-1.54,3.41l.36,0c.73,0,1.63-.09,2.68-.18h.17a14,14,0,0,0-1.11-1.46l.87-.52a21.39,21.39,0,0,1,2.25,3.12l-1,.61C752.38,828.5,752.2,828.18,752,827.88ZM748,830.11H749v3.24c0,.25.06.4.19.45a2.56,2.56,0,0,0,.71.06,1.79,1.79,0,0,0,.89-.13c.16-.1.25-.64.28-1.6v-.21l1,.39q-.09,1.2-.15,1.59a1.07,1.07,0,0,1-.78.93,7.6,7.6,0,0,1-1.57.11,2.44,2.44,0,0,1-1.33-.26,1,1,0,0,1-.37-.87Zm2.53,1.16a12.68,12.68,0,0,0-2-2.12l.78-.65a15.21,15.21,0,0,1,2.07,2Zm2.77-5.48a15.21,15.21,0,0,1-3.1-4.35l.9-.49a12.77,12.77,0,0,0,3,4Zm-.12,8.13a16.38,16.38,0,0,0-1.48-3.45l.94-.47a17.68,17.68,0,0,1,1.55,3.33Z"/><path d="M759.17,835.09a16.17,16.17,0,0,0,1.58-2.09,9.07,9.07,0,0,0,.17-9.82,17.24,17.24,0,0,0-1.75-2.34h1.1a9.78,9.78,0,0,1,2.2,2.95,9.46,9.46,0,0,1,1,4.17,9.58,9.58,0,0,1-1.33,4.7,9,9,0,0,1-1.92,2.43Z"/><path d="M782,815.06h6.33v1.24H782v7.33h7.94v1.25H773.72v-1.25h6.83V810H782Z"/><path d="M801.87,824.29h-9.14v1h-1.31v-3.93h1.31v1.9H796v-2.49h-3.24v-9.36h4.07a12.32,12.32,0,0,0,.92-1.56l1.48.34a15.23,15.23,0,0,1-.93,1.22h6v5.19H794.07v1h12.81v1H794.07v1.07h12.06a20.69,20.69,0,0,1-.56,5.22,1.54,1.54,0,0,1-.94,1,3.37,3.37,0,0,1-1.16.16,12.79,12.79,0,0,1-2-.15l-.28-1.23a13.46,13.46,0,0,0,2.06.18c.48,0,.79-.12.92-.34a12.12,12.12,0,0,0,.57-3.76h-7.47v2.49h3.33v-1.9h1.27Zm-7.8-11.89v1.07h8.86V812.4Zm0,2v1.14h8.86v-1.14Z"/><path d="M822.05,814.51h2.58v-1.79h-2.14v-1.07h2.14v-1.76h1.22v1.76h2.85v-1.76h1.22v1.76h2.34v1.07h-2.34v1.79h3v1.09h-5v1.26h4.07V823h-9.19v-6.17h3.93V815.6h-4.76v-1h-1.5v1.61a18.69,18.69,0,0,1,2,2.16l-.66,1.17a16.76,16.76,0,0,0-1.33-1.89V826h-1.26v-8.62a20.16,20.16,0,0,1-2,4.7l-.6-1.25a22.48,22.48,0,0,0,2.52-6.29h-2.33v-1.21h2.42v-3.48h1.26v3.48h1.64Zm-.76,10.61a12.22,12.22,0,0,0,3.89-2l1,.75a13.78,13.78,0,0,1-4,2.27ZM824,817.9v1.47h2.72V817.9Zm0,2.48V822h2.72v-1.59Zm4.75-5.87v-1.79h-2.85v1.79Zm2,4.86V817.9h-2.87v1.47Zm0,2.6v-1.59h-2.87V822Zm1.29,4.1a27.44,27.44,0,0,0-3.66-2.17l1-.81a28.26,28.26,0,0,1,3.62,2Z"/><path d="M838.13,813.25V810h1.38v3.21h4.68v-3.36h1.36v3.36h3.68v1.2h-3.68v4.48h4.33v1.2h-4.33V826h-1.36v-5.9H839.5a6.81,6.81,0,0,1-.81,3.28A7.45,7.45,0,0,1,835.8,826l-1-1.06a5.86,5.86,0,0,0,2.76-2.44,6.19,6.19,0,0,0,.54-2.37h-4.33v-1.2h4.35v-4.48h-3.74v-1.2Zm6.06,1.2h-4.68v4.48h4.68Z"/><path d="M861.93,814.09h3.76v1.08H863.9v2.21h2.55v1.09H863.9v5.1l.23-.05c.86-.24,1.75-.5,2.64-.78l.14,1.1a64.52,64.52,0,0,1-6.74,2l-.45-1.26c1-.18,1.95-.4,3-.66v-5.41h-2.94v-1.09h2.94v-2.21h-1.59a11.48,11.48,0,0,1-.92,1l-.6-1.1a15.26,15.26,0,0,0,3.06-5.2H864l.15.15a29.45,29.45,0,0,1,2.65,3.33l-.9.88a22.89,22.89,0,0,0-2.36-3.19A20.21,20.21,0,0,1,861.93,814.09Zm-1,9.14a23.12,23.12,0,0,0-.83-3.33l1.1-.39a16.73,16.73,0,0,1,.83,3.33Zm3.5-.92a26.6,26.6,0,0,0,.84-3.06l1.14.32a17.67,17.67,0,0,1-1,3Zm4.52-7.61h4.24v1.1H868.9v-1.08a14.67,14.67,0,0,1-2.09,2.14l-.77-1a12.79,12.79,0,0,0,4.12-6h1.32a13.85,13.85,0,0,0,2.23,3.49,18.14,18.14,0,0,0,2.34,2.1l-.63,1.19a16,16,0,0,1-4.56-5.4A14.84,14.84,0,0,1,868.91,814.7Zm6,3v4.77a1.13,1.13,0,0,1-1.34,1.33c-.51,0-1,0-1.55-.08l-.25-1.21q1,.09,1.47.09c.22,0,.35-.05.39-.14a.72.72,0,0,0,.06-.36v-3.28h-2.74V826h-1.24v-7.22H867v-1.12Z"/><path d="M885.81,814.7a19.91,19.91,0,0,0,7.09,7.45l-.93,1.23a22.25,22.25,0,0,1-6.53-7.2V826h-1.38v-9.67a18.49,18.49,0,0,1-2.41,3.71,20.11,20.11,0,0,1-4,3.63l-.94-1.09a18.93,18.93,0,0,0,7-7.92h-6.58v-1.26h6.9v-3.55h1.38v3.55h7v1.26Z"/><path d="M603.34,942.55v-4.1h1.31v4.1h2.08v1.2h-2.08v6c.61-.22,1.24-.46,1.88-.72l.16,1.19a50.33,50.33,0,0,1-5.38,2l-.45-1.28c.89-.24,1.72-.48,2.48-.73v-6.45H601v-1.2Zm5.51-1.89v3.16h6.68l.72.72a20.6,20.6,0,0,1-1.61,4.42,13.35,13.35,0,0,1-1.08,1.68,13,13,0,0,0,3.69,2.59l-.75,1.23a14.81,14.81,0,0,1-3.76-2.83,16.06,16.06,0,0,1-3.76,2.92l-.81-1.06a11,11,0,0,0,3.27-2.26c.16-.15.33-.33.52-.54a14.78,14.78,0,0,1-2.54-5.72h-.57v.35a27.89,27.89,0,0,1-.4,5,11.86,11.86,0,0,1-1.55,4l-1-.94a10.54,10.54,0,0,0,1.4-3.76,29.25,29.25,0,0,0,.32-4.77v-5.41h9.25v1.19Zm3.89,9a13.34,13.34,0,0,0,2-4.72h-4.18A12.41,12.41,0,0,0,612.74,949.69Z"/><path d="M627.12,942.84a20.26,20.26,0,0,0,3.06,4,19.43,19.43,0,0,0,4,3.19l-.87,1.17a21.55,21.55,0,0,1-4.56-4.12,20.3,20.3,0,0,1-2.1-3.05v5.85H630v1.2h-3.35v3.44h-1.37v-3.44h-3.18v-1.2h3.21v-5.74a17.94,17.94,0,0,1-2.93,4.34,19.63,19.63,0,0,1-3.51,3.09l-.91-1.08a19.16,19.16,0,0,0,6.86-7.65h-6.47V941.6h6.93v-3.23h1.37v3.23h7v1.24Z"/><path d="M682.29,930.79h3.8v-3.31h1.36v3.31h6.12V932h-6.12V936h5.66v1.22h-5.66v4.47h6.93v1.22H679v-1.22h7.1V937.2h-5.64V936h5.64V932h-4.35a15.18,15.18,0,0,1-1.78,2.72l-1.09-.87a13.82,13.82,0,0,0,2.17-3.61,18.78,18.78,0,0,0,.72-2.31l1.34.29A26.13,26.13,0,0,1,682.29,930.79Z"/><path d="M704.29,929.1h6.78v1.12h-3.31a15.56,15.56,0,0,1-.88,2.17h4.5v1.09H698.2v1.6a31.37,31.37,0,0,1-.3,5.07,8.68,8.68,0,0,1-1.35,3.36l-1-1a7.73,7.73,0,0,0,1.15-3.36,28.74,28.74,0,0,0,.18-3.62v-3.17h3.42c-.26-.8-.53-1.52-.81-2.17h-3.28V929.1H703v-1.61h1.32Zm-2.93,6.69h2.9v-1.67h1.31v1.67h4.95v1.05h-4.95v1.94h4.37v1.06h-4.37V942h5.9v1.11H698.29V942h6v-2.12h-4.12v-1.06h4.12v-1.94h-3.39l-.08.13a9.53,9.53,0,0,1-1.23,1.75l-1-.81a9.53,9.53,0,0,0,2-3.77l1.28.25C701.69,934.93,701.52,935.39,701.36,935.79Zm-.53-5.57c.27.62.53,1.35.8,2.17h3.92a15.76,15.76,0,0,0,.83-2.17Z"/><path d="M682.54,953.68h8.33v1.16h-8.34v-1.15a19.71,19.71,0,0,1-3.34,1.88l-.76-1.07a15,15,0,0,0,7.28-6h1.49a17.54,17.54,0,0,0,4.44,4,26.39,26.39,0,0,0,3.11,1.56l-.72,1.18a24.89,24.89,0,0,1-3.65-2,20.79,20.79,0,0,1-3.89-3.55A14.86,14.86,0,0,1,682.54,953.68Zm3,4.73a32.74,32.74,0,0,1-2.63,4.26l1.66-.09q3.18-.15,6.16-.5c-.86-.93-1.62-1.7-2.27-2.31l1.07-.7a37.48,37.48,0,0,1,4.44,4.59l-1.17.86q-.76-1-1.23-1.5-5.74.79-11.59,1.08l-.44-1.33,1.18,0,.66,0a27.24,27.24,0,0,0,2.48-4.26l0-.06H678.8v-1.17h15.59v1.17Z"/><path d="M695.5,951.62h5.74v1.13H695.5Zm5.33,7.43v4.68h-3.64v.9H696v-5.58Zm-4.6-9.87h4.38v1.07h-4.38Zm0,4.94h4.4v1.07h-4.4Zm0,2.44h4.4v1.05h-4.4Zm1,3.58v2.5h2.46v-2.5Zm11.67.58c.5-.52.95-1,1.34-1.51l.9.67c-.65.76-1.24,1.4-1.79,1.93a5,5,0,0,0,.75,1.13c.15.15.26.23.33.23s.33-.58.42-1.75l1,.62c-.13,1.73-.5,2.59-1.1,2.59a1.72,1.72,0,0,1-1-.48,5.36,5.36,0,0,1-1.27-1.55,15.52,15.52,0,0,1-2.41,1.73l-.75-.89a14,14,0,0,0,2.65-1.85,11.57,11.57,0,0,1-.66-2.62h-2.39v1.15l.21,0c.56-.1,1.13-.22,1.7-.35l.06.94c-.41.11-1.07.27-2,.47v2.38a1.17,1.17,0,0,1-.27.86,1.43,1.43,0,0,1-1,.25,9.5,9.5,0,0,1-1.53-.11l-.21-1.1a9.71,9.71,0,0,0,1.46.14c.18,0,.29-.06.32-.19a.78.78,0,0,0,0-.24v-1.76q-1.44.25-2.37.39l-.28-1.09c.82-.08,1.7-.2,2.65-.35V959h-2.65v-1h2.65V957q-.76.13-1.77.24l-.43-.83a22.77,22.77,0,0,0,4.21-.86l.68.84c-.48.14-1,.27-1.52.38V958h2.26c-.07-.74-.12-1.51-.14-2.32h1.17c0,.74.08,1.51.16,2.32h3.33v1h-3.19A12.92,12.92,0,0,0,708.86,960.72ZM704,949.91a7.64,7.64,0,0,0-.67-1.12l1.11-.34a8.59,8.59,0,0,1,.8,1.46h2.13l.11-.21a9.93,9.93,0,0,0,.59-1.29l1.3.31c-.2.36-.44.75-.73,1.19h2.59v1h-4.3V952h3.73v1h-3.73v1.17h4.74v1H701.11v-1h4.59V953h-3.51v-1h3.51v-1.1h-4.17v-1Zm6.08,7.92a7.68,7.68,0,0,0-1.2-1.71l.93-.5a8.53,8.53,0,0,1,1.24,1.67Z"/><path d="M736.86,930.35h7.65v1.12h-7.65Zm6.87,7.43v4.67H738.9v.9h-1.28v-5.57ZM738,927.9h5.42V929H738Zm0,5h5.44v1.07H738Zm0,2.43h5.44v1.05H738Zm.94,3.58v2.5h3.57v-2.5Zm9.06-6V927.2h1.33v5.66h3.6v1.25h-3.6v9.24H748v-9.24h-3.67v-1.25Z"/><path d="M756,935.15a17.93,17.93,0,0,0-2.4-2.58l.93-.88a20.5,20.5,0,0,1,2.42,2.48Zm-2.12,7.15a25.49,25.49,0,0,0,2.58-5.75l1.07.73a28.58,28.58,0,0,1-2.56,6Zm2.6-11.46a16.82,16.82,0,0,0-2.33-2.54l.92-.84a15.71,15.71,0,0,1,2.36,2.43Zm.87,11.54a8.8,8.8,0,0,0,2-3l1.06.57a10.53,10.53,0,0,1-2.15,3.33ZM763.66,928v11H758.5V928Zm-4,1.1v2.2h2.87v-2.2Zm0,3.26v2.17h2.87v-2.17Zm0,3.18v2.32h2.87v-2.32Zm3.7,7.19a17.3,17.3,0,0,0-1.66-2.89l.94-.57a17.9,17.9,0,0,1,1.79,2.74Zm1.75-13.71h1.22V939.3H765.1Zm2.93-1.46h1.26v14.18a1.27,1.27,0,0,1-.43,1.1,2.14,2.14,0,0,1-1.22.26,17.53,17.53,0,0,1-2-.1l-.22-1.24c.94.07,1.63.11,2.06.11q.39,0,.48-.18a.76.76,0,0,0,.08-.39Z"/><path d="M743,956.48a45.5,45.5,0,0,0-4.51-1.68l.51-1.25a27.21,27.21,0,0,1,4.5,1.67Zm-3.42,5.22a20.46,20.46,0,0,0,4.89-.89,8.92,8.92,0,0,0,4.84-4,14.67,14.67,0,0,0,1.72-4.8l1.21.73a16,16,0,0,1-2.12,5.48,9.75,9.75,0,0,1-4.65,3.68A20.12,20.12,0,0,1,740,963Zm5.17-9.46a30.88,30.88,0,0,0-4.54-1.67l.42-1.2a22.33,22.33,0,0,1,4.56,1.62Z"/><path d="M755,950.23h9.71l.83.76a26.15,26.15,0,0,1-3.29,6,41.33,41.33,0,0,1,5.21,4.88l-1,1.12a53.47,53.47,0,0,0-5-5,18.21,18.21,0,0,1-6.78,5.08l-.78-1.2A16.7,16.7,0,0,0,760.6,957a18.93,18.93,0,0,0,3.3-5.56H755Z"/><path d="M809.78,935.08a20.58,20.58,0,0,1-2.58,5.13l-.75-1.28a19.14,19.14,0,0,0,3.16-6.32H806.7v-1.22h3.08v-3.74h1.32v3.74h2.16v1.22H811.1v1.56a23,23,0,0,1,2.83,2.57l-.78,1.16a25.22,25.22,0,0,0-2-2.29v8.19h-1.32Zm9-.88a17.82,17.82,0,0,1-5,6.38l-.92-1a16.61,16.61,0,0,0,3.21-3.17,17.7,17.7,0,0,0,2.26-3.84h-4.48v-1.2h5v-3.74h1.33v3.74h2.5v1.2h-2.5v9.57a1.45,1.45,0,0,1-.34,1.09,1.86,1.86,0,0,1-1.32.36c-.74,0-1.52-.05-2.34-.13l-.23-1.32a21.13,21.13,0,0,0,2.35.14c.26,0,.43-.07.49-.19a1,1,0,0,0,.06-.39Z"/><path d="M826.68,937.36a16,16,0,0,1-2.53,4.11l-.8-1.22A15.65,15.65,0,0,0,826.5,935h-2.9v-1.2h3.08v-6.18H828v6.18h2.52V935H828v.9l.2.17a27.09,27.09,0,0,1,2.27,2.2l-.82,1.21a23.21,23.21,0,0,0-1.65-2.06v6.34h-1.29Zm-1.95-4.29a31.16,31.16,0,0,0-.91-3.78l1.18-.39a23.14,23.14,0,0,1,.93,3.78Zm3.86-.41a24.7,24.7,0,0,0,1-4l1.24.32a21.26,21.26,0,0,1-1.24,4Zm8.66,5.84v5.3h-1.33v-5l-5.22,1-.2-1.2,5.42-1.05v-9.88h1.33v9.62l2.33-.44.1,1.2Zm-3.36-2a25.31,25.31,0,0,0-2.74-2.58l.78-.92a17.21,17.21,0,0,1,2.82,2.53Zm.25-3.87a20.12,20.12,0,0,0-2.78-2.66l.86-.9a17.73,17.73,0,0,1,2.82,2.59Z"/><path d="M815.21,951.89v10h7.44v1.26H806.5v-1.26h7.33v-10h-6.28v-1.22h14.06v1.22Z"/><path d="M832.17,951.57v1.72h4.76v1.05h-4.76v1.56h5.64V957h-5.64v1.66h7.47v1.11h-7.09a8.07,8.07,0,0,0,2.78,2.31,14.68,14.68,0,0,0,4.13,1.43l-.75,1.2a13.07,13.07,0,0,1-4.69-2,8.08,8.08,0,0,1-2.4-2.45c-1,2.31-3.36,3.82-7.08,4.51l-.7-1.14q5.34-.82,6.73-3.89H823.5v-1.11h7.36V957h-5.51V955.9h5.51v-1.56H826.2v-1.05h4.66v-1.72h-5.27v2.17h-1.33V950.5h6.6v-1.85h1.31v1.85h6.66v3.24h-1.31v-2.17Z"/><path d="M894.59,944.87H909v1.22h-6.22a11.41,11.41,0,0,1-1.12,5.13,7.3,7.3,0,0,1-3.59,2.81l-.87-1.09a6.12,6.12,0,0,0,3.49-2.85,10.59,10.59,0,0,0,.71-4h-6.8Zm1.82-4.57h9.23v1.2h-9.23Zm11,1.88a13.75,13.75,0,0,0-1.28-2.75l1-.31a12.91,12.91,0,0,1,1.29,2.72Zm2-.63a12.38,12.38,0,0,0-1.28-2.76l1-.28a10.92,10.92,0,0,1,1.31,2.68Z"/><path d="M916,946.92c-1.21-.54-2.71-1.09-4.51-1.68L912,944a26.45,26.45,0,0,1,4.51,1.67Zm-3.42,5.22a19.27,19.27,0,0,0,5.3-1,8.79,8.79,0,0,0,3.95-3.05,11.78,11.78,0,0,0,2-4.73l1.22.73a10.71,10.71,0,0,1-8.77,9,24.1,24.1,0,0,1-3.32.48Zm5.17-9.45a32.06,32.06,0,0,0-4.54-1.68l.42-1.19a21.55,21.55,0,0,1,4.56,1.61Zm4.64-.25a13.66,13.66,0,0,0-1.49-2.72l1-.39a12.53,12.53,0,0,1,1.5,2.7Zm2.19-.63a13.59,13.59,0,0,0-1.47-2.73l1-.35a11.6,11.6,0,0,1,1.5,2.65Z"/><path d="M927.3,940.67h12.94l.89.76a8,8,0,0,1-2.63,4.35,9.69,9.69,0,0,1-2.64,1.47l-.79-1a7.17,7.17,0,0,0,3.67-2.54,5.38,5.38,0,0,0,.85-1.81H927.3Zm5.53,3.09h1.33v1.39a14.38,14.38,0,0,1-.64,4.93,7,7,0,0,1-3.52,3.61l-1-1a6.39,6.39,0,0,0,2.71-2.25,5.66,5.66,0,0,0,.81-1.87,16.4,16.4,0,0,0,.29-3.4Z"/><path d="M949.19,939.28h1.35v3.87h6.31v1.22h-6.31V945a19.68,19.68,0,0,1-.26,3.68c-.49,2.39-2.06,4.19-4.71,5.42L944.7,953a7,7,0,0,0,3.72-3.14,7.62,7.62,0,0,0,.72-3c0-.49.05-1.09.05-1.82v-.63h-6.63v-1.22h6.63Z"/><path d="M967,941.57v1.72h4.75v1.05H967v1.56h5.63V947H967v1.67h7.47v1.11h-7.09a7.9,7.9,0,0,0,2.77,2.3,14.44,14.44,0,0,0,4.14,1.44l-.75,1.2a13.12,13.12,0,0,1-4.7-2,8.28,8.28,0,0,1-2.39-2.45c-1,2.31-3.36,3.82-7.09,4.51l-.7-1.14q5.34-.82,6.74-3.89h-7.08v-1.11h7.37V947h-5.52V945.9h5.52v-1.56H961v-1.05h4.66v-1.72h-5.27v2.17h-1.33V940.5h6.6v-1.85H967v1.85h6.66v3.24H972.3v-2.17Z"/><path d="M1214.43,943.35h3.8V940h1.36v3.32h6.12v1.24h-6.12v3.94h5.66v1.22h-5.66v4.48h6.92v1.22h-15.39v-1.22h7.11v-4.48h-5.65v-1.22h5.65v-3.94h-4.35a14.37,14.37,0,0,1-1.79,2.72l-1.08-.87a13.46,13.46,0,0,0,2.16-3.61,20.55,20.55,0,0,0,.73-2.31l1.34.29A26.37,26.37,0,0,1,1214.43,943.35Z"/><path d="M1236.42,941.65h6.79v1.12h-3.32A16.49,16.49,0,0,1,1239,945h4.49V946h-13.17v1.6a31.37,31.37,0,0,1-.3,5.07,8.58,8.58,0,0,1-1.35,3.35l-1-1a8,8,0,0,0,1.15-3.36,28.81,28.81,0,0,0,.18-3.63V945h3.42c-.26-.8-.53-1.53-.81-2.18h-3.28v-1.12h6.78V940h1.31Zm-2.93,6.69h2.91v-1.67h1.31v1.67h5v1.06h-5v1.94h4.37v1h-4.37v2.13h5.89v1.1h-13.17v-1.1h6v-2.13h-4.12v-1h4.12V949.4H1233l-.07.13a9.46,9.46,0,0,1-1.23,1.74l-1-.8a9.57,9.57,0,0,0,2-3.78l1.27.26A12.16,12.16,0,0,1,1233.49,948.34Zm-.52-5.57c.27.63.53,1.35.8,2.18h3.92a15.87,15.87,0,0,0,.83-2.18Z"/><path d="M1249.42,948.31a45.5,45.5,0,0,0-4.51-1.68l.5-1.24a26.14,26.14,0,0,1,4.51,1.67Zm-3.42,5.22a19.78,19.78,0,0,0,4.88-.89,8.89,8.89,0,0,0,4.85-4,15.05,15.05,0,0,0,1.72-4.81l1.21.73a16.08,16.08,0,0,1-2.12,5.48,9.82,9.82,0,0,1-4.65,3.69,20.59,20.59,0,0,1-5.5,1.12Zm5.17-9.45a30.88,30.88,0,0,0-4.54-1.68l.42-1.19a22,22,0,0,1,4.56,1.61Z"/><path d="M1261.42,942.06h9.71l.83.76a26.82,26.82,0,0,1-3.29,6,40.61,40.61,0,0,1,5.21,4.88l-1,1.12a54.8,54.8,0,0,0-5-5,18.06,18.06,0,0,1-6.79,5.08l-.78-1.2a16.73,16.73,0,0,0,6.68-4.86,19,19,0,0,0,3.3-5.57h-8.87Z"/><path d="M1284.27,943v1.71H1289v1.06h-4.76v1.56h5.64v1.05h-5.64V950h7.47v1.11h-7.09a8.22,8.22,0,0,0,2.77,2.3,14.55,14.55,0,0,0,4.14,1.44l-.75,1.2a13.12,13.12,0,0,1-4.7-2,8.28,8.28,0,0,1-2.39-2.45q-1.5,3.47-7.09,4.51l-.69-1.14c3.55-.55,5.8-1.85,6.73-3.89h-7.07V950H1283v-1.67h-5.51v-1.05H1283v-1.56h-4.66v-1.06H1283V943h-5.27v2.17h-1.33v-3.24h6.6V940h1.31v1.86h6.66v3.24h-1.31V943Z"/><path d="M1200.23,817.92h7.18v1.24h-5.2v6.28c0,.32.1.52.31.59a6.29,6.29,0,0,0,1.61.11,5.58,5.58,0,0,0,1.31-.1.79.79,0,0,0,.6-.7,14.53,14.53,0,0,0,.15-2l1.34.43a9.35,9.35,0,0,1-.32,2.59,1.46,1.46,0,0,1-1.18.91,11.52,11.52,0,0,1-2,.12,8.65,8.65,0,0,1-2.55-.22,1.19,1.19,0,0,1-.67-1.22v-6.8h-3a17.18,17.18,0,0,1-.36,3.92,5.44,5.44,0,0,1-1.78,3,8.54,8.54,0,0,1-3.44,1.59l-.76-1.12q3.18-.71,4.23-2.68a10.46,10.46,0,0,0,.72-4.49v-.2h-4.57v-1.24h7v-6.33h1.33Zm-4.92-.74a28.66,28.66,0,0,0-2.24-3.87l1.12-.65a23.58,23.58,0,0,1,2.32,3.79Zm7.09-.49a25.8,25.8,0,0,0,2.27-4.22l1.35.56a26.52,26.52,0,0,1-2.45,4.19Z"/><path d="M1210.58,815.18h1.12v-3.59h1.24v3.59h2.16v1.17h-2.16v3.54c.83-.3,1.57-.59,2.23-.85l.11,1.07c-.76.36-1.49.68-2.2,1l-.14.06v6.61h-1.24V821.6l-.19.07c-.83.3-1.67.58-2.54.84l-.44-1.23c1.12-.31,2.18-.63,3.17-1v-4h-1.31a20,20,0,0,1-.78,2.77l-1.08-.73a21,21,0,0,0,1.14-5.42l1.16.15C1210.74,814,1210.66,814.71,1210.58,815.18Zm10.26.55h-1.4l0,.18a17.1,17.1,0,0,1-1.62,4.13,12.92,12.92,0,0,1-2.67,3.3l-.93-.93a11.89,11.89,0,0,0,4.07-6.68H1217a12,12,0,0,1-1.66,2.63l-.8-1a12.89,12.89,0,0,0,2.51-5.76l1.32.25a16.93,16.93,0,0,1-.83,2.72h6.69c-.09,6-.3,9.77-.65,11.27a2.07,2.07,0,0,1-.9,1.46,3.25,3.25,0,0,1-1.47.26c-.55,0-1.18,0-1.88-.1l-.22-1.28a13.94,13.94,0,0,0,1.94.16,1.22,1.22,0,0,0,1-.38,4.37,4.37,0,0,0,.46-1.75c.17-1.35.31-4,.42-7.93v-.56h-1a23.86,23.86,0,0,1-1.32,5,14.53,14.53,0,0,1-2.93,4.58,21,21,0,0,1-1.67,1.54l-.93-.9a15.75,15.75,0,0,0,3.5-3.95A16.91,16.91,0,0,0,1220.84,815.73Z"/><path d="M1234.24,814.51v1.72H1239v1h-4.76v1.56h5.64v1.06h-5.64v1.67h7.47v1.1h-7.09a8.07,8.07,0,0,0,2.78,2.31,15,15,0,0,0,4.13,1.44l-.75,1.2a13,13,0,0,1-4.7-2,8.16,8.16,0,0,1-2.39-2.45q-1.5,3.48-7.08,4.51l-.7-1.14q5.34-.81,6.73-3.89h-7.07v-1.1h7.36V819.9h-5.51v-1.06h5.51v-1.56h-4.66v-1h4.66v-1.72h-5.27v2.18h-1.33v-3.25h6.6v-1.85h1.31v1.85h6.66v3.25h-1.31v-2.18Z"/><path d="M1128.49,917.81h9v1.36H1130v4.61h6.61v1.33H1130v5.08h7.63v1.39h-9.18Z"/><path d="M1140.35,917.81h4.12a8.38,8.38,0,0,1,4.73,1.22,5.89,5.89,0,0,1,1.91,2.06,7.32,7.32,0,0,1,.86,3.58,7.19,7.19,0,0,1-1.25,4.28c-1.27,1.76-3.4,2.63-6.38,2.63h-4Zm1.56,1.36v11h2.33a7.23,7.23,0,0,0,3.82-.92,4.42,4.42,0,0,0,1.76-2.09,6.37,6.37,0,0,0,.46-2.5q0-3.3-2.22-4.65a7.16,7.16,0,0,0-3.72-.88Z"/><path d="M1120,939.15h1.35v2.91a32.18,32.18,0,0,1-.19,4.08,9.75,9.75,0,0,1-.83,3,8.33,8.33,0,0,1-3,3.33l-.91-1.06a7.38,7.38,0,0,0,3-3.66,18.3,18.3,0,0,0,.63-5.61Zm4.14-.47h1.34v12.09a9.31,9.31,0,0,0,3.07-2.32,11.06,11.06,0,0,0,2.29-4.32l1,1.06a12.09,12.09,0,0,1-2.58,4.5,12.29,12.29,0,0,1-4.15,2.83l-1-.86Z"/><path d="M1133.34,944.73h14.33V946h-14.33Z"/><path d="M1149.34,950.44c.36,0,.82,0,1.38-.08a89.09,89.09,0,0,0,4.31-11.61l1.36.4a89.61,89.61,0,0,1-4.21,11.11c3-.23,5.77-.52,8.36-.87a39.22,39.22,0,0,0-2.5-4l1.14-.7a43.4,43.4,0,0,1,4.24,7l-1.33.72,0,0c-.25-.54-.52-1.09-.81-1.67l-.1-.19q-4.05.69-11.49,1.42Z"/><path d="M1139.07,959.75h1.6l5.45,13.83h-1.73l-1.54-4.05h-6l-1.54,4.05h-1.73Zm3.32,8.46L1141,964.4a24.5,24.5,0,0,1-1-3h-.07a30,30,0,0,1-1,3l-1.44,3.81Z"/><path d="M1066.55,935.9q-1.82-.79-4.51-1.67l.51-1.25a27,27,0,0,1,4.51,1.67Zm-3.42,5.22a20.51,20.51,0,0,0,4.89-.88,8.94,8.94,0,0,0,4.85-4,15,15,0,0,0,1.72-4.81l1.21.73a16,16,0,0,1-2.13,5.48,9.73,9.73,0,0,1-4.65,3.69,20,20,0,0,1-5.5,1.12Zm5.17-9.45a32.06,32.06,0,0,0-4.54-1.68l.43-1.19a21.1,21.1,0,0,1,4.55,1.62Z"/><path d="M1078.55,929.65h9.72l.83.77a27,27,0,0,1-3.3,6,40.66,40.66,0,0,1,5.21,4.88l-1,1.12a51.15,51.15,0,0,0-5-5,18.32,18.32,0,0,1-6.78,5.08l-.78-1.21a16.51,16.51,0,0,0,6.67-4.86,18.89,18.89,0,0,0,3.31-5.56h-8.88Z"/><path d="M1056.25,951v-2.4h1.28V951h3.66v1.1h-3.66v2.06h4.39v1.12h-4.39v1.85h3.58v4.45a1.09,1.09,0,0,1-.4.95,1.69,1.69,0,0,1-.91.19,12.3,12.3,0,0,1-1.42-.09l-.23-1.2a9.08,9.08,0,0,0,1.42.13.28.28,0,0,0,.32-.31v-3h-2.36v6.52h-1.28v-6.52H1054v4.8h-1.22v-5.89h3.47v-1.85h-4.47v-1.12h4.47v-2.06h-2.33a9.7,9.7,0,0,1-1,1.57l-1-.68a10.18,10.18,0,0,0,1.73-3.75l1.22.23q-.21.75-.48,1.53Zm6.25-1.07h1.26v10.51h-1.26Zm3.36-.86h1.28v14a1.31,1.31,0,0,1-.45,1.13,2,2,0,0,1-1.25.31c-.63,0-1.37,0-2.2-.12l-.27-1.31a20.21,20.21,0,0,0,2.34.17c.27,0,.44-.07.49-.19a1,1,0,0,0,.06-.4Z"/><path d="M1071.84,955.43v9.35h-1.22v-7.6a20.91,20.91,0,0,1-1.4,1.57l-.64-1.25a16.4,16.4,0,0,0,3.44-4.86l1,.63A21.6,21.6,0,0,1,1071.84,955.43Zm-3.16-3a12.37,12.37,0,0,0,3-3.81l1.15.56a14.9,14.9,0,0,1-3.45,4.29Zm8.48-1v2.6h2.73v1.15h-2.73v2.18h2.46v1.12h-2.46v3.2l.58-.14c.79-.2,1.49-.39,2.1-.56l.11,1.09a70.43,70.43,0,0,1-7.12,1.84l-.52-1.22.89-.16.32-.06v-5.55h1.16v5.32l1.14-.25.15,0V955.2h-3.13v-1.15H1076v-2.6h-1.09a9.4,9.4,0,0,1-1.11,1.77l-.91-.78a9.93,9.93,0,0,0,1.71-3.75l1.18.29a13.15,13.15,0,0,1-.41,1.35h4.16v1.12Zm7.43-1.19v10.37c0,.73-.38,1.09-1.13,1.09a8.53,8.53,0,0,1-1.21-.09l-.28-1.26a6.63,6.63,0,0,0,1.07.1c.18,0,.29,0,.32-.14a.83.83,0,0,0,0-.31v-8.54h-1.82v13.3h-1.2V950.26Z"/><path d="M1094.43,951.55v1.72h4.76v1.05h-4.76v1.56h5.64v1.06h-5.64v1.66h7.47v1.11h-7.08a7.94,7.94,0,0,0,2.77,2.31,14.68,14.68,0,0,0,4.13,1.43l-.75,1.21a13.09,13.09,0,0,1-4.69-2,7.93,7.93,0,0,1-2.39-2.45c-1,2.31-3.37,3.82-7.09,4.51l-.7-1.14c3.56-.55,5.8-1.84,6.73-3.89h-7.07V958.6h7.36v-1.66h-5.51v-1.06h5.51v-1.56h-4.66v-1.05h4.66v-1.72h-5.27v2.17h-1.33v-3.24h6.6v-1.85h1.31v1.85h6.66v3.24h-1.31v-2.17Z"/><path d="M1111.5,126.35v12h-1.28v-9.29a22.59,22.59,0,0,1-1.58,2.45l-.68-1.23a19,19,0,0,0,2.46-4.59c.36-1,.72-2.15,1.08-3.52l1.27.32A36,36,0,0,1,1111.5,126.35Zm3.88,4.94-.18.34a15.5,15.5,0,0,1-2.8,3.7l-.86-1a15.65,15.65,0,0,0,3.22-4.7,23,23,0,0,0,1.08-3.23h-3.22v-1.19h3.5c.18-.81.34-1.8.49-3l1.33.17c-.16,1.12-.32,2-.48,2.8h6.59v1.19h-6.87A22,22,0,0,1,1116,130l-.07.18h7.33v1.13h-3.69v5h4.72v1.21h-11v-1.21h5v-5Z"/><path d="M1130.8,126.4V137a1.4,1.4,0,0,1-.37,1.15,1.75,1.75,0,0,1-1,.22q-.84,0-1.44-.06l-.22-1.15a8.94,8.94,0,0,0,1.24.09,1.17,1.17,0,0,0,.55-.07.39.39,0,0,0,.12-.33v-3.36h-2.32a14.35,14.35,0,0,1-.3,2.51,8.36,8.36,0,0,1-1,2.42l-.93-.86a8.35,8.35,0,0,0,1-3.15c.05-.5.08-1.08.08-1.73V126.4Zm-1-2.79v-1.39h1.31v1.39h4.1v-1.39h1.32v1.39h4.61v1.11h-4.61v.89h-1.32v-.89h-4.1v1.14h-1.31v-1.14h-4.46v-1.11Zm-2.45,3.88v1.92h2.32v-1.92Zm0,2.91v2h2.32v-2Zm10.5,1.17h-3.35a13.18,13.18,0,0,1-1,1.18,9.51,9.51,0,0,1,1.1,1.1l-.81.8c-.47-.52-.85-.91-1.13-1.17-.24.2-.6.46-1.07.78l-.73-.88a10.15,10.15,0,0,0,2.21-1.81h-1.77v-1h2.52a9.56,9.56,0,0,0,.67-1.31l0-.1h-2.89v-1h1.31a9.23,9.23,0,0,0-.87-1.46l1.09-.44a17.64,17.64,0,0,1,.95,1.9h.75a16.61,16.61,0,0,0,.49-2.31l1.21.1c-.14.84-.29,1.58-.46,2.21h1.2a11.61,11.61,0,0,0,1.17-2l1.15.43a18,18,0,0,1-1,1.58h2v1h-3a8.2,8.2,0,0,0,.93,1.41h2.73v1h-1.76a10.1,10.1,0,0,0,2,1.35l-.78,1c-.43-.27-.8-.52-1.12-.74a7.86,7.86,0,0,1-1.31,1.38l-.81-.71a8,8,0,0,0,1.25-1.39A7.82,7.82,0,0,1,1137.83,131.57Zm-6.64,4.91a16.29,16.29,0,0,0,3.22-1.7l.32.95a17.37,17.37,0,0,1-3,1.79Zm4.21-4.35h1.21v5.06a1.29,1.29,0,0,1-.24.88,1.26,1.26,0,0,1-1,.29,12.3,12.3,0,0,1-1.52-.09l-.2-1.14a9,9,0,0,0,1.36.11c.18,0,.28-.05.32-.15a.94.94,0,0,0,.05-.34Zm1.69-1.56a9.64,9.64,0,0,1-.75-1.41h-.56a11.4,11.4,0,0,1-.65,1.41Zm3.08,7a24.65,24.65,0,0,0-3.11-2l.63-.84a28,28,0,0,1,3.22,1.89Z"/><path d="M1172.06,115.38v-.92h-5v-.94h11.38v.94h-5.14v.92h6.59v3h-1.25v-2h-5.34v3.57h-1.21v-3.57h-5.26v2h-1.23v-2.94Zm1.16,10.27v.78c0,.28.09.45.29.51a11.8,11.8,0,0,0,2.26.13,18.06,18.06,0,0,0,2.78-.12.63.63,0,0,0,.5-.55,10.19,10.19,0,0,0,.12-1.34l1.17.43a3.84,3.84,0,0,1-.43,2.12,1.36,1.36,0,0,1-.91.4,28.17,28.17,0,0,1-3.37.15,18.55,18.55,0,0,1-2.77-.12.94.94,0,0,1-.76-.55,1.83,1.83,0,0,1-.09-.63v-1.21h-3.94v.81h-1.25V120.4h11.68v5.25Zm-5.52-8.56h3.52v.83h-3.52Zm0,1.59h3.52v.79h-3.52Zm4.31,2.67h-3.94v1.15H1172Zm0,2.11h-3.94v1.25H1172Zm1.21-2.11v1.15h4v-1.15Zm0,2.11v1.25h4v-1.25Zm.9-6.37h3.63v.83h-3.63Zm0,1.59h3.63v.79h-3.63Z"/><path d="M1181,121a23.82,23.82,0,0,0,.64-4.57l1,.12a23.3,23.3,0,0,1-.68,5Zm2.18-7.89h1.22v15.21h-1.22Zm2.18,4.93a13.12,13.12,0,0,0-.93-2.43l.76-.61a12.13,12.13,0,0,1,1,2.29Zm6.15-3.78h4.24v.93h-4.24v1h3.63V117h-3.63v1h4.86v1h-10.73v-1h4.67v-1h-3.52v-.91h3.52v-1h-4.09v-.93h4.09v-1.15h1.2Zm3.38,5.82v7a1.18,1.18,0,0,1-.32.91,1.41,1.41,0,0,1-1,.28c-.47,0-1.08,0-1.84-.08l-.2-1.1a16.34,16.34,0,0,0,1.7.11c.19,0,.32,0,.37-.12a.66.66,0,0,0,.07-.34v-1.52h-5.44v3.13H1187V120Zm-6.66.89v1.14h5.44v-1.14Zm0,2.07v1.19h5.44V123Z"/><path d="M1167.27,141.63a19.21,19.21,0,0,0-2.32-2.45l.86-.83a17,17,0,0,1,2.37,2.35Zm-2,6.6a24.78,24.78,0,0,0,2.65-5.29l1,.72a23.37,23.37,0,0,1-2.61,5.5Zm2.46-10.66a17.33,17.33,0,0,0-2.29-2.46l.88-.81a15.86,15.86,0,0,1,2.32,2.37Zm.47,10.76a14.49,14.49,0,0,0,4-2l.9.79a16.56,16.56,0,0,1-4.13,2.17Zm6.65-12.47H1180v3.08h-1.22v-2.05H1170v2.05h-1.2v-3.08h4.81v-1.79h1.22Zm0,4.49h4v5.77h-9v-5.77h3.83v-1.27h-3v-1h7.55v1h-3.34Zm-1.18,2.33v-1.36H1171v1.36Zm0,2.45v-1.5H1171v1.5Zm1.18-3.81v1.36h2.79v-1.36Zm0,2.31v1.5h2.79v-1.5Zm4.54,5.59a34,34,0,0,0-4-2.14l.89-.76a27,27,0,0,1,4.07,2Z"/><path d="M1186.2,148.15v-1.29c.48-1.73,1.82-3.33,4-4.8l.44-.31a14.23,14.23,0,0,0,1.93-1.46,2.59,2.59,0,0,0,.88-1.87,1.93,1.93,0,0,0-.72-1.56,3,3,0,0,0-2-.65,4.4,4.4,0,0,0-3.39,1.68l-1-.87a5.35,5.35,0,0,1,4.41-2.07,5.09,5.09,0,0,1,2.62.65,3.16,3.16,0,0,1,1.7,2.88,3.27,3.27,0,0,1-1.07,2.39,19.69,19.69,0,0,1-2.1,1.59l-.26.19-.56.39c-2,1.34-3.08,2.6-3.34,3.75h7.5v1.36Z"/><path d="M1054.41,130.56a19.76,19.76,0,0,1-2.1,4.63l-.59-1.36a18.94,18.94,0,0,0,2.55-6.15h-2.35v-1.19h2.49v-3.6h1.24v3.6h1.84v1.19h-1.84v1.64a24.46,24.46,0,0,1,2.18,2l-.73,1.11a21.81,21.81,0,0,0-1.45-1.73V139h-1.24Zm5.81.75V139H1059v-5.89a14.83,14.83,0,0,1-1.59,1.73l-.71-1.07a14.13,14.13,0,0,0,3.52-5.26l1.15.46A20.05,20.05,0,0,1,1060.22,131.31Zm-.62-6.32v-2h1.21v2h2.93v-2H1065v2h3v1.16h-3v2h-1.25v-2h-2.93v2h-1.21v-2H1057V125Zm2.94,7.49V128.8h1.25v3a18,18,0,0,0,3-2.17l.88.94a21.57,21.57,0,0,1-3.7,2.46l-.15.09v3.7c0,.27.07.44.22.51a3.18,3.18,0,0,0,1,.1,3.73,3.73,0,0,0,1.15-.12c.2-.07.34-.33.42-.79,0-.24.09-.84.13-1.81l1.19.57a9.26,9.26,0,0,1-.37,2.61,1.27,1.27,0,0,1-1,.72,8.19,8.19,0,0,1-1.56.11,4.31,4.31,0,0,1-2.12-.32,1.14,1.14,0,0,1-.39-1v-3.66l-.24.12-.76.36-.67-1C1061.59,133,1062.15,132.69,1062.54,132.48Z"/><path d="M1071.57,131a19.11,19.11,0,0,0-2.74-2.62l.88-1a16.37,16.37,0,0,1,2.85,2.55Zm-2.3,6.87a23.74,23.74,0,0,0,3.1-5.47l1.07.86a27,27,0,0,1-3.06,5.66Zm3.1-11.2a19.8,19.8,0,0,0-2.69-2.61l.89-.93a17.26,17.26,0,0,1,2.74,2.52Zm7.88,3.9a12.82,12.82,0,0,0,1.31,3.64,10,10,0,0,0,3.5,3.6l-.86,1.24a12.46,12.46,0,0,1-3.39-3.53,15,15,0,0,1-1.87-4.95h-2.65a20.43,20.43,0,0,1-.53,4.15,12.6,12.6,0,0,1-2.07,4.4L1072.6,138a9.86,9.86,0,0,0,1.9-3.88,17.23,17.23,0,0,0,.47-4.2V123.7h8.87v6.83Zm2.25-5.68h-6.21v4.51h6.21Z"/><rect class="cls-4" x="328.5" y="141.5" width="23" height="23"/><path d="M367.78,147v1.61h4.48v1h-4.48v1.46h5.31v1h-5.31v1.57h7v1h-6.68a7.79,7.79,0,0,0,2.61,2.17,13.74,13.74,0,0,0,3.89,1.35l-.7,1.13a12.27,12.27,0,0,1-4.42-1.86,7.55,7.55,0,0,1-2.25-2.3c-.94,2.18-3.17,3.59-6.67,4.24l-.66-1.07q5-.78,6.34-3.66h-6.66v-1h6.93v-1.57h-5.19v-1h5.19v-1.46h-4.38v-1h4.38V147h-5v2h-1.25v-3h6.21v-1.74h1.23V146h6.27v3h-1.23v-2Z"/><path d="M375.43,157.67a19.68,19.68,0,0,0,.61-3.76l.92.16a20.51,20.51,0,0,1-.57,4.21Zm7.14-5.7a37.6,37.6,0,0,1-.43,6.16,1.75,1.75,0,0,1-.52,1,1.67,1.67,0,0,1-1.09.29c-.43,0-.95,0-1.55-.1l-.17-1.15a8.65,8.65,0,0,0,1.54.16.69.69,0,0,0,.62-.23c.27-.45.43-2.1.49-5V153H376.2v-8.12h6.5v1h-2.49v1.38h2v1h-2v1.39h2v1h-2V152Zm-5.07,5.62a34.51,34.51,0,0,0-.19-3.45l.78-.17a33,33,0,0,1,.34,3.39Zm-.17-11.73v1.38h1.78v-1.38Zm0,2.34v1.39h1.78V148.2Zm0,2.35V152h1.78v-1.42Zm1.74,6.64a28.15,28.15,0,0,0-.5-3.23l.72-.23a21,21,0,0,1,.6,3.19Zm1.36-.53a23,23,0,0,0-.68-3l.72-.25a17,17,0,0,1,.72,2.91Zm6.21-1.3a6.84,6.84,0,0,1-3.46,4.15l-.79-1a5.84,5.84,0,0,0,3.46-4h-2.72v-4.12h2.8v-1.53h-1.41v-.52a10.71,10.71,0,0,1-1.68,1.56l-.7-1a9.51,9.51,0,0,0,3.6-4.66h1.34a11.79,11.79,0,0,0,4,4.46l-.66,1a13.92,13.92,0,0,1-1.82-1.54v.64h-1.51v1.53H390v4.12h-2.7a9,9,0,0,0,3.63,3.85l-.7,1A9,9,0,0,1,386.64,155.36Zm-.68-4H384.2v2.15H386Zm2.27-3.55a12.21,12.21,0,0,1-1.8-2.59,10.91,10.91,0,0,1-1.49,2.59Zm-1.18,3.55v2.15h1.86v-2.15Z"/><path d="M399.24,150.4a1.4,1.4,0,0,1,1,.47,1.37,1.37,0,0,1,.39,1,1.41,1.41,0,0,1-.23.76,1.41,1.41,0,0,1-1.88.51,1.36,1.36,0,0,1-.78-1.29,1.38,1.38,0,0,1,.61-1.16A1.43,1.43,0,0,1,399.24,150.4Z"/><path d="M409.85,151.8a19.17,19.17,0,0,0-2.32-2.45l.86-.83a17,17,0,0,1,2.37,2.35Zm-2,6.6a24.53,24.53,0,0,0,2.65-5.29l1,.72a23.37,23.37,0,0,1-2.61,5.5Zm2.46-10.65a17.33,17.33,0,0,0-2.29-2.46l.88-.82a15.39,15.39,0,0,1,2.32,2.37Zm.47,10.75a14.49,14.49,0,0,0,4-2l.9.8a16.67,16.67,0,0,1-4.13,2.16ZM417.43,146h5.12v3.07h-1.22v-2.05H412.6v2.05h-1.2V146h4.81v-1.79h1.22Zm0,4.48h4v5.77h-9v-5.77h3.84v-1.27h-3v-1h7.55v1h-3.34Zm-1.17,2.34V151.5H413.6v1.36Zm0,2.44v-1.5H413.6v1.5Zm1.17-3.8v1.36h2.79V151.5Zm0,2.3v1.5h2.79v-1.5Zm4.54,5.59a34.57,34.57,0,0,0-4-2.14l.88-.76a28.57,28.57,0,0,1,4.08,2Z"/><path d="M424,150.39a30.42,30.42,0,0,0,4.91-1.79l.14,1a36.82,36.82,0,0,1-4.56,1.85Zm6.65-5.55v6.28l1.09.23a9.17,9.17,0,0,1-.52,1H437v7.12h-1.26v-.75h-8.86v.75h-1.25v-7.12h4.29a9.83,9.83,0,0,0,.43-1h-.92v-5.44h-5.27v-1Zm-3.21,3.63a19.11,19.11,0,0,0-2.83-1.41l.75-.85a20,20,0,0,1,2.83,1.35Zm-.54,4.85v1.58h8.86v-1.58Zm0,2.56v1.79h8.86v-1.79Zm11.07-11v6.56h-1.19v-5.54h-5.52v-1Zm-6.66,5.09a34.39,34.39,0,0,0,4.69-1.62l.21.94a44.66,44.66,0,0,1-4.37,1.7Zm3.27-1.54a22.28,22.28,0,0,0-2.89-1.39l.63-.83a18,18,0,0,1,2.93,1.37Z"/><path d="M446,149.48a.37.37,0,0,0-.06.1,16.72,16.72,0,0,1-1.73,2.2h.8c1.2,0,2.59-.07,4.18-.14l1.77-.08c-.53-.5-1.06-1-1.6-1.43l1-.58a37.46,37.46,0,0,1,3,2.69l.41.41-1,.75c-.31-.34-.59-.65-.84-.91l-.11-.11c-.29,0-1.63.12-4,.27v2.07h5.5v1h-5.5v2.07h6.82v1H439.82v-1h6.71v-2.07h-5.37v-1h5.37v-2l-.85,0c-1.28.06-2.7.1-4.26.14l-.39-1.07,1.78,0a18.29,18.29,0,0,0,1.76-2.32H442v-1h10.44v1Zm1.79-3.54h6.37v3H452.9v-2H441.5v2h-1.25v-3h6.28v-1.69h1.25Z"/><rect class="cls-2" x="328.5" y="174.5" width="23" height="23"/><path d="M362.11,184.5h3.28v7.09h-3.24V193h-1.1v-6.37a18.43,18.43,0,0,1-1,1.54L359.4,187a13.37,13.37,0,0,0,2.12-4.07,18.57,18.57,0,0,0,.69-2.62H360v-1.11h5.74v1.11h-2.34A19.19,19.19,0,0,1,362.11,184.5Zm0,1.07v5h2.17v-5Zm10.53-5.46v4.61h2.13v1.1h-2.13v7.59H371.5v-7.59H369a15.18,15.18,0,0,1-.57,4.43,9.35,9.35,0,0,1-1.75,3.21l-1.06-.8q2.12-2.06,2.19-6.84h-1.91v-1.1h1.92v-4.61h-1.33V179h7.84v1.1Zm-1.18,0H369v4.61h2.47Z"/><path d="M385.35,181v2.58c0,.26.1.41.3.46a4.67,4.67,0,0,0,.94.06c.88,0,1.39-.07,1.51-.22a2.5,2.5,0,0,0,.18-1.2l1.18.45a2.78,2.78,0,0,1-.41,1.57,4.51,4.51,0,0,1-2.58.43,4.91,4.91,0,0,1-2-.23c-.25-.15-.37-.46-.37-.94v-3h-6.65v2.24h-1.23V180h6.3v-1.71h1.25V180h6.4v2.65h-1.25V181Zm-2.47,5.6h4.2l-.29,4.69c0,.06,0,.11,0,.15,0,.26.1.42.29.47a3.4,3.4,0,0,0,.9.07,4.45,4.45,0,0,0,1.16-.09c.2-.07.33-.31.39-.7a14.31,14.31,0,0,0,.15-1.58l1.18.43c0,.08,0,.31,0,.68a5.89,5.89,0,0,1-.21,1.37,1.27,1.27,0,0,1-1,.93,9.9,9.9,0,0,1-1.76.11,3.82,3.82,0,0,1-2-.32,1,1,0,0,1-.38-.85.57.57,0,0,1,0-.12l.27-4.18H382.7a6.46,6.46,0,0,1-1.81,3.58,10.53,10.53,0,0,1-3.75,2.16l-.77-1a8.68,8.68,0,0,0,3.51-1.84,5.78,5.78,0,0,0,1.55-2.88H377v-1.06h4.58l.21-2.06,1.25.08Zm-6.27-2a6.57,6.57,0,0,0,3-1.22,4,4,0,0,0,1.2-2.09l1.13.39a4.68,4.68,0,0,1-2.09,3,7.82,7.82,0,0,1-2.49.91Z"/><path d="M398,183.48a.37.37,0,0,0-.06.1,16.72,16.72,0,0,1-1.73,2.2h.8c1.2,0,2.59-.07,4.18-.14l1.77-.08c-.53-.5-1.06-1-1.6-1.43l1-.58a37.46,37.46,0,0,1,3,2.69l.41.41-1,.75c-.31-.34-.59-.65-.84-.91l-.11-.11c-.29,0-1.63.12-4,.27v2.07h5.5v1h-5.5v2.07h6.82v1H391.82v-1h6.71v-2.07h-5.37v-1h5.37v-2l-.85,0c-1.28.06-2.7.1-4.26.14l-.39-1.07,1.78,0a18.29,18.29,0,0,0,1.76-2.32H394v-1h10.44v1Zm1.79-3.54h6.37v3H404.9v-2H393.5v2h-1.25v-3h6.28v-1.69h1.25Z"/><rect x="328.78" y="208" width="22" height="22" rx="2"/><rect class="cls-5" x="328.78" y="208" width="22" height="22" rx="2"/><polygon class="cls-1" points="343.16 212.23 343.16 215.87 339.12 215.87 339.12 219.52 335.07 219.52 335.07 223.16 331.96 223.16 331.96 225.04 336.94 225.04 336.94 221.39 340.99 221.39 340.99 217.75 345.04 217.75 345.04 214.1 348.15 214.1 348.15 212.23 343.16 212.23"/><path d="M360,212.44h3.59l.63.56a35.09,35.09,0,0,1-1.42,4.44,6.79,6.79,0,0,1,1.15,2.24,6.59,6.59,0,0,1,.31,2,3.65,3.65,0,0,1-.18,1.29,1.32,1.32,0,0,1-1.38.77,5.07,5.07,0,0,1-.94-.09l-.28-1.15a6,6,0,0,0,1,.1c.29,0,.46-.1.52-.28a2.63,2.63,0,0,0,.08-.81,6.31,6.31,0,0,0-1.42-3.92,26.27,26.27,0,0,0,1.24-4h-1.77v13.53H360Zm5,4.95V212h1.17v1.82h2.87v1h-2.87v2.28c.89-.18,1.82-.41,2.8-.68l.08,1a35.87,35.87,0,0,1-4.86,1.21l-.39-1.07Zm2.95,2.26a8.87,8.87,0,0,0,.49-1.51l1.18.21a8.69,8.69,0,0,1-.53,1.3h4.53v7.4h-1.23v-.86h-6.08v.86h-1.23v-7.4Zm-1.64,1v1.73h6.08v-1.73Zm0,2.7v1.85h6.08v-1.85Zm4.37-9.41a15.79,15.79,0,0,0,2.9-1.14l.75,1a20,20,0,0,1-3.65,1.19v1.8c0,.28.09.45.26.49a4.75,4.75,0,0,0,1,.07,5.5,5.5,0,0,0,1.11-.07c.22-.06.36-.26.43-.61a9.46,9.46,0,0,0,.11-1.16l1.09.37c0,.11,0,.28,0,.49a4.25,4.25,0,0,1-.22,1.28,1.11,1.11,0,0,1-1,.67,14,14,0,0,1-1.75.08,4,4,0,0,1-1.81-.25,1.09,1.09,0,0,1-.42-1v-5.2h1.15Z"/><path d="M376.91,213.05a20.26,20.26,0,0,0,4.51-1.1l.8.93a25.22,25.22,0,0,1-4.11,1V216h3.37v1.05h-3.37v2.21h3.37v1h-3.37v2.64c1.33-.19,2.55-.4,3.66-.62l.07,1c-.85.19-1.88.4-3.11.62l-.62.12v3h-1.2v-2.8l-1.06.16-.37-1.17,1.43-.17Zm9.25,11.53a15.36,15.36,0,0,1-4.07,2.54l-.83-1a13.78,13.78,0,0,0,4.07-2.35l-.08-.09a12.41,12.41,0,0,1-2.33-3.54h-.7v-1H389l.7.59a13.58,13.58,0,0,1-2.69,4.05,16.08,16.08,0,0,0,3.75,2.14l-.72,1.12A16.09,16.09,0,0,1,386.16,224.58Zm-2.84-12.1H388v4a.38.38,0,0,0,.09.3.79.79,0,0,0,.41.07c.49,0,.76-.06.82-.18a7.23,7.23,0,0,0,.16-1.75l1.1.44a8.14,8.14,0,0,1-.23,2,.94.94,0,0,1-.64.57,5.36,5.36,0,0,1-1.23.11,2.71,2.71,0,0,1-1.32-.21.87.87,0,0,1-.33-.79v-3.46h-2.36v.13a9.11,9.11,0,0,1-.39,3,3.86,3.86,0,0,1-1.41,1.8l-.85-.88a2.94,2.94,0,0,0,1.33-1.86,8.86,8.86,0,0,0,.19-2.08Zm.79,7.67a11.62,11.62,0,0,0,2.05,2.83,10.29,10.29,0,0,0,1.95-2.83Z"/><rect x="328.58" y="240.92" width="22.42" height="22.42" rx="2"/><rect class="cls-5" x="328.58" y="240.92" width="22.42" height="22.42" rx="2"/><path class="cls-1" d="M337,250.38a.81.81,0,1,0,0,1.62.81.81,0,0,0,0-1.62Z"/><path class="cls-1" d="M342,250.38a.81.81,0,1,0,.81.81A.81.81,0,0,0,342,250.38Z"/><path class="cls-1" d="M344.83,247.14H334.18a1.48,1.48,0,0,0-1.48,1.48V260a1.49,1.49,0,0,0,1.48,1.49h10.65a1.49,1.49,0,0,0,1.48-1.49V248.62A1.48,1.48,0,0,0,344.83,247.14Zm-8,13.42s0,0,0-.05l.17-3.72.16,3.72s0,0,0,.05Zm5,0s0,0,0-.05l.16-3.72.17,3.72a.09.09,0,0,0,0,.05Zm3.56-.55a.54.54,0,0,1-.54.55H343s0,0,0-.05l.16-6,.15,1.62a.31.31,0,0,0,.33.3.31.31,0,0,0,.3-.33v-2.67c0-1.12-1.35-1.18-1.93-1.18s-1.93.06-1.93,1.18v2.67a.31.31,0,0,0,.3.33.31.31,0,0,0,.33-.3l.15-1.62.16,6s0,0,0,.05h-3a.09.09,0,0,0,0-.05l.17-6,.15,1.62a.3.3,0,0,0,.33.3.31.31,0,0,0,.3-.33v-2.67c0-1.12-1.36-1.18-1.93-1.18s-1.94.06-1.94,1.18v2.67a.32.32,0,0,0,.31.33.31.31,0,0,0,.33-.3l.15-1.62.16,6s0,0,0,.05h-1.87a.54.54,0,0,1-.54-.55V248.62a.55.55,0,0,1,.54-.55h10.65a.55.55,0,0,1,.54.55V260Z"/><path class="cls-1" d="M340.66,244.7l1.12-1.11v2.5a.41.41,0,0,0,.82,0v-2.5l1.11,1.11a.42.42,0,0,0,.3.12.42.42,0,0,0,.29-.12.42.42,0,0,0,0-.59l-1.82-1.81-.29-.3-.29.3-1.82,1.81a.42.42,0,0,0,0,.59A.41.41,0,0,0,340.66,244.7Z"/><path class="cls-1" d="M336.72,246.38l.29.29.29-.29,1.82-1.82a.41.41,0,1,0-.58-.58l-1.11,1.11v-2.5a.41.41,0,0,0-.42-.41.41.41,0,0,0-.41.41v2.5L335.49,244a.42.42,0,0,0-.59,0,.41.41,0,0,0,0,.58Z"/><path d="M361.16,246.7h11.41v1.18h-5.14v8.71h6v1.15H360.25v-1.15h5.9v-8.71h-5Z"/><path d="M375.64,245.28H377v11.93a16.67,16.67,0,0,0,6.41-3.6,13.66,13.66,0,0,0,3-3.71l.83,1.23a17,17,0,0,1-4.16,4.39,21,21,0,0,1-6.54,3.23l-.88-.88Z"/><path d="M388.44,255.07a28.78,28.78,0,0,0,4.73-7.84h1.41a43.57,43.57,0,0,0,7.63,9.26l-.81,1.13a50.39,50.39,0,0,1-4.42-4.8,42.94,42.94,0,0,1-3-4.2h-.07a28.55,28.55,0,0,1-4.45,7.36Zm10.24-5.55a11.69,11.69,0,0,0-1.41-2.61l1-.37a11.92,11.92,0,0,1,1.43,2.58Zm2-.71a13.44,13.44,0,0,0-1.39-2.62l.92-.34a10.26,10.26,0,0,1,1.41,2.53Z"/><path d="M404.07,251.09h13.49v1.23H404.07Z"/><path d="M430.58,246.73l.87.75A16,16,0,0,1,428,255a12.66,12.66,0,0,1-3.33,2.54,15,15,0,0,1-3.23,1.3l-.66-1.11a12.91,12.91,0,0,0,6.32-3.62,25.29,25.29,0,0,0-4.19-3.14l.74-.91a23.91,23.91,0,0,1,4.22,3,14.12,14.12,0,0,0,2.16-5.23h-5.76a13.76,13.76,0,0,1-4.3,4.41l-.85-.89a12.1,12.1,0,0,0,5.18-6.44l1.23.32,0,0c-.23.56-.43,1-.62,1.41Z"/><path d="M433.51,251.09H447v1.23H433.51Z"/><rect x="328.5" y="273.67" width="22.33" height="22.33" rx="2"/><rect class="cls-5" x="328.5" y="273.67" width="22.33" height="22.33" rx="2"/><rect class="cls-1" x="339.09" y="276.81" width="1.04" height="16.47"/><path class="cls-1" d="M334.22,279.56a1.38,1.38,0,1,0-1.38-1.38A1.37,1.37,0,0,0,334.22,279.56Z"/><path class="cls-1" d="M336.9,281.52c-.28-.94-.9-1.57-1.61-1.57h-2.15c-.7,0-1.33.63-1.61,1.57l-1,3.59a.57.57,0,0,0,.41.69.55.55,0,0,0,.68-.4l1-3.59h.3l-1.76,6.24h1.66v4.62a.64.64,0,0,0,1.28,0v-4.62h.35v4.62a.64.64,0,0,0,.64.64.64.64,0,0,0,.64-.64v-4.62h1.54l-1.76-6.24h.3l1,3.59a.55.55,0,0,0,.68.4.56.56,0,0,0,.41-.69Z"/><path class="cls-1" d="M345.21,279.56a1.38,1.38,0,1,0-1.38-1.38A1.37,1.37,0,0,0,345.21,279.56Z"/><path class="cls-1" d="M346.9,280h-3.61a1.54,1.54,0,0,0-1.39,1.39V286a.6.6,0,1,0,1.2,0v-3.8h.28v10.32a.8.8,0,1,0,1.59,0v-6h.25v6a.8.8,0,1,0,1.59,0V282.16h.28V286a.61.61,0,1,0,1.21,0v-4.62A1.55,1.55,0,0,0,346.9,280Z"/><path d="M361.36,277.32h1.31v4.45a48.83,48.83,0,0,1,7.66,2.93l-.65,1.19a48.39,48.39,0,0,0-7-2.87v8h-1.31Z"/><path d="M377.77,290.93v-8.26a27.24,27.24,0,0,1-5.68,2.88l-.7-1.12a23.07,23.07,0,0,0,6-3,24.53,24.53,0,0,0,4.51-4.1l1.1.69a32.28,32.28,0,0,1-3.93,3.69v9.21Z"/><path d="M385.5,277.5h1.31v11.93a16.78,16.78,0,0,0,6.42-3.6,13.47,13.47,0,0,0,3-3.71l.83,1.23a17,17,0,0,1-4.16,4.39,20.82,20.82,0,0,1-6.54,3.23l-.88-.88Z"/><path d="M330,69H358v3.51A122.1,122.1,0,0,0,349.66,91a117.21,117.21,0,0,0-4.78,16.9h-4.62a106.9,106.9,0,0,1,5.9-19.43,148.14,148.14,0,0,1,7-15.47h-19v8.6H330Z"/><path d="M376,67.41H386.8l1.88,1.69a102.82,102.82,0,0,1-4.27,13.31,21.16,21.16,0,0,1,4.39,12.65,11.14,11.14,0,0,1-.54,3.9q-.92,2.3-4.15,2.29a15.31,15.31,0,0,1-2.81-.26l-.82-3.44a19.54,19.54,0,0,0,3,.28c.86,0,1.39-.28,1.57-.84a8.44,8.44,0,0,0,.24-2.42,19,19,0,0,0-4.27-11.76,78.55,78.55,0,0,0,3.73-12.14h-5.32v40.57H376Zm15.12,14.86V66.12h3.52v5.46h8.6v3.16h-8.6v6.85q4-.82,8.39-2l.25,2.93a108.32,108.32,0,0,1-14.6,3.63l-1.17-3.21C389.14,82.64,390.34,82.42,391.14,82.27ZM400,89a26.13,26.13,0,0,0,1.45-4.52l3.57.63a28.11,28.11,0,0,1-1.6,3.89H417v22.2h-3.71v-2.56H395.08v2.56h-3.7V89Zm-4.92,3V97.2h18.23V92Zm0,8.11v5.53h18.23v-5.53Zm13.1-28.24a47.34,47.34,0,0,0,8.7-3.43l2.24,2.89a58.74,58.74,0,0,1-10.94,3.56v5.41c0,.85.26,1.34.77,1.48a15.17,15.17,0,0,0,3.17.21,16.2,16.2,0,0,0,3.33-.23c.65-.18,1.08-.79,1.28-1.83a26.31,26.31,0,0,0,.33-3.47l3.26,1.1c0,.34-.05.84-.09,1.48a13.06,13.06,0,0,1-.68,3.84,3.42,3.42,0,0,1-2.89,2,42.14,42.14,0,0,1-5.25.23q-4.26,0-5.41-.75a3.29,3.29,0,0,1-1.27-3V65.81h3.45Z"/><line class="cls-6" x1="1005.5" y1="308.5" x2="1011.5" y2="308.5"/><line class="cls-7" x1="1023.1" y1="308.5" x2="1063.7" y2="308.5"/><line class="cls-6" x1="1069.5" y1="308.5" x2="1075.5" y2="308.5"/><line class="cls-6" x1="1005.5" y1="772.5" x2="1011.5" y2="772.5"/><line class="cls-8" x1="1022.3" y1="772.5" x2="1060.1" y2="772.5"/><line class="cls-6" x1="1065.5" y1="772.5" x2="1071.5" y2="772.5"/><path d="M1055.4,526v3.72h-12.2v1.54H1056v1h-7.69a21.94,21.94,0,0,1-1.54,2l2.56-.06c1.11,0,2.36-.09,3.75-.17-.32-.29-.77-.65-1.34-1.1l1-.63a22.75,22.75,0,0,1,3.17,2.76l-1.09.83c-.29-.35-.59-.68-.88-1-1,.1-2.22.2-3.76.29V537h5.21v1h-5.21v2h6.38v1.09h-13.7v-1.09h6v-2h-5v-1h5V535.3l-1.89.08-2.83.11-.35-1.14h1.48a18.5,18.5,0,0,0,1.52-2.05h-3.65v.58a37.19,37.19,0,0,1-.25,4.94,10.35,10.35,0,0,1-1.34,3.77l-1.09-1a9.49,9.49,0,0,0,1.18-3.68,43.77,43.77,0,0,0,.18-4.64V526Zm-1.31,1H1043.2v1.66h10.89Z"/><path d="M1065.69,530.53H1072v1.24h-6.32v7.33h7.93v1.25h-16.18V539.1h6.84V525.5h1.41Z"/><path d="M1074.8,531.41h14.4v1.22H1083a11.6,11.6,0,0,1-1.12,5.3,7.21,7.21,0,0,1-3.59,2.81l-.85-1.09a6.07,6.07,0,0,0,3.48-2.87,11,11,0,0,0,.72-4.15h-6.8Zm1.82-4.58h10.52V528h-10.52Z"/><path d="M1091.15,530.84h13.28a13.1,13.1,0,0,1-1.66,5.67,7.45,7.45,0,0,1-3.19,2.77,16.53,16.53,0,0,1-4.62,1.31l-.61-1.22a11.27,11.27,0,0,0,6-2.16,7.76,7.76,0,0,0,2.46-5.17h-11.63Zm1.19-4h10.51V528h-10.51Z"/><path d="M1107.89,527.38h9.71l.83.76a26.58,26.58,0,0,1-3.3,6,40.82,40.82,0,0,1,5.22,4.89l-1,1.12a53.68,53.68,0,0,0-5-5,18.05,18.05,0,0,1-6.78,5.08l-.78-1.2a16.73,16.73,0,0,0,6.68-4.87,18.81,18.81,0,0,0,3.3-5.56h-8.87Z"/></svg>